<?xml version="1.0" encoding="utf-8"?>
<!-- Generator: Adobe Illustrator 25.0.0, SVG Export Plug-In . SVG Version: 6.00 Build 0)  -->
<svg version="1.1"
	 id="Layer_1" xmlns:cc="http://creativecommons.org/ns#" xmlns:dc="http://purl.org/dc/elements/1.1/" xmlns:rdf="http://www.w3.org/1999/02/22-rdf-syntax-ns#"
	 xmlns="http://www.w3.org/2000/svg" xmlns:xlink="http://www.w3.org/1999/xlink" x="0px" y="0px" viewBox="0 0 788.7 676.1"
	 style="enable-background:new 0 0 788.7 676.1;" xml:space="preserve">
<style type="text/css">
	.st0{fill:#E3D4AD;}
	.st1{fill:#A71930;}
</style>
<g transform="translate(.86298 -1.1506)">
	<path class="st0" d="M545.2,576.1l-73.6,101.2h316.2L636.7,1.2l0,0L426.4,1.3l-427.2,676h337.1l-48.3-101.6L392,400.9
		c2.7,10.8,8.2,32.1,9,35.4c-5.3,9.2-85.8,148.5-85.8,148.5l124.2-102.7c2,2.4,88,106.7,88,106.7S487,453.8,484.3,444.6
		c2.1-3.3,15.6-24.9,24.1-38.6L545.2,576.1z M395.7,394.7l66.4-111.4h19.6l24.1,111.4H395.7z"/>
	<path d="M500.5,664l62-84.9l-69-308h-39.8L270.8,576l42.6,87.9H44.1L66,650.3h223.3l-36-74l192.8-317.2l59.8,0l72.3,323.3
		l-50.3,68.1h225.4L614.5,27.8H457.8l-9-13.8l0,0l177.3,0.1l144.5,649.9L500.5,664z M248.2,522.1l-41.5-98.8l132.3-82.9l-45.5-81.5
		l127.9-61.8l-41.3-72.7l98.5-43.8l-36-52.9l-8.3-12.3v0L23.5,663.7l201.4-126.8L248.2,522.1z"/>
	<path class="st1" d="M469.3,442.6c2.2,7.4,25.5,85.1,25.5,85.1s-47-57-53.5-64.9c-9.4,7.8-75.9,62.7-75.9,62.7s46.6-80.7,50.4-87.2
		c-1.4-5.5-7.6-29.9-7.6-29.9l0,0h82.5C490.7,408.4,472.7,437.1,469.3,442.6z M753.2,650.6L614.5,27.8H457.8l0,0l38.6,59.3
		l-97.3,43.8l41.9,72.6l-127.9,61.2l42.8,79.3l-132.3,83.4l40.8,100L66,650.3h223.3l-36-74l192.8-317.2l59.8,0l72.3,323.3
		l-50.4,68.1H753.2z"/>
</g>
</svg>
