<?xml version="1.0" encoding="utf-8"?>
<!-- Generator: Adobe Illustrator 25.0.0, SVG Export Plug-In . SVG Version: 6.00 Build 0)  -->
<svg version="1.1" id="Layer_1" xmlns="http://www.w3.org/2000/svg" xmlns:xlink="http://www.w3.org/1999/xlink" x="0px" y="0px"
	 viewBox="0 0 887.6 838.8" style="enable-background:new 0 0 887.6 838.8;" xml:space="preserve">
<style type="text/css">
	.st0{fill:#DC4128;}
	.st1{fill:#231F20;}
	.st2{fill:#FEFEFE;}
</style>
<g>
	<path class="st0" d="M885.2,117.3c-6.2-25.5-18.2-46.2-42.9-57.8c-15.5-7.3-31.9-8.9-48.6-8.2c-43.9,1.8-86.6,11-129.3,19.9
		C616.2,81.3,568.2,91.7,519.4,98c-11.7,1.5-18.9-0.6-27.4-9.4c-42.8-44.7-95.8-67-157.7-68.3c-5-0.1-10,0-14.3-3.2
		C302.9,4.5,283.7-1.2,262.5,0.2C214.9,3.3,180,25.8,158.9,68.8c-1.7,3.4-3.5,6.1-6.5,8.1c-16.4,11.1-30.9,24.5-44.6,38.7
		C74.3,150.5,56.4,192,55.3,240.6c-0.8,35.5,6.5,69.4,20.2,101.9c2.8,6.7,2.5,10.3-3.6,15.2c-23.7,19.2-42.9,42.1-55.8,69.6
		C3.5,453.8-2.4,481.6,0.9,511c0.5,4.8,1.3,7.5,7.2,5.9s12.2-2,18.2-3.1c4.5-0.8,6.3,0.3,6.2,5.4c-0.3,17.8,1.4,35.6,4.2,53.2
		c14,87.8,57.2,157.1,131.4,206.4c62.6,41.6,132.5,59.1,204.6,60.1c60.4-0.5,116.2-11.4,168-38.5c70.7-37,116.8-93.3,133.7-172.3
		c4.8-22.8,10.9-45.2,18.4-67.3c11.1-32.6,27.1-61.7,56.2-81.9c19.4-13.4,41.1-21.8,63.7-27.8c6.7-1.8,13.2-4,18.8-8
		c12.3-8.8,15.2-21,8-34.2c-4.4-8.4-11-14.9-18.4-20.5c-27-20.1-58.5-28.8-91.1-34.2c-31.3-5.2-62.9-5.8-94.5-3
		c-6.3,0.5-9.7-0.5-10.6-7.4c-1-6.8-2.9-13.5-4.7-20.1c-1.5-5.4,0.2-7.2,5.7-8.5c54.9-13,108.2-30.7,157.9-58.1
		c31.2-17.2,60.4-37.1,82.8-65.3C884,170,892,145.6,885.2,117.3z"/>
	<path class="st1" d="M814.8,105c-7.5-2.3-15.3-2.8-23.2-2.5c-35.5,1.5-69.9,10-104.6,17.2c-43,9-85.6,19.5-129.2,25.8
		c-24.4,3.5-49.1,5.5-73.2,11.3c-5,1.2-7-0.1-9.3-4.3c-14.8-26.5-36.3-46-63.4-59.6c-26-13-53.8-17.8-82.7-18.7
		c-15.6-0.5-30.6-3.7-42.9-14.6c-3.4-3.1-8.3-4.4-13.1-5.1c-23-3.1-50.9,10.5-62.4,30.7c-1.3,2.2-2.4,4.7-3,7.2
		c-2.1,9.3-7.5,16.2-15,21.8c-9.1,6.8-18.2,13.7-27,20.9c-22.6,18.5-41.3,40-50.4,68.4c-8.8,27.5-7.9,55.3-1.3,83
		c4.9,20.6,11.3,40.7,22.1,59.1c31.7-4.6,62.4-13.3,92.4-24.5c0.6,2.2-0.5,2.7-1.5,3.2c-26.1,13.9-52.4,27.7-78.6,41.5
		c-0.8,0.5-1.8,0.6-2.7,0.8c-15.9,9.7-31,20.1-44.6,32.9c-16.4,15.6-30,33-38.4,54.2c-1.8,4.5-1.6,6.5,4.1,5.9
		c7.3-0.8,14.7-0.8,22-1.6c5.1-0.5,5.5,1.4,4.3,5.7c-12.5,45.4-8.9,90.5,3.8,134.9c23.6,83,79.4,136.9,158.5,167
		c68.1,25.9,138.1,28.4,208.4,9c45.6-12.6,85.7-34.6,117.3-70.6c1.2-1.4,3.4-2.5,2.7-5.5c-3.2,1.8-6,3.4-8.9,5.1
		c-50.3,28.3-103.7,44.4-162.1,40.1c-53.7-3.9-101.1-22.8-141-59.2c-35.5-32.4-54.4-72.3-51-120.9c2.1-30.1,14.3-55.5,40.8-72.1
		c21.1-13.3,43.8-13,67.3-7.4c32.5,7.7,65.3,13.1,98.8,8.5c27.3-3.8,48.4-16.2,59.1-42.9c1.4-3.4,2.9-3.8,6.4-3.1
		c16.9,2.8,34,2.4,49.6-5.2c44.2-21.7,90.9-27.8,139.3-24.1c10.3,0.8,20.8,1.6,31.9,4.8c-4.3,2.6-7.5,4.6-10.7,6.5
		c-34.9,20.8-62.1,49.9-87.4,80.9c-29.4,36.1-64.7,63-110.2,75.8C456,599,406.8,600,358,581.9c-17.7-6.6-34.3-15.2-46.4-30.6
		c-9.8-12.5-7.4-24.4,6.4-31.9c4-2.2,8.3-3.5,12.7-4.5c4.1-0.9,8.3-1.9,12-4.3c2.2-1.5,4.8-3.1,4-6.1c-0.8-2.5-3.7-2.6-6.1-2.6
		c-19.4,0.5-38.5,3-55.7,12.6c-17.2,9.7-26.4,24.1-26.2,44.1c0.2,23.5,10.3,43.6,21.6,63.3c0.2,0.4,0.5,0.8,0.8,1.1
		c3.2,2.8,7.4,3.1,10.6,1.4c2.8-1.5-0.2-4.7-0.9-6.8c-2.7-7.4-5.3-14.8-6.8-22.4c-1.8-9.3-3.9-18.7,0.7-27.9
		c1.9-3.8,3.5-5.1,7.3-1.5c4.3,4.1,9,7.8,13.9,11.2c58.7,40.1,122.9,48.3,190.6,30.9c58.3-14.9,104.5-49,140.8-96.3
		c27.3-35.5,59.4-65.2,99.7-85.4c6.4-3.2,13-6.1,20.8-9.7c-2.2-0.8-3.1-1.1-3.9-1.3c-17.6-4.1-35.4-7.2-53.3-9.1
		c-37.7-4-75.3-5.5-112.6,3.1c-5.6,1.3-7.4,0.2-7.8-5.7c-2.3-36.3-5.5-72.5-21.7-106c-3.2-6.7-0.8-11.7,5.7-15.4
		c5.4-3.1,11.3-5,17.3-6.5c31.3-8,62.4-16.5,93-27c45.8-15.6,89.9-35,129-64c13.6-10.1,24.6-22.4,30.6-38.5
		C841,128.1,832.5,110.4,814.8,105z M231.1,104.5c-3.6,1.4-3.4-0.5-2.8-3.1c5.3-25,32.3-33.5,52.2-15.6
		C263.8,92.1,247.5,98.3,231.1,104.5z M420.6,146.4c2.2-2.2,4.4-5.3,7.7-0.5c2.1,3,5.7,4.9,8.3,7.7c5.2,5.7,4.2,13.9-1.9,17.9
		c-3.1,2-6.4,2.5-9-0.4c-2.7-2.9-2.1-6.9,0.7-8.9c7.7-5.5,0.8-6.8-2.4-10.3c-3,11.4-0.1,23.2-6.8,32.9c-1.1,1.5-2.5,2.9-4.3,3.4
		c-1.8-1.4-1.5-3.4-0.6-4.4c7.1-9,5.4-19.8,6.7-30C419.1,151.2,418.6,148.3,420.6,146.4z M411.7,135.6c2.6,3.7,6.4,6.3,2.8,10.6
		c-1.1,1.3-3.1,2.8-4.1,1.4C407.4,143.8,409.6,140.2,411.7,135.6z M338.9,135c0.9-2.8,0.7-5.5,0.4-8.3c-1.3-10.9,3.5-20.1,12.3-24.3
		c9.7-4.6,18.9-2.5,27.1,5.7c7.2,7.2,11,16.5,15.1,25.5c4-1,3.9-8.7,8.4-4.9c3.3,2.8-1.1,6.4-3.3,8.8c-2.6,2.9-1.7,5.6-1,8.6
		c3.4,14,4.4,28.1,0.8,42.3c-0.8,3.4-2.1,6.8-3.7,10c-8.9,17.7-27.7,20.8-41.7,6.6c-9.7-9.8-14.4-22.2-16.9-35.5
		C334.4,157.9,335.1,146.3,338.9,135z M451.8,441.8c-8.4,28.7-32.7,36.1-56.3,17.8c-5.1-3.9-9.4-8.5-13.5-13.7
		c1.9-1.1,3.6-0.6,5.4-0.1c16.3,5,28-3.9,26.8-21.1c-1.1-15.9-7.9-29.3-21.1-38.7c-13-9.3-23.8-7.2-32.6,6.7
		c-2.5-17.2-1.6-33.2,6.9-48c9-15.6,24.6-20.5,40.9-12.6c15.5,7.4,25.7,20,33.4,34.9C453.6,390.6,459.5,415.5,451.8,441.8z
		 M547.3,399.2c-3.1,14.5-10.2,27.3-25.9,31.2c-15.6,3.8-27.5-4.4-37.8-14.9c-2.4-2.5-5.1-4.8-6.4-8.4c20.6,4.8,30.4-4.4,27.2-25.7
		c-1.8-11.6-7.4-21.4-16.6-29c-11.3-9.2-21-8.1-30.5,4c-1.9-19.2-1.3-37.1,9.3-53.2c9.6-14.4,25.1-18.2,40.6-10.4
		c7.1,3.6,13.3,8.5,18.1,14.7C546.6,334.7,554.7,365.3,547.3,399.2z M407.6,279.8c-19.5-1.2-39.2-3.4-58.4-8.2
		c-4.1-1-8.4-2.1-9.5-6.4c-1.1-4.4,2.8-7.3,5.9-9.7c24.3-19,50.5-34.7,78.1-48.2c39-19.2,80.2-29.4,123.3-35
		c60-7.7,119.3-20.4,178.5-32.7c7.8-1.6,15.6-3.4,23.4-5.1c0.2,0.4,0.4,0.8,0.6,1.2c-7.5,4.7-14.9,9.6-22.4,14.2
		c-34.9,21.7-68.8,44.8-103,67.6C558.5,261,487,284.8,407.6,279.8z M806.6,142.9c-4.4,8.3-11.7,13.6-19,18.9
		c-26.7,19.5-56.4,33.1-86.8,45.4c-9.3,3.8-18.6,8-29.2,8.9c12.3-8.4,24.4-16.9,36.8-25.1c28.3-18.8,56.2-38.1,86-54.5
		c1.5-0.8,2.9-1.8,4.4-2.2c2.8-0.9,5.7-4.2,8.3-1.3C809.9,135.9,808.4,139.6,806.6,142.9z M362.6,195.3
		c-8.3-10.2-12.8-22.1-12.6-35.4c0-0.9,0-1.9,0-2.8c0.3-9.2,0.3-9.2,8.8-6.4c6.8,2.2,13.7,1.9,20.1-1c4.1-1.8,6-1.2,6.8,3.3
		c1.9,10.5,3.5,21.1,1.9,31.8c-0.3,2.1-0.7,4.2-1.4,6.2C382,203.6,371.1,205.7,362.6,195.3z M432.6,161.6c1.9-0.2,1.8,1.8,1.9,3.1
		c-0.2,2.8-1.7,4.6-4.3,4.8c-1.9,0.2-3.3-1.3-3-3.1C427.7,163.6,429.9,161.8,432.6,161.6z M351.7,120.7c0.8-5.9,4.1-9.3,10-10
		c3.7,0.3,6.3,2.1,8.5,4.7c5.4,6.4,8.3,14.2,11.3,22c1.3,3.6-0.3,5-3.8,5.9C365,146.7,349.9,133.6,351.7,120.7z"/>
	<path class="st2" d="M228.7,320.9c0.6,2.2-0.5,2.7-1.5,3.2c-26.3,13.9-52.6,27.7-78.8,41.5c-0.8,0.5-1.8,0.6-2.7,0.8
		c-2.6-7.3-7.7-13.4-9.4-21.1C168.1,340.9,198.7,332.1,228.7,320.9z M525.3,307.5c-4.9-6.2-11-11.1-18.1-14.7
		c-15.5-7.8-31-4.1-40.6,10.4c-10.6,16.1-11.3,34-9.3,53.2c9.5-12.1,19.2-13.2,30.5-4c9.3,7.5,14.9,17.3,16.6,29
		c3.3,21.3-6.6,30.5-27.2,25.7c1.2,3.5,3.9,6,6.4,8.4c10.4,10.6,22.3,18.8,37.8,14.9c15.7-3.9,22.8-16.7,25.9-31.2
		C554.7,365.3,546.6,334.7,525.3,307.5z M408.2,332c-16.3-7.7-31.9-3-40.9,12.6c-8.4,14.8-9.3,30.9-6.9,48
		c8.9-13.9,19.6-16,32.6-6.7c13.2,9.4,20,22.8,21.1,38.7c1.1,17.2-10.5,26-26.8,21.1c-1.8-0.5-3.4-1-5.4,0.1
		c4.1,5.1,8.5,9.7,13.5,13.7c23.7,18.4,47.9,11,56.3-17.8c7.7-26.3,1.8-51.2-10.3-74.9C433.9,352,423.7,339.3,408.2,332z"/>
</g>
</svg>
