<?xml version="1.0" encoding="utf-8"?>
<!-- Generator: Adobe Illustrator 25.0.0, SVG Export Plug-In . SVG Version: 6.00 Build 0)  -->
<svg version="1.1" id="Layer_1" xmlns="http://www.w3.org/2000/svg" xmlns:xlink="http://www.w3.org/1999/xlink" x="0px" y="0px"
	 viewBox="0 0 606.7 606.7" style="enable-background:new 0 0 606.7 606.7;" xml:space="preserve">
<style type="text/css">
	.st0{fill:#BD3039;}
	.st1{fill:#FFFFFF;}
	.st2{fill:#051C43;}
</style>
<g>
	<path class="st0" d="M303.4,15.6c-159.9,0-289.5,129.6-289.5,289.5s129.6,289.5,289.5,289.5S592.9,465,592.9,305.1
		C592.8,145.2,463.2,15.6,303.4,15.6z"/>
	<path class="st1" d="M139.4,447c-3.8-4-2.5-11.7,1.8-15.7c4.4-4.1,10.5-3.3,14.3,0.7c3.8,4.1,4,10.3-0.3,14.3
		C150.9,450.4,143.2,451.1,139.4,447z M564.1,304.1c0,143.9-116.6,260.5-260.5,260.5S43.1,448,43.1,304.1S159.7,43.5,303.6,43.5
		S564.1,160.2,564.1,304.1z M392.9,150c18.6,10.3,42,3.6,52.3-14.9c10.3-18.6,3.6-42-14.9-52.3c-18.6-10.3-42-3.6-52.3,14.9
		S374.3,139.6,392.9,150z M456.6,279.1l11.2-6.5c0.3-0.2,0.4-0.5,0.2-0.8c-0.2-0.3-0.5-0.4-0.8-0.2l-11.7,6.7
		c-0.3,0.2-0.4,0.5-0.2,0.8l7,12.5c0.1,0.2,0.3,0.3,0.5,0.3c0.1,0,0.2,0,0.3-0.1c0.3-0.2,0.4-0.5,0.2-0.8L456.6,279.1z M456.1,266.1
		c-0.2-0.3-0.5-0.3-0.8-0.1l-16.6,11.7c-0.3,0.2-0.3,0.5-0.1,0.8l9.1,13.2c0.1,0.2,0.3,0.2,0.5,0.2c0.1,0,0.2,0,0.3-0.1
		c0.3-0.2,0.3-0.5,0.1-0.8l-8.8-12.8l16.2-11.4C456.2,266.7,456.3,266.4,456.1,266.1z M439.5,264.9c-0.2-0.2-0.6-0.3-0.8-0.1
		l-16.4,14c-0.2,0.2-0.3,0.5-0.1,0.8l10.7,13.7c0.1,0.1,0.3,0.2,0.4,0.2c0.1,0,0.2,0,0.3-0.1c0.2-0.2,0.3-0.5,0.1-0.8l-10.4-13.3
		l16-13.7C439.7,265.5,439.7,265.1,439.5,264.9z M426,264.3c-0.2-0.2-0.5-0.3-0.8-0.1l-20.8,17.4c-0.1,0.1-0.2,0.2-0.2,0.4
		c0,0.2,0,0.3,0.1,0.4l11.9,13.2c0.1,0.1,0.3,0.2,0.4,0.2c0.1,0,0.3,0,0.4-0.1c0.2-0.2,0.2-0.6,0-0.8l-11.5-12.8l20.3-17
		C426.1,264.9,426.2,264.5,426,264.3z M390.3,285.9l18.3-19.6c0.2-0.2,0.2-0.6,0-0.8c-0.2-0.2-0.6-0.2-0.8,0l-18.7,20
		c-0.2,0.2-0.2,0.6,0,0.8l13.2,13c0.1,0.1,0.2,0.2,0.4,0.2c0.1,0,0.3-0.1,0.4-0.2c0.2-0.2,0.2-0.6,0-0.8L390.3,285.9z M390.1,302.6
		l-14.6-12.1l17.3-21.9c0.2-0.2,0.1-0.6-0.1-0.8s-0.6-0.2-0.8,0.1l-17.6,22.3c-0.2,0.2-0.2,0.6,0.1,0.8l15,12.5
		c0.1,0.1,0.2,0.1,0.4,0.1c0.2,0,0.3-0.1,0.4-0.2C390.4,303.1,390.3,302.8,390.1,302.6z M371.6,273.4l-13.5,24.1
		c-0.1,0.2-0.1,0.6,0.2,0.7c4.2,3.1,15.1,11.3,15.5,11.6c0.1,0.1,0.2,0.1,0.4,0.1c0.1,0,0.3-0.1,0.4-0.2c0.2-0.2,0.2-0.6,0-0.8
		c-0.3-0.2-11.2-8.4-15.2-11.4l13.2-23.7c0.1-0.3,0.1-0.6-0.2-0.8C372.1,273.1,371.8,273.2,371.6,273.4z M219.1,90.4
		c4.3,14,13.9,14,30.5,15.5c17.1,0.4,11.1,10.1,6.4,11.4c-5.2,1.5-10.1-2.3-11.6-4c-1.6-1.7-1.7-1.9-1.7-1.9s-11.8,3.4-14.1,4.1
		c0,0,6,20.6,6.7,23.1L251,134l-0.7-2.5c2.5,0.1,6.1,2.3,16.4-0.7c11.1-3.2,19-12.6,14.7-26.6S266.2,87,249.5,85.5
		c-17.1-0.4-12-9.8-7.2-11.2c5.2-1.5,8.8,2.6,10.4,4.4c1.6,1.7,1.8,1.9,1.8,1.9s10.1-2.9,12.3-3.6c0,0-5.9-20.4-6.6-22.9l-14.1,4.1
		l0.6,2.3c-2.5-0.1-2.2-1.8-12.5,1.1C223.2,64.9,214.8,76.3,219.1,90.4z M270.2,441.4c0.3-0.2,0.3-0.5,0.2-0.8
		c-0.2-0.3-0.5-0.3-0.8-0.2l-16.2,10L240.7,437c-0.2-0.2-0.6-0.2-0.8,0c-0.2,0.2-0.2,0.6,0,0.8l13.1,13.8c0.1,0.1,0.3,0.2,0.4,0.2
		c0.1,0,0.2,0,0.3-0.1L270.2,441.4z M267.8,454.4c-0.1-0.3-0.5-0.4-0.8-0.2l-14.4,7.7l-12.2-9.9c-0.2-0.2-0.6-0.2-0.8,0.1
		c-0.2,0.2-0.2,0.6,0.1,0.8l12.5,10.1c0.1,0.1,0.2,0.1,0.3,0.1c0.1,0,0.2,0,0.3-0.1l14.7-7.9C267.8,455,267.9,454.7,267.8,454.4z
		 M273.1,428.9c0.3-0.1,0.4-0.5,0.3-0.7c-0.1-0.3-0.5-0.4-0.7-0.3l-17.7,8.2l-11.8-17.5c-0.2-0.3-0.5-0.3-0.8-0.2
		c-0.3,0.2-0.3,0.5-0.2,0.8l12.1,17.9c0.1,0.2,0.3,0.2,0.5,0.2c0.1,0,0.2,0,0.2-0.1L273.1,428.9z M228.4,256.1l-7.6,22
		c-0.1,0.3,0.1,0.6,0.3,0.7c0.1,0,0.1,0,0.2,0c0.2,0,0.4-0.1,0.5-0.4l7.8-22.4c0.1-0.3,0-0.5-0.2-0.7c-6.8-3.9-17.1-9.8-17.5-10.1
		c-0.2-0.2-0.6-0.2-0.8,0.1c-0.2,0.2-0.2,0.6,0.1,0.8C211.4,246.3,221.9,252.3,228.4,256.1z M214.9,264.4l-7.6,22
		c-0.1,0.3,0.1,0.6,0.3,0.7c0.1,0,0.1,0,0.2,0c0.2,0,0.4-0.1,0.5-0.4l7.8-22.4c0.1-0.3,0-0.5-0.2-0.7c-6.8-3.9-17.1-9.8-17.5-10.1
		c-0.2-0.2-0.6-0.2-0.8,0c-0.2,0.2-0.2,0.6,0,0.8C197.9,254.6,208.4,260.6,214.9,264.4z M197.9,272.1l-9.2,21.4
		c-0.1,0.3,0,0.6,0.3,0.7c0.1,0,0.1,0,0.2,0c0.2,0,0.4-0.1,0.5-0.3l9.3-21.8c0.1-0.2,0-0.5-0.2-0.7c-6.5-4.4-16.4-11-16.8-11.3
		c-0.2-0.2-0.6-0.2-0.8,0s-0.2,0.6,0,0.8C181.6,261.1,191.6,267.9,197.9,272.1z M181.7,278.4l-9.4,18.7c-0.1,0.3,0,0.6,0.2,0.7
		c0.1,0,0.2,0.1,0.2,0.1c0.2,0,0.4-0.1,0.5-0.3l9.6-19.1c0.1-0.2,0.1-0.5-0.2-0.7c-6.2-4.8-15.6-12-16-12.4c-0.2-0.2-0.6-0.2-0.8,0
		c-0.2,0.2-0.2,0.6,0,0.8C166.2,266.5,175.8,273.8,181.7,278.4z M167.6,282.8l-12.3,16.9c-0.2,0.2-0.1,0.6,0.1,0.8
		c0.1,0.1,0.2,0.1,0.3,0.1c0.2,0,0.3-0.1,0.5-0.2l12.5-17.3c0.2-0.2,0.1-0.5-0.1-0.7c-5-5.1-12.5-12.8-12.8-13.2
		c-0.2-0.3-0.5-0.3-0.8-0.2c-0.3,0.2-0.3,0.5-0.2,0.8C155.2,270,161.9,276.9,167.6,282.8z M147.9,151.3c13,16.8,37.2,19.9,54,6.9
		c16.8-13,19.9-37.2,6.9-54c-13-16.8-37.2-19.9-54-6.9C137.9,110.3,134.8,134.5,147.9,151.3z M95.6,201l13.1,8.7l13.1,8.7
		c2.5,1.7,3,3.3,1.5,5.5l-1.8,2.8l13.9,9.3c2.9-4.4,23.2-34.8,26.5-39.8c14.7-22-14.1-38-24.9-32.6c-0.9-10.4-22.9-28.2-37.6-6.2
		c-3.3,5-22.3,33.5-25.2,37.8l14,9.3l1.9-2.8C91.4,199.5,93.2,199.3,95.6,201z M152.6,286.1l-13.8,15.7c-0.2,0.2-0.2,0.6,0.1,0.8
		c0.1,0.1,0.2,0.1,0.4,0.1c0.2,0,0.3-0.1,0.4-0.2l14.1-16.1c0.2-0.2,0.2-0.5,0-0.7c-4-5.4-10.1-13.5-10.3-13.9
		c-0.1-0.3-0.5-0.4-0.7-0.2c-0.3,0.1-0.4,0.5-0.2,0.7C142.6,272.7,149.4,281.8,152.6,286.1z M144.6,490.7c-6.9-5.6,0.5-11,2-11.7
		c-1.8-2.3-0.9-6.7,1-8.5c1.9-1.8,2.6-6,4-8.8c4.4-0.1,9.3-2.7,11.6-5.6c1.3-1.6,6.3-1.4,7.6-1.1c-1.7-3.8,1.7-7,3.7-20.3
		s-12.3-17.5-16.8-18.4c-1.8-5.8-3.7-8.8-8.4-12.3c-0.6,3.5-4.6,7.9-8.7,12c-4,4.1-13.8,7.5-17.7,7.9c-1,5.9-6.7,11.3-11.7,15.9
		c-5,4.6-14.2,7.8-18.7,9.2c4.2,5.7,6.1,6.2,8.4,7.9c1.8,7.3,5.2,10.6,8.1,11.4c7.4-15.1,17.2-20.7,23.5-14
		c7.3,7.9-2.6,14.2-7.7,12.5c0.9,6-4.1,17.1,0.9,22.5C130.7,494.7,142.7,491.8,144.6,490.7z M193.5,476.3c4.3-6,16.4-7.3,17.4,4
		s9.5,9,11.3,5.8c1.1-2.1,0.1-7,2.8-8s3.1-3,4.9-7.4c-4.1,2.6-8.1,1-10.7-3.1c-2.6-4.1-2.5-6-4.7-7.5c-2-1.4-10.1-0.7-11.2-5
		c-1.1-4.3-7.2-7.1-11.2-9.6c-1,5-3.6,11.9-7,16.6c-3.3,4.7-9.1,7.4-13.7,9.3c-1.6,4-2.3,11.8-6.3,17.4c-3.9,5.6-8.1,9.7-18.6,14.4
		c0.7,4.4,3.6,7.7,10.9,9c5.5,8.1,9.3,10.5,17.7,11.3c6.4,0.6,9.3,6.3,12.7,11.9c2.3-4.1,1.9-7.4,4.3-11.1
		c4.9-7.4,7.7-11.8-0.3-10.5c-11.7,2-17.1-6.7-11.8-14.2s13.3-2,14,4.3c1.8-0.8,4.3-2.6,4.1-5.3c-0.1-2.2-0.1-2.1,2.2-3.4
		c2.3-1.2,2.7-5.4,3-8.1C194.2,494.7,189.2,482.3,193.5,476.3z M272.8,511c7.7-19.8,1.8-28.9-6.3-32.2c-8-3.2-11.6,1-16.9-1.2
		c-4.7-1.9-4.9-6.2-10.4-6.2c-0.4,3.9-4.9,24.1-16.7,28.9c5.2,11.7-8.5,31-13.5,36.4c7.5,0.7,8.3-0.9,13,1
		c5.4,2.2,7.6,9.6,15.6,12.8s19.5,0.8,27.6-18.8c2.8-3.4,4.1-10.9,7.8-11C270.5,518,272.5,515.3,272.8,511z M279.4,411.1
		c-0.1-0.3-0.5-0.4-0.7-0.3l-20.8,9.5l-11.3-17c-0.2-0.3-0.5-0.3-0.8-0.2c-0.3,0.2-0.3,0.5-0.2,0.8l11.5,17.4
		c0.1,0.2,0.3,0.2,0.5,0.2c0.1,0,0.2,0,0.2,0l21.3-9.7C279.4,411.7,279.5,411.4,279.4,411.1z M311.9,180.6l-11.5-17.4
		c-0.1-0.2-0.4-0.3-0.7-0.2l-22.3,8.1c-0.3,0.1-0.4,0.4-0.3,0.7c0.1,0.3,0.4,0.4,0.7,0.3l21.9-8l11.3,17c0.1,0.2,0.3,0.2,0.5,0.2
		c0.1,0,0.2,0,0.3-0.1C312,181.2,312,180.9,311.9,180.6z M316.6,167.9L305,148.2c-0.1-0.2-0.5-0.3-0.7-0.2l-20.7,9.4
		c-0.3,0.1-0.4,0.5-0.3,0.7c0.1,0.3,0.5,0.4,0.7,0.3l20.3-9.2l11.3,19.3c0.1,0.2,0.3,0.3,0.5,0.3c0.1,0,0.2,0,0.3-0.1
		C316.6,168.5,316.7,168.2,316.6,167.9z M320.2,153.1l-12.1-17.9c-0.2-0.2-0.4-0.3-0.7-0.2l-18.1,8.4c-0.3,0.1-0.4,0.5-0.3,0.7
		c0.1,0.3,0.5,0.4,0.7,0.3l17.7-8.2l11.8,17.5c0.1,0.2,0.3,0.2,0.5,0.2c0.1,0,0.2,0,0.3-0.1C320.3,153.7,320.3,153.4,320.2,153.1z
		 M326,127.9c6.5,0.9,16.3,2.2,19.4,2.6c0.4-2.9,1.6-12,2.4-17.7l-4.5-0.6c-2.1-0.3-2.7-0.9-2.3-3.7c0.4-2.9,4.2-31.7,4.7-34.8
		c1.6,0.2-0.3-0.1,3.7,0.5c3.3,0.4,5.3,8.7,6.5,11.6l10.4,1.4c0.3-2.3,3-22.7,3.7-27.7c-3.1-0.4-27.7-3.7-34.2-4.6
		c-6.5-0.9-31.1-4.2-34.2-4.6c-0.7,4.9-3.4,25.3-3.7,27.7l10.4,1.4c1.9-2.5,6-10,9.3-9.5c4,0.5,2.1,0.3,3.7,0.5
		c-0.4,3.1-4.3,31.9-4.7,34.8c-0.4,2.9-1.2,3.3-3.2,3l-4.5-0.6c-0.8,5.7-2,14.9-2.4,17.7C309.7,125.7,319.5,127,326,127.9z
		 M354.4,280.2c-0.3-0.1-0.6,0-0.7,0.3l-9.6,24.4c-0.1,0.3,0,0.6,0.3,0.7c0.1,0,0.1,0,0.2,0c0.2,0,0.4-0.1,0.5-0.4l9.6-24.4
		C354.8,280.6,354.7,280.3,354.4,280.2z M388,525.6c-0.7-4.4-3.3-12.1-11.2-15.4c-4.5-1.8-6.4-3.7-8-5.4c-3.4,1.5-4.6,2.6-7.4,2.8
		c-7.2,0.6-12.7-13.7-2.3-16.5c8.6-2.3,12.2,2.9,15.7,6.8c2.1-2.2,2.3-6.3-1.4-10c-3.7-3.6-3.1-4.3-2.1-6.7s0.4-4.5-4.2-8.4
		c-1.9,3-1.5,4.5-6.5,5.9c-5.1,1.4-5.1-2.9-14-0.5c-8.8,2.4-15.8,9-13.5,24.1c0.7,4.4,5.7,10.1,13.7,13.4c4.5,1.8,6.2,4,7.8,5.7
		c3.4-1.5,4-1.6,6.8-1.9c7.2-0.6,12.7,14.7,2.3,17.6c-8.6,2.3-18.7-4.9-22.2-8.9c-2.1,2.2-5,6.5-1.3,10.1s2,6.5,1.1,8.9
		c-1,2.4-0.6,4.8,4,8.7c1.9-3,3.3-6.9,8.3-8.2c5.1-1.4,9.2,3.7,18,1.3C380.4,546.7,390.3,540.6,388,525.6z M436.2,486
		c-1.7-3,0.1-6.7,0.7-8.2c-1.6-0.2-5.7-0.6-7.3-3.6c-1.4-2.5-14-30.2-36.2-17.8s-8.6,31.5-4.4,40c1.7,3,0.6,6.3-0.1,7.8
		c1.6,0.2,5,1,6.7,4c5.9,10.5,18.2,29.1,37.4,18.3C452.1,515.7,443.4,498.8,436.2,486z M514.1,450.6c-6.8,1.4-21.9-0.2-25.1-6.2
		c-4.8,0.4-14.1,0.1-18.4-4.1s-2.3-11.8-1.3-18.1c-7.8-5.8-6.3-14.2-5.1-26.6c-4.4,1.5-6,8.8-10.1,13.3c-5.7,4.3-7.4,3.8-10.5,5.8
		c5.2,5.9,10.2,7.6,6.2,21c-13.3,4.2-17.5-3.1-18.9-8.1c-2.4,3.2-3.6,6-5.6,10.6c-4.4,3-7.9,5.5-9.3,9.9c11.5-0.5,16.7-1.3,22.7,6.4
		c6.3-1.2,10.7-3.1,15,1.1s4,16.1,3.7,20.9c7.3,4.2,6.5,19.6,5.3,26.4c5.3-4,8.8-9,8.9-12.5c6.6-3.4,7.6-2.9,12.9-8.3
		c-3.9-2.4-14.1-11.4-9.2-21.7c10.1-5.1,19.4,4.9,21.9,8.8c5.3-5.4,2.7-4.3,6-11C506.7,458,510.2,456,514.1,450.6z M519.4,198
		l13.2-10.3l-18.2-23.3l-13.2,10.3l2.1,2.7c1.7,2.1,1.3,3.8-1.1,5.6l-13.7,10.7c1-3.8,12.8-46.3,11.6-47.8l-16.3-20.8l-15,11.7
		l2.1,2.7c1.6,2.1,1.4,3.9-1,5.7l-23.1,18.1c-2.4,1.9-3.9,1.5-5.6-0.6l-2.1-2.7l-13.3,10.4l18,23.1l13.3-10.4l-2.1-2.7
		c-1.7-2.1-1.6-3.8,0.8-5.6c0.8-0.7,14.7-11.5,15.4-12.1c-1,3.8-12.8,49.5-11.7,50.9c1.1,1.4,8.3,10.6,10.4,13.3l41.3-32.3
		c2.4-1.9,4.2-1.6,5.9,0.5L519.4,198z M606.4,303.4c0,167.3-135.7,303-303,303s-303-135.7-303-303c0-167.4,135.6-303,303-303
		C470.7,0.4,606.4,136,606.4,303.4z M593,304.1c0-159.9-129.6-289.5-289.5-289.5S14,144.2,14,304.1c0,159.8,129.6,289.4,289.5,289.4
		S593,463.9,593,304.1z M119,178.2c1.1-1.6,2.3-4.6-1.4-7.1c-3.7-2.5-6-0.2-7.1,1.5c-1.2,1.7-4.5,6.7-4.5,6.7l8.5,5.7
		C114.5,185,117.8,180,119,178.2z M401.1,135.3c5.8,3.2,13.1,1.1,16.4-4.7l9.2-16.5c3.2-5.8,1.1-13.1-4.7-16.4
		c-5.8-3.2-13.1-1.1-16.4,4.7l-9.2,16.5C393.2,124.7,395.3,132.1,401.1,135.3z M174.7,142.7c4.1,5.3,11.6,6.2,16.9,2.1
		c5.3-4.1,6.2-11.6,2.1-16.9L182.2,113c-4.1-5.3-11.6-6.2-16.9-2.1c-5.3,4.1-6.2,11.6-2.1,16.9L174.7,142.7z M142.1,192.6
		c1.2-1.8,2.4-4.8-1.3-7.2c-3.7-2.5-6-0.2-7.2,1.5c-1.2,1.7-5.1,7.6-5.1,7.6l8.5,5.7C137,200.2,140.9,194.3,142.1,192.6z
		 M254.2,491.4c-6.7-2.3-9.2,5.8-10.9,10.9c-1,3.1,0.3,5.8,1.4,7.2c-1.6,0.4-5.3,1.4-6.3,4.5c-2.3,7.2-6.2,16.1,3.6,19.5
		s13.1-10.9,13.9-13.5c1-3.1-1.1-6.1-2.2-7.4c1.6-0.4,5.1-1.5,6-4.6C263.1,497.2,260.9,493.7,254.2,491.4z M417.4,487.6
		c0.6-1.4,1.8-4.8,0.1-7.8c-5.9-10.5-9.7-11.6-15.2-8.5c-5.5,3.1-1,11,1.9,16c1.7,3,4.4,4.2,6,4.4c-0.6,1.4-2,4.9-0.3,7.9
		c4,7.1,8.3,16.6,16.3,12.1s-0.6-17.6-2-20.1C422.4,488.6,419,487.8,417.4,487.6z"/>
	<path class="st2" d="M473,279.5c-0.7-0.1-1.4-0.2-2.1-0.3c-12-81.7-82.7-144.7-167.7-144.7c-93.5,0-169.5,76-169.5,169.5
		c0,75.1,49.2,139,117,161.2c0,0.2,0,0.5,0,0.7h2.1v-0.1c15.9,5,32.9,7.7,50.4,7.7c93.5,0,169.5-76,169.5-169.5
		c0-7.7-0.5-15.2-1.5-22.7c0.5,0.1,1,0.2,1.5,0.3L473,279.5z M303.2,136.6c0.8,0,1.7,0,2.5,0c-16.7,81.8-85.9,143.3-169.1,150.3
		C145.2,202.6,216.7,136.6,303.2,136.6z M250.7,463c-66.7-22.1-114.9-85-114.9-159c0-5,0.2-10,0.7-14.9
		c84.4-6.9,154.7-69.4,171.4-152.4c81.7,2.2,148.9,63.3,160.9,142.2c-8.9-1.3-18-1.9-27-1.9c-50.7,0-98.4,19.6-134.4,55.3
		C272,367.1,252,413.5,250.7,463z M303.2,471.4c-17.6,0-34.5-2.7-50.4-7.8c2.3-102,86.6-184.6,188.9-184.6c9.1,0,18.3,0.7,27.3,2
		c1.1,7.5,1.6,15.2,1.6,23C470.6,396.3,395.5,471.4,303.2,471.4z"/>
	<path class="st0" d="M434.8,370.9c-6.5,4-25.9,12-39.4,10.7c-28.1-2.7-65.2-15-89.6-16.7c-2.5-0.1-5-0.7-7.5-1.6
		c-0.7-0.6-1.5-1.2-2.2-1.8c-0.5,0.1-0.9,0.1-1.4,0.2c0.6,0.5,1.1,0.9,1.8,1.4c26.8,21.6,31.5,22.3,40.4,52.5
		c1.8,6.2,0.6,8.3-2.8,9.3c-6.8,1.7-33.8,7.7-44.1,2.7s-54.9-33.2-78-41.3c-19.9-6.9-39.2-7.5-42.1-29.6
		c-2.7-20.1,21.9-37.1,28.8-55.1c6.2-16.3,21.5-81.8,34.8-85.7c4.3-1.3,6.6-15.8,7.4-20.2c0.6-3.6,3.3-12.8,10.8-10.5
		c10.4,3.2,28.1,8.8,35.4,12.3s10.2,3.8,8.2,7.5s-11.6,22.2-9.1,28.2c4.7,11,4.6,17.2-1.1,26.4c-5.6,9.2-18.2,39.4-22.9,59.6
		c-3.4,14.8,9.2,25.6,16.2,31.2c3.7,3,10.1,8.1,15.9,11c-5.8-4.5-11-8.3-15.6-11.6c-7.2-7.1-12.9-14.2-14.1-16.7
		c-4.4-9,3.4-27.8,11.1-48.3c2.4-6.6,5.2-12.5,9-20.2c1.2-2.6,4.8-7.6,5.7-10.2c2.3-6.8,2-12.9-0.5-17.3
		c-5.9-10.5,9.6-31.7,8.2-34.9c-2.5-4.4-32.7-14.5-34.5-14.9c-0.5-1.5-0.9-2.9-0.9-2.9c-2-7.9-1.4-12.5,6.5-12.2
		c10.2,0.4,18.7-0.8,28.5-1.7c8-0.7,9.9,0.6,13,5.3c2.7,4.1,2,22,6.7,26.5c6.4,6.1,8.8,9.4,10.3,19.9c1.5,10.8,7.3,50.6,10.7,71.1
		c3.3,19.9,20.1,23.1,50.4,26.6c21.7,2.5,39.7,18.7,46.8,38.6C437.7,364.5,437.9,368.9,434.8,370.9z"/>
	<path class="st1" d="M300.2,196.8c0-3.9-1.1-8.7-0.9-13s2.4-2.8,2.1,0.6c-0.2,1.9-0.1,3.5,0.2,7c0.3,2.7,0.6,2.1,0.7,6.4
		C302.4,202.1,300.1,199.8,300.2,196.8z M300,333.2c-11-1.8-23.2-7.1-29.6-9c-2.4-0.7-2.6,5.8-2.7,11.5c0,0.8,0,1.7,0,2.7
		c0,0.9,0,0.8,0.1,1.8c4.7,5.4,13,13.9,27.1,21.7c0.6-0.1,0.6-0.3,1.2-0.4c1.8-0.3,3.6-0.7,5.3-1C299.3,351.4,299.8,341.6,300,333.2
		z M269.1,189.2l13.4,5.5l-0.4,1l4,1.4l0.3-0.7l8.9,3.6c0.2-0.6,0.3-1.2,0.2-2.1c-0.3-4.3-0.6-3.7-0.9-6.4c-0.5-3.5-0.6-5.1-0.5-7
		c0.2-3.4-2.1-4.8-2.2-0.5c0,4.3,0.8,11,1.4,14c0.1,0.3,0.1,0.6,0.2,0.8c-1.1-0.6-2.5-1.2-4-2c-0.6-0.3-1.3-0.6-2.1-0.9
		c-0.3-4.3-1-9.8-1.2-12.8c-0.2-2.5-3-3.3-3-0.2c0,2.2,0.8,7.8,1.2,11.8c-2-0.8-4.2-1.7-6.6-2.5c-0.3-2.8-0.7-5.8-0.7-7.3
		c0.1-5.4-1.8-6.1-1.5-0.5c0,1.1,0.4,4.4,0.7,7.3c-1.9-0.7-3.8-1.3-5.7-2c-0.2-1.1-0.3-2-0.3-3.4c0.1-5.4-1.8-6.1-1.5-0.5
		C268.8,186.8,268.9,188,269.1,189.2z M430.2,357.6c-4.7-11.4-10.9-20.5-16.4-17.8c-6.8,3.5-13.7,8.1-18,8.3c-4.2,0.2-4,2.3-3.4,3.6
		c1.7,3.5,6.7,17.2,7.8,21.2c1,3.7,2,4.1,7.9,2.4c8.5-2.4,16.9-5.2,20.7-8C432.5,364.8,433.1,364.5,430.2,357.6z M308.5,197.4
		c-0.2-2.4-0.3-3.1-0.3-5.5c0.1-3.9,0-7.4-0.2-8.7c-0.2-1.4-1.3-2.5-1.5-0.3c-0.2,1.8-0.4,12.4,0.5,16.6
		C307.4,200.3,308.8,200.9,308.5,197.4z M280.9,223.7c1.3-3.8,1.7-4.3,3.2-7.9c1.4-3.6,2.6-7.1,3.1-8.4c0.6-1.5-0.3-2.7-1.3-0.8
		c-0.8,1.6-6,14.7-6.7,19C278.8,226.4,279.5,227.4,280.9,223.7z M177.2,342.6c-2,4.5-4.7,14.1,0.7,23c5.4,8.9,17.7,10.2,24.5,10.6
		c0-7.6,4.8-27.8,9.3-33.7c-11.3-3.2-19.4-8.3-25.2-11.7C184.3,329.5,179.2,338.1,177.2,342.6z M276.7,203.4
		c-1.1,2.9-4.4,16.7-5.3,19.2c-1,2.9,1.5,4.6,2.7,0.8c1.4-4.2,4.3-15.4,5.4-18.8C280.2,202.2,277.8,200.6,276.7,203.4z M318.1,393.2
		c-7.5,1.6-12.9,2.5-17.1,1.7s-4.5,1.2-4.2,2.7c0.8,3.8,2.2,18.5,2.3,22.6c0,3.8,0.9,4.4,7.1,4.2c8.8-0.3,18-1.1,22.4-2.8
		c4.1-1.6,4.3-4.3,1.7-11.2C327.2,402,324.1,391.9,318.1,393.2z M247.9,193.3c-1.2,3-2.1,6.9-2.5,10.7c-0.4,3.8-1,5.4-1.7,6.7
		c-1,2,1.4,4.6,1.8,0.7c0.5-4.3,2.9-13.6,3.7-15.5C252.1,189.2,249.1,190.3,247.9,193.3z M271.3,202.4c1.5-3-0.1-5.2-1.7-1.4
		c-1.8,3.9-5,14.9-5.6,17.9c-0.6,3,0.7,4.9,2.1,0.8c1.4-4,2-7.2,2.7-9.8C269.7,206.5,270.4,204.1,271.3,202.4z M261.9,200
		c-0.5,1.6-3.5,13.4-4.1,15.7c-0.6,2.2,0.2,4.4,1.1,1.3c0.9-3.3,3.4-13.7,4.3-16C265.1,195.9,263.6,194.6,261.9,200z M255.7,195.8
		c-1.6,3.3-3.4,10.5-4,13.5c-0.6,3-1.4,4.6-1.6,6c-0.2,1.3,0.7,3.1,1.7,0.7c1.2-3,1.9-6.9,2.4-8.4c0.7-2.4,2.1-8.8,3.2-10.8
		C258.5,194.8,257.3,192.4,255.7,195.8z"/>
	<path class="st2" d="M489.2,443.9l-0.2-0.3h-0.4c-5.9,0.5-14.1-0.2-17.9-3.9c-3.6-3.6-2.5-10-1.5-15.6c0.2-0.7,0.3-1.4,0.4-2.1
		l0.1-0.3l-0.3-0.2c-7-5.1-6.3-12.3-5.2-23.1c0.1-1,0.2-2,0.3-3l0.1-0.9l-0.8,0.3c-2.9,1-4.6,4.1-6.4,7.4c-1.2,2.1-2.3,4.3-3.9,6
		c-3.4,2.6-5.3,3.4-7,4.1c-1.1,0.4-2.1,0.9-3.4,1.7l-0.5,0.4l0.4,0.5c0.8,0.9,1.6,1.7,2.4,2.5c4.2,4.1,6.9,6.9,3.8,17.6
		c-5.2,1.6-9.4,1.5-12.5-0.2c-3.3-1.8-4.7-5.1-5.4-7.6l-0.3-1.1l-0.7,0.9c-2.4,3.3-3.7,6.2-5.6,10.6c-4.2,2.9-7.9,5.4-9.4,10.1
		l-0.2,0.8l3-0.1c10-0.5,14.6-0.7,20,6.3l0.2,0.3l0.3-0.1c1-0.2,1.9-0.4,2.8-0.6c4.8-1,8.3-1.7,11.7,1.6c4.3,4.2,3.9,16.8,3.6,20.5
		v0.3l0.3,0.2c6.4,3.7,6.5,17.5,5,25.9l-0.2,1.4l1.1-1.1c5.1-3.8,8.8-8.8,9.1-12.6c1.5-0.8,2.6-1.3,3.7-1.8c3.4-1.5,4.9-2.3,9-6.4
		l0.5-0.5l-0.6-0.4c-3.8-2.3-13.6-11-9.1-20.8c9.7-4.6,18.6,4.9,21,8.7l0.4,0.6l0.5-0.5c3.4-3.5,3.7-4.4,4.2-6.2
		c0.3-1,0.7-2.3,1.8-4.6c3.9-0.4,7.3-2.9,10.9-7.9l0.8-1.1l-1.4,0.3C506.9,451.2,492.2,449.7,489.2,443.9z M503.2,457.7h-0.3
		l-0.1,0.3c-1.3,2.6-1.7,4-2,5.1c-0.5,1.6-0.7,2.4-3.5,5.3c-3-4.3-12.2-13.4-22.2-8.4l-0.2,0.1l-0.1,0.2c-4.8,10.1,4.4,19.1,8.8,22
		c-3.6,3.6-5.1,4.2-8.2,5.7c-1.2,0.6-2.4,1.2-4.1,2l-0.3,0.1v0.3c-0.1,3.2-3.1,7.6-7.6,11.2c1.1-7.7,1.2-21.2-5.5-25.4
		c0.3-5.1,0.5-16.7-3.8-20.8c-3.8-3.8-7.7-3-12.7-1.9c-0.7,0.2-1.6,0.3-2.4,0.5c-5.7-7.2-10.7-7-20.7-6.5l-1.3,0.1
		c1.6-3.9,5-6.2,8.9-8.9l0.1-0.1l0.1-0.1c1.7-4,2.9-6.8,4.9-9.6c0.8,2.5,2.4,5.5,5.6,7.2c3.4,1.9,8,2,13.6,0.2l0.3-0.1l0.1-0.3
		c3.4-11.6,0.3-14.7-4-19c-0.7-0.6-1.3-1.3-2-2c0.9-0.6,1.7-0.9,2.6-1.3c1.7-0.8,3.7-1.6,7.3-4.3l0.1-0.1c1.7-1.9,2.9-4.1,4.1-6.3
		c1.5-2.7,2.9-5.3,4.9-6.5c-0.1,0.7-0.1,1.3-0.2,2c-1.1,10.6-1.9,18.4,5.3,23.9c-0.1,0.5-0.2,1.1-0.3,1.7
		c-1.1,5.9-2.2,12.6,1.8,16.6c4,3.9,12.4,4.8,18.5,4.3c3.5,5.8,16.9,7.3,24.1,6.4C509.7,455.4,506.6,457.5,503.2,457.7z M94.8,196.7
		l15.5,10.4l15.2,10.1c2.3,1.5,3.2,4.1,1.9,6.1l-1.6,2.5l8.7,5.8c2.6-4,21.4-32.2,24.4-36.7c13.2-19.8-14.3-32.8-24.1-28
		c-0.9-9.3-19.8-27.3-33-7.5c-3,4.5-20.7,31-23.3,34.9l8.7,5.8l1.6-2.5C90.2,195.6,92.5,195.2,94.8,196.7z M132.2,183.8
		c1.8-2.7,5-5,10.7-1.2c5.7,3.8,4.8,7.7,3,10.3c-1.7,2.7-7.7,11.6-7.7,11.6l-13.7-9.1C124.5,195.4,130.4,186.4,132.2,183.8z
		 M108.5,169.9c1.8-2.6,5.3-5.4,11-1.6s4.5,8.1,2.7,10.7c-1.7,2.7-6.8,10.3-6.8,10.3l-13.7-9.1C101.7,180.2,106.7,172.5,108.5,169.9
		z M200.3,155.7c15.4-12,18.3-34.2,6.3-49.7c-12-15.4-34.2-18.3-49.7-6.3c-15.4,12-18.3,34.2-6.3,49.7S184.8,167.7,200.3,155.7z
		 M163.4,108.5c6.6-5.2,15.8-4.4,20.5,1.6l13.3,17c4.6,6.1,3,15.2-3.6,20.3c-6.6,5.2-15.8,4.4-20.5-1.6l-13.3-17.1
		C155.2,122.7,156.8,113.6,163.4,108.5z M437.1,478.3l0.4-0.9l-1-0.1c-1.6-0.2-5.2-0.7-6.7-3.3c0-0.2-0.1-0.4-0.3-0.7
		c-5.7-10.9-12.3-17.6-19.8-19.8c-5.3-1.6-11-0.7-16.8,2.5c-20.3,11.4-11.1,28.5-6.2,37.7c0.6,1.1,1.2,2.1,1.6,3
		c1.5,2.8,0.6,5.8-0.1,7.3l-0.3,0.7l0.7,0.1c1.7,0.2,4.8,1,6.3,3.7c2.9,5.2,7.5,12.6,13.9,17.3c4.1,3,8.3,4.5,12.7,4.5
		c3.7,0,7.6-1.1,11.4-3.4c20.3-11.3,10.2-29.3,3.5-41.2C435,483.1,436.4,479.9,437.1,478.3z M432.5,526c-8.2,4.6-15.9,4.2-23.1-1.1
		c-6.2-4.7-10.7-11.9-13.5-17c-1.6-2.8-4.5-3.8-6.4-4.2c0.7-1.8,1.3-4.8-0.3-7.6c-0.5-0.9-1-1.9-1.6-3c-5.1-9.5-13.6-25.3,5.8-36.2
		c5.5-3.1,10.9-3.9,16-2.4c7.2,2.2,13.6,8.7,19.1,19.3c0.2,0.3,0.3,0.6,0.4,0.7c1.6,2.8,5.1,3.5,7,3.8c-0.7,1.8-2,5.2-0.4,8
		C442,497.8,451.7,515.2,432.5,526z M394.4,147.6c17.1,9.5,38.7,3.4,48.2-13.7c9.6-17.1,3.4-38.7-13.7-48.2
		c-17.1-9.5-38.7-3.4-48.2,13.7C371.2,116.5,377.4,138.1,394.4,147.6z M392.9,118.6l10.5-18.9c3.7-6.7,12.7-8.8,20-4.7
		c7.4,4.1,10.3,12.8,6.6,19.5l-10.5,18.9c-3.7,6.7-12.6,8.8-20,4.7C392.1,134,389.2,125.3,392.9,118.6z M528.2,187.1l-8.3,6.5
		l-2.2-2.7c-1.5-1.9-3.8-1.7-5.9,0l-41,32c-1.9-2.4-6.8-8.7-7.8-10c-1-1.3,13.3-55.4,14.2-58.8c-0.7,0.6-25.3,19.8-26.1,20.4
		c-2.1,1.7-1.7,3.7-0.2,5.6l2,2.5l-8.4,6.5L430.3,171l8.4-6.5l1.9,2.4c1.5,1.9,3.4,2.9,5.5,1.2l28-21.9c2.1-1.6,2.6-4.4,1.1-6.3
		l-2-2.4l9.9-7.7l13.5,17.2c1,1.2-12.4,50.7-13.3,54.1l22.6-17.7c2.1-1.7,3.1-3.7,1.6-5.6l-2-2.6l8.3-6.5L528.2,187.1z M277.7,104
		c4,12.9-2.8,21.4-12.5,24.2c-9.1,2.6-14.8,0-17-0.1l-2.3-0.4l1.1,4.1l-9.6,2.8c-0.7-2.5-4.9-17.1-4.9-17.1c2.2-0.7,8.9-2.6,8.9-2.6
		s0.2,0.2,1.8,1.9c1.4,1.6,8.3,5.3,12.8,4.1c13-3.6,11.4-18.7-6.1-18.5c-14.7-1.6-23.6,0.1-27.6-12.8c-3.9-12.8,3.8-22.3,13.5-25.1
		c10.3-2.9,11.5-0.6,14-0.5l-0.9-3.3l9-2.6c0.8,2.5,4.9,16.8,4.9,16.8c-2.3,0.6-7.3,2.1-7.3,2.1s-0.2-0.2-1.8-1.9
		c-1.6-1.7-7.2-5.3-12.4-3.8c-9.8,1.6-11.2,16.8,3.1,17.3C259.1,90.2,273.7,91.1,277.7,104z M254.1,490.9c-1.8-0.6-3.5-0.6-5,0.2
		c-3.6,1.8-5.3,7-6.5,10.9l-0.1,0.2c-0.8,2.7-0.1,5.3,1,7c-3.2,0.9-5.2,2.5-5.9,4.7c-0.2,0.5-0.4,1.1-0.6,1.7
		c-2.2,6.8-5,15.2,4.6,18.5c1.1,0.3,2.1,0.5,3.1,0.5c1.2,0,2.4-0.3,3.5-0.8c4.8-2.5,7-10,7.8-12.8c0.1-0.3,0.1-0.6,0.2-0.8
		c0.9-2.8-0.5-5.6-1.8-7.3c1.8-0.5,4.7-1.8,5.6-4.7C263.2,497.9,261.8,493.6,254.1,490.9z M258.9,507.9c-0.9,2.8-4.2,3.9-5.6,4.2
		l-0.9,0.2l0.6,0.7c1.2,1.4,3,4.2,2.1,6.9c0,0.2-0.1,0.5-0.2,0.8c-0.7,2.7-2.8,9.8-7.2,12.1c-1.7,0.8-3.6,0.9-5.7,0.2
		c-8.6-3-6.2-10.1-3.9-17.1c0.2-0.6,0.4-1.2,0.6-1.8c0.6-2,2.6-3.3,5.9-4.1l0.9-0.2l-0.6-0.7c-1.2-1.3-2.2-3.9-1.3-6.6l0.1-0.2
		c1.2-3.7,2.8-8.7,5.9-10.3c0.7-0.3,1.4-0.5,2.1-0.5s1.4,0.1,2,0.5C259.8,494.1,262.3,497.2,258.9,507.9z M146.2,450.3
		c3.4,0,6.8-1.3,9.2-3.5c2.1-1.9,3.3-4.5,3.4-7.2c0.1-2.8-1-5.7-3-7.9c-4.2-4.6-10.7-4.9-15.1-0.8c-4.8,4.4-5.7,12.4-1.9,16.5
		c1.7,1.8,4.1,2.8,6.9,2.9C145.9,450.3,146,450.3,146.2,450.3z M141.5,431.7c3.9-3.7,9.7-3.4,13.5,0.6c1.8,2,2.8,4.6,2.7,7.1
		c-0.1,2.4-1.1,4.7-3,6.4c-2.3,2.2-5.7,3.4-8.9,3.3c-2.5-0.1-4.7-1-6.1-2.5C136.3,443,137.2,435.7,141.5,431.7z M342.7,127
		c-3.1-0.4-9.8-1.3-16.3-2.2c-6.5-0.9-13.1-1.8-16.1-2.2c0.3-2.8,0.7-5.8,1.5-11.5l4.5,0.6c2,0.3,2.8-0.1,3.2-3
		c0.4-2.8,5.1-37.9,5.5-41c-3.5-0.4-4.9-0.6-7.9-1c-3.5,0-6.4,3.5-10.8,9.3l-4.9-0.7c0.3-2.4,2.2-16.5,2.9-21.4
		c3.1,0.5,24.6,3.3,31.1,4.2c6.5,0.9,28,3.8,31.1,4.2c-0.7,5-2.6,19.1-2.9,21.4l-4.9-0.6c-2.7-6.8-4.5-10.9-7.9-11.8
		c-3-0.4-4.5-0.6-7.9-1.1c-0.4,3.1-5.1,38.1-5.5,41c-0.4,2.8,0.2,3.4,2.3,3.7l4.5,0.6C343.5,121.2,343.1,124.1,342.7,127z
		 M376.8,509.6c-4.5-1.9-6.3-3.6-7.8-5.3l-0.3-0.3l-0.4,0.2c-1.1,0.5-2,0.9-2.7,1.3c-1.6,0.8-2.7,1.4-4.5,1.5
		c-3.5,0.3-6.6-3.6-7.3-7.3c-0.7-4,1.3-7,5.2-8.1c7.6-2,11,1.9,14.3,5.7c0.3,0.3,0.6,0.7,0.9,1l0.4,0.4l0.4-0.4
		c2.3-2.4,2.6-6.8-1.4-10.7c-3.3-3.1-3-3.7-2.2-5.7l0.2-0.4c1.2-3,0.1-5.2-4.3-9l-0.5-0.4l-0.3,0.5c-0.4,0.7-0.7,1.3-1,1.8
		c-1,1.8-1.5,2.8-5.2,3.8c-2,0.5-3.1,0.1-4.5-0.4c-1.9-0.6-4.3-1.5-9.5-0.1c-7.7,2.1-16.4,8.1-13.9,24.7c0.7,5,6.5,10.7,14,13.8
		c4.1,1.7,5.8,3.6,7.3,5.3l0.5,0.6l0.4-0.2c3.2-1.4,3.9-1.6,6.6-1.8c3.6-0.2,6.6,3.8,7.3,7.8c0.2,1.6,0.7,7.1-5.2,8.7
		c-8.4,2.3-18.4-5-21.7-8.7l-0.4-0.4l-0.4,0.4c-3.8,3.9-4.3,8-1.3,10.9c3.1,3,2.2,5.4,1.2,7.7l-0.2,0.6c-1,2.6-0.7,5.2,4.2,9.3
		l0.5,0.4l0.2-0.6c0.4-0.5,0.7-1,1-1.6c1.6-2.6,3.1-5.3,7.1-6.4c2.1-0.6,4,0,6.2,0.7c3,0.9,6.7,2,11.9,0.6
		c8.9-2.4,19.1-8.6,16.8-24.1C388,522.7,385.9,513.3,376.8,509.6z M371.3,548.6c-4.8,1.3-8.2,0.3-11.2-0.6c-2.3-0.7-4.5-1.3-6.8-0.7
		c-4.4,1.2-6.1,4.2-7.7,6.9c-0.2,0.3-0.4,0.7-0.6,1c-4-3.4-4.2-5.5-3.4-7.6l0.2-0.6c1-2.4,2.3-5.4-1.4-9c-3.3-3.2-0.8-7,0.9-8.9
		c3.9,4,13.8,10.9,22.7,8.7c5.5-1.5,6.7-6.1,6-10c-0.8-4.5-4.3-9-8.5-8.7c-2.7,0.2-3.5,0.4-6.6,1.7c-1.5-1.7-3.3-3.8-7.7-5.6
		c-8.4-3.5-12.8-9.2-13.4-13c-1.9-12.6,2.5-20.5,13.1-23.4c4.9-1.3,7-0.6,8.8,0.1c1.5,0.5,2.8,1,5.2,0.4c4.2-1.2,4.9-2.5,5.9-4.4
		c0.1-0.4,0.4-0.8,0.6-1.2c4,3.5,4.3,5.2,3.5,7.3l-0.2,0.4c-1,2.3-1.2,3.4,2.4,6.9c3.2,3.1,3.2,6.6,1.7,8.7
		c-0.2-0.1-0.3-0.3-0.5-0.5c-3.4-3.9-7.2-8.2-15.4-6c-5.4,1.5-6.6,5.8-6,9.4c0.8,4.2,4.2,8.6,8.5,8.2c2-0.1,3.2-0.7,4.9-1.6
		c0.6-0.3,1.3-0.7,2.2-1.1c1.4,1.6,3.5,3.5,7.9,5.3c8.6,3.6,10.5,12.4,10.9,15C389.5,540.4,379.8,546.3,371.3,548.6z M273.4,511.2
		c9.1-23.5-1.6-30.8-6.6-32.8c-4.5-1.8-7.7-1.3-10.5-0.9c-2.2,0.3-4.1,0.6-6.4-0.3c-1.8-0.7-2.9-1.9-4-3c-1.6-1.6-3.2-3.2-6.6-3.2
		h-0.5l-0.1,0.5c-0.5,4.6-5.1,23.9-16.4,28.5l-0.5,0.2l0.2,0.5c4.8,10.7-7.2,29.1-13.4,35.8l-0.8,0.8l1.1,0.1
		c3.2,0.3,5.2,0.2,6.8,0.1c2.1-0.2,3.4-0.2,6,0.8c2.3,0.9,3.9,2.9,5.9,5.1c2.4,2.8,5.2,5.9,9.7,7.7c1.3,0.5,3.5,1.2,6.2,1.2
		c6.1,0,15.1-3.5,22.2-20c1.1-1.3,1.9-3.1,2.7-4.9c1.3-2.8,2.7-5.8,4.7-5.9l1.2-0.1l-0.8-0.9c-1.6-1.7-1.2-3.3-0.7-5.8
		C273,513.7,273.3,512.5,273.4,511.2z M272.2,510.7v0.2c-0.1,1.3-0.4,2.5-0.6,3.5c-0.5,2.2-0.9,4.1,0.4,6c-2.1,0.8-3.4,3.6-4.7,6.4
		c-0.8,1.7-1.6,3.5-2.6,4.7l-0.1,0.1c-9.7,23.3-23,20-26.9,18.5c-4.3-1.7-7-4.7-9.3-7.4c-2-2.3-3.9-4.4-6.4-5.4c-2-0.8-3.3-1-4.7-1
		c-0.5,0-1.1,0.1-1.6,0c-1.4,0.1-3.1,0.2-5.6,0c4.9-5.8,17.7-23.9,13.1-35.7c11.1-5,15.7-23.2,16.5-28.6c2.7,0.1,3.9,1.3,5.3,2.8
		c1.1,1.2,2.3,2.5,4.4,3.3c2.6,1,4.7,0.7,7,0.3c2.8-0.5,5.6-0.9,9.9,0.8C272.1,481.6,280.7,488.8,272.2,510.7z M145.3,490.7
		c-2-1.7-2.9-3.4-2.7-5.2c0.3-2.9,3.6-5.3,4.5-5.7l0.6-0.3l-0.4-0.6c-1.5-2-0.7-6.1,1-7.7c1.3-1.2,2.1-3.4,2.8-5.5
		c0.4-1.1,0.8-2.2,1.2-3.1c4.2-0.2,9.2-2.7,11.7-5.8c1-1.2,5.4-1.2,7-0.9l1,0.2l-0.4-1c-0.8-1.9-0.3-3.7,0.7-6.9
		c0.9-2.9,2.1-6.9,3-13.1c2-14-13-18.2-16.9-19c-2-6-4-8.9-8.5-12.2l-0.7-0.5l-0.1,0.9c-0.5,3.3-4.7,7.8-8.5,11.7
		c-4,4-13.7,7.3-17.4,7.7h-0.4l-0.1,0.4c-0.9,5.7-6.5,11-11.5,15.6c-5.1,4.7-14.6,7.9-18.5,9l-0.8,0.2l0.5,0.6
		c3.4,4.6,5.3,5.8,7.1,7c0.4,0.3,0.8,0.6,1.2,0.9c2.2,8.9,6.6,11.1,8.4,11.6l0.4,0.1l0.2-0.4c4.6-9.5,10.5-15.6,15.8-16.4
		c2.5-0.4,4.8,0.4,6.7,2.5c2.6,2.8,3.2,5.7,1.6,8.1c-1.8,2.7-5.9,4.4-8.7,3.5l-0.9-0.3l0.1,0.9c0.3,2-0.1,4.8-0.6,7.7
		c-0.8,5.3-1.8,11.4,1.6,15c2.4,2.5,6.1,3.3,9.7,3.3c4.5,0,8.9-1.2,10.2-1.4l0.7-0.4L145.3,490.7z M126.1,489c-3-3.3-2.1-9-1.3-14.1
		c0.4-2.7,0.8-5.2,0.7-7.3c3.2,0.6,7.3-1.2,9.3-4.2c1.1-1.7,2.3-5.2-1.7-9.5c-2.1-2.3-4.8-3.3-7.7-2.9c-5.7,0.9-11.7,6.9-16.5,16.6
		c-1.8-0.7-5.4-3.1-7.3-10.9v-0.2l-0.2-0.1c-0.5-0.4-1-0.7-1.5-1c-1.7-1-3.4-2.2-6.4-6.1c4.4-1.4,13.2-4.5,18.2-9.1
		c5-4.7,10.6-9.9,11.8-15.8c4.2-0.6,13.6-3.9,17.6-8c3.8-3.9,7.6-8,8.6-11.5c3.9,3,5.7,5.8,7.5,11.5l0.1,0.3l0.3,0.1
		c3,0.7,18.3,4.5,16.3,17.8c-0.9,6.1-2.1,10-3,12.9c-0.9,3-1.5,4.9-1,6.8c-2-0.2-5.9-0.2-7.2,1.4c-2.4,3-7.2,5.3-11.2,5.4h-0.3
		l-0.1,0.3c-0.5,1-1,2.3-1.4,3.5c-0.7,2-1.4,4.1-2.5,5.1c-2,1.8-3,6.1-1.5,8.7c-1.5,1-4.2,3.3-4.6,6.3c-0.3,2,0.5,3.9,2.4,5.6
		C140.4,491.7,130.5,493.7,126.1,489z M215.8,489.1c2.8,0.6,5.8-1,6.8-2.8c0.5-0.9,0.7-2.1,0.8-3.4c0.2-1.8,0.4-3.8,1.7-4.3
		c2.5-1,3.2-2.8,4.5-6c0.2-0.6,0.4-1.2,0.7-1.8l0.7-1.6l-1.5,0.9c-3.6,2.3-7.3,1.2-9.9-2.9c-1-1.6-1.6-2.9-2.1-3.9
		c-0.8-1.6-1.3-2.7-2.7-3.7c-0.8-0.6-2.3-0.8-3.9-1.1c-2.9-0.5-6.5-1.1-7.1-3.6c-1-3.8-5.3-6.3-9.1-8.5c-0.8-0.5-1.6-0.9-2.3-1.4
		l-0.7-0.4l-0.2,0.8c-1,4.7-3.5,11.5-6.9,16.4c-3.1,4.4-8.3,7-13.4,9.1L171,471l-0.1,0.2c-0.5,1.3-0.9,3-1.4,4.9
		c-1,3.9-2.2,8.7-4.8,12.4c-4,5.6-8.1,9.5-18.4,14.2l-0.4,0.2l0.1,0.4c0.8,5.2,4.4,8.2,11.1,9.5c5.5,8,9.4,10.5,18,11.3
		c5.7,0.6,8.6,5.4,11.6,10.5l1.2,2l0.5-0.9c1.2-2,1.6-3.8,2.1-5.5c0.5-1.9,0.9-3.6,2.2-5.5c3.5-5.3,5.7-8.7,4.5-10.5
		c-0.7-1.1-2.3-1.3-5.3-0.8c-5.5,1-10-0.5-12.1-3.8c-1.8-2.8-1.5-6.3,0.8-9.5c1.9-2.7,4.4-3.9,7-3.2c3.1,0.8,5.6,3.9,6,7.2l0.1,0.7
		l0.7-0.3c2.2-0.9,4.6-3,4.4-5.8c-0.2-1.7-0.2-1.7,1.7-2.7l0.2-0.1c2.5-1.4,3-5.6,3.3-8.4l0.2-1.5l-1,0.8c-3.3,2.6-6.3,2.9-8.5,0.8
		c-2.7-2.5-3.1-7.9-0.9-11c2.4-3.3,7.1-5,10.9-4c3.2,0.9,5.1,3.6,5.5,7.7C210.8,487,214,488.7,215.8,489.1z M204.9,471.8
		c-4.2-1.2-9.5,0.8-12.1,4.4c-2.5,3.6-2,9.6,1.1,12.5c1.1,1.1,4.2,3.1,8.9,0c-0.3,2.4-0.8,5.5-2.6,6.4l-0.2,0.1
		c-2.2,1.2-2.5,1.4-2.3,3.8c0.1,2.3-1.9,3.8-3.1,4.4c-0.7-3.5-3.5-6.6-6.7-7.4c-1.8-0.5-5.2-0.6-8.2,3.6c-2.5,3.6-2.9,7.6-0.9,10.7
		c2.3,3.7,7.3,5.3,13.2,4.3c3-0.5,3.9-0.1,4.2,0.3c0.8,1.3-2,5.5-4.5,9.3c-1.4,2-1.9,3.8-2.4,5.8c-0.4,1.4-0.8,2.8-1.5,4.4l-0.2-0.4
		c-3.2-5.3-6.2-10.4-12.4-11c-8.3-0.8-11.9-3-17.3-11l-0.1-0.2h-0.2c-6.3-1.2-9.5-3.7-10.4-8.2c10.1-4.7,14.5-8.9,18.1-14.2
		c2.8-3.8,4-8.7,5-12.7c0.5-1.8,0.8-3.4,1.3-4.6c5.2-2.2,10.5-4.9,13.7-9.4c3.4-4.7,5.8-11.3,6.9-16c0.5,0.3,1.1,0.7,1.7,1
		c3.6,2.1,7.7,4.5,8.6,7.8c0.8,3.2,4.8,3.9,8,4.5c1.4,0.2,2.8,0.5,3.4,0.9c1.1,0.8,1.6,1.8,2.3,3.3c0.5,1,1.2,2.3,2.2,4
		c2.6,4.1,6.3,5.6,10,4c0,0.1-0.1,0.2-0.1,0.3c-1.3,3.2-1.9,4.5-3.9,5.3c-1.9,0.8-2.2,3.2-2.4,5.3c-0.1,1.2-0.2,2.3-0.6,3
		c-0.8,1.4-3.2,2.7-5.5,2.2c-2.6-0.6-4.3-3.3-4.7-7.8C210.7,474.3,207,472.4,204.9,471.8z M424.4,491.3c-1.6-2.8-4.5-3.8-6.4-4.2
		c0.7-1.7,1.4-4.8-0.2-7.6c-5.6-10.1-9.6-12.3-15.9-8.8c-2.6,1.5-3.5,4.1-2.5,7.8c0.8,3,2.6,6.2,4,8.8l0.1,0.2
		c1.5,2.7,3.9,4,5.7,4.5c-1.2,3.1-1.2,5.7,0,7.8c0.4,0.5,0.7,1.1,1,1.7c2.7,4.9,5.7,10.4,10,11.6c0.6,0.2,1.2,0.3,1.8,0.3
		c1.4,0,2.8-0.4,4.3-1.3c1.7-1,2.8-2.4,3.3-4.2c1.5-5.3-3-12.9-4.7-15.8C424.7,491.8,424.5,491.5,424.4,491.3z M428.5,507.5
		c-0.4,1.5-1.3,2.7-2.8,3.5c-1.8,1.1-3.6,1.4-5.2,0.9c-3.8-1.1-6.7-6.4-9.3-11c-0.4-0.6-0.7-1.1-1-1.7c-1.1-1.9-1-4.4,0.3-7.4
		l0.3-0.7l-0.7-0.1c-1.7-0.2-4.1-1.4-5.6-4.1l-0.1-0.2c-1.4-2.5-3.2-5.6-3.9-8.5c-0.9-3.2-0.2-5.3,1.9-6.5c1.6-0.9,3-1.4,4.4-1.4
		c3.1,0,6,2.6,10,9.6c1.5,2.8,0.6,5.8-0.1,7.3l-0.3,0.7l0.7,0.1c1.7,0.2,4.8,1,6.3,3.7c0.1,0.2,0.3,0.5,0.5,0.8
		C425.5,495.3,429.8,502.6,428.5,507.5z"/>
</g>
</svg>
