<?xml version="1.0" encoding="utf-8"?>
<!-- Generator: Adobe Illustrator 25.0.1, SVG Export Plug-In . SVG Version: 6.00 Build 0)  -->
<svg version="1.1" id="Layer_1" xmlns="http://www.w3.org/2000/svg" xmlns:xlink="http://www.w3.org/1999/xlink" x="0px" y="0px"
	 viewBox="0 0 851 848" style="enable-background:new 0 0 851 848;" xml:space="preserve">
<style type="text/css">
	.st0{fill:#FFFFFF;}
	.st1{fill:#0E3386;}
	.st2{fill:#CC3433;}
</style>
<g id="Cubs" transform="matrix(1.3333333,0,0,-1.3333333,0,128)">
	<path class="st0" d="M380.5-239.2c0.5-0.9,0-3.8,0-5.3c0-5-6.8-4.4-14.2-4.4v13.6C377.5-235.3,378.5-234.2,380.5-239.2z
		 M366.8-194.9v-13.8c5.9,0,14.2-0.6,14.2,4.4v5.5C381-194.9,377.1-194.9,366.8-194.9z M531.8-221.5c0-117.6-95.5-213.1-213.1-213.1
		c-118,0-213.1,95.5-213.1,213.1S201.1-8.4,318.7-8.4S531.8-103.9,531.8-221.5z M480.3-171.8c-5.3,0-24.9,0-31.3,0
		c-14.8,0-23-5.9-23.4-23c-0.6-17.1,0-9.8,0-16.2c0-6.5-0.9-20.7,18.6-20.7c10.3,0,22.5,0,24.5,0c6.8,0,5.3-8.3,5.3-8.3v-5.3
		c0-5.9-11.8-5.9-14.2-1.5c-2,3-0.9,8.3-0.9,8.3h-33.4c0-6.8-3.9-32.8,16.6-32.8c17.7,0.6,37.8,0.6,37.8,0.6c18.1,0,27.5,5,27.5,21
		c0,2,0,20.1,0,22.1c-0.1,11.7-8.4,18.9-20.2,18.9s-20.1,0-24,0c-6.5,0-5,9.2-5,12.2c0,4.4,13.6,5.9,13.6-1.5c0-2,0-3.5,0-4.4h36
		C507.8-179.2,503.4-171.8,480.3-171.8z M469.4-110.3c-34.3,46.1-88.7,76-150.5,76c-103.5,0-187-83.8-187-187.2
		S215.6-408.6,319-408.6c61.2,0,115,29.5,149.3,74.5l-55.9,52.4c-20.1-30.8-54.4-51.5-94-51.7c-61.7,0-111.7,49.9-111.7,111.7
		C207.3-160,257.2-110,319-110c40.6,0,76-21.5,95.5-53.8L469.4-110.3z M403.5-221.8c6.8,3.3,9.2,9.8,9.2,22c0,23-8.3,28-28.4,28
		h-52.9v-98.8c0,0,28.4,0,52.9,0c18.6,0,28.4,3.3,28.4,25.4C412.7-236.9,412.7-227.1,403.5-221.8z M271.3-239.6v67.7h-33.9v-66.7
		c0-22.1,5.3-32.3,21.6-32.3c12.7,0,20.1,0,34.8,0c19.5,0,25.4,5.9,25.4,30.4v68.6h-33.7v-67.7C285.5-249,271.3-249,271.3-239.6z
		 M632.1-221.5c0-42.3-8.3-83.3-24.7-122c-15.8-37.3-38.4-70.8-67.2-99.6c-28.8-28.8-62.3-51.4-99.6-67.2
		c-38.7-16.4-79.7-24.7-122-24.7s-83.4,8.3-122.1,24.7c-37.3,15.8-70.8,38.4-99.6,67.2c-28.8,28.7-51.3,62.3-67.1,99.6
		c-16.3,38.7-24.6,79.7-24.6,122c0,42.3,8.3,83.3,24.7,122C45.7-62.1,68.3-28.6,97.1,0.2c28.8,28.8,62.3,51.4,99.6,67.1
		c38.7,16.4,79.7,24.7,122,24.7c42.3,0,83.3-8.3,122-24.7C478,51.6,511.5,29,540.2,0.1c28.8-28.8,51.4-62.3,67.2-99.6
		C623.8-138.2,632.1-179.2,632.1-221.5z M607.3-221.4C607.3-62.1,478,67.1,318.7,67.1S30.1-62.1,30.1-221.5S159-510,318.7-510
		C478-510,607.3-380.7,607.3-221.4z"/>
	<path class="st1" d="M318.7,67.1C159.4,67.1,30.1-62.1,30.1-221.5S159-510,318.7-510c159.3,0,288.6,129.3,288.6,288.6
		S478,67.1,318.7,67.1z M318.7-434.6c-118,0-213.1,95.5-213.1,213.1S201.1-8.4,318.7-8.4s213.1-95.5,213.1-213.1
		C531.8-339.1,436.3-434.6,318.7-434.6z"/>
	<path class="st2" d="M412.4-281.7l55.9-52.4c-34.3-45-88.1-74.5-149.3-74.5c-103.4,0-187.1,83.7-187.1,187.1s83.5,187.2,187,187.2
		c61.8,0,116.2-29.9,150.5-76l-54.9-53.5C395-131.5,359.6-110,319-110c-61.8,0-111.7-50-112.3-111.7c0-61.8,50-111.7,111.7-111.7
		C358-333.2,392.3-312.5,412.4-281.7z M487.2-208.7c-11.8,0-20.1,0-24,0c-6.5,0-5,9.2-5,12.2c0,4.4,13.6,5.9,13.6-1.5
		c0-2,0-3.5,0-4.4h36c0,23.2-4.4,30.6-27.5,30.6c-5.3,0-24.9,0-31.3,0c-14.8,0-23-5.9-23.4-23c-0.6-17.1,0-9.8,0-16.2
		c0-6.5-0.9-20.7,18.6-20.7c10.3,0,22.5,0,24.5,0c6.8,0,5.3-8.3,5.3-8.3v-5.3c0-5.9-11.8-5.9-14.2-1.5c-2,3-0.9,8.3-0.9,8.3h-33.4
		c0-6.8-3.9-32.8,16.6-32.8c17.7,0.6,37.8,0.6,37.8,0.6c18.1,0,27.5,5,27.5,21c0,2,0,20.1,0,22.1C507.3-215.9,499-208.7,487.2-208.7
		z M237.4-171.9v-66.7c0-22.1,5.3-32.3,21.6-32.3c12.7,0,20.1,0,34.8,0c19.5,0,25.4,5.9,25.4,30.4v68.6h-33.7v-67.7
		c0-9.4-14.2-9.4-14.2,0v67.7H237.4z M403.5-221.8c9.2-5.3,9.2-15.1,9.2-23.4c0-22.1-9.8-25.4-28.4-25.4c-24.5,0-52.9,0-52.9,0v98.8
		h52.9c20.1,0,28.4-5,28.4-28C412.7-212,410.3-218.5,403.5-221.8z M380.5-239.2c-2,5-3,3.9-14.2,3.9v-13.6c7.4,0,14.2-0.6,14.2,4.4
		C380.5-243,381-240.1,380.5-239.2z M381-198.8c0,3.9-3.9,3.9-14.2,3.9v-13.8c5.9,0,14.2-0.6,14.2,4.4V-198.8z"/>
</g>
</svg>
