<?xml version="1.0" encoding="utf-8"?>
<!-- Generator: Adobe Illustrator 25.0.0, SVG Export Plug-In . SVG Version: 6.00 Build 0)  -->
<svg version="1.1"
	 id="Layer_1" xmlns:cc="http://creativecommons.org/ns#" xmlns:dc="http://purl.org/dc/elements/1.1/" xmlns:rdf="http://www.w3.org/1999/02/22-rdf-syntax-ns#" xmlns:svg="http://www.w3.org/2000/svg"
	 xmlns="http://www.w3.org/2000/svg" xmlns:xlink="http://www.w3.org/1999/xlink" x="0px" y="0px" viewBox="0 0 1028 712"
	 style="enable-background:new 0 0 1028 712;" xml:space="preserve">
<style type="text/css">
	.st0{fill:#C6011F;}
	.st1{fill:#FFFFFF;}
</style>
<g id="Group" transform="matrix(1.3333333,0,0,-1.3333333,0,120)">
	<path class="st0" d="M418.7,82.5c-144,0-243.7-85-298.4-149.6C45.7-156,4.5-167.3,4.5-167.3c57.7-50.8,85-76.3,111.9-105.4
		c75.4-81.5,137.9-165.2,316.1-165.2c212.1,0,333.5,138.4,333.5,264.1C766-23.3,598.2,82.5,418.7,82.5z"/>
	<path class="st1" d="M611.7-253.6h105.4c-49-82-153.5-148.8-288.4-148.8c-154,0-214.7,65.9-285.8,141.8c-29.1,31.2-47.7,59-95,94.1
		c0,0,19.1,6.1,91.9,92C194.9-9.4,290.3,63,415.6,63c127.5,0,255-58.5,304.4-156.1H613.8C591.7-57.6,521.4-16.8,433-16.8
		c-150.9,0-209.9-99.7-209.9-147.9c0-27.8,7.8-52,21.7-72.9c35.5-54.2,109.7-83.7,180.4-83.7C501.9-321.3,562.2-290.9,611.7-253.6z
		 M536.2-209.4v65.9h-15.6v19.9h74.2l23.9-19.9v-65.9l-23.4-19.5h-74.6v19.5H536.2z M559.6-209.4h11.7h18.2l5.6,4.8v55.9l-6,5.2
		h-29.5V-209.4z M726.2-154.7v31.2h-23.4v-5.2l-6.1,5.2h-29.5l-23.9-19.9v-23l23.4-19.9h29.9l6.1-5.2v-13l-5.6-4.8h-24.7l-5.6,4.8
		v6.5h-23.4v-31.2h23.4v5.7l6.1-5.7h29.9l23.4,20.4v22.5l-23.9,19.9h-29.1l-6,4.8v13l6,5.2h23.4l6.1-5.2v-6H726.2z M495.4-154.7
		v31.2H397v-19.9h15.6v-65.9H397v-19.5h98.4v30.8h-23.9v-11.3h-35.1v23h29.1v19.9h-29.1v23h35.1v-11.3H495.4z M300.7-186.4v-23h16
		v-19.5h-55.1v19.5h15.6v65.9h-15.6v19.9h78.5l23.9-19.9v-23l-17.3-14.3l12.1-28.6h13v-19.9h-29.9l-13.5,31.2l-5.2,11.7H300.7z
		 M301.1-166.9h11.7v-0.4h21.7l5.7,4.8v13.4l-6.1,5.2h-33V-166.9z"/>
	<path d="M717.1-253.2l7.4-17.3c-49-82-153.5-148.7-288.4-148.7c-154,0-213.4,59.4-284.9,134.9c-29.5,31.2-48.2,58.1-93.7,95.4
		l-9.5,22.5c47.3-35.1,65.9-62.9,95-94.1c71.1-75.9,131.8-141.8,285.8-141.8C563.5-402.4,668-335.6,717.1-253.2z M233.5-178.6
		c0,48.1,56.8,144.4,204.3,144.4c88.5,0,155.2-40.8,177.8-76.3H727c-2.2,3.9-6.9,17.3-6.9,17.3H613.4
		C591.3-57.6,521-16.8,432.5-16.8v0c-150.5,0-209.5-99.7-209.5-147.9c0-27.8,8.2-52,21.7-72.9C235.7-220.7,233.5-195.1,233.5-178.6z
		 M595.2-155.2v6.5l-6,5.2h-29.5v-65.9h11.7v54.2H595.2z M536.2-143.4h-15.6l11.3-11.7h4.3V-143.4z M531.9-240.6h67.2l31.2,25.6
		v59.8l-11.7,11.7v-65.9l-23.4-19.5h-74.6L531.9-240.6z M408.3-240.6h98.9v30.8l-11.7,11.7v-30.8H397L408.3-240.6z M702.7-198.1v6.5
		l-6.1,5.2h-29.8l13.8-11.7H702.7z M666.7-186.4h0.1l-23.5,19.9L666.7-186.4z M412.6-143.4H397l11.3-11.7h4.3V-143.4z M666.7-204.6
		l5.6-4.8h6.5l-12.2,11.3V-204.6z M277.3-143.4l-15.6,0l11.7-11.7h3.9V-143.4z M323.3-186.4h-22.1v-23h11.7v11.7h15.6L323.3-186.4z
		 M340.2-148.7l-6.1,5.2h-33v-23.4h11.7v11.7h27.3V-148.7z M726.2-208.9l-23.4-20.4h-29.9l-6.1,5.7v-5.7h-23.4l11.3-11.7h23.9v5.6
		l6.1-5.2h23l30.4,25.2v17.3l-11.7,11.7V-208.9z M726.2-123.5v-31.2h-23.4v6l-6.1,5.2h-23.4l-6-5.2v-13l6-4.8h5.6v6.1l6.1,5.2h17.3
		l12.1-11.3h23.4v31.2L726.2-123.5z M507.1-135.2l-11.7,11.7v-31.2h-23.9v11.3h-35.1v-23h11.7v11.3h23l12.2-11.3h23.9V-135.2z
		 M273.4-240.6h55.1v19.5l-11.7,11.7v-19.5h-55.1L273.4-240.6z M375.7-155.2L364-143.4v-23l-17.8-14.7l12.6-28.2h6.5l-7.4,16.5
		l17.8,14.8V-155.2z M477.2-198.1v19.9l-11.7,11.7v-19.9h-29.1v-23h11.7v11.3H477.2z M353.2-240.6h30.4v19.5l-11.7,11.7v-19.5h-29.9
		L353.2-240.6z"/>
</g>
</svg>
