<?xml version="1.0" encoding="utf-8"?>
<!-- Generator: Adobe Illustrator 25.0.0, SVG Export Plug-In . SVG Version: 6.00 Build 0)  -->
<svg version="1.1"
	 id="Layer_1" xmlns:cc="http://creativecommons.org/ns#" xmlns:dc="http://purl.org/dc/elements/1.1/" xmlns:rdf="http://www.w3.org/1999/02/22-rdf-syntax-ns#"
	 xmlns="http://www.w3.org/2000/svg" xmlns:xlink="http://www.w3.org/1999/xlink" x="0px" y="0px" viewBox="0 0 735.7 886.6"
	 style="enable-background:new 0 0 735.7 886.6;" xml:space="preserve">
<style type="text/css">
	.st0{fill:#333366;}
	.st1{fill:#C4CED4;}
</style>
<g>
	<path class="st0" d="M675,824.4c-30.3-29.8-85.6-186.4-131.3-196.7c16.8-8.4,122.2-33,122.7-147
		c-0.5-123.3-114.6-163.2-228.8-163.2c-24.3,0-68.5,1.8-113.4,4.5c-57.1,3.6-86.3,6.2-129.8,9.8v41.9c61.3,0,74.2,14.3,74.2,81.1
		v79.8c-84.5-17.8-140-111.8-140-244c0-139.9,65.7-238.3,161.7-238.3c36.1,0,67.9,14.4,93.2,40.6c25.3,26.2,43.3,64.1,51.3,110.1
		h33.9l-6.5-188.7h-26.8c-2.9,9-6.5,12.6-13,12.6c-18,0-60.6-27.1-137.9-27.1l0,0C200.8,0,129.3,30.7,79.5,84.9
		C28.9,139.9,0,214.8,0,305.1c0,62.3,18,132.7,59.2,188.6c41.1,56,107.6,96.6,204.3,96.6c1.7,0,3.3-0.1,4.9-0.2v176
		c0,65.1-14.3,78.5-74.2,78.5v41.9h270.3v-41.9c-55.6,0-76.3-8-76.3-74V651.1h37.8c0,0,139.4,235.5,143.2,235.5
		c9.9,0,166.4-0.1,166.4-0.1v-41.7C735.7,844.7,704.3,849.9,675,824.4z M388.3,607.4v-29.5c2.7-0.1,5.5-0.3,8.1-0.3
		c8.7,0,16.6,0,23.1,1.8c7.2,0.9,14.5,2.7,20.9,5.4l2.2-6.3c20.9-61.4,38.3-128.2,44-179.6h-33.9c-17.3,46.3-38.8,80.9-64.4,104
		V360.3h34.9c69.2,0,105.6,46.4,105.6,116.8C528.9,569,491.8,609.2,388.3,607.4z"/>
	<path class="st1" d="M557.9,484.2c0.1-91.8-40.6-117.8-40.6-117.8S629.7,376.6,630,483.1c0.3,93.9-114.5,117.5-114.5,117.5
		S557.9,575.1,557.9,484.2z M176.6,56.5L176.6,56.5C176.6,56.5,176.6,56.5,176.6,56.5C176.6,56.5,176.6,56.5,176.6,56.5z
		 M616.5,779.1c-23.8-56.9-68.2-126.3-99.3-142l0,0c0,0-8.7,3.4-20.6,6.8c-13.1,3.8-39.8,8-39.8,8
		c36.5,50.8,115.8,192.7,115.8,192.7l87.8,0.2C660.5,844.9,642.1,830.4,616.5,779.1z M297.7,844.5h61.6V362.2l-61.6,4.3V844.5z
		 M29.9,300.7c-0.2,191.4,141.3,227.5,141.3,227.5s-72.8-91.5-72.6-238.3c0.3-157.7,77.7-233.1,78-233.4
		C176.3,56.6,30,114.2,29.9,300.7z"/>
</g>
</svg>
