<?xml version="1.0" encoding="utf-8"?>
<!-- Generator: Adobe Illustrator 25.0.0, SVG Export Plug-In . SVG Version: 6.00 Build 0)  -->
<svg version="1.1" id="Layer_1" xmlns="http://www.w3.org/2000/svg" xmlns:xlink="http://www.w3.org/1999/xlink" x="0px" y="0px"
	 viewBox="0 0 617 861" style="enable-background:new 0 0 617 861;" xml:space="preserve">
<style type="text/css">
	.st0{fill:#FFFFFF;}
	.st1{fill:#C4CDD3;}
	.st2{fill:#231F20;}
</style>
<g>
	<path class="st0" d="M610.7,596.3l0-66.6l-42-43.4c-6.1-6.9-14.6-10.4-23.3-9.7c-8.9,0.7-17.2,5.8-22,13.5
		c-2.3,3.2-22.2,28.3-42.9,54.2c0-19.2,0-76.1,0-87.2c2.6-2.6,5.2-5.2,5.2-5.2c3.8-3.3,12.3-13.8,12.3-26.1c0-3-0.5-6-1.7-9.1
		c-2.4-6.5-8.2-13.7-21.1-16.8c3.8-14.6,5.3-28.7,5.4-39.6c0-1,0-2,0-3.1c0-29.1-6.7-53.6-19.9-73c-15.8-23-28-30.7-44.8-41.4
		l-4.4-2.8c-19.6-12.5-122.7-66.7-127.1-69c-0.4-0.2-39.5-19.6-39.5-19.6c-25.8-13.1-27.7-22.2-27.7-27.2c0-0.3,0-0.6,0-0.9
		c0.6-3,7.6-13.9,22.4-13.9c15.1,0,25.7,0.5,45.7,7.2c31.5,10.6,32.4,23.4,32.5,28.2c-0.1,1.2-1,14.5-1,14.5l65.6,44.8l98.3-126.3
		l-79.8-53.4l-10.6,10.6c-3.6,3.5-5.8,5.6-7.1,6.5c-1.6-0.3-5.7-1-5.7-1L360,34C332.2,22.8,285.9,4,243.6,4
		C169.8,4,131,39.1,97.7,75c-22,23.4-43.2,69.8-46.2,101.2c-1,10.1-1.5,19.4-1.5,28.1c0,31.5,6.5,55.7,20.5,79.2
		c17.7,29.4,45.6,53.6,80.8,70c33.2,15.4,81.1,36.9,86.8,39.2c2,0.8,4.5,2,7.2,3.3c-11,7.9-17.4,12.6-22.6,16.4
		c-29.6-6.8-66.8-1.6-75.5,0.5c-35.2,8.3-67.4,24.2-90.8,44.6c-23.8,20.9-41.7,44.8-47.8,64.1c-6.8,21.4-4.6,36.7,6.5,45.3
		c16.3,12.7,37.3-0.3,44.1-4.6c14.2-9,40.2-25.3,73-30.2c28.6-4.3,66.9-0.4,84.5,11.1c0,10.4,0,22.7,0,31.1c-4.2,3.9-8.8,8-8.8,8
		c-4.4,4.4-6.8,10.5-6.8,16.8c0,2.9,0.5,5.9,1.6,8.8c3,8,9.7,11.4,9.7,11.4c56.8,34.6,56.8,34.6,95,57.9c-0.5,0.2-1.7,0.2-2.1,0.4
		c-5,2.2-16.7,9.5-16.7,29.9v83.1l49.4,47.2c10.9,11,21.6,12.8,28.5,12.3c8.7-0.5,16.5-4.7,22-11.9c0,0,32.9-42.2,53.3-68.3
		c15.1,23.4,38.9,60.1,38.9,60.1c-0.3-0.4,0.6,1.3,0.6,1.3c2.8,5.9,8.5,18.2,22,21.7c6,1.6,15.4,1.7,26.4-6.3
		c14.8-10.7,49.1-37.5,55-43.4l1.1-1.1c4.1-4,10.3-10.1,10.3-20.2v-79.3c0-8.5-4.6-19.3-15.1-23.5c-7.7-3.1-16.4-3.1-26.9,5.4
		c-4.6,3.8-12.6,9.6-24.3,18.4c-6.7-10.7-10.3-16.5-15.4-24.6c10-12.6,33.7-42.5,47-59.3c1.7,1.4,5.2,4.1,5.2,4.1l0.6,0.4
		c14,9.3,24.6,5.9,29.7,3C610.6,618.9,610.9,601.4,610.7,596.3z"/>
	<path class="st1" d="M596.3,597.5v-61.6l-38.4-39.7c-3.1-3.5-7.1-5.2-11.3-4.9c-4.3,0.4-8.5,3-10.9,6.8c-2,3.2-31.7,40.3-52.6,66.3
		c-5.4-4.3-13.1-7.4-17.3-8.8c0-5.1,0-101.3,0-104.1c1.4-1.4,10.2-10.3,10.2-10.3c1.4-1.3,7.3-8.1,7.3-15.2c0-1.4-0.2-2.7-0.7-4.1
		c-2.2-5.9-9.1-8.9-20.4-8.9c-0.2,0-3.7,0.3-7.2,0.7c8.3-18.9,10.7-39.1,11-53.5c0-1,0.1-1.9,0.1-2.8c0-26.2-5.9-48-17.5-64.9
		c-14.1-20.6-24.1-26.9-40.7-37.4l-4.4-2.8c-19.2-12.2-121.9-66.2-126.2-68.5c-0.1-0.1-39.3-19.5-39.3-19.5
		c-30.9-15.6-35.8-29.2-35.8-40.5c0-0.5,0-1,0-1.5c0.3-9.3,13.7-27.5,36.9-27.5c16.2,0,28.4,0.6,50.3,7.9
		c28.6,9.6,42.4,23.5,42.4,42.5c0,0-0.5,6.8-0.5,6.8l47.6,32.5l80.5-103.4l-57.1-38.2l-2.2,2.2c-12.3,12.3-12.8,12.2-25.9,9.6
		c-3.4-0.7-10.8-3.7-20.2-7.5c-26.8-10.8-71.6-28.9-111.1-28.9c-68.1,0-103,31.4-135.6,66.5c-19.9,21.2-39.8,64.6-42.5,92.9
		c-0.9,9.5-1.4,18.3-1.4,26.5c0,28.9,5.8,50.9,18.5,72.1c16.2,27,42,49.3,74.6,64.4c34.7,16.1,81.2,36.9,86.3,39
		c9.5,3.9,23.9,11.7,27.7,15.8c-5,3.6-43,31.2-45.4,32.9c-25-8.1-64.4-3.6-75.5-0.9c-33,7.8-63.1,22.5-84.8,41.5
		c-21.7,18.9-38.4,41-43.6,57.6c-4.7,15.1-4.2,25,1.6,29.5c5.6,4.3,14.6,2.6,27.7-5.5c13.9-8.8,42.8-26.9,78.7-32.3
		c26.6-4,53.4-0.9,73.4,4.1c0,0,15.5,4.8,27.7,13c0,3.8,0,43,0,46c-2.1,1.9-13,11.9-13,11.9c-1.8,1.8-2.6,4.2-2.6,6.5
		c0,1.3,0.3,2.6,0.7,3.8c1,2.7,3.6,4.1,3.6,4.1l135.4,82.5c0,0,32.2-24.6,37.8-28.8c2.2,3.7,5,8.3,6.5,10.9
		c-2.9,3.6-37.6,46-41.9,51.2c-4.9-4.3-30.3-27-30.3-27c-7.5-6.9-13.4-5.9-16.2-4.7c-5.1,2.2-8,8.3-8,16.7v77.1l45.2,43.2
		c7.2,7.1,13.4,8.4,17.4,8.1c4.5-0.3,8.5-2.5,11.5-6.3c0,0,52.3-67.1,65.9-84.6c5.1,7.9,50.1,77.4,50.1,77.4l1.5,3
		c2.3,4.8,5.6,12,12.5,13.8c4.3,1.1,9.1-0.2,14.3-4c14.7-10.7,48.6-37.2,53.4-42.1l1.1-1.1c3.3-3.3,6-5.9,6-9.9v-79.5
		c0-3.8-2.1-8.5-6.2-10.2c-2.7-1.2-7.2-1.4-12.8,4c0.3-0.2-27.3,20.6-36.6,27.6c-3.6-5.8-26.9-42.9-29.3-46.8
		c3.1-3.8,58.2-73.4,62.5-78.7c4.2,3.3,16,12.6,16,12.6c6,4,10.9,4.8,14.8,2.6C596.7,610.8,596.4,598.8,596.3,597.5z M586,608.1
		c-1.2,0.7-3.7-0.1-6.7-2.1c0,0-21.7-17-21.7-17l-70.4,88.8l36.5,58.2l43.5-32.9c2.7-2.6,4.3-3.1,5-2.8c0.9,0.4,1.6,2.1,1.6,3.3
		v79.5c0,0.9-1.7,2.6-3.7,4.6l-1.2,1.2c-4.2,4.2-37.1,30.1-52.5,41.3c-3.2,2.4-5.9,3.3-8,2.8c-3.4-0.9-5.8-6-7.5-9.7l-2-3.9
		l-55.8-86.4l-72.4,93c-1.2,1.5-3.1,3.2-6,3.4c-3.5,0.2-7.5-1.8-11.6-5.9c0,0-40.8-39-43-41.1c0-3.1,0-73.9,0-73.9
		c0-6.1,1.8-9,3.5-9.8c1.9-0.8,5,0.4,8.2,3.4c0.1,0.1,36.2,32.2,36.2,32.2l50.2-61.4l-13.6-22.6c0,0-36.7,28-40.3,30.8
		c-4.3-2.6-131.2-80-131.4-80.1c-0.1-0.3-0.3-0.7-0.3-1.1c0-0.5,0.1-1,0.3-1.2l15.2-13.8l0.1-1.7v-51.9l-1.8-1.1
		c-10.2-6.6-18.5-11.4-33.3-15.1c-24.9-6.3-54.3-7.4-74.8-4.1c-37.5,6-67.3,24.3-81.6,33.4c-13.8,8.5-18.1,6.7-19.1,5.9
		c-2.1-1.6-3.1-8.2,1-21.3c4.8-15.1,21-36.4,41.3-54.2c20.8-18.2,49.8-32.3,81.6-39.8c12.5-3,51.4-6.8,73.3,1.2l1.9,0.7l1.6-1.1
		l51.2-37.2v-1.9c-0.6-8.6-25.1-20-33.7-23.7c-4.9-2.1-52-23.1-85.9-38.9c-31.2-14.5-55.9-35.8-71.3-61.4
		c-11.2-18.8-21-43.1-16.1-94.1c2.6-26.5,21.9-68.7,40.5-88.5c31.4-33.8,65-64.1,130.1-64.1c38,0,82,17.8,108.3,28.4
		c10.1,4.1,17.4,7.1,21.6,7.9c14.4,2.9,18.2,2.4,30.4-9.5c4.2,2.8,39.8,26.6,45.3,30.3c-4.5,5.8-67.2,86.3-71.2,91.4
		c-4.9-3.3-35.1-24-38.2-26.1c0.1-1.3,0.2-2.7,0.2-2.7c0-22.6-16-39.3-47.6-49.8c-23-7.7-36.4-8.3-52.7-8.3
		c-28.4,0-44,22.6-44.4,34.8c-0.7,19.6,11.6,34.7,39.9,49c0.1,0,39.2,19.4,39.2,19.4c1,0.5,106.7,56,125.6,68.1l4.5,2.8
		c16.3,10.4,25.3,16,38.5,35.3c11.1,16.2,16.5,37.5,16.1,63.4c-0.2,15.1-2.6,37.1-12.6,56.2l-3.2,6.1l19.9-1.9c7.2,0,12,1.5,13,4
		c1.3,3.3-2.9,9.5-4.5,10.9l-13,13.3l0.3,1.2v111.2l2.7,0.8c6,1.8,16.6,6,19.5,10.1l2.9,4l3.1-3.8c5.4-6.7,52.5-65.2,55.5-70
		c1.2-1.8,3.2-3.1,5.2-3.3c1.8-0.1,3.5,0.7,5.1,2.4c0,0,31.2,32.3,36.5,37.8c0,2.9,0,58.7,0,58.7c0,0.3,0,0.6,0,0.9
		C588.8,602.3,587.9,607.1,586,608.1z"/>
	<g>
		<path class="st2" d="M103.2,120.5c0-0.1,0.1-0.1,0.1-0.1C103.2,120.5,103.2,120.5,103.2,120.5z"/>
		<path class="st2" d="M582.7,598.9v-56.5l-35.3-31.8l-97.8,121.4l-13.7-21.9c11.9-8.9,27.3-20.3,29-21.2c2.8-1.4,9.8-5.6,13.4-5.6
			c3.2,0-5-14.1-28.2-14.1V444.3l13.4-14.8c0,0-16.3,2.6-24,0.2c-1.6-0.5-4.3-1.8-7.7-3.5c4.4-7,8.3-14.9,11.3-24.2
			c16-50.6,5.5-97.4-32.5-126.2c-26.7-20.2-136.2-75.6-136.2-75.6s-66.3-32.5-73.4-39.6c-5.1-5.1-15.5-13.1-15.5-38.1
			c0-14.9,16.6-31.4,23.8-34.8c11.5-5.4,15.2-8,38.5-8.4c13.2-0.2,25.4,3,27,3.2c14.5,1.5,48.7,12.8,66.4,36.7
			c6.7,6.8,8.1,26.6,8.1,26.6l27.6,17.6l60-78.4l-32.5-21.9c-9.2,9.9-26.8,10.6-33.9,7.1c-7.1-3.5-67.7-25.6-76.3-28.4
			c-16.2-5.2-51.5-9.1-70.6-6.3c-19.1,2.8-50.3,8.6-74.8,34.6c-28.6,30.3-28.9,54.7-28.9,67.8c0,20.5,5.3,47.6,28.2,70.5
			c33.1,33.1,83.3,53.8,94.6,60c20.1,11.1,83.3,44.2,92.5,49.5c38.9,22.6,53.7,46.6,49.5,76.9c-0.2,1.5-0.7,2.9-1,4.3
			c-17-10-40.9-25.1-50.5-34.7c0,0-5.8,6.2-9.5,9.9l-28.2,21.1c3.3-13.7,3.7-37.1,3.1-39.4c-0.7-2.8-2.8-25.4-22.6-39.5
			c-13.4-9.6-43.4-27.5-69.2-40.2c-11.1-5.5-47-27.2-64.2-41.5c0,0-29.6-27.6-34.2-44.6c-8.7-19.1-9.2-63.8-4.8-69.6
			c-1.6,1.9-11.7,14.5-18.8,37.9C80.5,170.8,78,187,78,197.9c0,18.3,3.2,50.5,23.3,77.6c8.9,12,22.8,25.6,37.5,35.3
			c18,11.9,36.1,18.8,37.3,19.7c4.9,3.5,51.5,23.2,55.8,25.3c4.2,2.1,25.6,12,30.1,14.5c16.1,8.6,24.4,14.1,29.5,27.8l-48.3,36.2
			c0,0,2.1,3.9,2.1,9.9c0,0,0,1.7,0,4.6c-6.5-2.1-13.1-4-19.8-5.2c-31.8-5.4-51.1-5.1-76.2,1.1c-27.9,6.9-57.2,18.1-84.7,45.7
			c-31.1,31.1-30.7,51.9-30.7,51.9l31-18.3c26-14.6,60.2-23.3,84.4-23.3c57.7,0,87.6,16.7,96,25.9c0,29,0,54.7,0,55.9
			c0,11.1-3.3,12.5-5.8,14.6c-1,0.8-1.8,0.9-5.1,3.2c0,0,4.3,1.6,5.3,2.6c2.8,2.1,112.7,68.5,112.7,68.5l42.5-31.2l21,33.5
			l-58.4,72.5l-40.2-36.7v68.5l45.9,42.4l81-101.7l66.5,105.9l53.7-43v-67.8l-43.1,32.5l-43.6-69.6l78.9-99.1L582.7,598.9z
			 M308.4,446.4L308.4,446.4l25.1-18.4c6.8,5.7,14.8,10.8,22.8,15.4c-0.5,0.5-1,0.8-1,0.8s-28.9,24.7-46.9,27.3V446.4z M395,545.1
			l-27-42.9l-41,29.2v52.2l22.7-15.1l17,27.1l-14.4,11.7l-43.9-26.8V514c18.4-3.3,63.3-24.6,86.5-47.9
			C395.2,470.5,395.1,515,395,545.1z"/>
		<path class="st2" d="M103.3,120.4c0,0,0.1-0.1,0.1-0.1C103.4,120.3,103.3,120.3,103.3,120.4z"/>
	</g>
</g>
</svg>
