<?xml version="1.0" encoding="utf-8"?>
<!-- Generator: Adobe Illustrator 25.0.0, SVG Export Plug-In . SVG Version: 6.00 Build 0)  -->
<svg version="1.1"
	 id="Layer_1" xmlns:cc="http://creativecommons.org/ns#" xmlns:dc="http://purl.org/dc/elements/1.1/" xmlns:rdf="http://www.w3.org/1999/02/22-rdf-syntax-ns#"
	 xmlns="http://www.w3.org/2000/svg" xmlns:xlink="http://www.w3.org/1999/xlink" x="0px" y="0px" viewBox="0 0 582.5 849"
	 style="enable-background:new 0 0 582.5 849;" xml:space="preserve">
<style type="text/css">
	.st0{fill:#0C2C56;}
</style>
<g>
	<path class="st0" d="M545.4,568.4V230.2c2.1-28.9,9.3-38.2,30.3-57.8c-46.8-17.5-100.4-72.2-129.3-129.9
		C302,116.7,141.1,116.7,19.5,9.5C13.5,4.2,7.1,0.2,3.3,0l0,0c-3.8-0.2-4.9,3.5-0.2,13.6c34.3,74.6,105.6,121,185.8,141.6
		c-46.1,40-73.3,63.6-79.4,114.2c-39.5,2.9-81.7,31.8-95.1,58.6c-15.2,30.5,7.3,31.1,22.6,20.6c19.6-13.4,47.4-18.6,71.1-17.5
		l0,38.3c-39.5,2.9-78.3,31.8-91.7,58.6c-15.2,30.5,7.3,31.1,22.6,20.6c19.6-13.4,45.3-20.6,69.1-19.6v115.5
		c0,45.3-22.7,68-36.1,80.4c-13.4,12.4-6,25.3,13.4,17.5c40.8-16.3,83.1-54.9,92.8-113.8c15.6,2,34.3,2.2,47.5,0v15.9
		c0,45.3-22.7,68-36.1,80.4c-0.2,0.2-0.3,0.4-0.6,0.6c-43.4,3.8-82.2,18.4-113.1,42.4C5.7,723-5.1,826.2,5.7,849
		c0.7,1.5,39.6-127.5,155.3-141.2c67-7.9,149.3,12.1,219.4,73c43.3-72.2,116.6-113.4,202.1-128C553.6,620,546.4,605.5,545.4,568.4z
		 M235.5,164.4c19.8,2.6,39.8,3.7,59.6,3.3c-21.7,19-40.3,36.6-52.8,57.1c-16.5-5.5-31.7-8.7-46.4-9.5
		C205.4,196.1,219.1,178.3,235.5,164.4z M225.8,498.2c-11.6,2.5-29.5,2.8-45.4,1.3v-224c0-9.8,1.6-20.3,4.4-30.9
		c4.1-0.5,8.2-0.7,12.2-0.7c12.1-0.1,23.9,1.8,34.4,5.5c-3.3,10.5-5.4,21.7-5.3,34.5L225.8,498.2z M452.6,605.5
		c-28.9,8.2-63.9,28.8-94.9,55.7c-44.8-22.2-88.9-33.7-130.1-36c37-24.9,70.3-68.7,70.3-126.9v-37.9c20.8-7.5,47.9-11.4,75.6-11.6
		c27.7-0.3,55.9,3.1,79.1,10.1V605.5z M452.6,423.8c-46.3-13.9-113-13.4-154.7,1.5V323.8c41.6,14.9,108.4,15.4,154.7,1.5V423.8z
		 M452.6,290.2c-46.3,14-113,13.4-154.7-1.5v-13.2c0-35.9,3-81.3,32.5-110c28.2-3,55.6-8.9,80.9-17.8l41.3,41.2V290.2z"/>
</g>
</svg>
