<?xml version="1.0" encoding="utf-8"?>
<!-- Generator: Adobe Illustrator 25.0.0, SVG Export Plug-In . SVG Version: 6.00 Build 0)  -->
<svg version="1.1" id="Layer_1" xmlns="http://www.w3.org/2000/svg" xmlns:xlink="http://www.w3.org/1999/xlink" x="0px" y="0px"
	 viewBox="0 0 861.4 863" style="enable-background:new 0 0 861.4 863;" xml:space="preserve">
<style type="text/css">
	.st0{fill:#FFFFFF;}
	.st1{fill:#1E3160;}
	.st2{fill:#E87200;}
	.st3{fill:#E76E24;}
	.st4{fill:#F29120;}
	.st5{fill:#BBBBBB;}
</style>
<g id="Group_1_">
	<path class="st0" d="M430.7,0C193.1,0,0,193.6,0,431.5S193.1,863,430.7,863s430.7-193.6,430.7-431.5C861.3,193.6,668.1,0,430.7,0z"
		/>
	<path class="st1" d="M430.7,12.3c-231.1,0-418.4,187.6-418.4,419.2c0,231.4,187.5,419.2,418.4,419.2S849,662.9,849,431.5
		C849,199.9,661.8,12.3,430.7,12.3z"/>
	<path class="st2" d="M430.7,31.5c-220.9,0-400,179.1-400,400s179.1,399.8,399.8,399.8c220.9,0,399.8-179.1,399.8-399.8
		C830.5,210.6,651.6,31.5,430.7,31.5z"/>
	<path class="st1" d="M808.6,363.4c-32.1-179.6-189.2-316-378.1-316c-212.2,0-384.1,172-384.1,384.1c0,212.2,172,384.1,384.1,384.1
		c212.2,0,384.1-172,384.1-384.1C814.6,408.3,812.6,385.5,808.6,363.4z"/>
	<path class="st0" d="M282.8,194.4l2.4-13.4L250,130.3l-13.4-2.4l-22.5,15.4l-2.4,13.5l35.3,50.7l13.4,2.4L282.8,194.4z
		 M254.6,195.8l-29-41.9l0.5-2.8l13.5-9.5l2.8,0.5l29,41.9l-0.5,2.8l-13.5,9.5L254.6,195.8z M732.7,233.2l-8,6.6l-5.4-2.8
		l-53.9,41.9l-9.3-12l27.9-46.5l-29.8,23.3l1.4,5.8l-8,6.3L633,236.9l8-6.3l5.4,2.7l43.8-34.2l-1.4-5.8l8-6.3l12.6,16.2l-27.9,46.5
		l29.9-23.3l-1.4-5.8l8-6.3L732.7,233.2z M293.5,674.9l32.6,16.4l-9.1,18.3l-8.8-4.4l0.8-8l-16.4-8.2l-2.7,0.9l-7.6,15.1l0.9,2.7
		l19.2,9.6l4.3,12.9l-12.4,24.7l-12.9,4.3l-32.6-16.4l9.1-18.3l8.7,4.4l-0.8,8l16.4,8.2l2.7-0.9l7.6-15.1l-0.9-2.7l-19.1-9.6
		l-4.3-12.9l12.4-24.7L293.5,674.9z M225.4,621.2L169.5,662l-5.7-2l-7.1,7.2l17,16.7l7.1-7.2l-2-5.5l7.1-5.2l14.8,14.5l-5,7.2
		l-5.5-2l-7.1,7.2l17,16.7l7.1-7.2l-1.9-5.5l39.7-56.6L225.4,621.2z M196.8,658l27.6-20.2l3.8,3.8l-19.5,27.9L196.8,658z
		 M186.1,270.7l-43.8-34.2l-5.2,2.8l-8-6.3l14.7-18.9l8,6.3l-1.4,5.8l16.9,13.1l12.3-15.9l-16.9-13.1l-5.4,2.8l-8-6.3l14.7-18.9
		l8,6.3l-1.4,5.8l43.6,34.2l5.4-2.8l8,6.3l-14.7,18.9l-8-6.3l1.4-5.8l-16.9-13.1l-12.3,15.9l16.9,13.1l5.4-2.8l8,6.3l-14.7,18.9
		l-8-6.3L186.1,270.7z M568.7,674.4l-24.4,12.3l-4.3,12.9l27.7,55.1l12.9,4.3l24.4-12.3l4.3-12.9l-27.7-55.1L568.7,674.4z
		 M594.4,737.4l-14.8,7.4l-2.7-0.9l-23-45.4l0.9-2.7l14.8-7.4l2.7,0.8l23,45.5L594.4,737.4z M360,161.2l-26,8.2l-12-6.3l-17.5-55.9
		l-6-0.8l-3-9.8l23-7.2l3,9.8l-4.4,4.1l15.9,50.9l2.5,1.3l15.8-4.9l1.3-2.5L336.7,97l-6-0.8l-3-9.8l22.5-7.1l3,9.8l-4.4,3.9
		l17.5,55.9L360,161.2z M523.8,154.9l4.4,4.1l-3,9.8l-22.8-7.1l3-9.8l6-0.8l16.4-52.8l-7.4-2.4l-5.7,8l-9.3-2.8l6.6-21.3l51.8,16.1
		l-6.6,21.3l-9.3-2.8l-0.2-9.9l-7.6-2.4L523.8,154.9z M646.9,143.2l-22.5-15.6l-13.4,2.5l-35,50.7l2.4,13.4l22.4,15.6l13.4-2.5
		l35.1-50.7L646.9,143.2z M606.5,195.5l-2.8,0.5l-13.5-9.5l-0.5-2.8l29-41.9l2.8-0.5l13.5,9.5l0.5,2.8L606.5,195.5z M360.9,703.1
		l53.6,8.3l-3.3,22.1l-9.6-1.4l-1.6-9.8l-7.9-1.3l-8.5,54.7l5,3.3l-1.6,10.1l-23.6-3.6l1.6-10.1l5.8-1.6l8.5-54.7l-7.9-1.3l-4.4,8.8
		l-9.6-1.6L360.9,703.1z M506,769.7l-9.6-20l6.8-9.3l-4.3-27.4l-11-8l-41.4,6.6l1.6,10.1l5.8,1.6l8.7,54.8l-5,3.3l1.6,10.1l23.6-3.8
		l-1.6-10.1l-5.8-1.6l-3.3-21l11.7-1.9l9.1,19.1l-4.3,2.8l1.6,10.1l23.8-3.6l-1.6-10.1L506,769.7z M487.9,739.5l-17.8,2.8l-3.3-20.8
		l17.8-2.8l2.4,1.7l2.7,16.7L487.9,739.5z M453.6,142.7l-9.6,9.6h-36.4V132h9.8l2.8,7.4h18.4l2-2v-17l-2-2h-21.4l-9.6-9.6V81
		l9.6-9.6h36.4v20.5h-9.8l-2.8-7.6h-18.4l-2,2v17l2,2h21.4l9.6,9.6V142.7z M673.5,645.1l19.5,19.7l-0.2,13.7l-26,25.7l-14.3-14.7
		l6.9-6.9l7.4,3.3l13.1-12.9v-2.8L668,658h-2.8l-15.3,15l-13.5-0.2l-19.4-19.7l0.2-13.5l25.7-25.8l14.3,14.7l-6.9,6.9l-7.2-3.3
		L629.8,645v2.8l12,12.1h2.8l15.3-15L673.5,645.1z"/>
	<path class="st2" d="M430.7,174.9c-141.8,0-256.6,114.8-256.6,256.5c0,141.8,114.8,256.6,256.6,256.6
		c141.6,0,256.5-114.8,256.5-256.6C687.2,289.7,572.3,174.9,430.7,174.9z"/>
	<path class="st1" d="M658.8,359.7l-2.4-7.1c-32.1-92-118.9-158.5-221.7-160.2h-8.3c-102.6,1.7-189.5,68.1-221.7,160.2l-2.4,7.1
		c-7.1,22.7-11,46.8-11,71.8c0,78.1,37.5,147.5,95.3,191.1l5.2,3.8c39.1,27.9,87,44.4,138.6,44.4s99.6-16.5,138.6-44.4l5.2-3.8
		c57.8-43.6,95.3-113,95.3-191.1C669.9,406.5,665.9,382.3,658.8,359.7z"/>
</g>
<g id="Group">
	<polygon class="st3" points="665.1,352.6 488.2,352.3 429.9,181.6 374.3,352.3 194.7,352.6 336.8,455.6 284.5,629.1 429.9,523.5 
		575.3,629.1 520.2,457.7 	"/>
	<path class="st4" d="M380.5,465.4H403l-22.5,31V465.4z M284.5,629.1l45.1-62.4l-26.3,0.2L284.5,629.1z M328.5,364.1h-0.2l-32-11.5
		H194.9l38.9,12.6l94.7,68.7V364.1z M563.7,352.6l-32,11.5v1.1h94.7l38.9-12.6H563.7z M412.4,311.9v40.6l-32,11.5v49.3h49.5V181.8
		l-42.4,130.1H412.4z"/>
	<polygon class="st0" points="563.7,352.6 563.7,311.9 447.4,311.9 447.4,352.6 479.5,364.1 479.5,413.4 380.5,413.4 380.5,364.1 
		412.4,352.6 412.4,311.9 296.3,311.9 296.3,352.6 328.3,364.1 328.3,514.7 296.3,526.2 296.3,566.8 412.4,566.8 412.4,526.2 
		380.5,514.7 380.5,465.4 479.5,465.4 479.5,514.7 447.4,526.2 447.4,566.8 563.7,566.8 563.7,526.2 531.5,514.7 531.5,364.1 	"/>
	<path class="st5" d="M328.3,364.1l-32-11.5l10.2-7.2l32.1,11.5L328.3,364.1z M380.5,364.1L380.5,364.1l32-11.5v-40.6L402,322.3v23
		l-32,11.5v67l10.4-10.4V364.1z M489.8,356.8l-32-11.5l-10.4,7.2l32.1,11.5L489.8,356.8z M380.3,514.7v-49.2h99.1l10.4-10.4H370.1
		v66.8l10.4-7.2H380.3z M553.3,322.3v23l-32,11.5v165.1l10.4-7.2V364.1l32-11.5v-40.6L553.3,322.3z M553.3,556.4h-95.5l-10.4,10.4
		h116.3v-40.6l-10.4,7.2V556.4z M402,556.4h-95.5l-10.2,10.4h116.1v-40.6l-10.4,7.2V556.4z"/>
</g>
</svg>
