<?xml version="1.0" encoding="utf-8"?>
<!-- Generator: Adobe Illustrator 25.0.0, SVG Export Plug-In . SVG Version: 6.00 Build 0)  -->
<svg version="1.1"
	 id="Layer_1" xmlns:cc="http://creativecommons.org/ns#" xmlns:dc="http://purl.org/dc/elements/1.1/" xmlns:rdf="http://www.w3.org/1999/02/22-rdf-syntax-ns#"
	 xmlns="http://www.w3.org/2000/svg" xmlns:xlink="http://www.w3.org/1999/xlink" x="0px" y="0px" viewBox="0 0 691.2 799"
	 style="enable-background:new 0 0 691.2 799;" xml:space="preserve">
<style type="text/css">
	.st0{fill:#004687;}
	.st1{fill:#C09A5B;}
	.st2{fill:#FFFFFF;}
</style>
<g transform="translate(.86149 .86149)">
	<path class="st0" d="M107.9,641.8c-9-16.8-21.3-17.2-28.8-15.4c0.5,16.9,1.7,36.2,3.5,58.5c3.1,39.8-13.7,56.3-25.4,62.5
		c-24.6,13.1-55.8-10-37.2-37.5c8.5,14.6,26.6,5.9,29.5-10.6c6.4-30.7-2.6-121.9,23.6-153.4c7.4-8.7,16.2-13.6,24.3-16.3
		c-13.9,14.9-19.2,40.7-18.5,86.8c12.2-3.3,22.4-3.5,31.3-1.1c20.6-8.5,34.6-28.8,33.6-50.8c-1.2-25-21.8-46.9-47.1-45.1
		c-36.2,2.7-64.7,24.5-66.8,41.4c-2.2,17.8,10.2,13.9,15.7,8.8c-1.8,15-13,35.9-35.1,30.6c-29-7-3.2-87.7,86.2-93.5
		c2.7-0.2,5.4-0.3,8-0.2l0,0c39.2,0.4,68.6,23.9,70.4,54.5c1.6,26.9-18.7,52.2-48.3,63c11.6,9.2,21,24.1,30.5,42.9
		c18.5,36.3,47,33.4,61.6,19.8c2.6-2.9,4.8-2.6,4.1,1.2c-2,10.1-5.8,20.1-19.6,26.9C143.3,744.6,118.1,660.8,107.9,641.8z
		 M474.8,410.8V134.1H182.6v276.7l146.1,85.5L474.8,410.8z M664,608.4c-76.4,26.4-186.4,56.9-296.8,92.6l0,2.9
		c0.3,52.5-14.3,65.6-34,69c-25.6,4.4-37.8-23.5-37.8-50.4c-21,7.3-41.7,14.8-61.5,22.4c-32.6,12.5-46.1,31.9-48.7,37.5
		c-10.8-6.5-48.8-20.6-81.2,15.7c4.3-31.8,30.9-57.4,123.8-78.2c15.3-3.4,40.4-9.9,70.2-18c0.4-1.3,0.8-2.7,1.2-3.9
		c6.8-19.9,23.5-38.8,41.1-55.9c0-3.7,0-7.3,0-10.8c-10.3,11.8-22.7,21.2-35.6,21.1c-16.9,0-18.9-21.8-19-36.6l0.5-22.2
		c-4.6,7-12.3,12.4-21.6,15.4c1.9,34.1-16,73-53,69.4c-6.3-0.6-17.8-3.8-26.7-18.6c-15.1-24.3-8.2-82.7,27.3-94.2
		c4.9-4,11.6-6.1,19.6-4.8c16.1,2.6,26.2,16.1,30.6,33c13.5-4.9,25.4-17.8,24.7-47.8l25.7-6.5l0,75c-0.1,4.6,1.5,14.4,7.2,15.2
		c5.6,0.8,16.3-6.4,19.9-19.8c0-3.7,0.1-6.4,0.1-7.6l0.2-70.2l27-7.5l-0.1,92.8c8.8-7.9,16.6-15,22.1-21.3
		c-8.5-40.2,15.5-92.7,47-93.5c5.2-0.1,12.1,0.6,15.6,4c0-3.3,0.1-5.8,0.1-5.8l26.7-6.8l-0.1,78.3c1.5,12.5,4.2,17.4,20.7,3.5
		c2.3-1.9,4.5-4,6.7-6c-0.3-1.3-0.6-2.7-0.8-4.1c-0.3-2.2-0.2-5.8-0.3-16c-0.1-10.1,0-114.6,0-114.6c-0.2-18.8,10-29.5,20.8-29.9
		l0,0c0.7,0,1.4,0,2.1,0.1c46.4,4.5,55.6,92.4,2.6,155.7c0.6,8.2,6.8,13.7,13.2,11.5c37.8-12.9,38.1-136.6,119.8-125.8
		c-6.9,6.2-14.5,18.9-4.4,55.5c2.9,10.7,3.3,21.7,1,31.6C695.3,547.5,703.6,594.7,664,608.4z M531.1,539.7
		c20.2-31.3,28-67.1,20.3-94.2c-3.4-12-9.5-18-14.1-18.3v0c-3.6-0.3-6.3,2.8-6.2,9C531.2,444.1,531.2,509.5,531.1,539.7z
		 M226.1,592.4c2.3,1.3,10.5,3.9,20.1,4c-2.9-9.6-7.7-17.3-14.4-19.9c-1.3-0.5-2.6-0.8-3.8-0.8l0,0
		C219.4,575.4,213.9,585.4,226.1,592.4z M248.9,611.6c-9.8,0.2-20.3-2.2-30.1-7.9c-4.1-2.4-7.2-5.2-9.4-8.1
		c-7.5,14.9-7.9,58.4,17.5,58.4C243.7,653.9,250.3,632.2,248.9,611.6z M340.3,709.8c-9.8,3.2-19.5,6.5-29.2,9.9
		c0.2,19.4,7.2,38.2,18.7,35.2C338.9,752.5,340.3,742.7,340.3,709.8z M340.3,688.6c0-8.4,0-18.7,0.1-29.2
		c-10.5,11.2-19.5,23-24.8,35.1c-0.1,0.3-0.2,0.7-0.4,1C323.4,693.2,331.8,690.9,340.3,688.6z M586,534.4c4.3-4,10.9-7.1,20-8.2
		c11.3-1.4,19.8-1.3,27.6-0.1c0-0.7,0-1.4,0-2.1c-1.2-22.5-11-49.9-1.1-59.5C613.8,467.4,597,507.1,586,534.4z M632.1,538
		c0,0-0.1,0-0.1,0c-1.4-0.2-2.7-0.4-4-0.4h-0.2c-1.3-0.1-2.5-0.1-3.8,0l0,0c-0.1,0-0.1,0-0.2,0c-1.3,0-2.6,0.2-3.9,0.3
		c-0.1,0-0.2,0-0.3,0c-2.8,0.3-5.8,0.7-9.3,1.2c-17.8,2.3-18.7,22.3,4.5,17.6c10.4-2.1,15.7-9.2,17.7-18.5
		C632.4,538.1,632.2,538,632.1,538z M429.8,600.4c12.2,0.7,23.5-17.8,23.3-33.2c0-5.8,0.5-23.2,0.4-41.9c-1.4-5.8-7.5-10.2-14.3-9.6
		l0,0c-5.3,0.4-10.9,3.8-15,11.7C410.8,553.1,411.9,599.4,429.8,600.4z M659.6,547.9c-1.4-0.6-2.8-1.3-4-1.8
		c-6.8,12.4-19.3,21.4-38.3,23.5c-23.3,2.5-36.3-8.4-37.5-20c-4.9,10.9-12.1,22.8-19.4,29.8c-14,13.5-38.5,17.8-49.6,1.5
		c-1.9,1.6-3.7,3.1-5.7,4.6c-7.9,6.1-42.1,42.3-51.9,12c-21.1,38.8-54.5,20.8-57.8,11.7c-8.7,7.7-18.4,15.9-28.1,24.5l0,47.5
		c110.2-30.6,237.3-67.4,292.7-84C680.8,590.9,687.3,560.6,659.6,547.9z"/>
	<path class="st1" d="M358.8,16.5c0-9.6,7.8-17.4,17.4-17.4c9.6,0,17.4,7.8,17.4,17.4c0,9.6-7.8,17.4-17.4,17.4
		C366.6,33.8,358.8,26.1,358.8,16.5z M205.8,16.5c0-9.6-7.8-17.4-17.4-17.4s-17.4,7.8-17.4,17.4c0,9.6,7.8,17.4,17.4,17.4
		S205.8,26.1,205.8,16.5z M282.9,33.8c9.6,0,17.4-7.8,17.4-17.4c0-9.6-7.8-17.4-17.4-17.4s-17.4,7.8-17.4,17.4
		C265.5,26.1,273.3,33.8,282.9,33.8z M464,45.2c0,22.8-18.5,41.4-41.3,41.4c-22.8,0-41.2-18.6-41.2-41.4h-11
		c0,22.8-18.5,41.4-41.3,41.4c-22.8,0-41.2-18.7-41.2-41.5l-11.1,0.1c0,22.8-18.5,41.4-41.3,41.4c-22.8,0-41.2-18.6-41.2-41.5
		l-12-0.1v81.3h292.6V45.2h-7.3H464z M469.3-0.9c-9.6,0-17.4,7.8-17.4,17.4c0,9.6,7.8,17.4,17.4,17.4c9.6,0,17.4-7.8,17.4-17.4
		C486.7,6.9,478.9-0.9,469.3-0.9z"/>
	<path d="M216.4,193.5l-3.2-0.1v-5.6h0c5.6,0.5,11.1,3,14.4,8.5C224.2,194.4,220.2,193.5,216.4,193.5z M274.9,345.1L274.9,345.1
		l0,2.6h-33.8h-27.9v5.8H247h33.8v-8.2l-3.1-0.1C276.7,345.3,275.8,345.2,274.9,345.1z M257.4,253.2l0-38.9c0-14.7,9.1-20.1,18-20.7
		v-8.4h-5.8l0,0v2.5c-8.9,0.7-18,6.1-18,20.7l0,49.3l4.3-2.4C256.4,254.7,256.9,254,257.4,253.2z M287.1,187.8v5.7
		c2.8,0,5.6,0.1,7.9,0.4C295.4,189.5,291.9,188.1,287.1,187.8z M437.5,367.7c0.4,1,0.9,2,1.8,2.9
		C439.2,369.1,438.6,368.3,437.5,367.7z M452.6,294.6v-62.3h-5.8v56.4h-3.3c0.3,2.3,0.6,4.3,0.7,5.8H452.6z M455.5,363.3
		c-1.8-3.2-3.9-5.2-6.1-6.2l0,0c0.1,0.1,0.2,0.2,0.3,0.4c4.6,8.1-3.6,46.4-46.5,46.4c-18.9,0-33.9-7.5-46.4-18.9
		c13.6,14.6,30.3,24.7,52.2,24.7C451.9,409.7,460.1,371.4,455.5,363.3z M380,385.5c-11.3-13.4-19.2-36.1-18.7-71.2
		c0.5-27.7,7.1-68.4,42.2-67.3c9.8,0.3,17.3,3.5,22.9,8c-6-7.6-15.1-13.4-28.7-13.8l0,0c-35.1-1.1-41.7,39.6-42.2,67.3
		C354.8,349.4,365.8,373.5,380,385.5z M304.9,271.9c15,16.9,23.2,39.9,29.5,44.5c-0.1-0.7-0.1-1.4-0.2-2.2
		C327.6,303.3,318.8,284.5,304.9,271.9z M269.2,266.3L269.2,266.3c-8.1-0.4-14.3,4.2-17.5,7.3l-0.3,16.2l0.1,28.8
		c0,9.4,3.8,15,8.9,18c-1.8-3.1-3-7-3-12.1l-0.1-28.8l0.3-16.2c5.1-5,17.7-13.6,33.6-0.3C283,269.9,275.5,266.6,269.2,266.3z
		 M336.5,185.2v2.4h-3.9c-6,0-13.5,0-23.3,12.2c-12.7,15.7-37.9,53.6-37.9,53.6c3,0.2,5.9,0.9,8.6,1.6c6.9-10.2,24.9-36.9,35.1-49.4
		c9.9-12.2,17.3-12.2,23.3-12.2h3.9v-8.3L336.5,185.2L336.5,185.2z"/>
	<path class="st2" d="M449.7,357.5L449.7,357.5c-0.1-0.1-0.2-0.2-0.2-0.4c-10.1-16.9-27.7,2.9-12.3,10.4c0.1,0,0.2,0.1,0.2,0.2
		c1.1,0.6,1.8,1.4,1.8,2.9c0,1-0.2,2.3-1,4.2c-7.9,19.9-36.8,29-58.3,10.8c-14.2-12.1-25.2-36.1-24.5-77
		c0.5-27.7,7.1-68.4,42.2-67.3c13.7,0.4,22.7,6.3,28.7,13.8c9.2,11.6,11.4,27.2,11.8,33.7h5.2h3.3v-56.4v-5.8H437
		c-1.8,7.2-2.9,13.7-16,10.1c-13.1-3.6-18.8-3-23.3-3.2c-40.2-1.8-67.8,43.5-63.5,80.9c0.1,0.7,0.1,1.5,0.2,2.2
		c-6.3-4.6-14.5-27.6-29.5-44.5c-6.7-7.6-14.9-13.9-24.9-16.8c-2.7-0.8-5.6-1.4-8.6-1.6c0,0,25.2-38,37.9-53.6
		c9.9-12.2,17.3-12.2,23.3-12.2h3.9v-2.4v-5.8h-55.2v8.3c2,0,4,0,5.8,0.2c4.7,0.4,8.3,1.7,7.9,6.1c-0.1,1.5-0.6,3.3-1.8,5.6
		c-4.6,9.2-26,39.8-35.9,53.7c-0.5,0.8-1,1.5-1.5,2.1l-4.3,2.5l0-49.3c0-14.6,9.1-20.1,18-20.7v-2.5v-5.8h-26.3h-35.9v8.2l3.2,0.1
		c0.9,0,1.8,0.1,2.7,0.2c5.6,0.5,11.2,3,14.5,8.5c1.8,3.1,3.1,7,3.1,12.1v110.1c0,15.8-10.6,20.9-20.2,20.8l-3.2,0.1v8.2h5.8h28
		h33.8v-2.6v-5.6l-3.2-0.1c-3.9,0-7.9-0.8-11.3-2.9c-5.1-3-8.9-8.5-8.9-18l-0.2-28.8l0.3-16.2c5.8-5.6,20.8-15.7,39.4,5.5
		c0.5,0.6,1,1.1,1.5,1.7c17.7,21.6,32.7,75.4,64.3,104.2c12.5,11.4,27.6,18.9,46.4,18.9C446.1,403.9,454.3,365.6,449.7,357.5z"/>
</g>
</svg>
