<?xml version="1.0" encoding="utf-8"?>
<!-- Generator: Adobe Illustrator 25.0.0, SVG Export Plug-In . SVG Version: 6.00 Build 0)  -->
<svg version="1.1" id="Layer_1" xmlns="http://www.w3.org/2000/svg" xmlns:xlink="http://www.w3.org/1999/xlink" x="0px" y="0px"
	 viewBox="0 0 630.4 851" style="enable-background:new 0 0 630.4 851;" xml:space="preserve">
<style type="text/css">
	.st0{fill:#FFFFFF;}
	.st1{fill:#003263;}
	.st2{fill:#8F0028;}
	.st3{fill:#CD1141;}
	.st4{fill:#A4A5A5;}
</style>
<g>
	<path class="st0" d="M348.8,851h242.5c-22.4-15.2-42.2-41.9-51-72.4L472.5,546c-7.3-25.1,4.6-50.1,23.6-67
		c-27.1-8.3-51-27.1-58.6-53l-38-130.2c54-18.1,89.2-50.1,89.2-87.2c0-48.5-60-88.3-143.6-99.6L313.4,0h-35.5l-31.7,108.9
		c-83.6,11.4-143.7,51.1-143.7,99.6c0,37.2,35.2,69.1,89.3,87.2l-38,130.2c-7.5,25.9-31.6,44.7-58.6,53c19,16.9,31,42,23.7,67
		L50.9,778.6C42,809.1,22.3,835.8,0,851h242.5c-19.8-15.2-30.7-41.9-21.8-72.4l6-20.2h137.9l5.9,20.2
		C379.4,809.1,368.6,835.8,348.8,851z M274.8,593.6l20.9-72l20.9,72H274.8z"/>
	<path class="st1" d="M550.6,834.5c-11.6-15.1-20.8-32.7-26.2-51.2L457,552.2c-10.6-36.7,9.1-62.7,11.7-66.9
		c-23.4-12.7-40.5-32-47.1-54.8l-41-140.6c57.8-15.4,97.2-46,97.2-81.4c0-44.7-63.3-82.1-147.2-90.3L301.1,16.5h-10.7l-29.6,101.7
		c-84,8.2-147.3,45.6-147.3,90.3c0,35.4,39.4,66,97.2,81.4l-41,140.6c-6.6,22.8-23.7,42.1-47.1,54.8c2.6,4.2,22.4,30.2,11.6,66.9
		L66.9,783.3c-5.4,18.4-14.6,36.1-26.2,51.2h167.9c-13.5-29.9-6.4-51.7-0.4-72.2l6-20.4h162.8l6,20.4c6,20.5,13.1,42.3-0.4,72.2
		H550.6z M252.5,610.2l43.2-147.8l43,147.8H252.5z"/>
	<path class="st2" d="M505.9,808.4c-3.6-7.8-6.8-15.7-9.2-23.9l-64.4-220.4c-10.1-34.4-4.5-49.3,2.8-70.1
		c-19.3-14.8-32.2-34.2-38.5-55.9l-48.9-167.8c0,0-0.1,0-0.1,0l-7.4-25.6h0l-18.9-65.1l0,0l-25.7-88.2v0l-23.1,79c0,0,0,0,0,0
		L251,244.7l-7.4,25.6c0,0-0.1,0-0.1,0l-48.9,167.8c-6.3,21.8-19,41.1-38.5,55.9c7.3,20.8,12.9,35.6,2.8,70.1L94.5,784.5
		c-2.4,8.2-5.5,16.1-9.3,23.9h91.8l0,0c0,0,0,0,0,0h0l0,0c-2.2-13.9-0.1-32.2,3.8-45.2l13.7-47.4v0h202l13.9,47.4
		c3.7,13,5.8,31.3,3.7,45.2L505.9,808.4L505.9,808.4L505.9,808.4z M217.7,636.3l78-267l77.8,267H217.7z"/>
	<path class="st3" d="M496.7,784.5l-64.4-220.4c-10.1-34.4-4.5-49.3,2.8-70.1c-19.3-14.8-32.2-34.2-38.5-55.9l-48.9-167.8
		c0,0-0.1,0-0.1,0l-7.4-25.6h0l-21.6-74.2l4.2,14.8c-8.8-0.5-18-0.8-27.3-0.8v48.2l0,0L166.3,676H425l29.7,101.7l51.1,30.6
		C502.3,800.6,499.1,792.6,496.7,784.5z M373.4,636.3H217.7l78-267V232.6L425,676L373.4,636.3z M310.8,143.4c-5-0.2-10-0.3-15.1-0.3
		V91.5L310.8,143.4z M166.3,676l28.4,39.7l-13.7,47.4c-4,13-6.1,31.3-3.8,45.2l-41.3-27.9L166.3,676z"/>
	<path class="st4" d="M310.8,143.4c-5-0.2-10-0.3-15.1-0.3s-10.2,0.1-15.1,0.3c-79,3.2-140.6,31.2-140.6,65.2
		c0,28.5,43.2,52.7,103.6,61.7c0,0,0,0,0.1,0l7.4-25.6c-46.9-5.6-80.2-19.7-80.2-36.2c0-18.9,43.8-34.7,101.8-38.1
		c7.5-0.4,15.2-0.7,23.1-0.7c6.7,0,13.2,0.2,19.5,0.5c1.2,0,2.4,0.1,3.5,0.2c57.9,3.4,101.8,19.1,101.8,38.1
		c0,16.4-33.3,30.6-80.2,36.2h0l7.4,25.6c0,0,0.1,0,0.1,0c60.3-9.1,103.6-33.2,103.6-61.7C451.4,174.5,389.7,146.6,310.8,143.4z"/>
	
		<ellipse transform="matrix(0.4235 -0.9059 0.9059 0.4235 75.4575 483.5062)" class="st0" cx="417.6" cy="182.5" rx="6.3" ry="15.9"/>
</g>
</svg>
