<?xml version="1.0" encoding="utf-8"?>
<!-- Generator: Adobe Illustrator 25.0.0, SVG Export Plug-In . SVG Version: 6.00 Build 0)  -->
<svg version="1.1" id="Layer_1" xmlns="http://www.w3.org/2000/svg" xmlns:xlink="http://www.w3.org/1999/xlink" x="0px" y="0px"
	 viewBox="0 0 691.1 740" style="enable-background:new 0 0 691.1 740;" xml:space="preserve">
<style type="text/css">
	.st0{fill:#005A9C;}
	.st1{fill:#EE3E42;}
</style>
<g id="XMLID_1_">
	<path class="st0" d="M688.5,280c-7.3-20.9-35.1-16.8-42.1-10.1c0-27.6-13.9-34.9-28.3-51.8c-3.2-11.8,6.1-15.7,7.4-25.9
		c2.6-20.5-29.6-14.5-20.5,27.5c-3.8,19.6-24.6,79.6-35.4,81.1c-6.3,0.9-6.5-9.2-3.4-21.1c3.2-12,20.5-33.6,9.8-44.5
		c-6.2-6.4-17.9-3-28-2.6c-6.5,0.3-1.9-17.8-12.6-11.7c-8.5,4.9-8.2,22.5-3.9,30.9c-3.2,20.5-5.8,28.7-15.8,56.4
		c-11.6,32-42.2,45.1-41.2,16.6c24.9-3.4,47.5-51,31.2-63.2c-17-12.8-52.2,10-54.1,69.1l-16.9,27.5c3.8-24.6,8.8-57.6,10.9-74.2
		c-8.5,0.3-19.4,7.3-19.4,7.3l-2.5,10.1c-10.4-15.7-58.8-1-57.1,75.5c-2.6,20.6-15,26.1-15.4,20.5c-1.6-27.9,15.7-110.1,21.6-140
		c-5.9-1.1-20.2,6.5-20.2,6.5L336.4,339c-26.5-17.7-50.4,26.2-50.9,42.2c-3.2,3.2-7.5,6.7-11.3,8.6c-2.3-9.7-6.8-18.7-16.8-21.7
		c-33-10-60,38.8-51.2,84.9l-20.3,23.3c21.9-39.9,25.3-104.3-9.8-138.7c-50.6-49.6-161.8,8.2-175,76c-2.6,13.4-2,34.9,11.4,41.8
		c13.1,6.8,43.2,2.9,59.8-46.8c2.7-8,2.7-13.6,0.4-17.4c-13.9,44.3-44.2,49.6-50.5,42.1c-30.5-36.9,66.8-123.5,122.5-92
		c29.9,16.9,31.2,66.9,22.4,105.8c-6.6,29-20.3,59.5-51.5,65.2c-11.7,2.1-16.2,0.8-26.8,0.4c2.3-5.3,6.5-18.5,10.7-38.8
		c9.6-45.7-4.6-95.9,32.1-128.2c1-2.2-1.3-2.9-2.9-2.9c-67.6,34.3-46.3,151.8-62.3,171c-49.5,7.3-65.3,51.7-55.5,58.1
		c7.4,4.8,46.6-8.9,69.5-45.9c15.9-0.3,64.1,15.1,96.7-34.7c4.4,0.9,8.2,0.4,10.5-0.8c7.8-3.9,27.6-21.2,27.6-21.2
		c30.5,20.4,59.7-9.1,60.1-62.7c4.5-2.9,8.8-9.9,8.8-10.5c-2,14.8,2.5,42.7,19.3,45.1c17.9,2.5,28-19,30.8-27.9
		c3.5,4.5,7.7,10.2,14.4,9.9c15.3-0.7,20.1-20.3,23-28.6c13.6,21.6,34.1,3.6,38.9-9.1l-2.2,14.7c-12.4,14.9-33.4,46-33.4,46
		c-42.9,15.6-126.6,46.5-161.1,98.1c0.2,0.3,7.4,6.4,52.1,1.6c5.6-15.2,39.7-45.6,89.8-62.4c-12.3,25-9.8,62.8,11.2,61.2
		c37.9-2.9,48.3-63.2,53.4-86.9c32.3-13.9,90-36.1,150.3-62C626.5,371.8,706.7,331.6,688.5,280z M492.6,278.1c5.3,3.2-3,29.4-18,34
		C474.2,296.4,486.8,274.6,492.6,278.1z M33.5,547.8c1.4-10.8,13.4-16.8,26.8-19.2C54.9,538.2,42.9,549.8,33.5,547.8z M258.8,394.3
		c1.3,3.6-15.4,2-18.9-4.4C239.1,374.2,259.5,376.4,258.8,394.3z M233.8,451.5c-12.5-2.4-13.8-36.3-3.4-50.4
		c5.6,10.2,20.2,11.9,28.8,11.6C260.3,427.5,249.2,454.5,233.8,451.5z M333.6,362.7c-0.4,2.8-3.4,27.6-4.1,30.3
		c-3.2,12.7-9.5,21.6-18.4,21.3c-15.2-0.6-8.2-65.1,16.7-62.5C332.1,352.3,334,359.8,333.6,362.7z M376.6,513.1
		c-10.2,4.5-5.4-25.9,3.2-39.3c11.2-4.2,20.6-8.7,20.6-8.7C394.5,492.6,389.1,507.6,376.6,513.1z M404.5,435.5c0,0-5.8,2.5-8.4,3.4
		c3.7-5.5,9.8-15.4,11.3-17.8C406.8,425.4,404.5,435.5,404.5,435.5z M417.5,328.2c-1,5.3-0.8,16.6-3.8,26
		c-3.2,10-8.5,22.5-17.3,24.2c-16.8,3.2-11.3-62.2,13.5-65.2C414.6,312.6,419.3,318.6,417.5,328.2z M668,315
		c-20.8,31.4-77.7,53.4-243.5,113.7c1.6-11.3,3.9-28.2,6.1-40.6c8.9-12.5,16.7-27.2,25.3-39.9c3.9,6.4,9.8,16.1,22.7,15.8
		c41-1.1,59-78.1,65.4-108.1c3.1,0.6,7.1,1.2,10.1,1.1c-3,9.7-25.9,61.7,4.5,70.6c30.3,8.8,49-74.9,54.4-93.1
		c18.4,21.3,13.7,43.8,4.4,48.5c-4.8,2.4-10.3-4.9-15.6,0.2c-8,7.6-2.7,20.2,8.3,22.1c15.6,2.7,26-8.1,36.5-19
		c3.2-3.4,15.4-10.8,23.1-5.5C681.2,288.5,673,307.5,668,315z"/>
	<path class="st1" d="M462.3,132.8c36.7,0,66.4-29.7,66.4-66.4C528.7,29.7,499,0,462.3,0c-36.7,0-66.4,29.7-66.4,66.4
		C395.9,103.1,425.7,132.8,462.3,132.8z M524,66.4c0,23.8-13.5,44.4-33.2,54.7c-2.6-3.1-15.6-20.5-7.4-47.4
		c8.6-27.8,31-34.6,33.8-35.4C521.5,46.7,524,56.3,524,66.4z M400.6,66.4c0-23.3,12.9-43.6,32-54.1c1.9,2.1,16.7,20.3,8.1,48.3
		c-8.3,27-28.9,34-32.7,35.1C403.3,87,400.6,77,400.6,66.4z M445.3,62c9.3-30.1-4.5-50.4-6.3-52.8c7.3-2.9,15.1-4.6,23.4-4.6
		c21.4,0,40.3,11,51.4,27.6c-2.8,1-25.6,10-34.9,40.1c-8.8,28.6,2.8,47.9,5.5,51.8c-6.9,2.6-14.3,4.1-22.1,4.1
		c-20.9,0-39.4-10.5-50.6-26.5C416,100,436.5,90.6,445.3,62z M467.8,152.3l2,3.2L446.2,255l-3.2,2l-2-3.2l23.5-99.5L467.8,152.3z
		 M414.4,138.6l3.5-1.3l1.3,3.5l-37.6,80.7l-3.5,1.3l-1.3-3.5L414.4,138.6z M507.3,130l2,3.1l-22,102.7l-3.1,2l-2-3.1L504.1,132
		L507.3,130z M436.5,504.6l1.9,2.8l-12.3,66.2l-2.8,1.9l-1.9-2.8l12.2-66.2L436.5,504.6z M445.2,153.3l-39.6,121.9l-3.3,1.7
		l-1.7-3.3l39.6-121.9l3.3-1.7L445.2,153.3z M147.9,529l1,3.3l-37.3,70.1l-3.3,1l-1-3.2l37.3-70L147.9,529z M389,98.8l-51.4,89.9
		l-3.6,1l-1-3.6l51.4-89.9l3.6-1L389,98.8z M380.9,550l1.8,2.9l-13,61l-2.8,1.9L365,613l13.1-61.1L380.9,550z M326.9,515.4l1.5,3
		l-9.9,31l-3,1.6l-1.6-3l9.9-31L326.9,515.4z M230.8,553.8l1.2,3.2l-26.6,59.5l-3.2,1.2l-1.2-3.2l26.6-59.4L230.8,553.8z
		 M310.1,569.3l1.5,3L259,738.4l-3,1.6l-1.6-3L307,570.9L310.1,569.3z M257.5,332l-3.2,0.9l-0.9-3.3l66.2-118.3l3.2-0.9l0.9,3.3
		L257.5,332z"/>
</g>
</svg>
