<?xml version="1.0" encoding="utf-8"?>
<!-- Generator: Adobe Illustrator 25.0.0, SVG Export Plug-In . SVG Version: 6.00 Build 0)  -->
<svg version="1.1" id="Layer_1" xmlns="http://www.w3.org/2000/svg" xmlns:xlink="http://www.w3.org/1999/xlink" x="0px" y="0px"
	 viewBox="0 0 778.7 815.7" style="enable-background:new 0 0 778.7 815.7;" xml:space="preserve">
<style type="text/css">
	.st0{fill:#00A3E0;}
	.st1{fill:#FFFFFF;}
	.st2{fill:#EF3340;}
	.st3{fill:#41748D;}
</style>
<g>
	<path d="M567,170.9h-0.6c-2.5-0.1-5-0.1-7.5-0.1c-13.9,0-25.4,1.2-31,1.8l-3-0.5c-18.4-8.7-37.7-11.6-37.7-11.6l-1.2-2.4
		c-17.4-36-48-89.7-95-140.8c-5.1-5.2-8.1-8-11.4-10.8c-1.4,4.4-2.7,8.7-3.9,13.2c-3.6,12.3-6.3,28.3-5.7,55.7
		c0.2,11.7-1.5,42.9-15.3,67.6c-8.3,14.8-21.3,27-42.2,41.2l-0.2,0.1c-1.6,1-8,5-9.6,6c-9.9,5.8-23.3,13.9-33.9,21.8
		c-32.9,24.6-56,53.3-71.2,83.5c-31.8,8.5-64.7,20.4-97.2,36.8c-0.2,0.1-0.4,0.1-0.6,0.2c0.1,0,0.2,0,0.3-0.1
		c-0.2,0.1-0.3,0.2-0.5,0.2l0.1,0c0.3-0.1,0.6-0.2,1-0.3c6.1-1.1,38.3-6.6,85.1-8.9c0.2,0,0.3,0,0.5,0c-0.1,0-0.3,0-0.4,0
		c-24,70.4-10.1,144.5,18.7,192c0.4,0.7,0.8,1.4,1.2,2.2c5.3,9.3,11.4,18.1,18.4,26.2l0.1,0c-12.7,8.2-24,19.1-40.3,38.5
		c-0.1,0.1-0.2,0.2-0.3,0.4l-19.9,26.4l-15.8-75H96.1v0l0.2,0.3c0.4,0.6,0.7,1.5,1,2.2l0,0.1c0,0,0,0,0-0.1c-0.2-0.7-0.5-1.5-1-2.2
		l-0.2-0.3v0l-6.4,6.4l0.2,0.3c0.4,0.7,0.6,1.5,0.8,2.2c1.4,4.7,1,10.8-1,18.5l-43.2,139c-7.4,23.1-37.5,41.7-37.8,41.9L6.4,744
		l2.7,0.2c0.1,0,4.6,0.4,11.4,0.4c5.9,0,13.6-0.3,21.7-1.5c23.3-3.3,39-11.7,47.1-25.2c1.1-1.7,3.2-5.3,4.6-7.8V710
		c6.5-10.4,9.8-21.5,11.1-25.8l14.4-47.2l0,0.1l17.6,83l5.8-4.4l0-0.2l51.2-68.7l0.1,0.1l-1.8,5.8l-23.4,75.3l-0.4,1.1h57.2l6.7-6.7
		l-0.3-0.2l0.2-0.2c-1-3.6-1.7-6.1-2.3-8.8c-0.7-4-0.7-5.6-0.1-9.4c0.3-2.4,1-5,2-8.4l35.9-115.4c0.2-0.5,0.3-1,0.5-1.5
		c0-0.1,0-0.1,0.1-0.2c0,0.1-0.1,0.2-0.1,0.3c6.3,3.8,12.8,7.3,19.5,10.6l0.1,0c2.5,8.9,10.7,15.1,19.9,15.1c3.6,0,7.1-1,10.2-2.7
		c16,5.4,33.9,9.8,54,12.5c0.2-0.1,0.5-0.3,0.7-0.4l0.2,0c-0.2,0.1-0.5,0.3-0.7,0.4c-0.9,0.5-1.7,1.1-2.6,1.7
		c-0.1,0.1-0.2,0.2-0.3,0.2c-3.7,2.1-7.2,4.5-10.6,7.2c-10.1,7.7-17.2,17-22.5,26.5c-5.1,9.2-8.4,19.1-9.6,28.7
		c-4.8,3-9.9,4.6-14.5,4.6c-3.1,0-5.6-0.9-6.8-2.5c-1.1-1.5-1.3-3.9-0.5-6.6l20.6-67.6h-28.3c-4.1,0-8.3,1.8-11.6,4.8
		c-0.1,0.1-0.1,0.1-0.2,0.2c-3.4,1.5-6.4,3.7-8.9,6.4c-2.7,2.8-4.4,5.8-5.2,8.4l-12.4,40.7c-4.3,14.1-2.3,27.8,5.6,38.6
		c8.7,11.9,24.9,18,36.3,18c8.8,0,16-1.6,22.9-5.2c4.2-2,8.2-4.7,12.3-8.3l0.7-0.5c3,4.1,6.8,7.7,11.2,10.3
		c6.3,3.7,13.5,5.6,21.4,5.6c11.4,0,22.4-3.7,32.8-10.9c0,0,0,0,0,0c4.4,31.1,11.1,51.7,21.8,66.5c9.5,13.2,19.8,17.9,21.8,18.7
		c0.1,0,2.6,1.2,6,2.4c8.1,2.7,16.7,5.2,21,6.4c0.1,0,0.1,0.1,0.2,0.1l0.3,0.1l-11.3-20.3l-3.1-5.8c-0.5-1-11.8-23.5-13.5-57.8
		c0,0,0,0,0,0c4.8-0.6,9.6-1.7,14.3-3.1h37.8l8.8-6.6v0l18.2-59.6c1-3.6,3.9-7.7,7.9-10.9c0,0,0.1-0.1,0.1-0.1
		c3.3-1.2,6.3-1.2,7.8,0.2c1.6,1.5,1.8,4.8,0.6,8.8l-20.7,68.3h42l8.1-6.6h-0.2l0.3,0l17.8-58.4l0-0.2c1-3.9,4-8.1,7.8-11.6
		c0,0,0,0,0,0c0.3-0.2,0.6-0.3,0.8-0.4c3.4-1.5,6.6-1.4,8.2,0.1c1.6,1.5,1.8,4.8,0.6,8.8l-4.4,14.4c-4.8,16.2-2.9,31.3,5.3,42.4
		c2.4,3.1,5.2,6.5,11.6,10.2c5.9,3.4,12.9,5.1,20.8,5.1c12,0,25.4-3.9,39.9-11.7c8.1,7.9,19.5,12.4,31.5,12.5h25.7l6.8-6.4l0.1,0
		l10.5-34.4h-31.5c-3.1,0-5.6-0.9-6.8-2.5c-1.1-1.5-1.3-3.9-0.5-6.6l21.2-69.8l-28.3,0c-2.7,0-5.5,0.8-8,2.2c0,0,0,0,0,0
		c-5.4,1-9.1,3.4-11.7,6.2c-3.8,3.7-5.2,8.5-6.1,11.4l-14,46.4c-1,3.1-2.8,6.1-5.4,9c0,0-0.1,0-0.1,0.1c-4.3,2.4-8.9,3.7-12.9,3.7
		c-0.8,0-2.2-0.1-2.9-1c-0.9-1.2-0.8-4.4,0.3-8l5.4-17.6c6.5-21.3,2.2-39.4-11.5-48.2c-7.8-5.1-17.8-6.5-28.8-4.1
		c-8.5,1.9-17.4,6.1-26,12.3c-4.4-5.8-11-10.1-18.6-12.1c-9-2.4-19.1-1.7-28.8,1.8l0.6-2h-28.3c-4.1,0-8.2,1.8-11.5,4.7
		c-0.3,0.3-0.6,0.5-0.8,0.8c0.3-0.3,0.6-0.6,0.9-0.8c-1.2,0.5-2.4,1.2-3.6,1.9c-5.7,3.4-9.5,9.3-10.7,13.1l-14.8,47.4
		c-1.3,3.9-3.7,7.8-6.8,11.2c0,0,0,0-0.1,0c-2.9,1.4-5.8,2.2-8.5,2.2c-3.1,0-5.5-1.1-7-3.1c-2.1-2.9-2.4-7.6-0.6-12.8l19.6-64.5
		l-11.5-0.1c0.3-2.6,0.5-5.1,0.6-7.5v-0.3c0.3-1.5,0.7-2.1,2.2-4.1c3.7-4.8,12.6-16,20.4-25.5c12.7-14.3,23.5-26.8,33.6-38
		c24.8-27.6,51.4-40.1,51.6-40.2l18.6-8l2.6-0.8c0.1,0,0.2,0,0.3,0l-0.1,0l0.1,0h0c-0.1,0-0.1,0-0.2,0l-0.9-0.3
		c-2.9-1-5.7-2.1-8.6-3.1c-8.5-2.9-16.8-4.5-23.4-4.5c-23,0-49,12.4-77.2,36.8c-11.2,9.7-46.4,42.5-46.8,42.9l-1.6,1.5
		c-6.9,6.4-19.7,18.4-31.8,18.5c-8,0-21.3-3.5-31.5-11.2c-29.1-21.9-45.9-52.7-53.4-100c-1.9-10.7-4.2-23.5-4.1-37.6l0,0.2
		c0.9-7.9,2.1-14.3,3-18.4c0.1-0.1,0.1-0.1,0.1-0.2l0,0c0.3-1.6,0.7-3.1,1.1-4.7c0.9-3.7,2-7.4,3.2-11c0,0,0,0,0,0
		c24-23.7,54.4-39.7,75.3-49.4c22.4-10.4,46.6-18.6,69.9-24c20.1-4.7,39.4-7.3,56-7.3h0l4.6,0l36.5-35.6l119.1-12.8
		c-11.1-8.3-32.3-19.8-64.8-20.4c-4.3-0.1-8.9,0.1-14.4,0.5l-48.6,3l2.7-7.8c3.1-9,10.4-16.5,19.6-20c28.8-10.9,176-65,190.3-70.3
		l5-4.9l0.1,0l7.3-7.1L567,170.9z M209.5,292.6l-0.3,0.1c0-0.1,0.1-0.1,0.1-0.2l0.3-0.1L209.5,292.6z M194.8,579
		C194.8,579,194.8,579,194.8,579C194.8,579,194.8,579,194.8,579L194.8,579z M386.5,647.7L386.5,647.7l5.3-2.2l0,0.2l0.4,2.7
		c0.7,4.9,2.5,15.8,4.6,30.5l0,0.1l-0.2,0.9c-7,5.4-14.6,7.8-19.2,5.6v0c-1.7-0.8-3-2.3-3.9-4.5c-1.8-4.7-1-11.7,2.2-18.6
		C378.3,657.2,382,651.9,386.5,647.7z M724,557.4c11.9,0,21.5,9.7,21.5,21.5h0c0,8.5-5.1,16.3-12.9,19.7c-0.1,0-0.1,0-0.2,0.1
		c-2.7,1.1-5.5,1.7-8.4,1.7c2.9,0,5.8-0.6,8.4-1.7c0.1,0,0.1,0,0.2-0.1c-0.3,0.2-0.6,0.5-1,0.7c-3.8,3.4-8.7,5.3-13.8,5.3
		c-11.4,0-20.7-9.3-20.7-20.7c0-6.8,3.3-13.1,8.8-17c0.2-0.2,0.4-0.4,0.6-0.6c1.1-1.4,2.3-2.8,3.6-3.9
		C714.1,559.2,719,557.4,724,557.4z"/>
	<path class="st0" d="M771.9,134.3l-7.3,7.1l-30.2,7.8l-137.1,24.7l-22.9,4.1l-6.7,1.2c-23.6-0.9-37.8,4.5-42.6,2.1
		c-4.8-2.4-14.1-7-32.7-11.3c-3.4-0.7-7-1.5-10.9-2.2c-9.8-20.8-20.8-41.2-32.9-60.8c-0.7-1.1-1.9-3.1-3.3-5.2
		c-0.9-1.5-1.8-2.9-2.7-4.3c-6.8-10.6-13.9-20.9-21.4-31c-8.7-11.8-18.3-23.8-28.7-35.7c-2.6-2.9-5.3-5.9-8-8.9
		c-4.2,12.5-5.3,23.7-5.5,34.9c-0.1,3.4-0.1,6.7-0.1,10.1v3.4c0.1,20.5-1.2,43.4-11.6,67.4c-1.2,2.2-2.6,6.3-10.9,18.6
		c-2.2,3.2-4.6,6.2-7.3,9c-16,17.1-29.3,24.2-37.3,29.1c-6.3,3.7-12.4,7.5-18.5,11.5c-22.5,14-41,29.9-56.2,47.3
		c-10.7,12.1-19.9,25.3-27.7,39.4l0.5-0.1c12.8-3.1,25.7-5.8,38.6-7.9c7.1-1.2,14.1-2.2,20.9-3.1c50.9-6.6,94-5.1,119.5-1.5
		c-18.3,6.7-36.8,15.2-54.4,25.4c-64.7-2.9-151.6,0.4-234.6,27.4l-0.1,0c32.7-16.6,65.9-28.6,97.9-37.1
		c15.2-30.2,38.3-58.9,71.2-83.5c10.6-7.9,24.1-16,33.9-21.8c1.6-1,8-5,9.6-6l0.2-0.1c20.9-14.2,33.9-26.4,42.2-41.2
		c13.8-24.7,15.5-55.9,15.3-67.6c-0.5-27.3,2.1-43.4,5.7-55.7c1.2-4.4,2.5-8.8,3.9-13.2c3.2,2.8,6.2,5.6,11.4,10.8
		c47,51.1,77.6,104.8,95,140.8l1.2,2.4c0,0,19.2,2.9,37.7,11.6l1.4,0.7l1.6-0.2c5.6-0.7,17.1-1.8,31-1.8c2.5,0,5,0,7.5,0.1h0.6
		L771.9,134.3z M453.4,159.6c-10.5-20.4-29.3-54.5-55.2-89.5c0,1.7,0,3.4,0.1,4c3.4,48.1-13.6,83.2-28.4,103.2
		C392.4,167.8,420.8,159.9,453.4,159.6z M309.9,462.4c-1.9-10.7-4.2-23.5-4.1-37.6c-0.3,2.4-0.5,5-0.7,7.7
		c-1.1,13.1-1.3,29.8,1.7,47.6v0c13.5,72.4,65.3,96.4,69.4,98c18.2,7.7,31.3,1.9,34.6-0.5c4.8-3,10.1-7.1,15-11.5l29.4-25.9
		l22.2-19.3l4.1-3.6c3.1-2.7,6.3-5.3,9.5-7.8c5.5-4.4,11.3-8.4,17.3-12.1c0.9-0.5,1.8-1.1,2.7-1.6c14.9-8.7,26.7-12.1,35.1-13.1
		c12.5-1.7,19.3,2.2,19.3,2.3l0.2,0c6.1-1.7,13.9-2.4,19.8-2.9l-1.1-0.4c-2.9-1-5.7-2.1-8.6-3.1c-8.5-2.9-16.8-4.5-23.4-4.5
		c-23,0-49,12.4-77.2,36.8c-11.2,9.7-46.4,42.5-46.8,42.9l-1.6,1.5c-6.9,6.4-19.7,18.4-31.8,18.5c-8,0-21.3-3.5-31.5-11.2
		C334.2,540.5,317.5,509.7,309.9,462.4z M188.2,347c1.9-8.1,4.3-16.1,7.2-23.9h-0.1c-3.2,0.1-6.4,0.2-9.5,0.4
		c-24.4,71.5-9.7,146.8,20.1,194.2c-32.9-58.1-26-125.7-20.9-154.3C185.8,358,186.9,352.5,188.2,347z M230,713.4
		c0.6,2.7,1.3,5.2,2.3,8.8h-1.4h-53.4l28.2-91L194,646.9l-51.2,68.8L123.4,624l-4,13.1L105,684.3c-1.2,4.3-4.5,15.4-11.1,25.8
		c-1.8,2.9-3.8,5.6-6.1,8.2c-1,1.1-2.4,2.8-4.7,4.9c-7.9,6.6-20.6,11.4-36.6,13.7c-7.9,1.2-16.4,1.9-22.3,2
		c5-3.9,11.2-9.4,16.7-15.7c3.9-4.3,8.8-11.2,12.4-21.4c2.6-7.4,38.4-123.4,42.4-136.6l0.2-0.5c0.5-1.7,1-3.3,1.3-4.8
		c0.2-1,0.5-1.9,0.7-2.9c1.2-6,1-8.7,1-9c0.1-4.3-0.5-8.1-1.6-11.1c-0.2-0.7-0.5-1.5-1-2.2l-0.2-0.3v0h51.8l15.8,75l1.9,8.8l0.9-1.2
		c7.8-10.5,18.4-24.8,28.4-37.9l0.2-0.2c18.1-21.5,29.6-32.1,44.1-40.4c7.5-4.2,15.7-7.4,24.1-9.4c9.4-2.3,17.9-2.9,24-2.9
		c13.9,0,19.9,0.8,19.9,0.8c-5.6,4.6-8.4,6.8-13.8,11.7l0,0c-10.9,9.4-19.2,22.6-25,40.1c-0.2,0.5-0.3,1-0.5,1.5l-35.9,115.4
		c-1,3.4-1.7,6-2,8.4C229.3,707.8,229.3,709.4,230,713.4z M223.3,703.3c0.4-2.8,1.1-5.7,2.2-9.5l35.9-115.4v0
		c6.1-19.6,15.1-34.3,27.6-44.8l0.9-0.8l-1.2,0h-1.5c-11.2,0-28,1.9-44.8,11.3c-13.8,7.9-24.9,18-42.4,38.9
		c-9.9,12.9-38,50.7-38,50.7l-19.5-92.9h-37.8l0.2,0.6c0.8,3.3,1,7.2,0.3,11.8c-0.6,4.4-1.5,8.2-2.9,13.3
		c-0.4,1.3-40,129.6-42.7,137.4c-4.4,12.8-10.9,21-15.6,25.7l-0.9,0.9l1.3-0.1c26.3-2.7,35.5-13,38.6-16.4
		c9.8-10.8,14.3-26.3,15.7-31.4l25.9-84.8l21.6,102.4l77.3-103.8l-36.8,118.8l-0.2,0.6h37.3l-0.2-0.6
		C222.8,711.8,222.7,708,223.3,703.3z M399,660.9c-1-6.3-1.9-11.7-2.8-16.5c-1.4,0.2-2.9,0.5-4.4,1.1l0,0.2l0.4,2.7
		c0.7,4.9,2.5,15.8,4.6,30.5l3.2-10.7C399.8,665.9,399.4,663.4,399,660.9L399,660.9z M313.8,557.4c11.9,0,21.5,9.7,21.5,21.5
		c0,8.5-5,16.1-12.7,19.6c-0.2,0-0.3,0.2-0.4,0.2c-2.7,1.1-5.5,1.7-8.4,1.7c-11.9,0-21.6-9.6-21.6-21.5c0-4.4,1.4-8.7,4-12.4
		c1.1-1.5,2.4-2.9,3.8-4.1C303.9,559.2,308.8,557.4,313.8,557.4z M313.8,564c-8.2,0-14.9,6.7-14.9,14.9c0,8.2,6.7,14.9,14.9,14.9
		s14.9-6.7,14.9-14.9C328.7,570.7,322,564,313.8,564z M702.5,578.9c0-4.5,1.5-8.9,4.1-12.6c1.1-1.5,2.3-2.8,3.6-3.9
		c3.9-3.2,8.7-5,13.8-5c11.9,0,21.5,9.7,21.5,21.5h0c0,8.5-5.1,16.3-12.9,19.7c-0.1,0-0.1,0-0.2,0.1c-2.7,1.1-5.5,1.7-8.4,1.7
		C712.2,600.4,702.5,590.8,702.5,578.9z M709.2,578.9c0,8.2,6.7,14.9,14.9,14.9s14.9-6.7,14.9-14.9c0-8.2-6.7-14.9-14.9-14.9
		S709.2,570.7,709.2,578.9z M721.7,685.4h31.5l-10.5,34.4h-27.9c-9.9-0.1-18.9-2.7-26-7.5c-1.8-1.2-3.6-2.7-5.1-4.2
		c-12.1,7.8-25.7,11.9-39.3,11.9c-13.6,0-25-5.1-31.9-14.3c-7.3-9.8-8.9-23.2-4.6-37.8l5.2-16.6c1.7-4.9,1.6-8.7-0.2-10.3
		c-1.9-1.8-6.3-1.9-10.5-0.1c-2,0.8-4.1,2.2-6.1,3.9c-0.1,0.1-0.2,0.3-0.4,0.4c-3.9,3.4-6.8,7.7-7.8,11.6l0,0.2l-17.8,58.4l-41.3,0
		l19.9-65.6c1.3-4.3,1.1-7.8-0.6-9.4c-1.7-1.6-5.3-1.7-9.1-0.1c-2.1,0.9-4.1,2-5.9,3.4c-0.4,0.3-0.7,0.6-1.1,0.9
		c-3.9,3.3-6.9,7.4-7.9,10.9L506,715.2l-39.7,0c-17.4,6.1-32.7,5.8-44.4-0.7c-3.3-1.9-6.3-4.2-8.8-7c-0.9,0.7-1.8,1.3-2.9,2
		c-0.9,0.6-1.7,1-2.6,1.6c-0.3,0.2-0.6,0.4-0.9,0.5c7.1,37.9,19.5,76.7,46.8,80.9c5.9,5.8,12.4,11.1,19.1,16.1
		c-4.2-1.2-13-3.7-21.2-6.5c-3.4-1.1-5.8-2.3-6-2.4c-1.9-0.8-12.3-5.4-21.8-18.7c-10.7-14.8-17.4-35.4-21.8-66.6
		c0.5-0.3,0.9-0.6,1.4-0.9l0.8-0.6c-9.4,5.1-19.2,7.8-28.6,7.8c-8,0-15.3-1.9-21.6-5.7c-4.1-2.4-7.8-5.7-10.7-9.5
		c-2.2,1.4-4.4,2.7-6.7,3.9c-0.2,0-0.3,0.1-0.4,0.2c-0.1,0-0.2,0.1-0.2,0.1c-9.7,5-20.3,7.6-30.4,7.6h-0.2
		c-14.9-0.1-27.6-5.9-35-15.9c-6.9-9.4-8.6-21.5-4.8-34l14.8-48.4c0.2-0.5,0.3-0.9,0.5-1.5l0.1-0.2c0.2-0.4,0.3-0.7,0.5-1.1l0.2-0.4
		c0.2-0.3,0.4-0.7,0.6-1l0.2-0.3c0.8-1.2,1.8-2.4,2.9-3.4c3.3-3,7.5-4.8,11.6-4.8h28.3l-20.6,67.6c-0.8,2.7-0.7,5.1,0.5,6.6
		c1.2,1.6,3.6,2.5,6.8,2.5c4.6,0,9.8-1.7,14.5-4.6c3-1.9,5.8-4.2,8.1-6.9c1.1-11,5.3-22.2,12-32.5c6-9.2,13.8-17.1,22.8-23.2
		c0.9-0.6,1.7-1.1,2.6-1.7c0.2-0.1,0.5-0.3,0.7-0.4c3.1-1.9,6.2-3.4,9.3-4.8c14.6-6.1,29.3-6.3,41.1-0.5c1.5,0.7,2.9,1.5,4.2,2.4
		c3.3-2.8,7.3-4.4,11.2-4.4l9.4,0H467l-19.6,64.5c-1.8,5.2-1.5,9.9,0.6,12.8c1.5,2,3.9,3.1,7,3.1c2.7,0,5.6-0.8,8.5-2.2
		c0.3-0.1,0.6-0.2,0.9-0.4c6.9-3.7,12.7-10.5,15.1-17.7l14.5-47.4c0.1-0.5,0.3-1,0.5-1.5l0.1-0.3c0.2-0.4,0.4-0.7,0.5-1.1l0.2-0.4
		c0.2-0.3,0.4-0.6,0.6-1l0.3-0.5c0.9-1.3,1.9-2.4,3.1-3.4c3.3-2.9,7.5-4.7,11.5-4.7H539l-0.6,2c9.7-3.5,19.9-4.2,28.8-1.8
		c7.6,2,14.2,6.3,18.6,12.1c8.6-6.2,17.5-10.4,26-12.3c11-2.4,20.9-1,28.8,4.1c13.7,8.8,17.9,26.9,11.5,48.2l-5.4,17.6
		c-1.1,3.6-1.2,6.8-0.3,8c0.6,0.8,2.1,1,2.9,1c4,0,8.6-1.3,12.9-3.7c0.1-0.1,0.2-0.1,0.3-0.2c6.9-3.9,12.3-9.9,14.1-15.8l14-46.4
		c0.2-0.5,0.3-1,0.5-1.5l0.1-0.3c0.2-0.5,0.4-0.8,0.5-1.1l0.2-0.4c0.2-0.4,0.4-0.7,0.6-1l0.2-0.3c1.7-2.5,4-4.6,6.7-6.1
		c2.5-1.4,5.3-2.2,8-2.2l28.3,0l-21.2,69.8c-0.8,2.7-0.7,5.1,0.5,6.6C716.2,684.6,718.6,685.4,721.7,685.4z M744,692h-22.4
		c-5.3,0-9.6-1.8-12.1-5.1c-2.4-3.3-2.9-7.7-1.5-12.5l18.6-61.3h-19.4c-4.4,0-9.2,3.6-10.5,8l-14,46.4c-4,13-19.7,24.4-33.6,24.4
		c-3.5,0-6.4-1.3-8.2-3.6c-2.3-3.1-2.5-7.9-0.7-13.9l5.4-17.6c5.6-18.4,2.3-33.6-8.7-40.7c-13.3-8.6-34-3.6-53.1,12.7
		c-2.9-7.6-9.2-13.1-17.9-15.5c-12.3-3.5-27-0.1-38.7,8.8l2.7-8.9l-19.4,0c-4.4,0-9.2,3.6-10.5,8l-14.6,47.5
		c-4.6,13.7-18.4,24.9-30.7,24.9c-5.3,0-9.7-2.1-12.4-5.8c-3.4-4.7-3.9-11.5-1.5-18.8l17-55.9l-19.3,0c-4.1,0-8.5,3.1-10.2,7.1
		c-2.4-2.3-5.2-4.3-8.2-5.8c-10.2-4.9-22.8-4.7-35.6,0.7c-12.8,5.3-24.2,15.2-32.4,27.6c-6.5,10-10.4,20.8-11.1,31.4
		c-6.9,9.2-18.8,15.7-29.1,15.7c-5.3,0-9.6-1.8-12.1-5.1c-2.4-3.3-2.9-7.7-1.5-12.5l17.8-59.1h-19.4c-4.4,0-9.2,3.6-10.5,8
		l-14.8,48.4c-3.2,10.5-1.9,20.5,3.8,28.2c6.1,8.3,16.9,13.1,29.5,13.2h0.3c13.7,0,28.1-5.3,39.6-14.8c2.8,5.7,7,10.2,12.3,13.3
		c5.4,3.2,11.7,4.8,18.4,4.8c12.6,0,26.6-5.7,38.6-16.4c4.8,8.1,12.6,13.1,22.6,14.5c10.8,1.5,23.9-1.3,38-8.1l-1.2,4.1l27.4,0
		l16.3-53.5l0,0.2l0.4-1.4c2-7.7,10.1-16.2,18.7-19.7c6.3-2.6,12.3-2.2,16,1.3c3.8,3.4,4.6,9.2,2.5,16.2l-17.4,57l27.4,0l16.3-53.7
		c2.2-8.1,10-16.8,18.3-20.2c6.8-2.8,13.7-2.2,17.6,1.4c3.8,3.6,4.5,9.7,2,17.2l-5.1,16.4c-3.7,12.6-2.5,23.9,3.5,32
		c5.6,7.5,15.1,11.7,26.6,11.7c18.1,0,32-7.6,40.5-14.1c6.1,8.8,17,13.9,30,14h23L744,692z M419.9,648.7l-6.8,22.5
		c-0.8,1.2-1.5,2.4-2.3,3.5c-10.2,14.1-25.9,21.5-36,16.9c-3.3-1.5-5.8-4.4-7.3-8.2c-2.4-6.4-1.6-15.1,2.4-23.7
		c7.3-15.9,22.1-27.3,34.4-27.3c1.5,0,3.1,0.2,4.6,0.6C415.5,634.9,419.6,640.6,419.9,648.7z M413.2,648c-0.4-4.7-2.4-7.5-6.2-8.5
		c-0.9-0.2-1.8-0.4-2.9-0.4c-3.9,0-8.6,1.7-13.2,5c-0.7,0.5-1.4,1-2.1,1.6c-0.7,0.6-1.4,1.1-2.1,1.8c-0.1,0.1-0.2,0.2-0.3,0.3
		c-4.5,4.2-8.2,9.4-10.7,14.8c-3.1,6.9-4,13.9-2.2,18.6c0.8,2.2,2.1,3.7,3.9,4.5v0c4.6,2.1,12.3-0.2,19.2-5.7
		c0.7-0.5,1.4-1.1,2.1-1.7c3.1-2.9,5.9-6.1,8.2-9.7L413.2,648z"/>
	<path class="st1" d="M307.3,396.8c-3.4,3.7-6.7,7.6-9.7,11.7c-4.3,5.1-10.6,15.4-14.2,22.5c0,0-1.2,2.3-1.3,2.6
		c-5.1,10.5-9,21.6-11.7,32.9c-0.7,7.9-0.6,15.8,0.3,23.7c2-18.6,7.5-36.7,16.2-53.3c0.4-0.8,0.8-1.6,1.3-2.3
		c3.2-5.8,6.8-11.4,10.9-16.6c3.1-4,6.4-7.9,9.9-11.6l0,0c0.3-1.6,0.7-3.1,1.1-4.7c0.9-3.7,2-7.4,3.2-11
		C311.3,392.7,309.2,394.7,307.3,396.8L307.3,396.8z"/>
	<path class="st2" d="M555.5,360.7l-0.4-0.5l0.5-0.4l3.1-2.4c8.5-6.6,6.4-16.9,5.6-19.9l-0.2-1l1,0.1c2.8,0.4,5.6,0.9,8.3,1.5
		l0.4,0.1l0.1,0.4h0c0.6,4.2,1.3,14.8-6.5,23c2.4,4.2,5.9,12.4,4.6,23l-0.1,0.7l-0.7-0.1c-2.5-0.4-5.1-0.7-7.6-0.9l-0.7,0l0.1-0.7
		c1.4-11.8-4.9-19.7-5-19.8L555.5,360.7z M536.9,364.8c0.3,0.2,7.3,6,6,18.7l-0.2,0.8l0.8,0c2.6-0.2,5.2-0.3,7.8-0.4h0.6l0-0.6
		c0.9-11.1-3.3-18.5-6.1-22.1c7-9,6.6-19.7,5.8-25.3l-0.1-0.5h-0.5c-2.6-0.1-5.2-0.1-7.8,0h-0.7l0.2,0.7c0.7,3.2,2.2,14.3-5.9,21.9
		l-3.3,3.1l-0.5,0.5l0.6,0.5L536.9,364.8z M577.7,364.6c0.2,0.4,4.7,9.7,0.5,21.1l-0.3,0.7l0.7,0.2c2.6,0.6,5,1.4,7.3,2.2l0.6,0.2
		l0.2-0.6c2.9-8,2.9-16.7,0.2-24.8c2.9-3.6,6.4-9.3,5.8-18l0-0.6v-0.2l0-0.4l-0.3-0.2c-2.7-1.2-5.4-2.2-8.2-3.1l-1-0.3l0.2,1
		c0.2,1.5,0.4,3,0.5,4.4c0.3,4.8-1.7,10-5.1,12.8l-2.3,2l-0.4,0.3l0.2,0.5L577.7,364.6z M594.7,370.8c0.1,0.4,3.2,9.9-2.1,20.3
		l-0.2,0.5l0.6,0.3c2.3,1.2,4.5,2.5,6.5,3.9l0.6,0.4l0.3-0.6c3.9-7.5,5.2-16,3.7-24.2c3.2-2.4,5.6-5.8,6.6-9.7
		c0.4-1.4,0.6-2.9,0.7-4.6v-0.3l-0.2-0.2c-2.7-2.3-5.5-4.4-8.4-6.3l-1.4-0.9l0.4,1.6c0.8,3.2,0.8,6,0.2,8.3
		c-0.7,2.6-2.4,4.6-5.2,6.1L594,367l-0.5,0.2l0.2,0.5L594.7,370.8z M470.4,379.2c0.4,0.3,8.5,4.4,9.5,17.7l0,0l0.1,0.8l0.7-0.2
		c2.5-0.8,5-1.6,7.5-2.3l0.5-0.2l-0.1-0.5c-1.4-11.4-7-17.7-10.4-20.6c5.8-12.6,1.7-25.4,1.2-26.9l-0.2-0.6l-8,2.6l-0.6,0.2l0.2,0.6
		c0,0.1,4.2,12.5-2.4,23l-2.4,3.7l-0.4,0.6l0.7,0.3L470.4,379.2z M295.9,566.9c-5.5,3.9-8.8,10.2-8.8,17c0,1.9,0.3,3.9,0.8,5.6
		c2.5,8.9,10.7,15.1,19.9,15.1c5.1,0,10-1.9,13.8-5.3c0.4-0.2,0.7-0.5,1.1-0.8l0,0c-0.1,0.1-0.2,0.2-0.4,0.2
		c-10.9,4.6-23.6-0.5-28.2-11.4c-1.1-2.7-1.7-5.5-1.7-8.4c0-4.5,1.4-8.8,4-12.4C296.2,566.6,296,566.8,295.9,566.9z M609.4,376.4
		l0.1,0.5l0.8,2.9c0,0.1,2.4,9.7-4.8,19.9l-0.3,0.5l0.4,0.4c1.7,1.6,3.3,3.3,4.9,5.1l0.5,0.6l0.5-0.6c7.5-9.9,8-19.6,7.5-24.7
		c5.8-5,6.1-7.4,6.2-9.1l0-0.3l0-0.2l-0.2-0.2c-1.1-1.5-2.2-3-3.5-4.4l-0.5-0.6l-0.9-1l-0.2,1.3c-0.1,0.6-0.2,1.2-0.5,1.7
		c-1,2.9-3.2,5.2-6.8,6.8l-2.7,1.2L609.4,376.4z M494.4,617.9l0.1-0.3c0.2-0.4,0.3-0.7,0.5-1.1l0.2-0.4c0.2-0.4,0.4-0.7,0.6-1
		l0.3-0.5c0.9-1.2,1.9-2.4,3.1-3.4c-1.2,0.5-2.4,1.2-3.6,1.9c-5.7,3.4-9.5,9.3-10.7,13.1l-14.8,47.4c-1.3,3.9-3.7,7.8-6.8,11.2
		c0.3-0.2,0.6-0.2,0.9-0.4c6.9-3.8,12.7-10.6,15.1-17.8l0,0l14.5-47.4C494.1,618.9,494.3,618.4,494.4,617.9z M375.4,438.1l8.4-3.5
		l-0.2-0.5c-3.3-11.6-9.9-18.7-12.8-21.3c0.5-10.7-3.1-19.6-3.9-21.3l-0.2-0.6l-0.6,0.2l-7.7,3.5l0.2,0.5c0,0.1,4.1,9.3,3.1,19.5
		l-0.2,2.2l0,0.4l0.3,0.2l1.6,1.2c0.1,0,8.2,6.3,11.7,18.8v0L375.4,438.1z M445.3,383.7l-0.3,0.6l0.6,0.3l3.6,1.7
		c0.1,0,8.4,4.3,10,17.4v0l0.1,0.6l0.6-0.1c0,0,5.5-1.7,7.6-2.4l0.5-0.2l-0.1-0.5c-1.8-11.4-7.6-17.7-11.1-20.6
		c4.7-12.8,0.1-25.3-0.1-25.9l-0.2-0.6l-0.6,0.2l-7.2,2.8l-0.6,0.2l0.2,0.6c0,0.1,4.4,11.7-1.1,22.2L445.3,383.7z M619.6,391.4
		l0.2,0.6c0,0,1,2.1,1.2,3.1c0.2,1.1,2.6,7.5-6.1,15.5l-0.4,0.4l0.3,0.5c1.2,1.8,2.2,3.7,3.3,5.6l0.4,0.7l0.6-0.5
		c9.6-8.2,10.4-16.7,9.9-21.3c3.2-1.9,5-5.2,5.4-10v-0.2l-0.1-0.2c-1.3-2.5-1.8-3.4-3-5.4v0l-0.5-0.8l-1-1.6l-0.2,1.9
		c-0.6,5.8-1.2,8.3-6.1,10.4L619.6,391.4z M603.7,514l-0.2,0.2c-2.3,3.2-4.7,6.3-7.3,9.3l-1.1,1.3l1.7-0.2c2.8-0.4,5.6-1,8.3-1.7
		l0.2,0l0.1-0.1c3.3-3.4,6.3-7,9-10.6l1.3-1.7l-2,0.7c-3.4,1.2-6.7,2.2-9.8,2.8L603.7,514z M620.2,503.6l0.1-0.2
		c2.1-3.4,3.9-7,5.5-10.7l0.7-1.8l-1.7,1l-12.7,7.3l-0.4,0.2c0,0-0.2,0.5-0.4,1c-1,2.4-2.2,4.7-3.5,6.9l-0.8,1.4l1.6-0.5
		c3.9-1.2,7.8-2.8,11.4-4.6L620.2,503.6z M332.8,454.8l8.7-3.4l-0.2-0.6c-3.5-12-9.8-21.1-11.8-23.9v0c-0.6-11.4-2.1-18.3-2.1-18.4
		l-0.2-0.7l-0.7,0.2l-7.3,2.7l-0.5,0.2l0.1,0.5c0,0,1.4,7.7,1.7,17.8l0,1.2v0.2l0.1,0.2l0.7,0.9c0.1,0.1,7.5,9.3,11.1,22.3
		L332.8,454.8z M676.6,665.7l14-46.4c0.2-0.5,0.3-1,0.5-1.5l0.1-0.3c0.2-0.5,0.4-0.8,0.5-1.1l0.2-0.4c0.2-0.4,0.4-0.7,0.6-1l0.2-0.3
		c1.7-2.5,4-4.6,6.7-6.1c-5.4,1-9.1,3.4-11.7,6.2c-3.8,3.7-5.2,8.5-6.1,11.4l-14,46.4c-1,3.1-2.8,6.1-5.4,9c0.1,0,0.2-0.1,0.3-0.2
		C669.4,677.7,674.8,671.6,676.6,665.7z M629,485.3l0.1-0.2c1.4-3.3,3.4-9.1,4.8-13.3c-1.7,2.9-5.5,7.2-13.2,10.2l-0.2,0.1l-0.1,0.2
		c-1,2.4-2,4.7-3,6.8l-0.7,1.4l1.5-0.5c0.6-0.2,6.2-2.3,10.7-4.6L629,485.3z M637.2,462.9l0.2-0.1l0.1-0.2c1.3-4,2.3-7.8,3.4-11.7
		l1.7-6.1l-2.5,5.4c-1.8,3.6-5.8,9.9-10,11.4l-0.4,0.2v0.5c0,0.1,0,3.2-3,5.6c-0.4,0.3-0.7,0.6-1.1,0.8l-0.2,0.1l-0.1,0.2
		c-0.6,2.2-1.3,4.4-2.1,6.5l-0.6,1.6l1.5-0.9c3.6-2.1,9.6-6.3,10.2-11.4C634.7,464.5,635.8,463.9,637.2,462.9z M632.3,402.8
		l-2.7,0.6l-0.5,0.1l0,0.5l0.1,2.7c0,0.1,0.2,8.1-8.1,16.4l-0.3,0.3l0.2,0.4c0.8,2,1.6,4.2,2.3,6.5l0.3,0.9l0.7-0.6
		c9.4-8.1,11.9-16.7,12.4-21.3c1.9-1.1,4.1-4,4.1-8.9v-0.1l0-0.1c-0.7-1.8-1.4-3.6-2.2-5.3l-0.7-1.5l-1-2.2l-0.2,2.4
		C636.5,397.5,635.4,402.1,632.3,402.8z M637.7,418.9l-2.8,0l0,0.5l-0.1,2.7c-0.2,1.1-0.5,7.8-9.4,14.1l-0.4,0.2l0.1,0.4
		c0.5,2.1,0.9,4.1,1.3,6.1l0.2,0.9l0.8-0.5c9.9-6.1,13-13.8,14.1-18.1c0.9-0.5,2.2-1.6,3-3.4c1.2-2.4,2-6.5-0.3-12.8l-0.9-2.4
		l-0.3,2.6c-0.5,4.2-1.5,7.2-2.7,8.7C639.5,418.4,638.5,418.9,637.7,418.9z M643.9,437.2L643.9,437.2L643.9,437.2l0.1-0.2
		c0.9-2.8,1-4.8,1.2-6.7c0-0.7,0.7-7.3,0.7-7.3l-1.8,5c-1.5,4.2-3.4,6.5-5.7,7.2c-0.4,0.1-0.7,0.2-1.1,0.2h-0.7l0.1,0.7
		c0,0.4,1.3,9.3-8.1,15.3l-0.3,0.2l0,0.3c-0.1,1.5-0.2,3-0.5,5l-0.2,1.3l1.2-0.7c1.7-1,3.2-2.2,4.6-3.4c5.2-4.4,8-9.4,8.1-14.5
		C641.9,439.2,642.9,438.4,643.9,437.2z M717.9,604.6c5.1,0,10-1.9,13.8-5.3c0.3-0.2,0.7-0.5,1-0.7c0,0-0.1,0-0.2,0.1
		c-2.6,1.1-5.5,1.7-8.4,1.7c-11.9,0-21.5-9.6-21.5-21.5c0-4.6,1.5-9,4.1-12.6c-0.2,0.2-0.4,0.4-0.7,0.6c-5.5,3.9-8.8,10.2-8.8,17
		C697.2,595.3,706.4,604.6,717.9,604.6z M422,714.5c-3.3-1.8-6.3-4.2-8.8-7c-1,0.7-1.9,1.4-2.9,2c-0.9,0.6-1.7,1-2.6,1.6
		c2.8,3.5,6.3,6.4,10.2,8.7c5.4,3.1,12.2,5.5,19.6,5.6c0.2,0,0.5,0,0.8,0c2.2,0,4.5-0.2,6.9-0.5c4.8-0.6,9.6-1.7,14.3-3.1h37.8
		l8.8-6.6l-39.7,0C448.9,721.3,433.6,721,422,714.5z M499.5,368.2c6.2-11.2,4.2-22.7,3.1-27.1l-0.2-0.6l-0.6,0.1
		c-2.4,0.5-4.9,1.2-7.5,1.8l-0.6,0.2l0.2,0.6c0.8,3.1,3,13.9-3.8,23.3l-2.4,3.3l-0.4,0.5l0.6,0.4l3.4,2.2c0,0.1,8,5.5,9.3,18.2
		l0.1,0.7l0.7-0.2c2.5-0.7,5.1-1.3,7.5-1.9l0.5-0.1l-0.1-0.6C508,378.2,502.7,371.4,499.5,368.2z M520.8,386.3l0,0.5
		c0,0,6.1-0.8,8.5-1.2l0.5-0.1V385c0-11.1-4.4-17.7-8.2-21.3c7-11.2,5.3-23.3,4.6-26.9l-0.1-0.6l-0.6,0.1c-2.4,0.3-5,0.7-7.7,1.1
		l-0.7,0.1l0.2,0.7c0.3,1.4,2.9,13.8-5.4,23.5l-3.3,3.9l-0.5,0.6l0.7,0.4l4.6,2.2C513.6,368.8,521.4,372.8,520.8,386.3z M407,639.5
		c-1-0.2-1.9-0.4-2.9-0.4c-3.9,0-8.6,1.8-13.2,5c-0.7,0.5-1.4,1-2.1,1.6c-0.7,0.6-1.4,1.1-2.1,1.8c-0.1,0.1-0.2,0.2-0.3,0.3
		c1.9-1,3.7-1.7,5.3-2.3c1.5-0.5,3-0.9,4.5-1.1v0c3.2-0.4,5.7,0,7.3,1c1.5,0.8,2.3,2.1,2.4,3.5l-5.8,19.4l-3.2,10.7l-0.2,0.9
		c0.7-0.5,1.4-1.1,2.1-1.7c3.1-2.8,5.9-6.1,8.2-9.7l6.3-20.6C412.8,643.3,410.7,640.5,407,639.5z M354,715.3
		c-4.1-2.4-7.8-5.7-10.7-9.5c-1.1,0.7-2.3,1.5-3.5,2.2c-1,0.6-2.1,1.2-3.1,1.7c3,4.1,6.8,7.6,11.2,10.2c6.3,3.7,13.5,5.6,21.4,5.6
		c11.4,0,22.4-3.7,32.8-10.9c0.5-0.3,0.9-0.6,1.4-0.9l0.8-0.6c-9.4,5.1-19.3,7.8-28.6,7.8C367.7,721,360.4,719.1,354,715.3z
		 M714.7,719.9c-9.9-0.1-18.9-2.7-26-7.5c-1.8-1.2-3.6-2.7-5.1-4.2c-12.1,7.8-25.7,11.9-39.3,11.9s-25-5.1-31.9-14.3
		c-7.3-9.8-8.9-23.2-4.6-37.8l5.2-16.6c1.7-4.9,1.6-8.7-0.2-10.3c-1.9-1.8-6.3-1.9-10.5-0.1c-2,0.8-4.1,2.2-6.1,3.9
		c-0.2,0.1-0.3,0.3-0.4,0.4c0.4-0.2,0.7-0.3,0.9-0.4c3.4-1.5,6.6-1.4,8.2,0.1c1.6,1.5,1.8,4.8,0.6,8.8l-4.4,14.4
		c-4.8,16.2-2.9,31.3,5.3,42.4c2.4,3.1,5.2,6.5,11.6,10.2c5.9,3.4,12.9,5.1,20.8,5.1c12,0,25.4-3.9,39.9-11.7
		c8.1,7.9,19.5,12.4,31.5,12.5h25.7l6.8-6.4L714.7,719.9z M599.6,528.5l-2,0.3c-2.2,0.3-4.4,0.5-6.4,0.5H591l-0.2,0.2
		c-3.1,3.1-6.3,6.2-9.6,9.1l-1.4,1.2l1.9-0.1c1.7-0.2,3.4-0.3,5.3-0.5v0l0.2,0l0.1-0.1c3.7-2.9,7.3-5.9,10.8-9.1L599.6,528.5z
		 M548.7,649.7c1.3-4.3,1.1-7.8-0.6-9.4c-1.7-1.6-5.3-1.6-9.1-0.1c-2.1,0.9-4.1,2.1-5.9,3.4c-0.4,0.3-0.7,0.6-1.1,0.9
		c3.3-1.3,6.4-1.3,8,0.2c1.6,1.5,1.8,4.8,0.6,8.8l-20.7,68.3h42l8.1-6.6l-41.2,0L548.7,649.7z M305.3,717.7
		c-14.8-0.1-27.6-5.9-35-15.9c-6.9-9.4-8.6-21.5-4.8-34l14.8-48.4c0.1-0.5,0.3-0.9,0.5-1.5l0.1-0.2c0.2-0.5,0.4-0.8,0.5-1.1l0.2-0.4
		c0.2-0.3,0.4-0.7,0.6-1l0.2-0.3c0.8-1.2,1.8-2.4,2.9-3.4c-3.4,1.5-6.5,3.8-9.1,6.5c-2.7,2.8-4.4,5.8-5.2,8.4l-12.4,40.7
		c-4.3,14.1-2.3,27.8,5.6,38.6c8.7,11.9,24.9,18,36.3,18c8.8,0,16-1.6,22.9-5.2c4.2-2,8.2-4.7,12.3-8.3c-9.7,4.9-20.3,7.5-30.4,7.5
		H305.3z M577.9,544.1c-1.1,0-2.1,0-3.1-0.1h-0.2l-0.2,0.2l-0.2,0.2l-0.2,0.2c-9.4,7.3-25.4,17.1-37.6,23.4
		c4.1-1.7,24.7-10.2,42.5-22.7l1.7-1.2l-2.1,0L577.9,544.1z M261,529.3c-0.1,0-1.7,0.2-9,2.2c-7.7,2.1-15.1,5.1-22.1,9
		c-1.9,1.1-3.8,2.2-5.7,3.4c-12.7,8.2-24,19.1-40.3,38.5c-0.1,0.1-0.2,0.2-0.3,0.4l-19.9,26.4l1.9,8.8l0.9-1.2
		c7.8-10.5,18.4-24.8,28.4-37.9l0.2-0.2c18.1-21.5,29.6-32.1,44.1-40.4c7.5-4.2,15.7-7.4,24.1-9.4L261,529.3z M397.1,428.5
		L397.1,428.5l0.2,0.7l7.8-3.2l0.5-0.2l-0.2-0.5c-3.4-10.9-9.6-17.4-13.2-20.4c1.1-11.9-3.7-22.2-3.9-22.6l-0.3-0.6l-0.6,0.3l-7,3.3
		l-0.6,0.3l0.2,0.6c0,0.1,4.6,9.9,2.9,20l-0.4,2.5l-0.1,0.4l0.4,0.2l2.2,1.4C385.2,410.6,393.5,416,397.1,428.5z M417.9,419.8
		l0.1,0.6l8.5-3.1l-0.1-0.5c-2.8-11.1-9-17.7-12.6-20.7c2.3-12.2-2.4-23.2-2.7-23.7l-0.2-0.6l-0.6,0.2l-7,3.1l-0.6,0.2l0.2,0.6
		c0,0.1,4.5,10.5,1.5,20.7l-0.8,2.9l-0.1,0.5l0.4,0.2l2.6,1.5C406.6,401.8,415,406.9,417.9,419.8z M341.5,425.6l0.2,0.2l1.2,1
		c0.1,0.1,7.6,6.6,11.2,18.8l0.2,0.7l8.5-3.4l-0.2-0.5c-3.4-11.4-9.6-18.6-12.3-21.3c-0.2-6.8-1.9-14.9-3.2-20.5l-0.2-0.7l-0.7,0.3
		l-7.3,3.1l-0.5,0.2l0.1,0.5c1.4,5.7,3,13.7,2.9,19.7l0,1.7V425.6z M334.8,671.7c1.1-11,5.3-22.2,12-32.5c6-9.2,13.7-17,22.8-23.2
		c-3.8,2.2-7.5,4.6-10.9,7.4c-10.1,7.7-17.2,17-22.5,26.5c-5.1,9.2-8.4,19.1-9.6,28.7c0.7-0.5,1.5-0.9,2.1-1.4
		C330.9,675.6,333,673.8,334.8,671.7z M438.5,411.6L438.5,411.6l0.1,0.6l8.6-3.1l-0.1-0.5c-2.3-11.2-8.2-17.5-11.8-20.5
		c3.5-12.6-1.2-24.3-1.4-24.8l-0.2-0.6l-0.6,0.2l-7.1,2.9l-0.6,0.2l0.2,0.6c0,0.1,4.4,11,0.2,21.4l-1.3,3.2l-0.2,0.5l0.5,0.3
		l3.1,1.6C428.2,394.1,436.3,398.7,438.5,411.6z M119.5,637.2l17.6,83l5.8-4.4l-19.4-91.6L119.5,637.2z M97.3,536.8
		c-0.2-0.7-0.5-1.5-1-2.2l-0.2-0.3v0l-6.4,6.4l0.2,0.3c0.4,0.7,0.6,1.5,0.8,2.2c1.4,4.7,1,10.8-1,18.5l-43.2,139
		c-7.4,23.1-37.5,41.7-37.8,41.9L6.4,744l2.7,0.2c0.1,0,4.6,0.4,11.4,0.4c5.9,0,13.6-0.3,21.7-1.5c23.3-3.3,39-11.7,47.1-25.2
		c1.1-1.7,3.2-5.3,4.6-7.8c-1.8,2.9-3.9,5.6-6.1,8.2c-0.9,1-2.4,2.8-4.7,4.8v0c-7.9,6.6-20.6,11.4-36.6,13.7
		c-7.9,1.1-16.4,1.9-22.3,2c5-3.9,11.2-9.4,16.7-15.7c4-4.4,8.9-11.2,12.4-21.4c2.6-7.4,38.4-123.4,42.4-136.6l0.2-0.5
		c0.5-1.7,1-3.3,1.3-4.8c0.2-1.1,0.5-2,0.7-2.9c1.2-6,1-8.8,1-9C99,543.6,98.3,539.8,97.3,536.8z M232,722.5l-1.2-0.1l0.1-0.1
		l-53.4,0l28.2-91L194.1,647l-1.8,5.8l-23.4,75.3l-0.4,1.1h57.2l6.7-6.7l-0.3-0.2L232,722.5z M445.7,198.2c-1.4,0-2.7,0-4.1,0.1
		c-60.1,1.9-115.9,18.1-155.8,48.3c-6.4,4.8-12.4,10-18.2,15.5c-7,7-13.4,14.5-19.3,22.4c7.1-1.2,14.1-2.2,20.9-3.1
		C311.4,234.4,375,207.2,445.7,198.2z M211,408.2c0.7,14.6,2.8,29.1,6.5,43.2c-3.9-50.9,5-93.7,23.3-128.9
		c-4.8-0.1-9.7-0.1-14.3-0.1C214.8,349.2,209.6,378.1,211,408.2L211,408.2z"/>
	<path class="st3" d="M734.8,149c0,0-138.1,50.6-168.5,62c-30.4,11.5-29.7,40.1-29.7,40.1l2.3-0.1l57-3.5c7.4-0.5,14.8-0.5,22.3-0.2
		h0.4c1.5,0.1,2.8,0.2,4.1,0.3c0.7,0,1.4,0.1,2.1,0.2c5.5,0.5,10.2,1.3,14.2,2.2c0.2,0,0.6,0.1,0.8,0.2c12.4,2.9,17.2,6.9,17.2,6.9
		l-107.1,11.5L516,301.5l-0.2,0.2h-0.1c-74.2-0.5-216.7,46.2-242.2,147.8c-1.2,4.6-2.1,9.2-2.7,13.8c0,0.2-0.2,1.3-0.4,3.4l0-0.1
		c2.7-11.4,6.6-22.4,11.7-32.9c0.3-0.7,0.7-1.3,1-1.9l0.2-0.3l-0.2,0.3l-0.3,0.5l0.6-1.2c3.6-7,9.9-17.3,14.2-22.5
		c3.1-4,6.3-7.9,9.7-11.7c1.9-2.1,4-4.2,6.1-6.3c24-23.7,54.4-39.7,75.3-49.4c22.4-10.4,46.6-18.6,69.9-24c20.1-4.7,39.4-7.3,56-7.3
		h0l4.6,0l36.5-35.6l119.1-12.8c-11.1-8.3-32.3-19.8-64.8-20.4c-4.3-0.1-8.9,0.1-14.4,0.5l-48.6,3l2.7-7.8c3.1-9,10.4-16.5,19.6-20
		c28.8-10.9,176-65,190.3-70.3l5.1-5l-30.2,7.8L734.8,149z M437.6,725.4c0.1,4.2,0.4,8.4,0.8,12.6c0.5,5.3,1.4,10.7,2.4,15.9
		c2.7,13.7,6.3,24.1,8.8,30.2c1.5,3.7,4,8.4,4,8.4l0,0.1c5.8,5.8,12.3,11.1,19.1,16.1l0.3,0.1l-11.3-20.3l-3.1-5.8
		c-0.5-1-11.8-23.5-13.6-57.8c-2.3,0.3-4.6,0.5-6.9,0.5C438.1,725.5,437.8,725.4,437.6,725.4L437.6,725.4z M565.4,485l-2.3,0.9
		l-0.1,0l-1.1,0.4l-0.2,0.1c-0.2,0.1-0.7,0.3-1.5,0.6l-1.2,0.5c-5.1,2.4-16.3,8.2-29.6,18.8c-1.8,1.5-3.6,3-5.4,4.5
		c-10.1,9-23.2,23.6-24.2,24.8c-21.7,23.4-47.7,56.5-48,56.9c-1.8,2.5-2.5,4.2-3,6.5c-0.1,0.7-0.2,1.4-0.3,2.1
		c-0.1,1.2-0.2,3.1-0.4,5.2h7.3c0.3-2.6,0.5-5.1,0.6-7.5v-0.3c0.3-1.5,0.7-2.1,2.2-4.1c3.7-4.8,12.6-16,20.4-25.5
		c12.7-14.3,23.5-26.8,33.6-38c24.8-27.6,51.4-40.1,51.6-40.2l18.6-8l2.9-1h0c-5.9,0.6-13.7,1.3-19.8,2.9
		C565.6,485,565.5,485,565.4,485z M535.1,220.7c-34.2,11.4-39.6,32.9-39.6,32.9l25.9-1.6C524.4,227,535.1,220.7,535.1,220.7
		L535.1,220.7z M195.3,323.1c15.1-0.6,30.2-0.8,45.3-0.5c19.7,0.3,40.7,1.3,62.5,3.4c9.9-7.6,20.3-14.5,31.2-20.8
		c-64.7-2.8-151.6,0.4-234.6,27.4c2.1-0.4,35.6-6.5,86-9.1C188.9,323.4,192.1,323.2,195.3,323.1L195.3,323.1z"/>
</g>
</svg>
