<?xml version="1.0" encoding="utf-8"?>
<!-- Generator: Adobe Illustrator 25.0.0, SVG Export Plug-In . SVG Version: 6.00 Build 0)  -->
<svg version="1.1" id="Layer_1" xmlns="http://www.w3.org/2000/svg" xmlns:xlink="http://www.w3.org/1999/xlink" x="0px" y="0px"
	 viewBox="0 0 500 500" style="enable-background:new 0 0 500 500;" xml:space="preserve">
<style type="text/css">
	.st0{fill:#FCCB00;}
	.st1{fill:#00254C;}
	.st2{fill:#003EA0;}
	.st3{fill:#FFFFFF;}
</style>
<g>
	<circle class="st0" cx="250" cy="250" r="250"/>
	<circle class="st1" cx="250" cy="250" r="238.5"/>
	<path class="st2" d="M250,477.2C124.7,477.2,22.8,375.3,22.8,250S124.7,22.8,250,22.8S477.2,124.7,477.2,250S375.3,477.2,250,477.2
		 M250,28.5C127.9,28.5,28.6,127.8,28.6,250S127.9,471.5,250,471.5S471.5,372.2,471.5,250S372.1,28.5,250,28.5"/>
	<path class="st0" d="M338.6,146.2c-2-1.4-3.3-2.3-5.9-3.9l-1.4-0.9c-5.6-3.6-11.9-5.4-18.6-5.4c-4.4,0-9,0.8-13.8,2.4
		c-3-3.2-6.6-6-10.9-8.2c-0.6-0.3-1-0.5-1.4-0.7c-0.7-0.4-1.4-0.7-2.6-1.3c-5.4-2.6-11.6-4-18-4c-8,0-16,2.2-23.2,6.4
		c-0.3,0.2-0.5,0.3-0.8,0.5c-2.6-2.1-5.6-3.8-9-5.1c-0.9-0.4-1.6-0.7-2.3-0.9c-3.6-1.3-7.6-2-11.9-2c-10,0-20.5,3.7-30.2,10.7
		c-15.5,11.3-26.8,20.2-39.9,30.9c-13.1,10.7-22.7,20.3-27,32.3c-4,11.2-3.1,23.2,3.2,40.1c6,16.2,18.5,48.5,24.9,65
		c0.8,2.1,1.6,4.4,2.5,6.8c3.1,8.4,6.8,18.4,12.4,28.5c0.2,0.3,0.4,0.7,0.6,1c1.7,3.1,3.6,6,5.6,8.9c0.2,0.3,0.4,0.6,0.6,0.9
		c0,0.1,0,0.1,0.1,0.2c0.3,0.4,0.6,0.8,0.9,1.2c3.6,4.8,7.7,9.4,12.5,13.7l0.7,0.6l3.8,3.4l0.2-0.1c17.1,13.6,38.1,21,60.5,21
		c34.1,0,62.5-14.5,85.6-63.3c21.9-46.4,26.5-63.3,26.5-91.2v-33.4C362.3,168.7,354,156.9,338.6,146.2z"/>
	<path class="st1" d="M333,154.5c-2.2-1.5-3.4-2.3-6.9-4.5c-6.8-4.4-15.9-5.8-28.3-0.3c-0.8,0.4-1.6,0.7-2.3,1
		c-2.7-5.6-7.6-9.4-11.9-11.6c-1.7-0.9-2.2-1.2-3.8-1.9c-8.4-4-20.6-4.6-31.9,2c-2.3,1.3-5.3,3.1-7.8,4.6c-2.6-4.5-6.7-7.2-10.4-8.6
		c-0.9-0.3-1.6-0.6-2.2-0.8c-8.4-3.1-20.6-1.4-32.9,7.4c-14.6,10.6-25.4,19-39.4,30.5c-25.7,21-31.2,33.1-20.7,61.2
		c5.7,15.4,17.9,47,24.8,64.9c4,10.3,8.2,23.6,15.7,36.4c0.7,1.2,1.4,2.3,2.2,3.5c0.2,0.3,0.4,0.6,0.6,0.9
		c3.4,5.2,7.5,10.2,12.4,14.9c0.4,0.4,0.8,0.8,1.2,1.1c0.2,0.2,0.4,0.4,0.6,0.6c15.3,14,35.6,22.4,58.4,22.4
		c41.8,0,75.7-33.9,75.7-75.7v-0.1c0-39.9-32.4-72.3-72.3-72.3c-21.7,0-43.5,12.5-56.3,32.3c-5.5-13.4-17.2-42-26-63.4
		c-4.7-11.5-3.6-17.4,3.6-24.1c3.7-3.4,8.2-6.9,13.2-10.2c5.1-3.5,10.9-1.4,10.9,5.3v71.4c11.6-11.8,25.9-19.4,44.2-22.8l-0.3-59
		c1.3-0.8,2.5-1.6,3.4-2.1c4.7-2.7,8,0.3,8,4.6V217c0.3,0,0.6,0,0.9,0c15.4,0,29.9,4.2,42.3,11.5v-61.6c1.2-0.5,2.3-0.9,3.1-1.3
		c4.7-1.9,7.8,1,7.8,5.3c0,4.2-0.3,65.3-0.3,65.3c17.2,14.2,28.3,35,30.1,58.5c8.2-17.4,14-33.7,14-61.2v-33.4
		C352.3,172.5,346,163.5,333,154.5z M253,259.9c24.1,0,43.7,19.5,43.7,43.7s-19.5,43.7-43.7,43.7c-24.1,0-43.6-19.5-43.6-43.7
		S228.9,259.9,253,259.9z"/>
	<path class="st3" d="M272.9,330c-5.5,4.2-12.4,6.7-19.9,6.7c-7.4-0.1-14.3-2.5-19.9-6.7c12.2-15.5,12.2-37.5,0-53
		c5.5-4.2,12.4-6.6,19.9-6.6s14.3,2.5,19.9,6.6C260.7,292.5,260.7,314.5,272.9,330z M278.7,324.4c4.6-5.7,7.4-13,7.4-20.9
		c0-7.9-2.8-15.2-7.4-20.9C269.4,294.9,269.4,312.1,278.7,324.4z M227.3,282.6c-4.6,5.7-7.4,13-7.4,20.9c0,7.9,2.8,15.2,7.4,20.9
		C236.6,312.1,236.6,294.9,227.3,282.6z M86.9,193.8l5.2,2.4l3.3-7.3l-17.9-8.2l13-0.2l1.9-4l-8.4-9.9l17.9,8.1l3.3-7.3L100,165
		l-0.9,1.9l-23.4-10.7l0.9-1.9l-5.2-2.3l-3.3,7.3l2.8,1.3l12.1,14l-18.6,0.1l-2.8-1.2l-3.3,7.3l5.2,2.3l0.8-1.8l23.4,10.6
		L86.9,193.8z M98.1,124l19.6,16.9l-1.3,1.5l4.2,3.7l6.8-7.8l-4.3-3.7l-1.3,1.5l-19.6-16.8l1.3-1.5l-4.3-3.7l-6.7,7.8l4.3,3.7
		L98.1,124z M154,105.5l1.2,1.7l-5.3,3.7l-14.8-21.2l1.8-1.2l-3.2-4.7l-8.5,5.9l3.2,4.7l1.7-1.2l14.7,21.2l-1.6,1.1l3.2,4.7l17.2-12
		l-4.4-6.3L154,105.5z M204.7,57.5l2-0.7l-1.8-5.4l-7.2,2.4l0.8,2.7l2.3,18.7l-10-16.2l-4.8,1.5l1.3,19.1L178.2,63l-0.9-2.7
		l-7.2,2.4l1.7,5.3l2-0.5L187.9,93l0.8,2.7l6-2l-0.9-2.6l-1.5-19.2l10,16.5l0.8,2.6l6-1.9l-0.9-2.7L204.7,57.5z M246.7,84.3
		l-8.2-0.1l0.1-5.7h1.9l0.3-19.7l5.6-11.6l11.2,0.2l5.2,11.8l-0.3,19.7h1.9l-0.1,5.7l-8.1-0.1l0.2-10l-9.5-0.2L246.7,84.3z
		 M246.9,68.5l9.5,0.2l0.2-8.8l-3.1-6.9l-3.2-0.1l-3.3,6.8L246.9,68.5z M312.9,88.2l7.2-22.8l2,0.7l1.7-5.5l-7.9-2.5l-8.5,26.7
		l-2.5,2.8l-5.4-1.8l-0.4-3.7l8.4-26.7l-7.8-2.5l-1.8,5.5l2,0.6l-7.2,22.8l1.1,8.2l13.5,4.3L312.9,88.2z M350.1,98.5l2.4,1.7l-3,17
		l4.7,3.3l3.2-4.7l-1.6-1.2l2.4-13.9l12.2-7.3l1.6,1.1l3.3-4.6l-4.7-3.2l-14.9,8.8l-2.4-1.7l8.9-12.9l-6.8-4.7l-3.2,4.7l1.7,1.1
		l-14.7,21.3l-1.6-1.2l-3.2,4.7l6.8,4.7L350.1,98.5z M385.7,153.7l5.9-4.8l-3.9-4.9l-1.6,1.3l-4-4.9l7.7-6.3l6,7.3l4.5-3.6l-6-7.4
		l7.7-6.3l4,5l-1.5,1.2l3.9,4.9l6-4.9l-13.2-16.2l-4.5,3.6l1.4,1.6l-19.9,16.2l-1.3-1.6l-4.5,3.7L385.7,153.7z M432.6,160.2
		l-5.3,2.3l0.9,1.9l-23.6,10.2l-0.8-1.9l-5.3,2.3l8.4,19.1l7.1-3l-2.5-5.8l-1.9,0.8l-2.5-5.8l9.1-4l3.8,8.7l5.3-2.3l-3.8-8.7
		l9.1-3.9l2.6,5.8l-1.8,0.8l2.5,5.7l7-3L432.6,160.2z M124.4,359.8l-2.8,5.6l-6.6,5.1l-4.8,1.1l-2.3,4.4l-6.6,5.1l-6.2,1.5
		l-12.7-16.3l4.5-3.5l1.3,1.6l20.3-15.8l-1.3-1.6l4.5-3.5L124.4,359.8z M104.9,369.5l-4.9-6.3l-8,6.2l4.8,6.2L99,375l5-3.9
		L104.9,369.5z M117.2,359.7l-4.8-6.2l-7.9,6.2l4.9,6.3l1.8-0.4l5-3.9L117.2,359.7z M144.9,380.2l16.2,11.3l-1.5,8.3l-4.6,6.6
		l-7,4.1l-1.1-0.8l-1.4,9l1.6,1.1l-3.2,4.7l-4.7-3.2l2.7-15.2l-3.3-2.3l-8,11.5l-6.8-4.7l3.2-4.7l1.6,1.2l14.8-21.1l-1.7-1.1
		L144.9,380.2z M148.6,389.4L142,399l6.6,4.6l1.5-0.9l4.6-6.6l0.4-2.2L148.6,389.4z M187,411l2,0.6l-8,24.4l-1.9-0.6l-1.8,5.4
		l19.9,6.4l2.4-7.3l-6-1.9l-0.6,1.9l-6-1.9l3-9.5l9.1,2.9l1.7-5.4l-9-3l3.1-9.5l6,2l-0.6,1.9l6,1.9l2.4-7.3l-19.9-6.5L187,411z
		 M262.1,416.7l0.1,2.8l-3.3,18.6l-4.9-18.5l-5,0.1l-4.3,18.6l-3.9-18.5V417l-7.7,0.1l0.1,5.7h2.1l6,28.5l0.1,2.8l6.2-0.1v-2.8
		l4.1-18.7l4.7,18.6l0.1,2.8l6.3-0.1l-0.1-2.8l5.1-28.8h2.1l-0.1-5.7L262.1,416.7z M317.9,434.2l0.7,1.9l-6.1,2.1l-3.2-9.4l9-3.1
		l-1.9-5.5l-9,3.1l-3.2-9.4l6-2.1l0.6,1.9l5.9-2l-2.5-7.3l-19.7,6.8l1.8,5.4l2-0.7l8.4,24.3l-2,0.7l1.9,5.4l19.7-6.9l-2.5-7.2
		L317.9,434.2z M375.8,403.6l3.3,4.6l-4.6,3.3l-13.5-7.6l-3.3,2.4l8.2,11.4l-6.7,4.9l-3.3-4.6l1.6-1.2l-15.1-20.9l-1.6,1.2l-3.3-4.6
		l16-11.6l7.4,4.1l4.7,6.5l1.6,8l-1.1,0.8l8.1,4.5L375.8,403.6z M361,397l-0.4-1.8l-4.7-6.5l-1.9-1.1l-6.4,4.6l6.9,9.5L361,397z
		 M406.5,355.6l-17,6l-3.4-2.6l-1-1.9l4.2-5.6l2.2,0.5l1.6,1.2l3.7-5l-3.2-2.4l-6.1-1.3l-9.7,12.8l3,5.5l7.5,5.7l17.1-6l3.5,2.7
		l0.9,1.9l-4.2,5.5l-2-0.4l-1.8-1.3l-3.7,5l3.2,2.4l6.1,1.4l9.7-12.8l-2.9-5.5L406.5,355.6z"/>
</g>
</svg>
