<?xml version="1.0" encoding="utf-8"?>
<!-- Generator: Adobe Illustrator 25.0.0, SVG Export Plug-In . SVG Version: 6.00 Build 0)  -->
<svg version="1.1"
	 id="Layer_1" xmlns:cc="http://creativecommons.org/ns#" xmlns:dc="http://purl.org/dc/elements/1.1/" xmlns:rdf="http://www.w3.org/1999/02/22-rdf-syntax-ns#"
	 xmlns="http://www.w3.org/2000/svg" xmlns:xlink="http://www.w3.org/1999/xlink" x="0px" y="0px" viewBox="0 0 827.8 827.9"
	 style="enable-background:new 0 0 827.8 827.9;" xml:space="preserve">
<style type="text/css">
	.st0{fill:#FFFFFF;}
	.st1{fill:#002B5C;}
	.st2{fill:#B3B5B7;}
	.st3{fill:#D31145;}
</style>
<g>
	<path class="st0" d="M413.9,0L413.9,0C185.7,0,0,185.7,0,414c0,228.2,185.7,413.9,413.9,413.9c228.2,0,413.9-185.7,413.9-413.9
		C827.8,185.7,642.1,0,413.9,0z"/>
	<path class="st1" d="M415.2,22.3L415.2,22.3c-217.3,0-393.5,176.2-393.5,393.5c0,217.3,176.1,393.4,393.5,393.5
		c217.3,0,393.4-176.1,393.5-393.5C808.6,198.5,632.5,22.3,415.2,22.3z"/>
	<path class="st0" d="M415.2,34.4L415.2,34.4c-210.6,0-381.3,170.8-381.4,381.4c0,210.6,170.7,381.3,381.4,381.3
		c210.6,0,381.3-170.7,381.3-381.3S625.8,34.4,415.2,34.4z"/>
	<path class="st1" d="M677.2,153.8c-67.1-67.1-159.7-108.5-262-108.5c-102.4,0-195,41.5-262,108.5C86.1,220.8,44.6,313.5,44.6,415.8
		c0,102.3,41.5,195,108.5,262c67.1,67.1,159.7,108.5,262,108.5c102.3,0,195-41.5,262-108.5c67.1-67.1,108.5-159.7,108.5-262
		C785.8,313.5,744.3,220.8,677.2,153.8z"/>
	<path class="st0" d="M557.4,160.1c5.3,2.9,11,4.3,16.3,4.3c8.4,0,16.1-3.6,20.1-10.9c1.5-2.8,2.2-5.9,2.2-9c0-8.9-5.7-18.3-16.3-24
		c-5.5-3.1-11.3-4.6-16.7-4.6c-8.5,0-16.2,3.7-19.9,10.5c-1.6,3-2.4,6.2-2.4,9.4C540.8,145.3,547.4,154.6,557.4,160.1z M553.3,131.2
		L553.3,131.2c2.7-4.8,7.1-7.5,12.6-7.5c3.1,0,6.5,0.9,10,2.8c6.6,3.6,9.5,9.3,9.5,14.9c0,2.7-0.7,5.4-2,7.8
		c-2.6,4.8-7,7.4-12.5,7.4c-3,0-6.3-0.8-9.7-2.7c-6.7-3.6-9.7-9.7-9.7-15.5C551.5,135.9,552.1,133.4,553.3,131.2z M441.8,124.3
		l-33.4-1.1l0.1-1.4l0-1.2l1-0.3c2.6-0.5,2.6-4.1,2.6-7.1l0.7-23.3c0-0.8,0.1-1.7,0.1-2.6c-0.1-2.4-0.4-4.1-2.3-4.7l-1-0.3l0.1-1
		l0-1.5l25.3,0.8c0.6,0,1.2,0.1,1.8,0.1c0.5,0,1,0,1.2-0.2l0.3-0.1h0.3l1.5,0.1l-0.3,9.9l-1.3,0l-0.8,0l-0.4-0.4
		c-1.8-1.9-4.4-2.3-7.8-2.4c-1,0-2-0.1-2.9-0.1c-1.2,0-2.3,0-3.4,0.1l-0.3,9l7.5,0.3c0.4,0,0.7,0,1.1,0c0.7,0,1.4-0.1,1.7-0.2
		l0.3-0.1h0.3l1.5,0.1l-0.3,9.2l-1.3,0l-0.9,0l-0.4-0.6c-0.4-0.9-3.1-1.3-5.5-1.3l-4.2-0.1l-0.4,12.1l8.2,0.9
		c0.7,0.1,1.5,0.1,2.2,0.1c3.9,0,7.9-1.1,10.8-3.1l0.4-0.3l0.4,0l2.2,0.1L441.8,124.3z M237.9,131.6l-0.7-1.4l12.1-6.3l0.5,1
		c0.3,0.2,0.4,0.3,1.2,0.5l1.4,0.6l34.3,11.7l-9.3-17.8c-1.7-3.1-2.1-4.3-5.4-4.4c-0.2,0-0.3,0-0.4,0l-0.9,0.1l-0.4-0.8l-0.7-1.4
		l14.1-7.3l0.6,1.2l0.5,0.9l-0.5,0.7c-1,1.3-1.3,2.3-1.3,3.1c0,1.1,0.6,2.4,1.5,4.2l16.9,32.4l-1.8,0.4c-1.9,0.4-3.5,0.6-5,0.6
		c-3.1,0-5.6-0.8-8.7-1.8l-32-11l9.5,18.3c1.7,3.1,2,4.3,5.5,4.4c0.1,0,0.2,0,0.4,0h0.8l0.4,0.7l0.7,1.3l-14.1,7.3l-0.6-1.2
		l-0.5-0.9l0.5-0.7c1-1.4,1.3-2.3,1.3-3.2c0-1.1-0.6-2.4-1.5-4.2L245,136.7c-1.7-3.1-2.1-4.3-5.5-4.4c-0.1,0-0.2,0-0.3,0l-0.9,0.1
		L237.9,131.6z M320.8,94.5l-0.3-1.5l13.3-2.8l0.2,1.1c0.2,0.3,0.4,0.4,1,0.8l1.2,0.9l30,20.4L362,93.7c-0.9-3.6-0.8-4.8-4.4-5.8
		l-0.9-0.2l-0.2-0.8l-0.3-1.5l15.5-3.3l0.3,1.3l0.2,1l-0.7,0.5c-1.8,1.5-2.2,2.4-2.2,3.8c0,0.9,0.2,2,0.5,3.3l7.6,35.7l-1.8-0.1
		c-5.7-0.3-8.9-2.1-12.8-4.8L335,103.6l4.3,20.2c0.9,3.5,0.8,4.8,4.5,5.9l0.8,0.2l0.2,0.8l0.3,1.5l-15.6,3.3l-0.3-1.3l-0.2-1
		l0.7-0.5c1.9-1.5,2.2-2.5,2.2-3.9c0-0.9-0.2-2-0.5-3.3l-5.2-24.2c-0.8-3.5-0.9-4.8-4.4-5.8l-0.8-0.2L320.8,94.5z M409.8,79.8
		L409.8,79.8L409.8,79.8L409.8,79.8z M472.3,127.1l-0.4-12.6l2.5,2.9c3.3,3.9,8.6,7.2,13.9,8.5c1,0.3,2.3,0.4,3.6,0.4
		c3.4,0,6.3-1.2,6.7-3.1c0.1-0.3,0.1-0.6,0.1-0.9c0.2-2.8-4.4-6.1-9.5-9.6c-5-3.5-10.6-7.4-10.7-13.7c0-0.8,0.1-1.7,0.3-2.5
		c1.5-6,7.4-8.1,13.5-8.1c2.9,0,6,0.4,8.9,1.2c3.7,0.9,7.4,2.3,10.8,4.1l0.9,0.5l-2,7.8l-0.7,2.8l-1.7-2.4c-2-2.8-5.9-5.2-9.7-6.1
		c-1.3-0.3-2.7-0.5-4-0.5c-2.8,0-4.6,0.8-5.1,2.7c0,0.2-0.1,0.4-0.1,0.6c-0.3,2.3,4.4,5.9,9.7,9.4c5.1,3.6,10.7,7.5,10.8,13.4
		c0,0.7-0.1,1.3-0.3,2c-1.5,5.9-8.3,9.5-16.6,9.5c-2.4,0-5-0.3-7.6-1c-4.5-1.1-9-2.8-12.9-5.2L472.3,127.1z M280.5,488.3
		c-1.5-3.2-2.2-7.5-2.2-12.7V374.2c8.6,3.6,9.5,8.8,9.5,12.3c0,0.4,0,88.7,0,102C285.3,488.7,282.8,488.7,280.5,488.3z M593.2,218.2
		c22.8,20.1,41.4,43.2,55.7,68.2h-0.1c-3.4,0.4-6.5,1.2-9.5,2.4c-13.5-23.1-30.9-44.5-52.1-63.1c-48.7-42.8-109.2-63.9-169.3-63.9
		c-49.1,0-98.1,14-140.4,41.7c-19.2,12.5-37.1,27.8-52.9,45.9c-16.6,18.9-29.9,39.7-40,61.5c-3.5,0.3-7,0.7-10.6,1.1
		c-0.4,0.1-0.9,0.1-1.3,0.2c10.8-24.8,25.5-48.3,44.2-69.6c52.7-60,126.5-90.8,200.6-90.7C479.6,151.8,542.6,173.7,593.2,218.2z
		 M224.6,550.1v-11c-0.3,0-5.6-0.7-9.6-3.6v-3.5c-0.2,0-1.7-0.2-3.7-0.8c-0.5-1.2-0.9-2.4-0.9-3.9V394.8c10.7,3.6,11.1,8,11.1,11.8
		c0,0.4,0,70.7,0,70.7c-0.1,17.3,6.1,31.8,17,39.5c1.5,1.1,3.1,2,4.8,2.8c1.5,1.6,3.1,3.1,4.8,4.3c10.9,7.8,26.2,9.7,39.6,5.7
		c43.9-12.9,92-25.7,136.4-35.7v-13.1c-4.5-0.9-7.6-2-9.6-3.7v-4.4c-1.1-0.2-2.1-0.4-3-0.7c-0.6-2.2-0.8-5-0.8-8.5V339.4
		c9.8,4.5,10,10.7,10,14.8l0,75.5c0,12.1,1.5,29.4,14.6,39.4c1.3,1,2.6,1.8,4,2.6c1.6,2,3.4,3.9,5.6,5.6c8.5,6.5,17.4,8.4,29.7,6.3
		l16.1-3.2v-10.3l7.3-1.3V479l47.1-7.9c0,0,0.1-118.2,0.1-132.7v0c1.8,0,3.7,0.3,5.5,0.8c1.7,4,2.6,9.3,2.6,15.8v104.4
		c2.8-0.4,6.1-0.9,9.6-1.4v10.4c15.5-2.3,43.8-6.3,58.6-7.6v-10.3c1.8-0.2,3.5-0.4,5.3-0.6v10.3c5.6-0.6,20.8-2,34.3-3.2
		c-3.2,20.2-9,40.4-17.6,60c-54.3,124.8-199.5,182-324.4,127.6c-45.3-19.7-81.7-51.5-107.1-89.9
		C218.9,552.3,223.7,550.5,224.6,550.1z M650.9,227.1c-1.7,0-3.2-0.3-5-1.4l-0.8-0.5l-0.9,0.7l-1,0.8l9.4,13.5l1.3-0.9l0.8-0.6
		l-0.3-0.9c-0.2-0.6-0.3-1.1-0.3-1.4c-0.1-0.8,0.4-1.1,3.6-1.7l8.6-1.7l9.8,14l-4.4,7.6c-0.8,1.3-1.3,2.3-1.7,2.9
		c-0.3,0.5-0.4,0.4-0.4,0.5c0,0-0.7-0.2-1.7-0.9l-0.8-0.5l-1,0.6l-1.1,0.8l10.3,14.7l1.2-0.9l0.8-0.5l-0.2-0.9
		c-0.2-0.7-0.2-1.4-0.2-2c0-2.9,1.5-5.2,3.1-8.1l17.5-31.7l-8.1-11.5l-1.2,0.9l-0.8,0.6l0.3,1c0.2,0.5,0.2,0.8,0.2,1
		c-0.1,0.4-0.1,0.4-0.6,0.8c-0.6,0.3-1.6,0.4-2.6,0.6l-28.3,4.6C654.4,226.7,652.6,227.1,650.9,227.1z M686.2,229.2l-6.1,10.6
		l-6-8.6C674,231.2,686.2,229.2,686.2,229.2z M346.7,470.1c-1.4-3.3-2.1-7.6-2.1-12.9V356c8.4,4,9.3,9.2,9.3,12.9
		c0,0.4,0,88.3,0,101.5C351.4,470.5,349,470.5,346.7,470.1z M622.7,206.6l-13-11.8l1-1l0.8-0.8l0.8,0.4c0.5,0.2,0.9,0.3,1.3,0.3
		c1.7,0.1,3.7-2.2,5.3-4l17.7-19.4l-3.9-3.5c-2.3-2.1-5-3.6-7.5-3.8l-0.4-0.1l-0.3-0.3L623,161l9.4-5v0l0.7,0.6l0.3,0.3l0.1,0.2
		c0.3,0.6,1,1.2,1.6,1.9l22,20.1c0.9,0.8,1.8,1.5,2.5,1.7l0.2,0.1l0.2,0.2l1.5,1.4l-9.2,5.2l-0.7-0.7l-0.8-0.7l0.3-0.8
		c0.1-0.2,0.1-0.4,0.1-0.6c0.1-1.1-1.3-2.8-2.8-4.2l-4-3.6L626.2,197c-1.8,1.9-2.8,3.1-2.7,4.6c0,0.6,0.1,1.4,0.5,2.4l0.3,0.8
		l-0.6,0.6L622.7,206.6z M662.2,416.2c-2.3-4.3-5.5-8.4-9.6-11.9c-1.1-0.9-2.1-1.8-3.2-2.6c-6.3-8.6-16.6-15.7-32.1-17.4v58.9
		c-2.6-1.5-4.3-3-5.3-4.6v-2.4l-1.5-0.7c-0.4-1.8-0.4-3.5-0.4-5.3v-77.5c0.1-11.1-2.5-26.3-14.7-36.4c-1.1-0.9-2.2-1.8-3.5-2.6
		c-1.7-2.3-3.7-4.5-6.2-6.5c-7.8-6.4-19.5-11.4-34.4-9.1l-26.4,4.2c-14.1,2.3-37.1,6.5-51.6,9.3v10.3l-5.6,1.1v-10.3l-10.9,2.2
		c-14.2,2.9-28.7,6-43.1,9.2l-7.1,1.6V336c-1.7,0.4-3.6,0.8-5.6,1.3V327c-14.4,3.4-46.1,11.2-60.4,14.9v10.2c-1.7,0.5-3.6,1-5.6,1.5
		v-10.3c-13.3,3.6-47.6,13.2-60.6,17v10.2c-1.7,0.5-3.6,1.1-5.6,1.7V362c-12.9,3.9-43.7,13.6-58.2,18.3v-11.7h0
		C243,367,332.6,353,333.6,283.3l-7.4-2.5c0.1-1.5,0.1-2.9,0.1-4.4l-13.9-4.6c-0.5,24.8-34.1,37.3-84.5,37.4c-7,0-18.2,0-31.4,0.8
		c43.2-88.2,133.2-139.8,226.6-137.8c31.1,0.7,62.7,7.3,93,20.5c49.7,21.7,88.7,57.8,114.2,101.2c-10.7,8.4-16.6,22.3-16.6,35.7v2.1
		c0.8,17.2,8.3,31.7,21.9,42.2c1.2,0.9,2.3,1.8,3.6,2.6c5.4,3.7,9.9,6.8,13.5,9.6c7.4,5.6,11.4,9.6,13.5,12.6
		c1.7,2.4,2.2,4.1,2.3,5.5C668.8,410.9,665.5,414.3,662.2,416.2z M481.1,463.5v-4.2c-1-0.2-1.8-0.4-2.7-0.6c-0.7-2.3-1-5.2-1-8.8
		V325.6c11,4.4,11.1,11,11.1,15.1v126.6C485.2,466.5,482.8,465.3,481.1,463.5z M450.6,744.8l1.4-0.1l-3.6,9.1l-27.9,1.6l-0.1-0.8
		l0-0.7l0.5-0.2c1.7-0.6,2.1-2.1,2.1-4.1c0-0.9-0.1-1.8-0.1-2.6l-1.2-20.3c-0.1-2.6-0.1-5.9-2.8-6.5l-0.6-0.2l0-0.6l0-1l14-0.8
		c0,0,0,0.8,0,0.8l0,0.8l-0.5,0.2c-1.7,0.6-2,2.1-2.1,4c0,1,0.1,2,0.2,2.8l1.3,22.7l8-0.1c4.2-0.1,7.8-1.5,10.8-3.8l0.2-0.2H450.6z
		 M498.6,736.2l1.4-0.3l-2.3,9.4l-27.4,5.7l-0.2-0.8l-0.1-0.7l0.5-0.3c1.2-0.7,1.5-1.7,1.5-3c0-1.3-0.4-2.7-0.6-3.9l-4.1-19.9
		c-0.5-2.6-1-5.9-3.7-6.1h-0.6l-0.1-0.6l-0.2-1l13.7-2.9h0l0.2,0.8l0.1,0.8l-0.5,0.3c-1.2,0.7-1.5,1.6-1.5,3c0,1.3,0.4,2.7,0.7,4
		l4.6,22.3l8-1.2c4.2-0.7,7.5-2.6,10.1-5.4l0.2-0.2L498.6,736.2z M581,702.8l1.3-0.7l-0.2,8.7L582,711c-2.3,2.5-5.2,4.5-8.3,6
		c-5.4,2.7-10.5,4.1-15.2,4.1h-0.1c-7.2,0-13.1-3.5-16.4-10c-1.3-2.7-2-5.4-2-8.1c0-7.9,5.4-15.2,14.4-19.7
		c3.6-1.8,7.5-3.1,11.3-4.2l0.7-0.2c0,0,3.1,6.2,3.1,6.2l0.6,1.2l-1.3-0.1h-0.6c-3.7,0-7.7,0.8-11.2,2.5c-5.6,2.9-8.6,7.4-8.6,12.1
		c0,1.8,0.4,3.6,1.4,5.5c2.3,4.6,7.1,7.6,12.6,7.6c2.5,0,5.1-0.6,7.8-2c4.2-2.1,7.8-5.5,10.5-9l0.1-0.2L581,702.8z M417.1,685.5H417
		c-62.5,0.1-125.4-21.9-176-66.3c-3.9-3.4-7.5-6.9-11.2-10.5c-14.4-14.2-26.9-29.8-37.5-46.2c3.4-1.3,6.7-2.6,9.8-3.8
		c9.3,14.3,20.3,27.9,32.7,40.4c0.2,0.2,0.3,0.3,0.5,0.5c2,2,4,3.9,6,5.8c0.3,0.3,0.6,0.6,0.9,0.8c1.8,1.7,3.7,3.4,5.6,5.1
		c3.1,2.8,6.3,5.4,9.6,8c47,37.6,103.8,56.2,160.2,56.2h0c71.2,0,142-29.5,192.8-87.1c0.1-0.1,0.2-0.2,0.2-0.3
		c34-38.6,54.2-84.7,61.1-132c3.8-0.3,7.3-0.7,9.6-0.9c-6.9,50-28,98.8-63.8,139.5C564.9,654.8,491.1,685.5,417.1,685.5z
		 M681.4,455.2L681.4,455.2L681.4,455.2L681.4,455.2z M667.9,641.5l0.7,0.7l-7.9,7.9l-0.6-0.6l-1.2-1.2c-0.6,4-3.2,7.9-6,10.9
		c-3.1,3.1-7.3,5.6-11.5,5.8h-0.6c-4.6,0-7.3-2.8-9.8-5.4l-10.2-10.2c-1.4-1.5-3.2-3.5-4.9-3.4c-0.4,0-0.8,0.1-1.3,0.4l-0.6,0.3
		l-0.4-0.4l-0.7-0.7l9.9-9.8l0.6,0.6l0.6,0.6l-0.3,0.5c-0.3,0.5-0.3,0.9-0.3,1.3c-0.1,1.7,1.9,3.6,3.4,5l10.2,10.2
		c2.5,2.4,4.7,3.5,6.9,3.5c2.2,0,4.4-1.1,6.7-3.4c2.3-2.2,3.8-5.3,3.8-8.1v-0.6c-0.2-1.9-0.8-2.5-2.2-3.9l-11.5-11.5
		c-1.5-1.5-3.3-3.5-5-3.4c-0.4,0-0.9,0.1-1.3,0.3l-0.6,0.3l-0.4-0.4l-0.7-0.7l9.7-9.6l0,0l0.5,0.2l1,0.4l-0.4,0.8
		c-0.3,0.5-0.3,1-0.3,1.4c-0.1,1.7,1.9,3.5,3.4,5l14.3,14.4c1.4,1.5,3.2,3.4,5,3.4c0.4,0,0.8-0.1,1.3-0.3l0.6-0.3L667.9,641.5z
		 M691.3,592.1c-1.6-1.1-3.4-1.6-5.1-1.6c-2.7,0-5.5,1.2-8,3.1c0.1-0.6,0.2-1.2,0.2-1.8c0-2.3-0.8-4.5-2.9-6c-1.2-0.9-2.6-1.3-4-1.3
		c-3.7,0-7.7,2.9-11.4,8l-9.4,13.2l0.8,0.5l0.5,0.3l0.4-0.3c0.6-0.4,1.1-0.6,1.7-0.6c1.6-0.1,3.5,1.5,5,2.6l16.5,11.8
		c1.9,1.3,4.4,2.9,4.3,4.8c0,0.3,0,0.6-0.1,1l-0.2,0.6l0.6,0.4l0.7,0.4l6.7-9.4c2.9-3.9,6-8.1,7.2-13c0.3-1.3,0.4-2.6,0.4-3.9
		C695.2,597.4,694.1,594,691.3,592.1z M669.6,603.9l-0.7,1.1l-7.4-5.2l1.8-3.1c1.3-2.2,3.6-3.9,5.6-3.9l0,0h0.1
		c0.7,0,1.5,0.2,2.2,0.7c1,0.8,1.4,1.8,1.4,3.1C672.6,598.7,671.1,601.7,669.6,603.9z M685.7,611l-3.1,3.7l-9.6-6.8l2.1-3.1
		c2.2-3.5,5.6-6.2,8.6-6.2h0.1c1,0,2,0.3,3,1c1.6,1.1,2.2,2.6,2.2,4.3C688.8,606.1,687.6,608.7,685.7,611z M621.1,675l1.8,9.5
		l-22.8,16.3l-0.4-0.7l-0.4-0.6l0.3-0.5c0.5-0.6,0.6-1.1,0.7-1.7c0-1.6-1.5-3.5-2.6-5l-11.9-16.5c-1.2-1.8-2.9-4.3-4.8-4.2
		c-0.3,0-0.7,0.1-1,0.2l-0.6,0.2l-0.3-0.5l-0.6-0.8l11.4-8.1v0l0.4,0.6l0.4,0.6l-0.3,0.5c-0.4,0.6-0.6,1.1-0.6,1.7
		c-0.1,1.6,1.5,3.6,2.6,5.1l13.2,18.5l6.8-4.4c3.6-2.3,5.8-5.4,7.1-8.9l0.1-0.2l0.2-0.2L621.1,675z M671.7,456.1L671.7,456.1
		c-0.4,0-0.6,0.1-1,0.1C671.1,456.2,671.4,456.1,671.7,456.1z M169.5,615.6c1.4,0.7,2.8,1,4.2,1.1c1.4,0,2.8-0.4,4.1-1.4
		c1.8-1.4,2.8-3.5,2.8-5.8c0-3.1-1.6-6.8-4.6-10.9l-9.8-12.9v0l-0.8,0.6l-0.5,0.4l0.2,0.6c0.2,0.4,0.2,0.7,0.2,1
		c0.1,1.8-2.3,3.5-4.1,4.8L145,605.3c-1.5,1.2-3.5,2.8-5.1,2.7c-0.6,0-1.1-0.1-1.6-0.6l-0.5-0.3l-0.6,0.4l-0.7,0.5l7,9.2
		c2.9,3.9,6,8.1,10.4,10.7c2.3,1.4,4.9,2.2,7.5,2.2c2,0,4-0.6,5.7-1.8c2.4-1.8,3.5-4.6,3.5-7.4C170.5,619.3,170.2,617.4,169.5,615.6
		z M161.3,621.8c-1,0.8-2.1,1.1-3.1,1.1c-2.6,0.1-5.6-2.2-7.6-5.3l-2.7-4.1l9.4-7.1l2.4,2.9c2.1,2.5,3.6,5.7,3.6,8.3
		C163.3,619.2,162.8,620.7,161.3,621.8z M162.3,604.2l-0.8-1.1c0,0,7.2-5.4,7.2-5.4l2.4,2.7c1.4,1.5,2.2,3.5,2.2,5.2
		c0,1.3-0.4,2.4-1.5,3.2c-0.7,0.5-1.3,0.7-2,0.7C167.3,609.6,164.1,606.8,162.3,604.2z M204.9,633.2l-0.4,0.4l0.3,0.6
		c0.4,0.6,0.5,1,0.5,1.2c0.1,0.6-1.1,1.3-2.8,1.9l-23.2,9.1c-2.3,1-4.3,1.8-6.4,1.8c-0.9,0-1.8-0.1-2.9-0.5l-0.5-0.2l-0.5,0.5
		l-0.5,0.6l9.9,9.2l0.7-0.7l0.4-0.4l-0.3-0.6c-0.4-0.7-0.6-1.2-0.6-1.6c-0.1-0.7,0.8-1.3,3-2.2l7.2-3.1l11.2,10.4l-2.4,7.4
		c-0.9,3-1.3,3.6-1.6,3.5c-0.3,0-0.9-0.2-1.7-0.5l-0.5-0.2l-0.5,0.6l-0.5,0.6l10.9,10.2l0.7-0.7l0.3-0.4l-0.2-0.5
		c-0.6-1.2-0.8-2.3-0.8-3.4c0-1.9,0.7-3.8,1.3-5.9l9.1-29.9c0,0-8.5-7.8-8.5-7.8L204.9,633.2z M201.9,653.8l-7.5-6.9l11.1-4.5
		L201.9,653.8z M195.9,163.6l-1-1.2l13-10.7l0.9,1l0.8,0.9l-0.6,0.8c-0.4,0.5-0.5,1-0.5,1.5c-0.1,1.6,1.8,3.9,3.3,5.6l14.8,18
		c1.5,2,3.5,4.4,5.3,4.3c0.3,0,0.7-0.1,1.1-0.2l0.9-0.4l0.6,0.7l1,1.2l-13,10.7l-0.9-1l-0.8-0.9l0.6-0.8c0.4-0.5,0.5-1,0.5-1.5
		c0.1-1.6-1.8-3.8-3.3-5.5l-14.8-18c-1.6-2-3.5-4.5-5.3-4.4c-0.3,0-0.7,0-1.1,0.2l-0.9,0.4L195.9,163.6z M154.5,258.1L136.4,239
		c-1-1.1-1.7-1.9-2.7-1.9c-0.4,0-0.9,0.1-1.7,0.5l-0.8,0.4l-0.7-0.5l-1.2-0.9l9.5-12.5l1.1,0.8l0.1,0.1c0.3,0.3,1.2,0.4,2.3,0.6
		l27.5,4.9L157.7,207c-0.7-1.3-1.3-2.2-2-2.8l-1.1-0.9l9.5-12.4v0l1.1,0.8l1,0.8l-0.4,1c-0.1,0.2-0.1,0.4-0.1,0.5
		c0,0.6,0.5,1.4,1,1.8l27.2,14.5c1.6,0.9,2.6,1.3,3.7,1.3c0.6,0,1.4-0.2,2.5-0.6l0.7-0.3l0.6,0.5l1.2,0.9l-10.4,13.6l-1.1-0.8
		l-1-0.7l0.4-1c0.2-0.5,0.3-0.9,0.3-1.2c0-0.8-0.5-1.6-1.5-2.3l-22.4-12.5l16.7,32.2l-1.4,0.5c-2.4,0.9-4.3,1.3-6.1,1.3
		c-1.5,0-2.9-0.2-4.6-0.5l-26.8-4.9l15.8,16.5c1.9,2.1,3.3,3.3,4.3,3.2c0.4,0,0.9-0.1,1.7-0.6l0.8-0.5l0.7,0.6l1.2,0.9l-9,11.8
		l-1.1-0.8l-0.7-0.5v-0.7v-0.2C158.5,262.4,156.8,260.6,154.5,258.1z M298.3,694.1l0.9,0.4l-3.4,7.2l-0.7-0.3l-0.5-0.3l-0.1-0.3
		c-0.9-2.2-2.9-3.5-5.6-4.8c-1.8-0.8-3.6-1.6-5.4-2.2l-3.6,7.7l6.3,2.9c0.9,0.4,1.8,0.8,2.4,0.8h0.2l0.2,0.1l0.9,0.4l-3.1,6.7
		l-0.7-0.4l-0.6-0.2l-0.1-0.4c-0.1-1.2-2.3-2.3-4.1-3.2l-3.6-1.7l-4.7,10.2l6.5,3.7c2.7,1.5,5.9,2.3,8.8,2.3c1,0,1.9-0.1,2.8-0.3
		l0.3-0.1l0.3,0.1l1.3,0.6l-6.9,6.3l-25.7-12l0.3-0.7l0.3-0.7l0.6,0.1c0.2,0.1,0.3,0.1,0.5,0.1c2.2,0.1,3.4-2.9,4.4-5l8.6-18.4
		c0.7-1.5,1.7-3.4,1.7-4.8c0-0.8-0.2-1.6-1-2.2l-0.5-0.4l0.3-0.6l0.4-0.8c0,0,19.5,9.1,19.5,9.1c1,0.5,2,1,2.6,1h0.2L298.3,694.1z
		 M331.7,706.1l-15.5-4.5v0l-0.3,1l-0.2,0.6l0.5,0.3c1,0.7,1.3,1.5,1.3,2.6c0,1.4-0.6,3-1,4.4l-5.6,19.5c-0.7,2.6-1.5,5.9-4.1,5.8
		h-0.6l-0.2,0.7l-0.2,0.8l11.1,3.2c4.1,1.1,8.3,2.5,12.7,2.5c0.7,0,1.3,0,2-0.1c4.9-0.4,9.5-3,10.8-7.4c0.2-0.8,0.3-1.7,0.3-2.5
		c0-3.9-2.6-7.1-6.1-9.4c3-0.6,5.5-2.1,6.4-5.1c0.2-0.7,0.3-1.3,0.3-2C343.4,711.9,339,708.2,331.7,706.1z M333.9,733.5
		c-0.8,2.7-3.1,3.9-6.1,3.9c-1.6,0-3.3-0.3-5-1l-4.6-1.7l3.3-11.3v0l3.7,0.8c4.8,1.1,9.1,4.2,9,7.8
		C334.1,732.5,334,732.9,333.9,733.5z M334.6,716.8c-0.6,2.1-2.6,2.7-5.2,2.8c-1.7,0-3.6-0.3-5.2-0.8l-1.3-0.4c0,0,2.5-8.6,2.5-8.6
		l3.5,0.7c3.1,0.6,5.9,2.9,5.8,5.3C334.7,716.1,334.7,716.5,334.6,716.8z M397.8,746.1l-10.6-29.4l-11.5-1.2l0,0l-0.1,1l-0.1,0.6
		l0.6,0.2c1.2,0.5,1.2,0.8,1.3,1.2c0,0.6-0.6,1.7-1.2,2.7l-13.2,21.1c-1.8,3-3.1,5.5-6.6,6.6l-0.5,0.2l-0.1,0.7l-0.1,0.8l13.5,1.5
		l0.1-1l0.1-0.6l-0.6-0.2c-1.4-0.7-1.6-1.1-1.6-1.6c0-0.5,0.5-1.6,1.3-3l3.9-6.8l15.2,1.7l2.5,7.4c0.6,1.7,1,2.9,1,3.4
		c0,0.4,0,0.5-1.9,1.1l-0.5,0.1l-0.1,0.7l-0.1,0.8l14.8,1.6l0.1-1l0-0.6l-0.5-0.2C399.7,752.2,398.9,749.4,397.8,746.1z
		 M375.3,733.7l6.3-10.2l3.9,11.4L375.3,733.7z M259.6,675l0.4,0.4l-3.7,5.6l-1,1.5l-0.5-1.7c-0.8-2.9-3.4-6.1-6.3-8
		c-1.7-1.1-4-2.1-5.8-2.1c-1.2,0.1-2.1,0.4-2.8,1.4c-0.3,0.5-0.5,1-0.5,1.6c-0.2,4.9,10.6,13.6,10.8,21.3c0,1.3-0.4,2.6-1.2,3.9
		c-1.8,2.7-5.2,4.1-9.1,4.1c-3.9,0-8.3-1.3-12.6-4.2c-3.3-2.2-6.4-4.8-9-7.9l-0.3-0.3l3-9.2l0.8,2.1c1.6,4.2,5,8.4,9.1,11.1
		c1.7,1.1,4.3,2.1,6.4,2.1c1.5,0,2.6-0.4,3.3-1.5c0.4-0.6,0.6-1.2,0.6-2c0.2-5.1-10.4-13-10.6-21c0-1.6,0.5-3.1,1.4-4.6
		c1.7-2.6,4.4-3.6,7.3-3.6c4,0,8.6,2,12.6,4.6C254.8,670.3,257.4,672.5,259.6,675z"/>
	<path class="st2" d="M545.1,471.1l-47.1,8v-10.2l37.5-6.5c0,0,0.1-118.2,0.1-132.6c3.4,0.1,7.3,0.8,10.5,3.3
		c1.9,1.5,3.5,3.6,4.6,6.3c-1.9-0.6-3.8-0.8-5.5-0.9C545.2,352.9,545.1,471.1,545.1,471.1z M439.2,471.6c1.6,2,3.4,3.9,5.7,5.6
		c8.5,6.5,17.4,8.4,29.7,6.3l16.2-3.2v-10.3l-2.3,0.4v-3.2c-3.2-0.8-5.6-2-7.3-3.8v8.4l-16.2,3.3C454.5,477,446.5,475.9,439.2,471.6
		z M600.5,421.1c-0.1,4.6-0.1,9.4,9.1,14l1,0.4c-0.5-1.8-0.4-3.5-0.4-5.3v-77.5c0.1-11.1-2.5-26.3-14.7-36.4
		c-1.1-0.9-2.2-1.7-3.5-2.6c6.9,9.4,8.6,21,8.5,29.8V421.1z M472.6,287.9c0-9.7-6.1-18.2-14.6-21.6c3.9,4.1,6.4,9.8,6.4,15.9
		c0,12.8-10.4,23.2-23.2,23.2c-3,0-5.8-0.6-8.4-1.6c4.2,4.4,10.1,7.1,16.6,7.1C462.2,311,472.6,300.7,472.6,287.9z M467.8,441.4
		c0,10.8,2.8,15.2,10.6,17.3c-0.7-2.3-1-5.2-1-8.8V325.6c-1.2-0.5-2.5-1-4-1.4c0,0,0-2.3,0-2.3l-5.6,1.1V441.4z M662.2,416.2
		c-2.3-4.3-5.5-8.4-9.6-11.9c-1-0.9-2.1-1.8-3.2-2.6c3.9,5.2,6.3,11,7.5,16.5C658.2,417.9,660.2,417.4,662.2,416.2z M716.5,358.5
		v-66.4c-3.1,0.2-6.3,0.4-9.6,0.6v56.1c-9.6-1.5-17.1-4.6-22.9-8.7C690.1,348.8,700.2,356,716.5,358.5z M674,345.1
		c-0.5-0.7-0.9-1.5-1.2-2.1v0c-0.5-1.6-1-3.2-1.4-4.8v0c-0.1-0.5-0.1-0.9-0.2-1.4c0-0.4-0.5-5.3,1.2-9c-2.6-4.4-4.3-9-5.3-13.5
		c-6.7,2.1-5.6,12.5-5.6,13C661.8,331.5,663.5,337.4,674,345.1z M592,313.7L592,313.7C592,313.7,592,313.7,592,313.7L592,313.7z
		 M411.4,472c-0.6-2.2-0.8-5-0.8-8.5V339.4c-1.2-0.6-2.5-1.1-4-1.6c0,0,0-1.8,0-1.8c-1.8,0.4-3.6,0.8-5.6,1.3v118.2
		C401,466.3,403.1,469.9,411.4,472z M706.4,372.3c8.6,10.5,10.3,19.4,10.3,30c0,19-14.1,40.9-35.7,42.6c-15.3,1.2-35.4,3.1-54,5
		v10.3c5.6-0.6,20.8-2,34.3-3.2c3.3-0.3,6.6-0.6,9.6-0.8c4.3-0.4,8-0.7,10.6-1c2.2-0.2,3.6-0.3,3.9-0.3
		c23.3-2.2,39.8-23.8,39.8-42.8C725,398.4,722.8,387.4,706.4,372.3z M612,494.8c-93.4,10.8-220.3,47.8-271.5,104.5l8.9,6.7
		c51.1-56.4,178.8-93.1,272.2-103.3c0,0,0-25.4,0-25.4c-3.2,0.3-6.4,0.6-9.6,0.9V494.8z M424.1,480.9c-4.5-0.9-7.5-1.9-9.6-3.7v8.7
		c-44.4,10.3-92.6,23.3-136.4,36.4c-11.5,3.5-24.5,2.6-34.8-2.7c1.5,1.6,3.1,3.1,4.8,4.3c10.9,7.8,26.2,9.7,39.6,5.7
		c43.9-12.9,92-25.7,136.4-35.7V480.9z M617.3,443.2c-2.6-1.5-4.3-3-5.3-4.6v13c-12.1,1.2-33.2,4.1-49,6.5v10.4
		c15.5-2.3,43.8-6.2,58.6-7.6v-10.4c-1.5,0.2-2.9,0.3-4.3,0.5V443.2z M706.4,372.3C706.4,372.3,706.4,372.3,706.4,372.3
		C706.4,372.3,706.4,372.3,706.4,372.3L706.4,372.3z M215,543.1c-16.8,6.1-45.5,16.9-64.6,25.2v11c5.3-2.5,24.5-10,42-16.8
		c3.4-1.3,6.7-2.6,9.8-3.8c3.6-1.4,7-2.7,10-3.9c6.7-2.5,11.4-4.3,12.4-4.7v-11c-0.3,0-5.6-0.7-9.6-3.6V543.1z M123.9,404.6v8.5
		c-2.3,1-8.9,2.7-13.8,2.7c-5,0-9.3-0.9-13.1-2.5c5.3,5.3,12.8,8.8,22.7,8.9c4.9,0.1,11.6-1.6,13.8-2.6v-9.5
		C131.7,409.9,127.2,408.3,123.9,404.6z M211.3,531.3c-0.5-1.2-0.9-2.4-0.9-3.9V394.8c-0.7-0.3-1.5-0.5-2.4-0.8v-12.9
		c0.7-0.2,1.5-0.5,2.4-0.8v-11.7C243,367,332.6,353,333.6,283.3c0,0-7.4-2.5-7.4-2.5c-2.4,67-93.5,77.3-125.3,78.9v160.7
		C200.8,527.2,207.1,530.1,211.3,531.3z M274.3,370.6c-1.7,0.5-3.6,1.1-5.6,1.7v95.9c0,8.7,2,14.6,5.9,17.6c1.6,1.3,3.7,2,5.9,2.5
		c-1.4-3.2-2.2-7.5-2.2-12.8V374.2c-1.2-0.5-2.5-1-4-1.4V370.6L274.3,370.6z M123,403.4c-1.5-2.2-2.6-4.9-2.6-8.4V395
		c0-10.6,13.2-16.5,32.9-19.3c0-3.5,0-6.8,0-10c-21.3,3.2-42.5,10.6-42.5,22.9v0.1C110.8,398.4,119.2,402.5,123,403.4z M341,467.7
		c1.6,1.2,3.6,2,5.7,2.4c-1.4-3.3-2.1-7.6-2.1-12.9V356c-1.2-0.6-2.5-1.1-4-1.7v-2.1c-1.7,0.5-3.6,1-5.6,1.5v95.8
		C335,458.5,337,464.6,341,467.7z"/>
	<path class="st1" d="M417.9,282.2c0-12.8,10.4-23.2,23.2-23.2c6.6,0,12.6,2.8,16.8,7.2c3.9,4.2,6.4,9.8,6.4,16
		c0,12.8-10.4,23.2-23.2,23.2c-3,0-5.8-0.6-8.4-1.6C424.1,300.4,417.9,292,417.9,282.2z M488.4,340.7v126.6v3.2l2.3-0.4l7.3-1.3
		l37.5-6.5c0,0,0.1-118.2,0.1-132.6c3.4,0.1,7.3,0.8,10.5,3.3c1.9,1.5,3.5,3.7,4.6,6.3c1.7,4,2.6,9.3,2.6,15.8v104.4
		c2.8-0.4,6.1-0.9,9.6-1.4c15.8-2.3,36.9-5.3,49-6.5v-13v-2.4l-1.5-0.7l-1-0.5c-9.2-4.6-9.2-9.4-9.1-13.9v-77.6
		c0.1-8.9-1.6-20.4-8.5-29.8c-1.7-2.3-3.7-4.5-6.2-6.5c-6.8-5.6-16.6-10.1-29-9.6c-1.7,0.1-3.6,0.2-5.4,0.5l-26.4,4.2
		c-14.1,2.3-37.1,6.5-51.6,9.3v10.3v2.3c1.5,0.4,2.8,0.9,4,1.4C488.4,329.9,488.5,336.6,488.4,340.7z M278.1,522.3
		c43.9-13.2,92-26.2,136.4-36.4v-8.7v-4.4c-1.1-0.2-2.1-0.4-3-0.7c-8.4-2.2-10.4-5.7-10.4-16.6V337.3c0,0,0-10.3,0-10.3
		c-14.4,3.4-46.1,11.2-60.4,14.9v10.2v2.1c1.5,0.5,2.8,1.1,4,1.6c8.4,4.1,9.3,9.3,9.3,12.9v101.5c-2.4,0.2-4.9,0.2-7.2-0.3
		c-2.1-0.4-4.1-1.2-5.7-2.4c-4-3.1-6.1-9.2-6.1-18.2v-95.8v-10.3c-13.3,3.6-47.6,13.2-60.6,17v10.2v2.2c1.5,0.4,2.8,0.9,4,1.4
		c8.6,3.6,9.5,8.8,9.5,12.4c0,0.4,0,88.7,0,102c-2.5,0.2-5,0.1-7.3-0.3c-2.2-0.4-4.3-1.2-5.9-2.4c-3.9-3-5.9-9-5.9-17.6v-95.9V362
		c-12.9,4-43.7,13.6-58.2,18.3c-0.9,0.3-1.7,0.5-2.4,0.8V394c0.9,0.2,1.7,0.5,2.4,0.8c10.7,3.6,11.1,8,11.1,11.7
		c0,0.4,0,70.7,0,70.7c-0.1,17.3,6.1,31.8,17,39.5c1.5,1.1,3.1,2,4.8,2.8C253.6,524.8,266.6,525.7,278.1,522.3z M420.6,354.1l0,75.5
		c0,12.1,1.5,29.4,14.6,39.3c1.3,1,2.6,1.9,4,2.7c7.3,4.3,15.3,5.3,25.7,3.5l16.2-3.3v-8.4v-4.2c-1-0.2-1.9-0.4-2.7-0.6
		c-7.8-2.1-10.7-6.5-10.7-17.3V323c0,0,0-10.4,0-10.4l-10.9,2.2c-14.2,2.9-28.7,6-43.1,9.2l-7.1,1.6V336v1.8c1.5,0.5,2.8,1,4,1.6
		C420.4,343.9,420.7,350.1,420.6,354.1z M241.1,553.8v11.2c18.3-0.4,49.6,4.5,80.8,22.2c6.2,3.5,12.5,7.6,18.6,12.1
		c51.2-56.6,178.1-93.7,271.5-104.5v-16.6v-8.8C470.9,483,289,534.8,241.1,553.8z"/>
	<path class="st3" d="M340.7,219.5c-0.2-0.2-0.3-0.4-0.2-0.7c0.5-3.1,2.5-10,9.1-15.5l0.3-0.2c2.4-0.5,4.8-1,7.2-1.5
		c0.4-0.1,0.7,0.1,0.9,0.5c0.2,0.4,0,0.7-0.2,1c-3.8,2.7-7.2,7.5-7.7,13.1c1.3-0.2,2.6-0.5,3.9-0.7c0.3,0,0.6,0.1,0.8,0.3
		c0.2,0.2,0.2,0.5,0.1,0.8c-1.1,2.4-2.2,6.1-2.2,11c0,3.1,0.7,6.5,2,10.4c0.1,0.2,0,0.5-0.1,0.7c-0.1,0.2-0.4,0.3-0.6,0.4
		c-1.4,0.1-3.8-0.1-5.2,0h-0.1c-0.3,0-0.5-0.1-0.7-0.4c-2.1-3.7-4.4-9.6-4.5-15.5c0-1.4,0.2-2.7,0.6-3.9c-1,0.1-1.9,0.3-2.6,0.4
		c-0.1,0-0.1,0-0.2,0C341,219.7,340.8,219.7,340.7,219.5z M318.8,222.1c0.1,0,0.1,0,0.2,0c0.7-0.2,1.7-0.3,2.7-0.4
		c-0.6,1.4-0.9,3-0.9,4.5c0,5.4,1.6,11.4,3.5,14.7c0.1,0.2,0.3,0.4,0.6,0.4h0.1c1.3-0.1,3.8-0.4,5.1-0.5c0.2,0,0.4-0.1,0.6-0.3
		c0.1-0.2,0.2-0.4,0.1-0.6c-1.2-3.6-1.6-6.8-1.6-9.5c0-4.5,1.1-7.9,2-10.1c0.1-0.2,0.1-0.5-0.1-0.7c-0.2-0.2-0.4-0.3-0.7-0.3
		c-1.2,0.2-2.7,0.5-3.9,0.7c0.1-5.5,3.7-10.3,7.4-12.9c0.3-0.2,0.4-0.6,0.3-0.9c-0.1-0.3-0.5-0.5-0.8-0.4c-2.2,0.4-4.4,0.9-6.6,1.4
		l-0.3,0.2c-6.1,5-7.9,11.4-8.3,14.2c-0.1,0.2,0.1,0.5,0.2,0.6C318.5,222.1,318.7,222.1,318.8,222.1z M367.5,217.2L367.5,217.2
		c1.2-0.1,2.4-0.2,3.6-0.3c-0.4,1.8-0.6,3.6-0.6,5.4c0,7.1,1.8,12.8,4,17.4c0.1,0.3,0.4,0.7,0.7,0.7c1.9,0,4.5,0.6,6.5,0.6h0
		c0.2,0,0.5-0.1,0.6-0.3c0.2-0.2,0.2-0.4,0.2-0.7c-1.8-7.2-2.4-12.6-2.4-16.7c0-3.6,0.4-6.2,0.9-8c0.1-0.2,0-0.5-0.2-0.7
		c-0.2-0.2-0.4-0.3-0.7-0.3c-1.4,0.1-2.8,0.2-4.2,0.3c1-6.2,5-10.9,8.2-13.6c0.3-0.2,0.3-0.6,0.2-0.9c-0.1-0.3-0.5-0.5-0.8-0.5l0,0
		c-1.8,0.1-3.6,0.3-5.3,0.4l-0.4,0.2c-8.9,6.4-10.8,12.7-11.1,16.2c0,0.2,0.1,0.5,0.2,0.6C367.1,217.1,367.3,217.2,367.5,217.2z
		 M297.2,228.9c0.1,0,0.2,0,0.3-0.1c0.3-0.1,0.7-0.2,1.3-0.3c-0.5,1.6-0.7,3.2-0.7,4.7c0,5.3,2.4,9,4.5,11.8
		c0.1,0.2,0.4,0.3,0.6,0.3c0.1,0,0.1,0,0.1,0c1.8-0.3,3.5-0.9,5.3-1.2c0.2-0.1,0.5-0.2,0.6-0.4c0.1-0.2,0.1-0.5,0-0.7
		c-1.5-3.1-2-5.2-2-7.8c0-4.2,1.3-7.7,2.1-10c0.1-0.3,0-0.6-0.2-0.8c-0.2-0.2-0.5-0.3-0.8-0.2c-0.9,0.3-2.2,0.5-3.5,0.8
		c0.8-5.1,2.3-9.9,5.5-12.6c0.3-0.2,0.4-0.6,0.2-1c-0.2-0.3-0.6-0.5-0.9-0.4c-1.9,0.6-3.8,1.2-5.6,1.9v0l-0.3,0.2
		c-5.5,5.4-6.7,11.8-7.1,14.9c0,0.3,0.1,0.5,0.3,0.7C296.8,228.9,297,228.9,297.2,228.9z M228.5,283.5L228.5,283.5
		c0.2,0,0.5-0.1,0.6-0.2c1.1-1.1,2.2-2.2,3.3-3.2c0.2-0.2,0.3-0.6,0.2-0.9c-1.1-2.8-1.7-5.3-1.7-7.4c0-1.6,0.2-2.8,0.5-4
		c0.2-0.1,0.3-0.3,0.5-0.4l0.2-0.5c0.2-4,2.3-7.7,3.9-11c0.2-0.4,0.1-0.8-0.3-1c-0.2-0.1-0.4-0.2-0.5-0.1c-0.2,0-0.4,0.1-0.5,0.3
		c-0.3,0.4-0.6,0.7-1,1c-3.3,5.7-5.3,9.6-6.2,12.5c-0.5,0.5-1,1-1.5,1.5l-0.1,0.2c-0.4,0.6-0.5,1.3-0.7,1.8c0,0-0.3,3.1-0.3,3.3
		c0,3.3,1.4,5.9,2.9,7.9C228.1,283.4,228.3,283.5,228.5,283.5z M215.1,296.1c0.1,0,0.2,0.1,0.3,0.1c0.3,0,0.5-0.1,0.6-0.3l3.1-4.3
		c0.2-0.2,0.2-0.5,0.1-0.8c-0.6-1.3-0.9-2.7-0.9-4.3c0-4.4,2-9,2-9c0.2-0.4,0-0.8-0.4-1v0c-0.2-0.1-0.4-0.1-0.6-0.1
		c-0.2,0.1-0.4,0.2-0.5,0.4l-4.8,8.4c-1,2.7-1.3,4.7-1.3,6.2C212.8,295.1,214.9,296.1,215.1,296.1z M429.7,355.6v74
		c0,15.5,3,26,11,32.1c6.5,5,12.9,6.1,22.6,4.4c2.8-0.6,5.7-1.1,8.5-1.7c-11.8-2.6-13.2-13.5-13.2-23.1V323.8
		c-14.6,3-28.9,6.1-42.9,9.2C431.3,339.8,429.6,350.9,429.7,355.6z M255.6,249.5c0.2,0.1,0.3,0.2,0.5,0.2c0.2,0,0.8-0.4,0.9-0.5
		c-0.1,0.6,0.1,1.2,0.1,1.8c0.3,4.2,1.8,6.7,3.8,9.6c0.1,0.2,0.4,0.2,0.6,0.2c0.2,0,0.3-0.1,0.5-0.1c1.8-0.8,3.3-1.8,4.8-2.7
		c0.2-0.1,0.4-0.3,0.4-0.5c0.1-0.2,0-0.5-0.1-0.7c-2.2-3.8-2-6.9-2-10.1c0-1.4,0.1-2.7,0.3-3.8c0.1-0.4-0.1-0.7-0.4-0.9
		c-0.3-0.2-0.7-0.2-1,0c-0.9,0.6-1.4,1-2.3,1.6c1.1-5.4,4.5-10.7,7.6-14.5c0.3-0.3,0.2-0.8-0.1-1.1c-0.2-0.2-0.4-0.2-0.6-0.3
		c-0.2,0-0.4,0-0.6,0.2c-0.6,0.5-1.2,0.9-1.8,1.4l-0.1,0.1c-6.9,8.1-9.8,15.2-10.9,19.2C255.1,248.9,255.3,249.3,255.6,249.5z
		 M276.6,237.7c0.1,0,0.2,0,0.4-0.1c0.1-0.1,0.3-0.1,0.4-0.2c-0.1,0.8-0.2,1.6-0.2,2.3c0,5.2,2.1,9.3,4.2,11.9
		c0.2,0.2,0.4,0.3,0.6,0.3c0.1,0,0.2,0,0.3,0c1.8-0.6,3.3-1.3,5.2-1.8c0.2-0.1,0.4-0.2,0.5-0.4c0.1-0.2,0.1-0.4,0-0.6
		c-1.6-3.6-2.2-6.7-2.2-9.2c0-3.5,0.5-6.1,1.3-7.7c0.1-0.3,0.1-0.7-0.1-0.9c-0.2-0.2-0.6-0.3-0.9-0.2c-1.1,0.5-1.4,0.5-2.9,1.2
		c1.1-4.8,3.5-9.2,6.9-12.6c0.3-0.3,0.3-0.7,0.1-1c-0.1-0.2-0.3-0.3-0.4-0.3c-0.2,0-0.4,0-0.5,0.1c-1.4,0.7-2.8,1.4-4.2,2.1
		l-0.2,0.2c-5.8,6.4-8,12.9-8.9,16.2c-0.1,0.3,0,0.6,0.3,0.8C276.3,237.6,276.5,237.7,276.6,237.7z M243.1,271.8L243.1,271.8
		c0.3,0,0.5-0.1,0.7-0.2c1.2-1.2,3.3-2.2,4.5-3.3c0.3-0.2,0.4-0.6,0.3-1c-1.2-3.1-2.7-5.6-2.7-8c0-1.6,0.2-3,0.5-4.2
		c0.3-0.2,0.5-0.5,0.8-0.8l0.3-0.6c0.2-4.5,2.4-8.2,4.3-11.9c0.2-0.4,0.1-0.9-0.3-1.1c-0.2-0.1-0.4-0.2-0.6-0.1v0
		c-0.2,0-0.4,0.1-0.6,0.3c-0.3,0.4-0.7,0.8-1.1,1.2c-3.5,6.1-5.6,10.1-6.7,13.2c-0.7,0.7-1.4,1.3-2,2l-0.1,0.2
		c-0.4,0.7-0.6,1.4-0.8,2l-0.3,2.9c0,0.3,0,0.5,0,0.7c0,3.6,1.5,6.1,3.2,8.3C242.6,271.6,242.9,271.8,243.1,271.8z M474.9,222.1
		L474.9,222.1c2.5,0.3,4.9,0.6,7.3,0.9c-0.1,0.2-0.2,0.4-0.1,0.6c3,12.2,4.2,24.6,4.6,30c0,0.4,0.3,0.7,0.7,0.7
		c2.6,0.4,5.3,0.9,7.9,1.3c0.1,0,0.1,0,0.2,0c0.2,0,0.3-0.1,0.4-0.1c0.2-0.1,0.3-0.3,0.3-0.5c0.3-2,0.5-4.1,0.5-6.2
		c0-9-2.5-18.4-4.1-24c-0.1-0.3-0.3-0.5-0.6-0.6c-2.4-0.4-4.7-0.9-7.1-1.3c0.1-0.1,0.1-0.1,0.2-0.2c3.5-8.5,6.4-11.3,10-14
		c0.2-0.2,0.4-0.5,0.3-0.8c-0.1-0.3-0.3-0.6-0.7-0.6c-2.5-0.3-4.9-0.7-7.4-0.9l-0.5,0.2c-6.5,4.5-10.2,10.3-12.2,14.4
		c-0.1,0.2-0.1,0.5,0,0.7C474.5,221.9,474.7,222,474.9,222.1z M497.6,342.2v117.5c9.6-1.7,19.2-3.4,28.9-5V321.5
		c8-1.9,36-4.8,36,33.6V449c14.2-2.1,28.6-4,43-5.8c-15.7-7.8-14.1-18.9-14.2-23.6v-76.1c0.1-9.2-2-21.6-11.3-29.3
		c-5.8-4.7-14.7-7.8-23.9-7.4c-1.3,0.1-2.6,0.2-3.9,0.4c-8.7,1.3-17.3,2.7-25.8,4.1c-14.6,2.4-28.9,5-43,7.7
		C499.2,326.4,497.5,337.5,497.6,342.2z M529.8,233.1c2.4,0.6,4.2,0.9,6.1,1.3c-0.2,0.3-0.2,0.6-0.1,0.8c6.1,12.6,4.5,23.6,5,29.3
		c0,0.4,0.3,0.7,0.7,0.8l7.6,1.1c0,0,0.1,0,0.1,0c0.4,0,0.8-0.3,0.8-0.7c0.6-2.6,0.8-5.3,0.8-7.9c0-11.6-4.6-22.2-4.6-22.2
		c-0.1-0.3-0.4-0.5-0.7-0.5c-3.4-0.4-4.3-0.5-6.2-0.7c0,0,0.1-0.1,0.1-0.1c0.1-5,1.8-10.4,1.8-14.6c0-0.7-0.1-1.4-0.2-2
		c-0.1-0.3-0.3-0.5-0.6-0.6c-2.3-0.6-3.5-0.5-5.7-0.9h0c-0.2-0.1-0.5,0-0.7,0.1c-0.2,0.2-0.3,0.4-0.3,0.6c-0.3,7-4,12-4.7,15.4
		C529.1,232.5,529.3,232.9,529.8,233.1z M512.4,229.2c-0.2,0.2-0.3,0.5-0.2,0.8c2.2,7.8,2.6,17.1,2.6,22.9c0,3.3-0.1,5.4-0.1,5.4
		c0,0.4,0.3,0.8,0.7,0.9c2.9,0.4,5.5,0.9,8.5,1.4c0.1,0,0.1,0,0.1,0c0.4,0,0.8-0.3,0.9-0.7c0.5-2.9,0.7-5.8,0.7-8.8
		c0-7.8-1.6-15.2-3.3-20.3c-0.1-0.3-0.4-0.5-0.7-0.6c-3.5-0.5-5.1-0.9-8.6-1.3C512.9,228.9,512.6,229,512.4,229.2z M420.1,216.3
		c1.8,0.1,3.7,0.2,5.5,0.3c1,11.1,4.4,22.9,6.3,28.8c0.1,0.3,0.4,0.5,0.7,0.5c2.1,0.2,4.2,0.5,6.3,0.8h0.1c0.2,0,0.4-0.1,0.6-0.2
		c0.2-0.2,0.3-0.4,0.2-0.7l-3.7-29.5c-0.1-0.4-0.4-0.6-0.7-0.7c-1.9-0.2-3.8-0.3-5.8-0.4c2.1-6.7,6.7-10.9,10-13.2
		c0.3-0.2,0.4-0.5,0.3-0.9c-0.1-0.3-0.4-0.6-0.7-0.6c-2-0.2-3.9-0.3-5.9-0.4h0l-0.4,0.1c-9.5,5.3-12.6,11.3-13.4,15
		c-0.1,0.2,0,0.5,0.1,0.7C419.6,216.2,419.8,216.3,420.1,216.3z M554.4,238.8c1.3,0.3,2.3,0.5,3.3,0.8c0,0-0.1,0-0.1,0.1
		c0.2,0.7,0.4,0.6,0.4,0.7v0c6,5.9,7.7,11.9,7.7,17.2c0,3.8-0.8,7.1-1.5,9.7c-0.1,0.2,0,0.5,0.1,0.7c0.1,0.2,0.3,0.3,0.6,0.4
		l9.1,1.3c0,0,0.1,0,0.1,0c0.4,0,0.7-0.3,0.8-0.7c0.7-2.8,1-5.4,1-7.8c-0.1-12.6-7.6-19.6-7.6-19.7l-0.4-0.2c0,0-2.1-0.5-4.4-1.1
		c0.1-0.1,0.1-0.1,0.1-0.2V239c0-5.8-0.9-11.8-1.7-15.7c-0.1-0.3-0.3-0.6-0.6-0.6c-2.3-0.6-2.9-0.5-5.1-1l0,0
		c-0.2-0.1-0.4,0-0.7,0.2c-0.2,0.1-0.3,0.4-0.3,0.6c-0.3,7.2-1.1,12.3-1.6,15.4C553.7,238.3,554,238.7,554.4,238.8z M576.3,239.9
		c0,0.9-0.2,1.7-0.3,2.2c-0.1,0.2,0,0.4,0.1,0.6c0.1,0.2,0.3,0.3,0.4,0.4c1.3,0.3,2.6,0.6,3.7,0.9c10,9,12.1,16.8,12.1,22
		c0,1.9-0.3,3.5-0.6,4.6c-0.1,0.2,0,0.5,0.1,0.7c0.2,0.2,0.3,0.3,0.6,0.3c2.3,0.3,4.7,0.6,7,0.9c0.1,0,0.1,0,0.1,0
		c0.3,0,0.7-0.2,0.7-0.6c0.5-1.8,0.7-3.6,0.7-5.4c-0.1-11-8.9-19.6-14.7-24.4l-0.4-0.2c-0.9-0.1-1.8-0.3-2.7-0.4
		c-0.1-0.7-0.3-1.5-0.4-2.2l-0.2-0.3c-2.1-2-4.2-4-6.4-5.9c-0.2-0.1-0.3-0.2-0.5-0.2l0,0c-0.2,0-0.3,0-0.5,0.2
		c-0.3,0.2-0.4,0.6-0.3,1C576,236.5,576.3,238.4,576.3,239.9z M502.9,228.1c3.5,0.4,5.3,0.7,8.9,1.2v0h0.1c0.3,0,0.6-0.2,0.8-0.5
		c3.7-7.9,4.4-9,6.4-15.5c0.1-0.2,0-0.5-0.1-0.7c-0.1-0.2-0.3-0.4-0.6-0.4l-6.2-1l-0.7,0.2c-4.1,4-6.9,11.4-9.1,15.4
		c-0.1,0.2-0.1,0.6,0,0.8C502.3,227.9,502.6,228.1,502.9,228.1z M447.6,217.8c2.2,0.1,4.5,0.2,6.7,0.4c0,0.1-0.1,0.2-0.1,0.3
		c0.9,11.3,2.8,22.1,4.8,28.2c0.1,0.3,0.4,0.5,0.6,0.5c2.1,0.2,4.2,0.5,6.3,0.8h0.1c0.2,0,0.4-0.1,0.5-0.2c0.2-0.2,0.3-0.4,0.3-0.6
		l-2.5-27.8c0-0.4-0.3-0.7-0.7-0.7c-2.4-0.2-4.6-0.6-6.9-0.9c0-0.1,0.1-0.1,0.1-0.1c2-7.2,6.8-11.7,10.3-14.1
		c0.3-0.2,0.4-0.5,0.3-0.9c-0.1-0.3-0.4-0.6-0.7-0.6c-1.9-0.2-3.9-0.3-5.9-0.4l-0.4,0.1c-9.5,5.4-12.6,11.4-13.5,15
		c-0.1,0.2,0,0.5,0.1,0.7C447.1,217.7,447.4,217.8,447.6,217.8z M427,282.2c0,7.8,6.3,14.1,14.1,14.1c7.8,0,14.1-6.3,14.1-14.1
		c0-7.8-6.3-14.1-14.1-14.1C433.4,268.1,427,274.4,427,282.2z M191.7,520.4V351c20.1-0.3,117.6-5,125-64.9
		c-5.7,20.3-39.9,32.2-88.9,32.3c-34.1,0.1-141.1,1-141.1,62.5c0,6.6,2.4,25.7,23.4,25.8c-3.7-2.8-8.5-9.6-8.5-18.1v-0.1
		c0.1-24.9,43.5-31.6,60.7-33.2c0,0,0.1,178.6,0,178.3c0,0-1.5,17.9-12.1,24.9c15.7-6.8,34-14,54.7-21.4
		C201.3,536.8,191.7,533.1,191.7,520.4z M393.8,215.6c1.3,0,2.5,0,3.8,0c0.3,10.9,3.7,20.7,6.9,27.5c0.1,0.3,0.4,0.4,0.7,0.5
		c2,0.2,4,0.3,6,0.5c0,0,0.1,0,0.1,0c0.2,0,0.4-0.1,0.6-0.3c0.2-0.2,0.2-0.5,0.2-0.7c-3.1-11.3-3.8-22.4-3.9-27.8
		c0-0.4-0.4-0.8-0.8-0.8c-1.6-0.1-3.3-0.1-4.9-0.1c1.9-6.2,6-10.9,9.4-13.9c0.2-0.2,0.3-0.6,0.2-0.9c-0.1-0.3-0.4-0.5-0.7-0.5
		c-1.8,0-3.5-0.1-5.2-0.1l-0.4,0.1c-8.3,4.4-11.3,11.4-12.5,15.4c-0.1,0.2,0,0.5,0.1,0.7C393.3,215.5,393.6,215.6,393.8,215.6z
		 M582,583C581.9,583,581.9,583,582,583l-0.1-0.1c-12.9-4.4-13.8-8.2-14.2-11.9c-0.1-0.4-0.6-0.7-1.1-0.5c-0.4,0.2-4.1,3.2-4.4,3.2
		c-13.7-2.1-14.3-5.8-20.7-9.4c-0.2-0.1-0.5-0.2-0.8,0c-2.3,1.5-5.3,4.3-7.5,5.6c-0.2,0.1-0.4,0.4-0.4,0.6c0,0.3,0.1,0.6,0.3,0.7
		c11.2,8.2,14.4,8.8,21.2,9.3l0.5-0.1c0.7-0.4,2-1.2,2.8-1.8c4.4,5.9,12.2,8.9,16.8,10.6l0.7-0.1c2-1.3,6.8-4.7,6.9-4.8
		c0-0.1,0.1-0.1,0.1-0.1c0-0.1,0.1-0.1,0.1-0.1c0.1-0.1,0.1-0.2,0.1-0.2l0.1-0.1C582.5,583.6,582.4,583.2,582,583z M604.3,561
		c0,0-12,0.4-15.7-5.8c-0.2-0.3-0.6-0.4-1-0.3c0,0-0.1,0.1-0.1,0.1c-0.1,0.1-0.2,0.2-0.3,0.3c0,0-0.1,0.2-0.1,0.2
		c0,0-1.6,1.7-1.9,1.7c-11.7-2.5-12-6.5-18.3-10c-0.1-0.1-0.3-0.1-0.4-0.1l0,0c-0.2,0-0.3,0.1-0.4,0.2c-2.5,2.1-5.1,4.2-7.7,6.3
		c-0.2,0.2-0.3,0.4-0.3,0.7c0,0.2,0.2,0.5,0.3,0.6c10,6.7,12.6,8.6,19.1,9.7l0.6-0.1c0.8-0.7,1.7-1.3,2.5-2
		c5.9,6.6,15.1,5.8,16.9,6.3c0.1,0.1,0.2,0.1,0.3,0.1c0.2,0,0.4-0.1,0.6-0.2c1.3-1.3,4.9-4.6,6.4-6.2c0.2-0.2,0.3-0.5,0.2-0.8
		C604.9,561.2,604.7,561,604.3,561z M498.7,632.4c-11.2-3-13.3-6.9-13.6-9.3c2-0.9,4.2-1.9,5.6-2.6c0.3-0.1,0.5-0.5,0.5-0.8
		c-0.1-0.3-0.3-0.6-0.7-0.7c-14-1.8-21.1-6.6-25.5-10.2c-0.1-0.1-0.3-0.2-0.4-0.2h0c-0.2-0.1-0.3,0-0.5,0.1
		c-2.1,1.2-5.4,2.1-7.9,3.2c-0.2,0.1-0.4,0.3-0.5,0.6c0,0.3,0.1,0.6,0.3,0.7c8.5,6.5,15.7,9.1,21.7,10.3c-0.4,0.2-0.9,0.3-1.3,0.4
		c-0.4,0.2-0.6,0.6-0.5,1c1.5,6.7,10.4,9.5,15.9,10.7h0.4c2.2-0.6,4.4-1.2,6.6-1.9c0.3-0.1,0.6-0.4,0.6-0.8
		C499.3,632.8,499,632.5,498.7,632.4z M527.5,619.6c-10.8-2.7-17-6.4-17.9-8.8c1.6-0.7,3.6-1.7,4.7-2.2c0.3-0.2,0.5-0.5,0.5-0.8
		c-0.1-0.4-0.3-0.7-0.7-0.7c-14-1.8-18.8-7.1-23.4-10.8c-0.3-0.2-0.6-0.2-0.9-0.1c-2.2,1.2-5.8,3-8.1,4.1c-0.2,0.1-0.4,0.3-0.5,0.6
		c0,0.3,0.1,0.6,0.3,0.7c8.4,6.4,14.3,8.8,19.8,10.1c-0.4,0.2-0.9,0.3-1.3,0.5c-0.4,0.1-0.6,0.5-0.5,0.9c1.6,6.8,14,10,19.5,11.4
		h0.4c2.3-0.6,6-2.6,8.1-3.3c0.4-0.1,0.6-0.4,0.5-0.7C528.1,620,527.8,619.7,527.5,619.6z M558.6,600.1L558.6,600.1
		c-12.8-3.3-17.7-9.2-17.6-11.2c0-0.3-0.1-0.6-0.4-0.7c-0.2-0.2-0.5-0.2-0.8-0.1c-1.7,0.8-3.3,2.2-5.4,3.3c-13.4-3-16.1-6.5-20-9.9
		c-0.2-0.2-0.6-0.2-0.9-0.1l0,0c-2.2,1.2-8.3,4.4-8.5,4.8c-0.1,0.1-0.2,0.3-0.2,0.4c0,0.2,0.1,0.5,0.3,0.6c9.4,6.8,14.3,9.5,21.7,10
		l0.4-0.1c0.9-0.4,2.1-1,3.3-1.6c3.6,6.9,15,10,19,11.1l0.5-0.1c2-0.8,8.9-5.1,9.1-5.5C559.3,600.6,559,600.2,558.6,600.1z
		 M624.5,540.8c-1.8-0.2-9.3-1.9-12.6-4.6c-0.2-0.1-0.3-0.3-0.6-0.4c-0.2,0-0.4,0-0.6,0.2c-0.8,0.7-1.7,1.3-2.5,2
		c-10.7-3.8-14.3-7.5-20.4-10.9c-0.2-0.1-0.3-0.1-0.4-0.1c-0.2,0-0.3,0.1-0.4,0.2c-2.5,2.1-5.1,4.2-7.7,6.2
		c-0.2,0.2-0.3,0.4-0.3,0.7c0,0.2,0.1,0.5,0.3,0.6c10,6.7,15.6,10.3,22.2,11.5l0.6-0.2c0.9-0.7,2.5-1.6,3.4-2.2
		c5.5,4.9,10.4,5.5,12.1,5.5c0.1,0.1,0.2,0.1,0.3,0.1c0.2,0,0.4-0.1,0.6-0.2c1.5-1.5,4.5-5.1,5.8-6.6c0.2-0.2,0.5-1.1,0.4-1.3
		C624.8,541.2,624.7,540.9,624.5,540.8z M707.5,399.7c-1.1-11.9-2.1-22-36.6-45.6c-14.6-10-18-18.9-18.3-26.4
		c-0.8-17.9,8.9-24,22.4-23.6c0.3,6.4,2.1,25.5,22.8,33.2c-0.1-2.7,0.2-40.7,0-45.2v0c-17.7,1.1-30.5,2-47.9,3.4
		c-18.8,1.9-27.9,20.6-27.2,35.9c0.5,11.6,4.9,26.5,21.5,37.7c28.5,19.1,33.1,27.3,33.4,34.8c0.8,17.9-14.9,24.7-28.5,24.6
		c-0.3-6.4-2.1-25.4-22.7-32.9c0.1,2.7-0.2,41.5,0,45.3c19.2-2.1,35-3.7,54.4-5.1C697.6,433.9,708.9,416,707.5,399.7z M654.9,470.2
		c-0.1,0-0.1,0-0.2,0c-6.1-0.7-3.5,0.2-9.5-2.1c-0.1-0.1-0.3-0.1-0.4,0c-0.1,0-0.3,0.1-0.3,0.2c-1.5,1.7-3,3.5-4.6,5.3
		c-0.1,0.2-0.2,0.4-0.2,0.6c0.1,0.2,0.2,0.4,0.4,0.5c5.8,2.7,6,2.3,12.1,3.4c0.1,0,0.1,0,0.1,0c0.3,0,0.6-0.2,0.7-0.5
		c0.8-2.1,1.6-4.3,2.3-6.4c0-0.1,0.1-0.1,0.1-0.2c0-0.2-0.1-0.4-0.2-0.5C655.2,470.3,655,470.2,654.9,470.2z M647.2,494.5
		c-6.5-1.3-7.7-2.2-14.3-5.5c-0.3-0.1-0.6-0.1-0.8,0.1c-2.2,1.8-2.7,3.8-4.6,5.3c-0.2,0.2-0.3,0.4-0.3,0.7c0,0.3,0.2,0.5,0.4,0.6
		c6.4,3.7,9.3,5.6,16.2,7.4c0.1,0,0.2,0,0.2,0c0.3,0,0.6-0.2,0.7-0.4c1.1-2.4,2.2-4.7,3.1-7c0.1-0.2,0.1-0.5,0-0.7
		C647.6,494.7,647.5,494.6,647.2,494.5z M632,514c-0.4-0.1-0.8-0.3-1.1,0.1c-1.1,1-2,2-3.1,3c-6.4-1.6-11.3-3.8-17.9-7.1h0
		c-0.3-0.1-0.6-0.1-0.9,0.1c-2.3,1.8-4.7,3.7-7.2,5.5c-0.2,0.2-0.3,0.4-0.3,0.7c0,0.3,0.2,0.5,0.4,0.6c7.6,4.3,11.2,5.5,19.4,7.5
		c0.1,0,1.5,0.3,1.5,0.3c0.2,0,0.4-0.1,0.6-0.2c1.4-1.3,2.7-2.3,4.1-3.3c2.1,1.1,5.3,2,7.7,3.1c0.1,0.1,0.2,0.1,0.3,0.1
		c0.2,0,0.5-0.1,0.6-0.4c0.9-1.4,2.4-4.1,3.4-5.6c0.2-0.3,0.2-0.7-0.1-1C638.7,516.3,634.8,515.1,632,514z M468.1,640.8
		c-6.8-2.4-10.1-5.2-10.9-7.4c1.8-0.4,3.6-1,5-1.3c0.4-0.1,0.6-0.4,0.6-0.8s-0.3-0.7-0.6-0.8c-10.2-2-17.5-8.3-21-12
		c-0.2-0.2-0.5-0.3-0.8-0.2c-2.3,0.6-5.5,1.9-7.6,2.3c-0.3,0.1-0.5,0.3-0.6,0.6c-0.1,0.3,0.1,0.6,0.3,0.8c7.7,6,13.8,9.2,18.3,10.7
		c-0.7,0.2-1.4,0.3-2.2,0.4c-0.2,0-0.4,0.2-0.6,0.4c-0.1,0.2-0.2,0.4,0,0.7c2.1,5.2,7.6,7.8,11.7,9.1h0.3c2.5-0.1,5.5-0.8,7.9-1
		c0.4-0.1,0.7-0.3,0.7-0.7C468.6,641.3,468.4,640.9,468.1,640.8z M328,631.3c-0.1-0.2-0.2-0.4-0.5-0.6c-2.4-1-4.9-2-7.4-3.1
		c-0.3-0.2-0.6-0.1-0.9,0.1c-0.2,0.2-0.3,0.6-0.2,0.8c1.5,4.3,4.2,7.6,6.9,9.8c3,1.3,5.8,2.3,8.5,3.4c0.1,0.1,0.2,0.1,0.3,0.1
		c0.3,0,0.6-0.1,0.7-0.4c0.2-0.3,0.1-0.8-0.2-1.1C329.9,636.5,328.4,633.2,328,631.3z M275.4,513.5c39.1-12,82.9-24,130.1-34.8
		c-12.2-2.4-13.6-13.5-13.6-23.2V338.5c-14.9,3.5-29.3,7.1-43.1,10.7c15.8,6.4,14.1,17.6,14.2,22.4V478
		c-0.4,0.1-37.1,11.9-37.1-28.5v-94.1c-15.2,4.1-29.6,8.1-43,12.1c15.6,5.9,14,17.1,14,21.8v107c-0.4,0-37.3,11.7-37.3-28.1v-93.8
		c-16.3,4.9-30.7,9.5-43,13.6c15.6,5.3,14,16.7,14.1,21.4v68c-0.1,14.3,4.7,26,13.2,32.1C252.5,515.6,264.1,516.6,275.4,513.5z
		 M307.1,625.1l-0.4-0.6c-3.4-2-3.9-1.8-7.2-3.9h0c-0.3-0.2-0.5-0.4-0.8-0.6c-0.2-0.1-0.5-0.2-0.8,0c-0.3,0.2-0.4,0.4-0.4,0.7v0.1
		c0.3,1.3,1.8,5.2,2.8,7l0.1,0.1c3.2,4.1,9.1,6.3,9.5,6.5c0.1,0.1,0.3,0.1,0.4,0.1c0.2,0,0.5-0.1,0.6-0.3c0.2-0.3,0.2-0.8-0.1-1.1
		C308.7,631.1,307.5,627.4,307.1,625.1z M287.3,616.2L287.3,616.2l-0.4-0.6c-3.4-2-3.9-1.8-7.2-3.9l0-0.1c-0.2-0.2-0.5-0.3-0.8-0.5
		c-0.3-0.2-0.6-0.2-0.9,0c-0.2,0.2-0.4,0.5-0.3,0.8c0.3,1.2,1.3,4.5,2.3,6.3c0,0,9.6,6.9,10,7.2c0.1,0.1,0.3,0.1,0.4,0.1
		c0.2,0,0.5-0.1,0.6-0.3c0.3-0.3,0.2-0.8-0.1-1.1C288.9,622.1,287.7,618.5,287.3,616.2z M267.6,604.8l-0.3-0.4l-6.3-4.3
		c-0.1-0.1-0.3-0.1-0.5-0.1v0c-0.2,0-0.3,0.1-0.4,0.1c-0.3,0.2,2.1,6.3,2.1,6.3l0.2,0.4c0,0,2.4,2.9,7.1,5.7
		c0.1,0.1,0.3,0.1,0.4,0.1c0.2,0,0.5-0.1,0.6-0.3c0.2-0.3,0.2-0.7-0.1-1C269,609.8,267.6,604.8,267.6,604.8z M602.9,486.8
		c0,0,0-7.2,0-7.2c-136.5,14.3-308.7,63.6-345.7,77.6c6.8-0.8,41.8,3.2,82,30.3C389.7,534.9,507.4,499.1,602.9,486.8z M439.3,646.2
		c-3.9-2.3-5.3-3.8-5.3-4.9c0-0.5,0.5-1.7,0.4-1.9c1-0.2,2.1-0.2,3.1-0.4c0.4,0,0.7-0.3,0.7-0.7c0-0.4-0.2-0.7-0.6-0.8
		c-8.2-2.5-14.6-8.5-17.7-11.4l-0.7-0.2l0,0c-2.7,0.6-5.5,1.2-8.2,1.6c-0.3,0.1-0.6,0.3-0.7,0.6c-0.1,0.3,0,0.7,0.3,0.8
		c6.4,5.4,13,8.7,18.2,10.3c-1.5,0.1-2.8,0.3-4.3,0.3c-0.3,0-0.6,0.3-0.7,0.6c-0.1,0.3,0,0.3,0,0.3c0.1,3.6,4.6,6.4,7.8,7.9l0.3,0.1
		c1.9,0.1,3.1-0.5,5-0.5c0.5,0,1.4-0.2,1.9-0.2c0.4,0,0.7-0.3,0.8-0.6C439.8,646.7,439.6,646.3,439.3,646.2z M414.2,649.6
		c-3.9-2.3-4.8-3.8-4.7-4.9h0c0-0.5,0.2-0.9,0.4-1.3c0-0.1,2.2-0.4,3.3-0.6c0.4-0.1,0.7-0.3,0.7-0.7c0-0.3-0.2-0.7-0.6-0.8
		c-8.3-2.5-13.9-7.7-16.9-10.6l-0.7-0.2h0c-2.7,0.5-5.5,0.7-8.2,1c-0.3,0.1-0.6,0.3-0.7,0.6c-0.1,0.3,0,0.6,0.2,0.8
		c6,5,11.3,8.1,16.4,9.7c-1.1,0.1-2.3,0.2-3.4,0.2c-0.4,0-0.6,0.3-0.7,0.6c-0.1,0.2,0,0.3,0,0.3c0.5,2.5,3.9,5.6,7,7.2l0.3,0.1
		c1.9,0,6.7,0.1,7.2,0.1c0.4,0,0.7-0.2,0.8-0.6C414.6,650.2,414.5,649.8,414.2,649.6z M390,643.9c-8.4-2.6-13.8-7.5-16.4-10.5h0
		l-0.6-0.2c-1.8,0.1-3.5,0.1-5.2,0.1c-1,0-2-0.1-3-0.1c-0.3,0-0.6,0.2-0.8,0.5c-0.1,0.3,0,0.6,0.2,0.8c4,4,8.1,6.8,11.8,8.6
		l-2.5-0.2c-0.3-0.1-0.6,0.1-0.8,0.4c-0.2,0.3-0.1,0.7,0.1,0.9c0,0.1,1.8,2.1,4.8,4.1l0.3,0.1c1.3,0.2,4.7,0.7,5.9,0.8
		c0,0.1,0.1,0.1,0.1,0.1c0.3,0,0.5-0.2,0.7-0.4c0.2-0.3,0.2-0.6,0-0.9c-0.4-0.6-2.3-1.3-2.3-1.7c0-0.4,0.1-0.7,0.3-1
		c2,0,4,0.1,5.9,0.1h1.3c0.4,0,0.7-0.3,0.8-0.7C390.6,644.3,390.4,644,390,643.9z M358.9,643.1c-4.9-3.2-8.3-7.6-9.9-10.1l-0.6-0.4
		c-2.5-0.3-5-0.7-7.5-1.1c-0.3-0.1-0.6,0.1-0.8,0.4c-0.2,0.3-0.1,0.6,0.1,0.9c2.3,3,5.1,5.9,7.7,8.1l-0.1-0.1
		c-0.3-0.1-0.6,0.1-0.8,0.4c-0.2,0.3-0.2,0.6,0,0.9c0,0,0.8,1.7,2.1,2.9l0.3,0.2c1.3,0.4,3.3,0.7,4.6,1.1c0.1,0,0.2,0.1,0.2,0.1
		c0.2,0,0.4-0.1,0.6-0.3c0.2-0.2,0.3-0.5,0.2-0.8c-0.1-0.1-0.8-0.8-0.8-0.9c0-0.1,0.1-0.2,0.1-0.3c1.5,0.2,3.1,0.3,4.2,0.5h0.1
		c0.3,0,0.6-0.2,0.8-0.5C359.3,643.8,359.2,643.3,358.9,643.1z"/>
</g>
</svg>
