<?xml version="1.0" encoding="utf-8"?>
<!-- Generator: Adobe Illustrator 25.0.0, SVG Export Plug-In . SVG Version: 6.00 Build 0)  -->
<svg version="1.1" id="Layer_1" xmlns="http://www.w3.org/2000/svg" xmlns:xlink="http://www.w3.org/1999/xlink" x="0px" y="0px"
	 viewBox="0 0 525.3 525.3" style="enable-background:new 0 0 525.3 525.3;" xml:space="preserve">
<style type="text/css">
	.st0{fill:#FF5910;}
	.st1{fill:#FFFFFF;}
	.st2{fill:#002D72;}
</style>
<g>
	<circle class="st0" cx="262.6" cy="262.8" r="233"/>
	<path class="st1" d="M262.7,0C117.6,0,0,117.6,0,262.7s117.6,262.7,262.7,262.7s262.7-117.6,262.7-262.7
		C525.3,117.6,407.7,0,262.7,0z M324.8,57.4l7.6,1.2c0,0-6.6,5.8-9.3,7.6c3.6,1,5.4,7.3,6.9,22l-7.6-2.2c1-10-3.4-17.3-5.9-21.7
		C318.8,62.5,323.1,60.8,324.8,57.4z M314.3,450.8c-3.4,5.4-10.2,10.2-15.6,13.1l-3.9-2.4c6.3-2.9,13.1-9.7,15.6-14.1L314.3,450.8z
		 M301.9,51.5l8,1.2c0,0-10,7.8-12.7,9.5c3.6,1,6.6,3.4,8.5,19.5l-6.8-1c1-10-5.4-17.1-7.8-21.5C293.4,57.6,299,54.9,301.9,51.5z
		 M298.6,436.1l3.4,3.9c-3.4,5.6-10.2,12.7-15.5,15.7l-4.4-2.9C288.4,449.9,296.7,439.2,298.6,436.1z M281,47.1l8,0.7
		c0,0-10.5,9.3-13.2,11c3.7,1,6.6,5.8,7.1,18.5l-7.8-2c1-10-2.2-16.6-6.1-18.5C271.2,55.2,275.8,53,281,47.1z M283.5,426h4.1
		l1.5,1.6c-3.4,5.4-11.4,12.9-16.8,15.8l-3.9-3.4C273.8,437.5,280.1,430.7,283.5,426z M263.4,398.1c-2.2,3.6-5.9,7.7-9.1,10.2
		c-0.9-0.1-1.7-0.1-2.6-0.1l-3.6-1.6c4.9-3.4,11.2-10.9,11.7-12.9L263.4,398.1z M249.7,44.2l7.1,0.7c0,0-8,8.4-13.2,10.5
		c0.9,0.2,2.8,0.4,3.8,1.4c1.2,1,4.4,5.1,4.8,17.8l-6.8-0.5c0.2-11-2.8-16.1-5-17.9c-1.2-1-2.6-1.4-3-1.8
		C239.5,52.7,248.5,47.1,249.7,44.2z M225.8,44.7l8.5-1.2c0,0-8,10.7-10.7,12.4c1.2,0,4.5,0,5,17.6l-7.7,0.5c0.5-15.8-1.3-18-3.6-19
		C219.5,53.2,224.1,48.1,225.8,44.7z M198.5,55.6c2.2-1.7,4.4-6.6,5.1-10.5l7.3-0.7c0,0-3.2,9.8-5.8,11.5c2.2,3.4,3.2,8.3-0.7,18
		l-7.3,0.5C201,66.4,201,60,198.5,55.6z M49.4,203.1c2.4-7.3,5.5-9.7,9.4-13.6c-1.5-5.9-2.4-13.7,1.5-22l4.9,1.4
		c-1.5,5.8-4.9,13.7-2.5,22c-4.9,3.9-9,9.2-9.5,14.6L49.4,203.1z M64,210.4l-4.8-2.5c2.4-7.3,8-10.1,11.9-14
		c-1.5-5.9-1.2-14.1,1.5-22.9l5.6,2.2c-1.5,5.8-4.2,14.9-1.7,23.2C71,197.8,65.9,205,64,210.4z M78.8,218.8l-4.9-3.9
		c2.4-7.3,10.1-9.2,14-13.1l-0.9-0.4c-1-9.8-2.2-16.1,0.7-24.4l5.6,2.9c-1.5,5.9-2.9,16.1-0.5,24.4l1.5,0.8
		C89.1,206.6,80.8,213.4,78.8,218.8z M90.5,227.1l-4.9-3.9c2.4-7.2,8.6-8.9,15.9-13.7l-1.7-1.1c-0.3-7.1-0.3-15,3.6-23.3l5.2,3.1
		c-1.5,5.9-5.3,15.6-3.4,23.6l-0.6-0.4l2.1,1.5C101.2,214.4,92.5,221.7,90.5,227.1z M102,237l-4.6-4.2c1.4-5.7,12.9-8.6,19.3-11
		l-1.4-1.8c-2.8-1.7,1.6-15.3,5-23.2l5.1,4.4c-1.9,5.3-6.5,15.4-6.2,23.4l1.6,2C111.5,229,102.9,233.2,102,237z M114.9,251.9
		l-3.8-5.2c4.3-6.8,15.3-9.8,19.3-11.3l-1.4-1.5c-1.5-6.3,0.8-13,5.2-25.7l5.1,5.2c-1.9,5.3-6.3,16.4-5.4,25.7l1.5,1.6
		C128.6,241.7,118.3,247.1,114.9,251.9z M148.1,281.4c-4.3,0.7-8.9,2.2-12.1,4.4l-2.1-5.1l1.1-0.5c4.9-2.4,10.3-3.9,13.7-4.9
		L148.1,281.4z M148.1,258.1l1.5,1.6c-6.8,1-19.3,3.4-22.7,8.3l-4.3-6.4c6.8-5.3,12.1-5.1,22-7.2l-1.3-1.5
		c-0.5-5.9,5-15.8,10.3-23.5l4.4,6.4C153.5,240.7,147.7,250.4,148.1,258.1z M166.6,59.9c0.1,3,0.7,7-6,15.6l-6.9,0.9
		c5.5-8.4,6.9-11.8,6.2-15.6c2.4-1.8,4.3-4.5,5.6-8.1l7.3-1.4C172.8,51.3,169.5,58.1,166.6,59.9z M180.5,74.4l-7.3,0.5
		c1.8-3.8,3.5-6.3,4.8-9.5c1.5-3.7,2.6-6.5,0.3-7.3c2.2-1.7,4.1-4.6,5.1-9l8-2.2c0,0-3.4,8.5-6.1,10.2
		C189,58.1,185.4,66.1,180.5,74.4z M192.4,358.5c5.8-0.5,9.7-0.7,15.5,0.2l-2.3-2.9c-1-3.9,0.5-5.8,2-9.8l3.4,5.4
		c-1.4,3.4-1.4,9.3-1.4,9.3l-1.3-1.6l2.8,5.5c-4.9-1.5-18.5-1-22.4-1L192.4,358.5z M194.6,380.6c9.1-1,21.4-1.6,25.4-0.7l-1.7-2.1
		c-0.1-3.3,5.4-10.4,10-15.4c0,0,5,1,8.1,0.2c-4.2,4.7-8.5,9.3-10.9,12.5c-2.3,3.1-3,6.4-2,9l1.9,2.4c-4.9-1-22.5-0.7-27.3-0.2
		L194.6,380.6z M205.3,396.8c9.3-1,27,0,30.5,1.9c3.4,1.9,0.2,0,0.2,0l-3.4-1.2c-2.4-5.8,11.5-19.3,13.5-22.3l4,6
		c-8.8,8.9-11.1,13.6-12.9,16.4c-1,1.7,2.7,5.1,3,5.4c-4.8-0.9-25.4-0.1-30.3,0.4L205.3,396.8z M236.3,436.8l-4.5-5.1
		c5.8,1,18.6,0.5,29.3-1l2.9,3.6C256.3,436.3,245.6,437.3,236.3,436.8z M243.7,446c20.9,0.2,25-1,28.4-2.4l4.1,3.9
		c-7.8,1.9-12.1,3-27.7,3.5L243.7,446z M263.4,463.8l-6.3-4.4c7.8,1,21.2-1,28.9-3.7l4.9,3.4C283.1,461.1,272.1,464.3,263.4,463.8z
		 M274.1,471.9c9.8-1,17.1-3.2,23.4-8.6l3.2,1.7c2.4,2.4-10.7,9.7-20.9,10.2L274.1,471.9z M288.6,479.7c15.8-3.4,18.8-7.7,20.8-10.1
		l-2.4-1.3c6.4-2.9,12.6-7.7,15.1-12.1l3.9,2.7c-3.4,5.4-9.2,8.9-14.6,11.8l-1.1-0.6l1.1,0.9c3.4,0.5-2,7.8-17.1,10.7L288.6,479.7z
		 M309.2,486.4l-6.7-1.4c11.5-2.6,15.6-6.4,18.2-9.7l0.4,0.1l-2.8-1.2c7.3-2.9,10-5.6,14.8-11.4l3.4,1.9c-5.3,6.3-9,8.2-14.2,11.1
		l1.3,0.4C326.6,477.2,317.6,485.4,309.2,486.4z M333.9,479.6l-3.4-1.4c6.4-2.9,9.3-5.9,12.7-10.3l3.4,1
		C340.7,475.2,339.2,476.7,333.9,479.6z M350.7,94.4l-7.3-2.9c1-10-2.9-15.4-5.4-19.8c2.2-1.7,6.6-3.4,8.3-6.8l7.6,2
		c0,0-5.4,5.1-9.8,7.6C347.8,75.4,349.2,79.3,350.7,94.4z M367.5,82.7c3.6,1,6.6,9.3,7.1,21.4l-7.8-3.9c1-10-3.4-16.6-5.8-21
		c2.2-1.7,6.6-2.4,8.3-5.8l7.3,2.4C376.5,75.9,372.4,80.5,367.5,82.7z M394.1,112.9l-7.8-4.4c1-10-3.6-15.6-6.1-20
		c2.2-1.7,6.6-3.4,8.3-5.8l6.6,2.4c0,0-4.4,4.4-8.1,6.1C390.7,92.2,393.6,100.3,394.1,112.9z M406.8,121.7c1-10-3.6-19-6.1-23.4
		c2.2-1.7,4.4-1.5,6.1-4.9l5.8,3.4c0,0-2.7,2.9-5.3,4.6c3.6,1,5.3,9.5,6.3,25.1L406.8,121.7z M430.7,140.3l-6.8-4.9
		c1-10-1-19.8-3.4-24.1c2.2-1.7,5.1-2.7,5.9-5.4l4.4,4.4c0,0-1.5,2.4-4.1,4.1C428.9,119,431.1,125.1,430.7,140.3z M445,130
		c1.5,4.6,2.2,13.9,1,22.7l-5.3-5.6c1.5-7.8-1-15.6-2.2-21c2.2-1.7,4.4-2.7,5.1-5.4l4.9,5.4C448.5,126.1,446.8,128.8,445,130z
		 M457.3,164.9l-4.6-5.6c1.8-3,3.1-8.1,2.6-12.7c1.9-1,1.8-7.7,1.8-8.7l4.6,7.8c-0.2,2.1-0.8,1.9-1.4,3.8
		C460.6,153.1,459.5,160.3,457.3,164.9z"/>
	<path class="st2" d="M488.5,302.6h-10.7v-23.4h-11.7v13.7h-9.8V168.1H429v63.4h-20.5v-74.1l-3.7-3.2v-8.8l-8-3.6v-10.7h-13.3v10.7
		l-8,3.6v8.8l-3.7,3.2V172H352v-42.9h-16.6v-20.5h-10.7V97.9h-24.4v10.9h-8.8v34.1h-13.2v-39.8l-5.1-3.4V82.6l-7.8-5.9V52.9
		l-2.9-3.4l-1.2-11.4h-1.6l-1.4,11.4l-3.1,3.4v23.7l-7.8,5.9v17.1l-5.1,3.4v34.8h-22v-27h-32.2v26.3l-6.8,2.9v47.8h-23.4v-40
		l-2.4-2.4v-21h-2.4l-5.8-22.1c0.2-1.1,0.3-2.4,0.3-3.9c0-3.3-0.6-4.6-1.4-4.6s-1.4,1.3-1.4,4.6c0,1.6,0.2,3.1,0.4,4.2l-5.9,21.7
		h-2.4v21l-2.4,2.4v43.5h-25.8c0,0,0-1.1,0-2.9c-1.5,5.8-5.3,15.6-3.4,23.6l-0.6-0.4l2.1,1.5c-5.4,1.4-14.2,8.7-16.1,14.1l-4.9-3.9
		c2.5-7.3,8.7-8.9,15.9-13.7l-1.7-1.1c-0.3-7.1-0.3-15,3.6-23.3l5.2,3.1c0-7.3,0-26.2,0-29.3c0-4.4-6.4-4.5-6.4-4.5v-7.8l-5.4-1.5
		l-0.5-3.4l-1.5-0.5l-1.5,0.5l-0.5,3.4l-5.4,1.5v7.8c0,0-6.3-0.4-6.3,5c0,2.4,0,41.9,0,41.9L71.1,208v24.9l-3.9,2.2v19l-3.6,2.2
		v35.4h-0.7h-6.6v-35.1h-1.7l-4.4-38.2l-2.2-0.1l-4.6,38.3h-2.7v28.1h-5.6c0,0-3.5,2.9-3.3,4.4c0.8,7.3,1.9,14.4,3.4,21.4
		c0.1,0.4,0.2,0.8,0.3,1.2c0.2,1.2,0.5,2.4,0.8,3.7c3.9,16.4,9.5,32.3,16.6,47.2c17.9,42.6,91.8,136.8,209.9,133.2
		c114.6-3.5,180.6-70.6,211.3-135.8c7.6-16.4,13.3-33.7,16.9-51.9L488.5,302.6z M79.1,218.9l-4.9-3.9c2.4-7.3,10.1-9.3,14-13.1
		l-0.9-0.4c-1-9.8-2.2-16.1,0.7-24.4l5.6,2.9c-1.5,5.9-2.9,16.1-0.5,24.4l1.5,0.8C89.2,206.6,80.9,213.5,79.1,218.9z M153.6,229.4
		l4.4,6.4c-4.4,4.8-10.2,14.5-9.8,22.3l1.5,1.6c-6.9,1-19.3,3.4-22.7,8.3l-4.3-6.4c6.8-5.3,12.1-5,22-7.2l-1.4-1.5
		C142.8,247,148.3,237.1,153.6,229.4z M148.6,275.4l-0.5,6.1c-4.4,0.7-8.9,2.2-12.1,4.4l-2.1-5.1l1.1-0.5
		C139.9,277.8,145.3,276.4,148.6,275.4z M134.4,208.2l5.1,5.2c-2,5.4-6.3,16.5-5.4,25.7l1.5,1.6c-6.8,1-17.1,6.3-20.5,11.2l-3.8-5.2
		c4.3-6.8,15.3-9.8,19.3-11.3l-1.4-1.5C127.7,227.6,129.9,220.9,134.4,208.2z M116.8,221.8l-1.4-1.8c-2.8-1.7,1.6-15.3,5-23.2
		l5.1,4.4c-1.9,5.3-6.4,15.4-6.2,23.4l1.6,2c-9.3,2.5-17.8,6.6-18.7,10.4l-4.6-4.2C99,227.2,110.5,224.2,116.8,221.8z M205.6,355.9
		c-0.9-3.9,0.5-5.9,2-9.8l3.4,5.4c-1.4,3.4-1.4,9.3-1.4,9.3l-1.3-1.6l2.8,5.5c-4.8-1.5-18.5-1-22.4-1l3.9-5.1
		c5.8-0.5,9.7-0.8,15.5,0.2L205.6,355.9z M194.8,380.5c9.1-0.9,21.3-1.6,25.4-0.7l-1.7-2.1c0-3.2,5.4-10.4,10-15.4
		c0,0,4.9,1,8.1,0.2c-4.3,4.8-8.5,9.3-10.9,12.5c-2.3,3.1-2.9,6.4-2,9l1.9,2.4c-4.8-0.9-22.4-0.7-27.3-0.2L194.8,380.5z
		 M210.1,403.6l-4.6-6.6c8.6-0.9,24.6-0.2,29.6,1.5l-2.3-0.8c-2.4-5.9,11.5-19.4,13.5-22.3l4,6c-8.8,8.9-11.2,13.6-12.9,16.4
		c-1,1.7,2.7,5.2,3,5.4C235.6,402.2,214.9,402.9,210.1,403.6z M259.9,393.7l3.6,4.4c-2.2,3.5-5.9,7.7-9.1,10.2
		c-0.8,0-1.7-0.1-2.6-0.1l-3.6-1.6C253.1,403.2,259.4,395.7,259.9,393.7z M236.6,436.9l-4.5-5.1c5.8,0.9,18.6,0.5,29.3-1l2.9,3.6
		C256.5,436.3,245.7,437.3,236.6,436.9z M244,446c20.8,0.3,25-0.9,28.4-2.4l4.1,3.9c-7.9,2-12.1,3-27.7,3.5L244,446z M286.7,455.8
		l-4.4-2.9c6.3-2.9,14.6-13.6,16.5-16.7l3.4,3.9C298.8,445.7,292,452.9,286.7,455.8z M310.6,447.4l3.9,3.4
		c-3.4,5.4-10.2,10.2-15.6,13.1l-3.9-2.4C301.3,458.5,308.1,451.8,310.6,447.4z M272.6,443.3l-3.9-3.4c5.3-2.4,11.6-9.2,15-13.9h4.1
		l1.5,1.6C285.9,433,277.9,440.5,272.6,443.3z M263.5,463.9l-6.3-4.4c7.8,0.9,21.1-1,28.9-3.7l4.9,3.4
		C283.2,461.2,272.3,464.3,263.5,463.9z M274.2,472c9.7-1,17.1-3.3,23.4-8.6l3.2,1.7c2.5,2.4-10.7,9.7-20.9,10.2L274.2,472z
		 M288.8,479.6c15.9-3.3,18.9-7.7,20.8-10.1l-2.4-1.3c6.4-3,12.7-7.7,15.1-12.1l3.9,2.7c-3.5,5.4-9.2,8.9-14.6,11.8l-1.1-0.6
		l1.1,0.9c3.4,0.5-2,7.8-17.1,10.7L288.8,479.6z M309.4,486.5l-6.7-1.4c11.5-2.6,15.7-6.4,18.2-9.7l0.4,0.1l-2.8-1.2
		c7.3-2.9,9.9-5.6,14.8-11.4l3.4,1.9c-5.3,6.3-8.9,8.2-14.2,11.1l1.3,0.4C326.7,477.3,317.7,485.5,309.4,486.5z M334,479.6l-3.4-1.4
		c6.4-3,9.3-5.9,12.7-10.3l3.4,1C340.8,475.2,339.4,476.7,334,479.6z M421.5,264.7c0,0-10.4,0.2-17.5,0.3c3.6,1.8,15,7.7,15,7.7
		l-1.7,2.4c-2.2,3-3,5.7-3,8.5c0,3.1,1,6.4,2.2,10.3c1.6,5.5,3.6,11.9,3.6,20.3c0,3.3-0.3,7-1.1,11c-2.1,11-16.4,33.5-45.5,28.3
		c-5.2-0.9-10.3-4-14.9-7.2c-8.2,7-19,10.4-28.4,8.3c-7.5-1.7-13-6.6-15.6-13.3c-18.8,18.3-44.2,16.3-53.2,11h-0.1
		c-2.4-1.6-4.2-3.5-6-5.4c-4.3,4.2-13.8,11.2-25,9.9c-7.5-1.1-13.1-5.3-16.3-12.2c-2-4.3-3-9.7-3-15.5c0-6.9,1.7-14.3,4.2-21.5
		c-4.8,7.4-9.5,15.1-14,22.5c-6.6,10.9-12.3,20.3-16.1,25.3l-0.8,1h-31.2l2.5-3.9c0.7-1.2,1.5-2.7,2.4-4.6
		c4.5-9.8,9.8-27.4,13.4-44.3c-8.6,17.8-24.6,45.3-44.9,53.2c-7.7,3-15.3,2.8-22.6-0.5c-4.8-2.1-8.1-5.9-9.7-10.9
		c-0.1-0.5-0.3-1.1-0.4-1.6c0-0.1-0.1-0.3-0.1-0.5c-2.7-12.9,5.5-31.7,14.6-41.8l0.4-0.5l27.4-9.8l-4.5,6.5
		c-5.9,8.4-11.3,20.6-10.6,25.9c0,0.4,0.1,0.7,0.2,1c0.2,0.7,0.6,1,1.1,1.1c11.1,3.2,29.4-39.1,42.8-70c9.8-22.5,19-43.8,26.6-53
		l0.8-0.9l32.4-0.2h4.2l-2,3.7c-5.9,11.1-11.8,36.2-16.6,56.4c0,0-1.7,6.8-3.3,13.2c3-4.9,6.2-10.1,6.2-10.1
		c13.1-21.7,29.5-48.9,42.6-62.1l0.7-0.7h39.4l-2,3.7c-15.6,28.5-55.8,101.9-51.7,121.8c0.2,0.9,0.5,1.8,0.9,2.5
		c0.1,0.3,0.2,0.3,0.3,0.3c0.7,0.1,1.9-0.7,3-1.6c-0.1-1.1-0.2-2.2-0.2-3.4c0-21.7,17-45.1,39.2-52.8c13.8-4.8,27.5-2,34,6.9
		c1.6,2.1,2.6,4.4,3.2,6.8c0.3,1.4,0.5,2.9,0.5,4.5c0,5.5-2.2,11.5-6.5,17.2c-4.2,5.6-15.1,15-39.2,17.9c1,3.2,2.6,5.1,5.9,5.3
		c19.5,1,36.2-20.9,42.2-32.6c0,0,12.2-26.7,15-32.7c-5.6,0.3-24.5,1-24.5,1l12-24.5c0,0,21.3-0.4,24.1-0.4
		c1.1-2.6,12.5-26.6,12.5-26.6l33.8-0.3c0,0-10,20.9-12.6,26.4c6.8-0.1,44.8-0.7,44.8-0.7L421.5,264.7z M236,398.9
		c-0.2-0.1-0.5-0.2-0.8-0.3l1,0.3C236.2,398.9,239.4,400.8,236,398.9z M280.4,304.8c2-4.2,6.1-9.6,11.3-12.7c1.7-1,3.1-1.4,4.3-1.4
		c1.1-0.1,2,0.3,2.5,0.8c0.2,0.3,0.3,0.7,0.3,1.1c0,0.9-0.5,2-1.5,3.2C293.4,300.7,285.6,303.8,280.4,304.8z M235.2,398.6l-0.2-0.1
		C235.1,398.5,235.2,398.5,235.2,398.6z M374.4,265.6c1.5,0,10.7-0.2,21.3-0.3c-5.2,3.8-14.3,14.5-33.3,38.6
		c-5.1,6.5-10.6,13.4-14.1,17.5c0.4-1,0.8-2.1,1.4-3.4C349.8,317.9,374.3,265.8,374.4,265.6z M389.6,302.9c0.5,3.9,0.9,7.6,0.9,11.8
		c0,2.1-0.1,4.3-0.3,6.6c-0.4,3.1-2.6,7.8-6,10.2c-1.6,1.1-3.3,1.7-5.2,1.7c-0.6,0-1.3-0.1-1.9-0.2c-0.8-0.2-1.8-1-2.2-2.3
		c-0.2-0.4-0.2-0.9-0.2-1.3c0-2.2,1.4-4.8,4-7.4l1.7-1.8c0,0-2.4-2.5-3.1-3.3c4.5-7,8.4-11.9,12.1-16.3
		C389.5,301.5,389.6,302.9,389.6,302.9z"/>
	<path class="st0" d="M262.7,16.2c-135.9,0-246.4,110.6-246.4,246.4C16.3,398.5,126.9,509,262.7,509
		c135.9,0,246.5-110.6,246.5-246.4C509.1,126.8,398.6,16.2,262.7,16.2z M474.4,359c-0.6,1.2-2.8,6.2-3.4,7.4
		c-4.2,7.7-5.5,10.2-9.8,17.4c-2.8,4.7-7,10.8-10.8,16c-4,5.4-8.2,10.7-12.6,15.7c-3.2,3.7-6.5,7.3-10,10.7
		c-26,26.3-50.4,41.4-81.1,53.3c2.9-1.5,4.6-2.3,9-7.2l-3.2-0.8c-3.9,3.9-8.1,7.6-15.4,10.5l4.4-0.7c-3.4,1.2-6.8,2.4-10.3,3.5
		l4.4-4.3l-3.6-1.4c-1.8,2.6-4.5,5.3-9.9,8.3c-19,5.1-39,7.7-59.6,7.7c-64.8,0-123.5-26.6-165.7-69.5c-3.4-3.5-6.8-7.1-9.9-10.7
		c-4-4.6-7.8-9.4-11.5-14.3c-3.8-5.1-7.4-10.4-10.7-15.8c-3.7-6-7.2-12.3-10.4-18.7c-0.6-1.2-1.2-2.4-1.7-3.5
		c-7.1-14.9-12.7-30.8-16.6-47.2c-0.3-1.3-0.6-2.5-0.8-3.7c-0.1-0.4-0.2-0.8-0.3-1.2c-3.2-15.4-4.9-31.4-4.9-47.7
		c0-31.1,6.1-60.8,17.3-87.9c-0.7,3.5-0.6,6.5,0.3,9.8c-3.9,3.9-6.6,8.4-8.3,14.6l3.2,1.9c1-5.1,5.1-11.7,8.5-15.6
		c-2.4-8.3,1.2-13,2.7-18.8l-2.6-0.7c15.7-34.2,39.4-63.9,68.7-86.8c-1.4,2.6-3.1,5.8-3.9,8.3l3.4-2.2c0,0,4-6.6,7.8-11.6
		c5.5-3.9,11.1-7.6,16.9-11.1c-6.3,7.4-7.1,12.2-9.4,17.6l7.4-1.9c1.3-4.7,4.8-14.2,11.5-21.1C186.1,39.9,223.2,30,262.7,30
		c88.6,0,165.8,49.8,205,122.9c0.3,2.3,1.3,8.1-0.3,9c0.6,4.6-2,9.7-3.8,12.7l1.9,6.6c3-3.7,5.3-10.3,5-14c2.1-1.6,1.1-4.5,1.1-6.6
		c1.8,3.6,3.5,7.3,5.1,11c-0.2,1.3-1.1,5.1-2.7,7.1c0.9,4.3-1.1,8.6-2.9,11.8l2.4,6.1c1.1-0.7,4.2-8.9,4.2-13.4
		c1.2-1.6,1.5-3.2,1.8-4.7c1.4,3.7,2.7,7.3,4,11.1c-0.2,1.8-0.8,5.4-2.3,6.8c0.9,4.1-1.1,7-2.3,9.7l2.2,6.1c0,0,3.7-8.2,3.6-11.1
		c0.6-1.4,1.2-2.2,1.4-3.2c1.3,4.4,2.4,8.8,3.4,13.3c-0.8,3.8-3,7.4-4.7,11.3l0.5,3.7c0,0,2.9-3.7,5.5-8.9c0.6,2.8,1.1,5.5,1.5,8.3
		c-0.5,1.4-2.6,7.5-3.8,8.3l0.5,2.7c0,0,2.6-3.5,4.1-5.9c1.5,10.5,2.2,21.1,2.2,32c0,15.5-1.6,30.7-4.5,45.4
		C487.2,326.3,482,342.6,474.4,359z"/>
	<path class="st1" d="M465.4,351.8l-1.8-1.8h-0.8h-13.9l-0.6,0.5c-40.5,35.3-128.3,58.5-184.9,58c-2.9,0-5.9-0.1-9-0.2
		c-0.9,0-1.7-0.1-2.6-0.1c-50.5-2.4-130.6-17.8-173.8-53.8l-0.6-0.4h-14l-0.6,0.5c0,0-5.1,4.8-10.2,8.2c0.6,1.2,1.2,2.4,1.7,3.5
		c4.6-3.1,9.1-7,10.4-8.3v26.9c3.4,5.4,7,10.7,10.7,15.8v-42.9c0.2,0,0.4,0,0.5,0c4.9,4.1,10.3,7.9,16.1,11.4V415h-5
		c3.2,3.7,6.5,7.3,9.9,10.7l186.5,0.2h4.1l140.8,0.2c3.4-3.5,6.6-7,9.8-10.7h-3.8v-50c5.7-3.7,11-7.5,15.7-11.5c0,0,0.2,0,0.3,0
		v46.2c3.8-5.2,7.7-11.1,11-16.6l-0.3-29.6c0.3,0,0.6,0,0.7,0c0.3,0.3,0.7,0.7,0.7,0.7l9.5,9.5c0.6-1.2,1.2-2.5,1.8-3.7L465.4,351.8
		z M110.6,415H96v-43.4c4.7,2.7,9.6,5.3,14.6,7.7V415z M129.2,415.1h-14.6v-33.9c4.8,2.1,9.6,4.2,14.6,6.1V415.1z M147.7,415.1
		h-14.6v-26.4c4.8,1.8,9.7,3.4,14.6,5V415.1z M166.3,415.1h-14.6v-20.2c4.9,1.5,9.7,2.8,14.6,4.1V415.1z M184.8,415.1h-14.6V400
		c4.9,1.2,9.8,2.3,14.6,3.3V415.1z M203.3,415.1h-14.6v-11c4.9,1,9.8,1.9,14.6,2.7V415.1z M319.4,415.3l-112.1-0.1v-7.8
		c21,3.3,40.5,4.9,56,5c16.7,0.1,36-1.8,56.1-5.4V415.3z M337.9,415.3h-14.6v-9c4.8-0.9,9.7-1.9,14.6-3.1V415.3z M356.4,415.4h-14.6
		v-13.1c4.9-1.2,9.8-2.4,14.6-3.8V415.4z M374.9,415.4h-14.6v-18c4.9-1.4,9.8-2.9,14.6-4.6V415.4z M393.5,415.4h-14.6v-23.9
		c5-1.7,9.8-3.5,14.6-5.4V415.4z M412,415.4h-14.6v-31c5-2.1,9.9-4.3,14.6-6.5V415.4z M430.6,415.5H416V376c5.1-2.6,10-5.3,14.6-8.1
		V415.5z"/>
	<path class="st0" d="M369.6,263.5l1.2-2.9c0,0,43.4-0.7,46.5-0.7c0.8-2.1,4-9.8,5.7-14c-6.4,0.1-45.3,0.7-45.3,0.7
		s10.1-21.1,12.7-26.5c-5.5,0-20.2,0.2-22.6,0.2c-1.2,2.6-12.5,26.5-12.5,26.5s-21.5,0.4-24.2,0.4c-0.9,1.9-4.8,9.7-7,14.1
		c5.8-0.2,24.4-0.9,24.4-0.9S330,300.5,330,300.6c-7.1,13.7-25,36.6-47,35.4c-4.6-0.2-10.3-2.5-11.4-12.1l-0.3-2.6l2.6-0.2
		c24.6-2.2,34.8-11.2,38.7-16.5c6.2-8.3,7.2-16.5,2.8-22.6c-5.2-7.1-16.6-9.2-28.2-5.1c-21.5,7.5-38.1,31.9-35.6,52.4l0.2,1.2
		l-0.9,0.9c-0.7,0.7-4.2,4-7.9,3.7c-1.7-0.2-3-1-4.1-2.6c-1.2-2-1.8-4.8-1.8-8.2c0-21.6,23.7-68.5,50.4-117.5c-6.3,0-26.8,0-28.7,0
		c-12.6,13-28.4,39.2-41.2,60.4c0,0-11.2,18.2-11.5,18.7c-2.8,4.2-3.7,5.6-5.9,4.6c-1.1-0.5-1.5-1.2-1.5-2.3c0-1.2,0.5-2.9,1.2-5.4
		l5.6-22.5c4.6-19.7,9.9-41.3,15.5-53.8c-5.6,0-24,0.2-26.1,0.2c-7.1,9-15.9,29.3-25.2,50.9c-20.2,46.7-34.5,77-48.8,72.9
		c-2.2-0.6-3.7-2.1-4.5-4.3c-0.4-1.1-0.6-2.3-0.6-3.6c0-6.5,4.1-15.2,7.7-21.5c-5.4,1.9-11.1,4-12,4.3c-7.2,8.1-13.5,22-13.5,32.6
		c0,1.5,0.1,3,0.4,4.4c0.9,4.6,3.4,7.7,7.4,9.5c6.1,2.8,12.3,2.9,18.7,0.4c23-8.9,41.2-47.8,46.3-59.5c2.7-6.4,3.8-8.8,6.4-8
		c1.4,0.4,1.9,1.4,1.9,2.9c0,1.1-0.2,2.5-0.5,4.3l-0.4,2.4c-3.2,18.8-10.2,44.4-16.4,57c5.5,0,17.9,0,19.8,0c3.7-5,9-13.7,15.1-23.8
		c7.2-11.9,15.3-25.3,22.6-35.5c6.8-9.6,7.7-10.8,10.1-9.3c2.4,1.4,1.7,2.8-3.6,13.3c-9.5,14.8-12.8,35.3-7.5,46.6
		c2.5,5.3,6.6,8.5,12.3,9.2c10.8,1.2,20.3-7.5,22.3-9.9l2-2.5l1.9,2.5c1.8,2.3,4,4.3,6.8,6c7.1,4.1,30.9,6.7,48.2-11.2l0.3-0.4
		l3-1.8l1.5-0.7l1.1,2.7c0,0,0.5,1.4,0.8,1.9c2.7,7.5,8.3,10.2,12.5,11.1c8.4,1.9,18.4-1.3,25.5-8.1l1.5-1.5l1.7,1.2
		c4.4,3.1,9.6,6.5,14.3,7.3c27.9,5,38.6-18.3,39.7-24.3c0.7-3.7,1-7.1,1-10.1c0-7.6-1.8-13.4-3.4-18.8c-1.3-4.1-2.4-8-2.4-11.9
		c0-2.9,1-5.8,2.6-8.9c-3.7-1.9-10.6-5.5-11.9-6.1c-4.5,2-22.3,24.6-33.1,38.2c-18.9,23.9-19.1,23.8-21.7,22.6l-2.1-2.5
		c-1.1-3.3,1.2-8.5,2.6-11.4C345.1,315.6,369.7,263.4,369.6,263.5z M274,307.1c1.3-6,7.3-14.9,15-19.5c4.9-2.9,10.3-2.7,13.1,0.5
		c0.9,1.1,1.6,2.6,1.6,4.4c0,1.9-0.7,4-2.6,6.4c-6,7.5-18.7,11.7-24.8,11.3l-2.9-0.2L274,307.1z M370.7,317.5l1-1.6
		c5.3-8.6,9.8-13.9,14-19.1l3.4-4.1l3.9-4.6l1.5,14.2c0.7,5.8,1.4,11.8,0.5,19.6c-0.5,4.2-3.2,10.3-8,13.8
		c-3.3,2.3-7.1,3.2-11.1,2.3c-2.8-0.6-5.1-2.9-6-5.8c-0.2-0.7-0.4-1.6-0.4-2.7c0-2.3,1.2-5.5,4-9
		C372.7,319.7,370.7,317.5,370.7,317.5z"/>
</g>
</svg>
