<?xml version="1.0" encoding="utf-8"?>
<!-- Generator: Adobe Illustrator 25.0.0, SVG Export Plug-In . SVG Version: 6.00 Build 0)  -->
<svg version="1.1" id="Yankees" xmlns="http://www.w3.org/2000/svg" xmlns:xlink="http://www.w3.org/1999/xlink" x="0px" y="0px"
	 viewBox="0 0 530.7 587" style="enable-background:new 0 0 530.7 587;" xml:space="preserve">
<style type="text/css">
	.st0{fill:#FFFFFF;}
	.st1{fill:#ED1B2E;}
	.st2{fill:#25358E;}
</style>
<g>
	<circle class="st0" cx="265.4" cy="265.4" r="265.4"/>
	<path class="st1" d="M175.8,361.9l-3.6-2.8l2.4-2.6l3.4,2.7l0.5,0.6l-1.4,2.5C176.6,362.4,176.2,362.2,175.8,361.9z M164,352.6
		l2.4-2.5l-5.2-4.1l-1.7,3.1L164,352.6z M169.3,380c0.4,0,0.7-0.1,1-0.4c0.2-0.2,0.4-0.6,0.4-1c0-0.4-0.1-0.7-0.4-1l-8.3-8.2l-2.1,2
		l8.4,8.2C168.5,379.9,168.9,380,169.3,380z M527.5,305.5c-4.7,30.5-14.6,60-29.4,87.1c-14.8,27.1-34.2,51.4-57.3,71.8
		c-23.1,20.4-49.7,36.6-78.4,47.9c-28.8,11.3-59.2,17.5-90.1,18.3c-30.8,0.8-61.6-3.8-90.9-13.5c-3.5,6.5-6.8,13-9.8,19.7
		c-2.9,6.4-5.7,12.9-8.4,19.4c-1.5,3.8-3,7.5-4.4,11.3c-0.5,1.1-0.7,2.3-0.6,3.4c0.2,1,0.6,2,1.2,2.8l1.7,2.6c0.6,1.2,1,2.5,1.1,3.8
		c0,1.4-0.5,2.8-1.6,3.8c-0.5,0.6-1.2,1-1.9,1.4c-0.9,0.5-1.9,0.8-2.9,1.1c-1.3,0.3-2.6,0.5-3.9,0.6c-5.4,0.2-10.7-0.8-15.6-2.9
		c-1.8-0.7-3.4-1.6-5-2.5c-1.5-0.9-2.9-2-4.2-3.1c-2.5-2.1-4.7-4.7-6.4-7.5c-1.6-2.4-2.2-5.3-1.9-8.2c0.2-0.7,0.4-1.3,0.7-1.8
		s0.7-0.9,1.1-1.2c0.5-0.3,1.1-0.6,1.7-0.7l2.4-0.2h1.8l2.7-0.2l2.3-0.7c0.9-0.4,1.7-1.1,2.2-2c1.9-2.7,3.8-5.5,5.5-8.4
		c3.8-6,7.5-12,11-18.1c3.8-6.6,7.5-13.3,10.9-20.2c-24-10.2-46.3-24-66.3-40.7s-37.4-36.4-51.7-58.2
		c-14.2-21.8-25.2-45.7-32.5-70.7s-10.9-51-10.6-77.1c1.7-6.8,3.8-13.6,5.8-20c2.5-6.4,5.3-12.8,8.4-18.9c2.9-5.7,6.1-11.2,9.7-16.5
		c3.1-4.4,6.4-8.7,10-12.7c2.9-3.2,6.1-6.1,9.5-8.8c2.8-2.2,5.9-4.2,9.1-5.8c2.8-1.4,5.6-2.4,8.6-3.2c2.6-0.7,5.4-1.1,8.1-1.1
		c2.6,0,5.1,0.3,7.6,0.9c2.4,0.6,4.6,1.5,6.7,2.6c2,1.1,3.8,2.4,5.4,4c1.6,1.5,2.9,3.3,4,5.2c1.2,2,2,4.2,2.5,6.4
		c0.6,2.6,0.9,5.2,0.8,7.8c-0.1,3.2-0.5,6.5-1.3,9.6c-1.1,4.5-2.6,8.9-4.6,13.1c-3,6.7-6.4,13.3-10,19.7l-12.4,21.3
		c-3.1,5.2-6.1,10.5-8.9,15.8c-2.2,4.1-4.1,8.2-5.7,12.5c-1,2.7-1.7,5.5-2,8.3c-0.2,1.8-0.1,3.6,0.3,5.4c0.3,1.3,0.9,2.5,1.7,3.6
		c0.8,1,1.8,1.8,3,2.4c1.5,0.7,3.1,1.1,4.8,1.2c2.4,0.2,4.8,0,7.1-0.4c3.3-0.6,6.5-1.5,9.6-2.7c3.9-1.5,7.6-3.3,11.1-5.4
		c3.8-2.3,7.5-4.9,11-7.7l38.6-72.7h20.7L64.4,404.8c3.8,5.4,7.7,10.6,11.8,15.7c4.3,5,8.6,9.9,13.1,14.7l13.1,4.3l6.1-6.2L92.6,428
		c-0.8-0.5-1-1.2-0.5-2c0.3-0.4,0.8-0.6,1.3-0.4l17,5.6l6.6-7.4l-17.9-4.3c-1.1-0.3-1.3-1.7-0.4-2.3c0.2-0.2,0.6-0.3,0.9-0.2
		l19.2,4.6c2.8-3.4,5.5-6.8,8.1-10.3l-18.3-2.3c-1.1-0.2-1.5-1.6-0.6-2.3c0.2-0.3,0.6-0.3,0.9-0.3l19.7,2.5
		c2.6-3.6,5.2-7.4,7.6-11.2l-17.8-0.1c-1.1,0-1.7-1.4-0.9-2.2c0.2-0.3,0.6-0.4,0.9-0.4l19.5,0.1l5.5-9.4h-17.1
		c-1.1,0-1.7-1.4-0.9-2.2c0.2-0.3,0.6-0.4,0.9-0.4h18.5l1.4-2.6l3.7-1.7l-2.7,5.1l12.6,12.4c0.6,0.6,0.6,1.3,0,2
		c-0.6,0.6-1.3,0.6-2,0l-12-11.8c-2.1,3.7-4.3,7.4-6.5,11v0.2l-0.6,0.7l11.2,13.6c0.7,0.8,0.2,2-0.7,2.3c-0.5,0.1-1.1,0-1.5-0.5
		l-10.6-12.9c-2.4,3.7-5,7.4-7.6,11l8.8,12.8c0.5,1,0.2,1.6-0.8,2c-0.5,0.2-1-0.1-1.3-0.5l-8.3-12.1c-2.9,3.7-5.8,7.3-8.8,10.9
		l9.7,10.3c0.5,0.9,0.4,1.6-0.5,2.1c-0.5,0.2-1,0.1-1.4-0.3l-9.5-10.1l-5.5,6.1l-0.2,0.5l8.2,8.7c0.5,0.8,0.4,1.4-0.4,1.9
		c-0.5,0.2-1,0-1.3-0.3l-8.3-8.8l-8,7.9l4.4,7.8c9.8,8.1,20.2,15.6,30.9,22.5c11,6.5,22.4,12.3,34.1,17.5
		c11.5-20.2,22.6-40.5,33.3-61.1c10.5-20.7,20.7-41.6,30.5-62.6c-0.8,0.8-1.6,1.5-2.5,2.2c-2.5,1.8-5.2,3.4-8,4.6
		c-2.5,1.1-5.1,1.8-7.7,2.1l-3,0.1c-1.8,0.1-3.4-0.7-4.3-2.2c-0.7-1.1-1.2-2.4-1.3-3.7v-2.4l0.7-3.1l1.7-4.3l3-5.7l3.4-5.5l1.9-3.3
		l1.3-2.8c0.4-0.7,0.5-1.5,0.2-2.3c-0.4-0.4-0.9-0.7-1.5-0.7l-1.8,0.2l-2.1,0.8l-3,1.9c-1.7,1.2-3.3,2.6-4.8,4.1
		c-2.7,2.7-5.3,5.4-7.8,8.2L188.8,375h-16.4c2.2-3.4,4.4-6.9,6.4-10.5l5.3-9.8l3.6-7.7l1.6-4.2l0.2-1.1l-0.3-0.5
		c-1.3-0.3-2.6-0.1-3.6,0.6l-2.2,1.3c-1.9,1.5-3.6,3.1-5.2,4.8l-6,6.7l-5.3,5.6l-12.7,12.4l-0.1-0.1c-1.9,1.9-4,3.5-6.4,4.7
		c-1.1,0.6-2.3,1-3.5,1.3l-4.3,0.9c-1.1,0.1-2.2,0.2-3.3,0.1l-2.1-0.4l-1.4-0.8l-1-1.2c-0.7-1.6-0.9-3.5-0.6-5.3
		c0.3-2.1,1.1-4.1,2.1-6c-2.1,1.9-4.5,3.6-6.9,5.1c-2.1,1.4-4.4,2.5-6.8,3.5c-2,0.8-4,1.4-6,1.7c-1.6,0.3-3.2,0.3-4.8,0.2
		c-1.2-0.1-2.4-0.4-3.6-0.9c-0.9-0.4-1.8-1-2.6-1.8c-0.8-0.7-1.4-1.6-1.8-2.6c-0.5-1.2-0.8-2.4-0.9-3.6c-0.1-1.5,0-3.1,0.3-4.6
		c0.4-2,1-3.9,1.8-5.7c2.1-4.9,5.2-9.4,8.9-13.3c4-4.2,8.6-7.8,13.7-10.6c2.1-1.1,4.2-2.1,6.5-2.8c1.8-0.6,3.7-0.9,5.6-1.1
		c1.5-0.1,3,0,4.4,0.3c1.2,0.3,2.3,0.7,3.3,1.3c0.9,0.5,1.7,1.3,2.3,2.1c0.6,0.9,1.1,1.9,1.4,2.9l1.9-3.9l15.2-0.3l-17.7,33.4
		c-0.7,1.2-1,2.6-0.7,4c0.4,0.9,1,1.2,1.9,0.9l1.6-0.3l1.3-0.8l3.4-3.1l13.4-13.9l6.4-7.1l4.2-4.5l4.3-4.1l3.8-3
		c2.7-1.9,5.7-3.2,8.9-3.8c2.5-0.6,5.1,0.1,7,1.8c0.9,0.8,1.6,1.8,2,2.9l0.5,1.9c0.2,1.9,0.2,3.8-0.2,5.6c3.2-3,6.7-5.6,10.5-7.8
		l5.2-2.8l4.3-1.7l3.6-0.9c2.4-0.5,4.9-0.2,7.1,0.8l1.7,1.1c1.4,0.9,2.2,2.4,2.1,4l-0.3,2.3l-1.1,3.5c-0.7,1.9-1.5,3.8-2.5,5.6
		l-4.2,7.5l-2,3.4l-1.6,3.1l-0.9,2.3c-0.3,0.4-0.1,1,0.3,1.3c1,0.3,2.1,0.3,3.1-0.1c1.3-0.4,2.5-1,3.7-1.8c2-1.4,3.9-3.1,5.5-5
		c7.9-17.8,15.5-35.6,22.9-53.6c7.3-18,14.2-36.2,20.9-54.4c3.6-0.4,7.1-0.3,10.7,0.1c3.5,0.4,7,1.3,10.4,2.5
		c3.4,1.2,6.6,2.8,9.6,4.8s5.8,4.2,8.3,6.8c2.5,2.6,4.7,5.4,6.5,8.5c-11.8,17.7-23.5,35.6-35,53.5c2.6-0.8,5.3-1.4,8-1.9
		c2.1-0.4,4.2-0.6,6.3-0.6c1.5,0,3,0.1,4.5,0.4c1,0.2,2,0.5,2.9,1c0.7,0.4,1.4,0.9,1.9,1.6c0.6,0.7,1.1,1.5,1.4,2.4
		c1.6,4.6,0.8,9.7-2.2,13.5c-0.9,1.2-1.9,2.2-3,3.1c-1.4,1.1-2.9,2.1-4.5,3c-2,1.1-4.1,2.1-6.3,2.9c-2.4,0.9-4.8,1.6-7.3,2.2
		l1.2,0.7c0.7,0.4,1.2,1.1,1.4,1.9l0.3,1.9l-0.1,4.2v1.8c0.1,1.1,1,2.1,2.1,2.4c1.6,0.6,3.4,0.6,5.1,0l2.4-1.1l4.5-2.8
		c4.1-2.8,7.9-6,11.5-9.4c0.7-2.7,1.9-5.3,3.5-7.6c2-2.9,4.4-5.6,7.1-7.9c2.2-1.8,4.5-3.5,6.9-5c5.2-3.2,10.9-5.6,16.9-7.3
		c2.5-0.7,5-1.2,7.6-1.5c1.9-0.2,3.9-0.2,5.8,0c1.4,0.2,2.7,0.5,4,1c0.9,0.3,1.6,0.8,2.3,1.5c0.6,0.6,1,1.4,1.3,2.2
		c0.9,3.5,0.3,7.2-1.8,10.2c-0.8,1.3-1.8,2.4-2.9,3.4c-1.6,1.3-3.3,2.5-5.1,3.5c-2.5,1.3-5,2.5-7.6,3.4c-3.2,1.2-6.5,2.2-9.8,2.9
		c-3.6,0.9-7.2,1.5-10.8,1.8c-0.3,1.4-0.4,2.9-0.2,4.3l0.8,2l1.3,1.6c0.5,0.5,1.1,0.8,1.8,1c1.2,0.3,2.4,0.5,3.6,0.6
		c1.6,0.1,3.3,0.1,4.9,0c2.1-0.2,4.1-0.5,6.1-1c2.3-0.6,4.6-1.3,6.9-2.2c2.9-1.2,5.7-2.4,8.4-3.9c3.6-1.9,7.2-4,10.6-6.2
		c0.9-2.7,2.1-5.3,3.8-7.6c2.1-3,4.6-5.6,7.4-7.9c2.2-1.8,4.6-3.5,7-4.9c2.7-1.5,5.4-2.9,8.3-4.1c2.8-1.2,5.7-2.1,8.6-2.9
		c2.4-0.6,4.9-1.1,7.4-1.3c1.8-0.2,3.7-0.1,5.6,0.1c1.4,0.2,2.7,0.5,3.9,1c0.9,0.3,1.6,0.8,2.2,1.5c0.6,0.6,1,1.4,1.3,2.2
		c0.9,3.5,0.2,7.3-1.9,10.2c-0.9,1.3-1.9,2.4-3,3.4c-1.6,1.3-3.3,2.5-5.1,3.5c-2.5,1.3-5,2.5-7.6,3.4c-3.2,1.1-6.5,2.1-9.8,2.8
		c-3.5,0.8-7.1,1.4-10.7,1.7l-0.4,3c-0.1,1.1,0.2,2.2,0.7,3.1l1.1,1.6c0.4,0.5,0.9,0.9,1.5,1.1c0.8,0.3,1.8,0.5,2.7,0.6l4.2,0.3
		c1.8,0,3.6-0.2,5.3-0.5c2.1-0.3,4.1-0.8,6.1-1.4c5.2-1.7,10.2-3.9,14.9-6.6c0-2,0.4-3.9,1.2-5.7l1.3-2.5l1.6-2.1
		c2.4-2.3,5.6-3.5,8.9-3.2c1.8-0.1,3.5,0.7,4.6,2.1l10-7.6c-0.7-5.5,1-11,4.5-15.2c1-1.3,2.1-2.5,3.2-3.6c1.1-1.1,2.4-2.1,3.7-3.1
		l3.8-2.3l2.6-1.2c0.9-0.3,2-0.1,2.7,0.6l1.1,1.2c1.1,2,1.4,4.3,0.8,6.4c-0.2,1-0.6,1.9-1.1,2.7c-1.5,2.5-3.4,4.8-5.6,6.7
		c-1.3,1.3-2.7,2.4-4.2,3.4c3,5.1,5.2,10.7,6.4,16.5c3.4-3.4,6.6-7,9.6-10.7c2.9-3.8,5.6-7.8,8.2-11.8c6.7-28.3,8.2-57.6,4.7-86.5
		c-3.6-28.9-12.3-56.9-25.8-82.7s-31.4-49-53-68.5l-5.7,5.8l16,5.1c1,0.3,1.1,1.6,0.2,2.1c-0.3,0.2-0.6,0.2-0.9,0.1l-17-5.4l-6,6.7
		l14.9,7.1c0.9,0.4,0.8,1.7-0.1,2c-0.2,0.1-0.5,0.1-0.8,0L414,99.9l-3.1,3.8c10.4,7.2,19.6,15.8,27.5,25.6
		c7.9,9.8,14.3,20.7,19,32.4c4.7,11.7,7.7,24,8.9,36.5l-55.8,30.6c-0.5-2.9-1.1-5.9-1.8-8.8l50.4-32.4c-1.1-5.8-2.6-11.6-4.5-17.3
		l-50.9,35.5c-1.7-3.8-3.6-7.5-5.7-11.1c-2.1-3.6-4.5-7-7-10.3l49-43.5l-3-4.3l-3.2-4.2l-13.2-13.9l-4.2-3.7l-41.9,53
		c-4.6-3.5-9.5-6.6-14.5-9.4c-5.2-2.5-10.5-4.7-16-6.6l24.5-60.9l-5.4-1.3L341.7,87c-3.8-0.1-7.5-0.1-11.3,0.2l-10.8,60.7
		c-4.3-0.1-8.5,0-12.8,0.3c-4.2,0.4-8.4,1-12.6,1.9l2.3-56.1c-5.9,2.1-11.6,4.6-17.1,7.5l-0.4,53.3c-3.8,1.6-7.6,3.4-11.2,5.4
		l-0.5-5.2l-2.7-51.2c28.6-19.3,63.6-26.6,97.5-20.2c16.8,3.2,32.7,9.7,47,19.1L413,98l-11.3-10.9c-0.8-0.7-0.3-2,0.7-1.9
		c0.3,0,0.6,0.1,0.8,0.3l11.2,10.8L421,89l-9.9-12.4c-0.5-0.8-0.3-1.3,0.5-1.7c0.4-0.1,0.8,0.1,1.1,0.4l9.7,12.2l4.8-4.8
		c-23.3-20.5-50.2-36.4-79.3-46.9c-29.2-10.4-60-15.3-91-14.2c-31,1.1-61.4,8.1-89.8,20.5c-28.3,12.5-54,30.2-75.8,52.2l2.2,1.9
		l17.9-5.5c1.3-0.3,2.2,1.3,1.2,2.2l-0.4,0.2l-16.4,5.1l8,7.4l17.5-5.4c1.3-0.3,2.2,1.3,1.2,2.2l-0.4,0.2l-16.2,5l4.6,4.7l17.7-5.5
		c1.3-0.3,2.2,1.3,1.2,2.2l-0.4,0.2l-16.5,5.1l5.7,6.3l21.9-2.7c0.6-0.1,1.1,0.2,1.4,0.7c0.4,0.8,0.2,1.4-0.5,1.9l-0.5,0.2l-20,2.4
		l5.2,6.4v-0.1l21.4-2.6c0.5-0.1,1.1,0.2,1.3,0.7c0.4,0.7,0.2,1.3-0.5,1.8l-0.5,0.2l-19.8,2.4c3.2,4.2,6.3,8.6,9.2,13l24.5-2
		c0.6-0.1,1.2,0.2,1.5,0.8c0.4,0.9,0.1,1.6-0.7,2.1l-0.6,0.2l-22.9,1.9c2.9,4.6,5.6,9.2,8.2,14v-0.7l23.4-0.1c0.5,0,1.1,0.3,1.3,0.9
		c0.3,0.9,0,1.5-0.8,1.9l-0.6,0.1l-22.2,0.1c2.2,4.3,4.4,8.7,6.4,13.1l22.2,0.5c0.8,0.1,1.4,0.7,1.4,1.5c-0.1,0.8-0.7,1.4-1.5,1.4
		l-20.8-0.5c2.3,5.3,4.4,10.6,6.3,16.1l25.1,1.7c0.8,0.1,1.4,0.8,1.4,1.6c-0.1,0.8-0.8,1.4-1.6,1.4l-23.8-1.6
		c1.8,5.2,3.3,10.5,4.7,15.8l21.8,5.4c0.9,0.3,1.4,1.4,0.8,2.3c-0.3,0.4-0.9,0.6-1.5,0.5l-20.3-5.1c1.5,6.1,2.7,12.3,3.7,18.5
		l21.6,8c0.3,0.1,0.6,0.4,0.8,0.8c0.4,0.9,0.2,1.5-0.7,2c-0.4,0.1-0.8,0.1-1.2,0l-20-7.4c1,7.6,1.7,15.2,2.1,22.9l22.8,8.5
		c0.3,0.1,0.6,0.4,0.8,0.8c0.4,0.9,0.2,1.6-0.7,2c-0.4,0.2-0.8,0.2-1.2,0.1l-21.6-8c0.2,7.4,0,14.7-0.4,22.1l19.5,7.2
		c0.4,0.1,0.7,0.4,0.8,0.7c0.3,0.9,0.1,1.5-0.7,1.9c-0.4,0.1-0.8,0.1-1.1,0l-18.7-6.9c-0.5,7-1.4,13.9-2.5,20.8l21.3,7.9
		c0.4,0.2,0.6,0.4,0.8,0.8c0.3,0.8,0.1,1.5-0.7,1.9c-0.3,0.1-0.7,0.1-1.1,0l-20.8-7.7l-2.6,12.3l11,8.6l-2.3,2.2l-8.4-6.6l-0.6-2.6
		h-2.6c1.1-4.6,2.1-9.3,3-14l-18.4,6.8c-0.5,0.2-1.1,0-1.5-0.4c-0.7-0.8-0.4-2,0.5-2.3l20-7.4c1.1-6.6,1.9-13.2,2.5-19.8l-16.7,10.6
		c-0.9,0.6-2,0-2.1-0.9c-0.1-0.5,0.1-1.1,0.6-1.4l18.4-11.7c0.4-7.3,0.6-14.6,0.4-21.9l-16.6,13.1c-0.9,0.6-2,0.1-2.3-0.8
		c-0.2-0.5,0-1.1,0.5-1.5l18.3-14.4c-0.4-7.5-1.1-15.1-2.1-22.6l-14,13.4c-0.7,0.6-1.4,0.6-2.1,0c-0.6-0.7-0.6-1.4,0-2.1l15.5-14.8
		c-1-6.4-2.3-12.7-3.8-18.9l-6.7,5.2h-4.6l10.5-8.2c-1.4-5.5-3.1-11-4.9-16.4L145,213.1c-0.8,0.7-1.9,0.4-2.3-0.5
		c-0.2-0.5-0.1-1.1,0.3-1.5l16.2-15.6c-1.9-5.3-4-10.5-6.2-15.7l-14.6,14c-0.7,0.6-1.4,0.6-2.1,0c-0.6-0.7-0.6-1.4,0-2.1l15.3-14.7
		c-1.8-4.1-3.8-8.1-5.9-12.1l-13.2,12.7c-0.9,0.6-1.6,0.4-2.2-0.5c-0.2-0.5-0.1-1,0.3-1.4l13.8-13.2c-2.5-4.6-5.2-9.1-8-13.6
		l-14,13.4c-0.8,0.6-1.6,0.4-2.1-0.5c-0.2-0.5-0.1-1,0.3-1.4l14.4-13.8c-2.4-3.6-4.8-7.1-7.3-10.5l-11.3,15.4
		c-0.5,0.8-1.7,0.7-2.2-0.1c-0.2-0.5-0.2-1.1,0.1-1.5l11.7-16l-6.1-7.8l-9.1,16.2c-0.7,0.9-1.4,1-2.2,0.2c-0.3-0.4-0.4-0.9-0.1-1.4
		l9.6-17.1l-5.7-6.5l-6.9,18c-0.5,0.9-1.2,1.1-2.1,0.5c-0.4-0.3-0.5-0.9-0.3-1.4l7.4-19.2l-0.7-0.7l-0.3,0.1l-0.2-0.6l-5.9-6
		l-6.7,17.4c-0.5,0.9-1.2,1.1-2.1,0.5c-0.4-0.3-0.5-0.9-0.3-1.4l7.1-18.5l-7.1-6.6l-6.5,17.8c-0.5,0.9-1.2,1-2.1,0.5
		c-0.4-0.3-0.6-0.9-0.4-1.4l6.8-18.8l-2.5-2.1c-6.2,7.1-12.2,14.3-18.1,21.7c-5.8,7.3-11.2,15-16,23c-4.8,8.1-9,16.5-12.6,25.1
		c-3.7,8.7-7.2,17.5-10.5,26.3c-5.3,4.8-10.4,9.7-15.3,14.9c-4.8,5.3-9.4,10.7-13.7,16.4c4.9-30.4,15.1-59.8,30.1-86.8
		c15.1-26.9,34.7-51.1,58-71.3c23.3-20.2,50-36.2,78.8-47.3c28.8-11.1,59.3-17,90.2-17.6c30.9-0.5,61.6,4.3,90.8,14.3
		c29.2,10,56.5,25,80.5,44.4c24,19.4,44.5,42.8,60.5,69.2c16,26.4,27.3,55.4,33.3,85.7C531.6,243.8,532.3,274.9,527.5,305.5z
		 M404.8,343.4c3.8-0.6,7.6-1.6,11.3-3c2.6-1,5.1-2.3,7.5-3.8c0.9-0.5,1.8-1.2,2.4-2c1.5-1.6,2-3.9,1.4-6c-0.3-0.6-0.9-1.1-1.6-1.3
		l-1.6-0.2c-2.9,0.1-5.8,0.9-8.3,2.4l-3.1,2l-2.4,2.1C407.9,336.5,406,339.9,404.8,343.4z M343.3,346c3.8-0.6,7.6-1.6,11.3-3
		c2.6-1,5.1-2.3,7.5-3.8c0.9-0.5,1.7-1.2,2.4-2c1.5-1.6,2-3.9,1.4-6c-0.2-0.6-0.8-1.1-1.5-1.3l-1.6-0.2c-2.9,0.1-5.8,0.9-8.3,2.4
		l-3.1,2l-2.4,2.1C346.4,339.1,344.5,342.4,343.3,346z M144.5,341.3l-0.1-1.9c-0.1-0.9-0.6-1.7-1.4-2.2l-1.3-0.5h-1.9l-2.6,0.6
		c-1.2,0.4-2.4,1-3.5,1.6c-3.1,1.8-6,4-8.6,6.5c-2.7,2.7-5.2,5.7-7.2,8.9c-0.7,1.3-1.4,2.6-2,3.9l-1,3.1l-0.2,2.2l0.3,1.6
		c0.5,1.4,1.9,2.3,3.4,2.1l2.3-0.3l3-1.1c3-1.5,5.7-3.3,8.2-5.5c3-2.6,5.7-5.5,8-8.7c1-1.3,1.8-2.7,2.6-4.2c0.6-1.1,1.1-2.3,1.5-3.5
		L144.5,341.3z M53.4,386.7l37.8-71c-3.8,2.3-7.7,4.3-11.7,6c-3.6,1.5-7.3,2.8-11.1,3.7c-3.1,0.8-6.2,1.3-9.4,1.4
		c-2.6,0.1-5.3-0.1-7.9-0.6c-2.3-0.4-4.5-1.1-6.6-2.1c-1.9-0.9-3.7-2-5.3-3.4c-1.5-1.4-2.9-2.9-4-4.6c-1.2-1.8-2.1-3.7-2.7-5.7
		c-0.7-2.3-1.1-4.6-1.2-6.9c-0.2-2.8,0-5.7,0.5-8.5c0.6-3.6,1.6-7.2,2.8-10.7c1.8-5.3,4.1-10.3,6.8-15.2c3.8-6.9,7.8-13.8,12-20.5
		l7.9-12.8c3.3-5.4,6.5-10.9,9.5-16.5c2-3.8,3.7-7.8,5-11.9c0.8-2.6,1.3-5.2,1.5-7.8c0.1-1.8,0-3.7-0.4-5.5
		c-0.3-1.4-0.9-2.7-1.7-3.9c-0.7-1.1-1.7-2-2.8-2.7c-1.2-0.8-2.6-1.3-4-1.6c-1.7-0.3-3.3-0.4-5-0.2c-2,0.2-3.9,0.7-5.8,1.5
		c-5.1,2.2-9.6,5.5-13.2,9.7c-2.7,3-5.1,6.1-7.2,9.4c-2.8,4.4-5.3,9-7.5,13.7c-2.7,5.7-5,11.6-7.1,17.6c-0.5,12.9-0.7,25.9-0.5,38.9
		c0.1,12.7,1.5,25.5,3.9,38c2.7,12.5,6.5,24.7,11.4,36.5C42.3,363,47.6,374.9,53.4,386.7z M100.3,441.1l-7.2-2.4l4.8,4.6
		L100.3,441.1z M130.8,560.9l0.2,0.7c0.3,0.6,1,1.1,1.7,1.1c2.1-0.5,4-1.6,5.4-3.3c1.3-1.5,2.1-3.2,2.5-5.1l-1-1.5
		c-1.2,1.6-2.5,3.2-3.9,4.6C134.1,558.7,132.5,559.9,130.8,560.9z M146,564.3c0.9-3.8,2.1-7.5,3.5-11.1c2-5,4.3-9.9,6.9-14.7l-2-0.8
		c-3.4,6.4-7.2,12.6-11.2,18.6c-2.3,3.4-5.2,6.4-8.4,8.9c0.9,0.2,1.8,0.6,2.6,1.1l1.2,0.9c0.6,0.6,1.1,1.3,1.3,2.1
		c0.1,0.9-0.5,1.7-1.3,2.1c-1.7,0.7-3.6,0.8-5.3,0.3c-2.2-0.7-4.2-1.9-5.9-3.4c0.5,2.4,1.9,4.6,3.9,6l2.9,2l2.7,1.3l2.1,0.5
		c1.1,0.2,2.1-0.1,2.9-0.8c0.7-0.7,1.2-1.6,1.5-2.6c0.6-1.7,1-3.5,1.4-5.3L146,564.3z M152.6,570.7c-0.4-0.4-0.9-0.6-1.5-0.6
		c-0.6,0-1.1,0.2-1.5,0.6c-0.4,0.4-0.6,0.9-0.6,1.5s0.2,1.1,0.6,1.5c0.4,0.4,0.9,0.6,1.5,0.6c0.8,0,1.5-0.5,1.9-1.3
		C153.3,572.2,153.1,571.3,152.6,570.7z M175.4,516.4l-1.7-1c-8.7,16.4-16.8,33.1-24.4,50c0.2,1.1,1.1,2,2.3,2.1
		c0.6,0,1.1-0.1,1.6-0.5c3.3-8.9,6.9-17.7,10.6-26.4C167.4,532.4,171.3,524.4,175.4,516.4z M447.7,356.4c0.6,1.7,1.6,3.3,3.1,4.4
		c3.1,2.7,7.6,3.2,11.2,1.3c2.2-1.4,4-3.2,5.3-5.3c0.8-1.4,1.4-3,1.7-4.6l0.3-3.1l-0.2-4.2l-0.7-5l-0.3-2.1l-8.8,6.7
		c0.3,2.5-0.5,4.9-2.1,6.8c-0.6,0.8-1.5,1.4-2.5,1.7l-2,0.4l-2.3,0.2l-1.3,0.1l-0.9,0.2C447.5,354.6,447.3,355.6,447.7,356.4z
		 M287.7,334.6l-8.5,13.4l6.9-0.8c2-0.3,4-0.8,6-1.3l4.8-1.6l3.4-1.7l2.3-1.7c1-0.9,1.8-2,2.5-3.1c0.6-1,0.9-2.1,0.7-3.3
		c-0.1-0.7-0.6-1.3-1.3-1.5l-1.8-0.4l-3.2-0.1l-4.9,0.6L287.7,334.6z M196.9,464.5l0.7,2.2c18.1-33.7,36.8-67.1,56.1-100.1
		c19.8-32.8,40.1-65.3,61-97.3c1.5-1.8,1.7-4.4,0.7-6.5c-2.2-2-4.7-3.6-7.3-5c-5.3-2.7-11.2-4-17.1-3.8
		c-5.5,14.7-11.1,29.3-16.8,43.9c-5.8,14.6-11.8,29-18.2,43.3c-6.5,14.2-13.3,28.3-20.4,42.3c-7.1,13.9-14.4,27.8-21.7,41.7l3.2-0.7
		c14.6-27.3,29.5-54.4,44.6-81.4c15.3-26.9,30.9-53.6,46.7-80.2c1.3,0.6,2.6,1.4,3.6,2.4c-20.4,32.4-40.3,65.2-59.7,98.3
		C233.3,396.9,214.8,430.5,196.9,464.5z M186.6,497.8c21.1-38.7,42.7-77,65-115c22.6-37.7,45.9-75.1,69.8-112.1
		c0.2-0.6,0.1-1.1-0.2-1.6c-0.3-0.4-0.8-0.7-1.3-0.8c-0.5,0-1.1,0.1-1.5,0.5c-23.6,37.3-46.7,74.9-69.3,112.9
		c-22.2,38.2-43.9,76.6-65.1,115.4L186.6,497.8z M498.3,339.6l-5.5,6.3l-7.1,7.6c-0.5,2.8-1.7,5.4-3.5,7.5c-1,1.2-2.1,2.4-3.4,3.4
		c-1.4,1.1-2.8,2.1-4.4,2.9c-5,2.6-10.7,3.6-16.3,3c-1.7-0.2-3.5-0.6-5.2-1.1c-1.4-0.4-2.8-1-4.1-1.7c-1.1-0.7-2.2-1.6-3.1-2.6
		c-1.1-1.1-2-2.3-2.7-3.6c-0.9-1.5-1.6-3-2.1-4.6c-4.6,2.5-9.3,4.8-14.2,6.9c-3.5,1.5-7.1,2.7-10.8,3.6c-2.9,0.7-5.9,1-8.9,1.1
		c-2.6,0.1-5.2-0.1-7.7-0.6c-2.1-0.4-4.2-1-6.1-1.9c-1.5-0.6-2.8-1.4-3.9-2.5c-1-1-1.8-2.2-2.4-3.5c-0.6-1.3-1-2.8-1.2-4.3
		c-5.1,3.1-10.3,5.9-15.6,8.5c-4,2-8.2,3.7-12.5,5c-3.1,0.9-6.4,1.5-9.6,1.8c-2.7,0.3-5.5,0.2-8.2-0.1c-2.3-0.3-4.5-0.8-6.7-1.6
		c-1.6-0.5-3.2-1.4-4.6-2.4c-1.1-0.9-2-2-2.7-3.3c-0.7-1.3-1.2-2.7-1.5-4.2c-2.6,2.2-5.2,4.4-7.9,6.4c-2.3,1.8-4.7,3.4-7.2,5
		c-1.7,1.1-3.5,2.1-5.3,3c-2.6,1.2-5.4,2-8.3,2.3l-3.7,0.1c-1.8-0.1-3.5-0.5-5.1-1.4l-1.9-1.4c-1-1-1.8-2.2-2.2-3.6
		c-0.2-1-0.3-2-0.3-3l0.3-4.7l0.2-2.2v-2c0-1-0.4-1.9-1.1-2.5l-1.3-0.7c-1.6-0.4-3.3-0.4-4.9-0.1c-14.7,23.6-29,47.4-43.2,71.3
		c-14,24-27.8,48.1-41.3,72.4h-0.8c29.2,9.3,59.9,13.2,90.5,11.3c30.6-1.9,60.5-9.6,88.3-22.6c27.7-13.1,52.8-31.2,73.9-53.5
		l-9.9,6.7c-0.3,0.2-0.7,0.2-1,0.1c-0.3-0.1-0.5-0.4-0.6-0.7c-0.1-0.4,0-0.8,0.4-1l11.4-7.7l-6.6-5.6l-14.3,9.6
		c-0.3,0.2-0.7,0.2-1.1,0.1s-0.6-0.4-0.7-0.8c-0.1-0.5,0.1-1,0.5-1.2l13.8-9.3l-5.2-4.8l-16.4,9.8c-0.4,0.3-0.8,0.3-1.2,0.1
		c-0.4-0.2-0.7-0.6-0.7-1c-0.1-0.5,0.2-1,0.6-1.2l15.9-9.5l-4.8-4.8l-19,8.2c-0.4,0.2-0.8,0.2-1.1,0.1c-0.3-0.2-0.6-0.5-0.7-0.8
		c-0.1-0.4-0.1-0.8,0-1.1c0.2-0.3,0.5-0.6,0.8-0.7l18.1-7.8l-7-7.8l-19.6,6c-0.6,0.2-1.2,0-1.5-0.4c-0.3-0.4-0.4-0.9-0.3-1.3
		c0.1-0.4,0.5-0.8,0.9-0.9l18.5-5.7l-5.5-6.8l-22.6-0.1c-0.5,0-1.1-0.4-1.3-0.9c-0.3-0.5-0.1-1.2,0.3-1.6c0.2-0.2,0.6-0.4,1-0.4
		l20.4,0.1c-3.3-4.3-6.4-8.8-9.4-13.4l-16.6,4c-0.7,0.1-1.3-0.3-1.5-0.9c-0.1-0.7,0.3-1.3,0.9-1.5l15.8-3.8l-4.5-7.5H376l-0.1-2.4
		h10.7c0.8,0.9,1.7,1.7,2.7,2.4c1.3,0.7,2.6,1.4,3.9,1.9l2.7,4.3l2.3-2.8l3.4,0.5l-4,4.9c2.5,3.8,5.1,7.5,7.8,11.2l8.4-10.4
		c0.3-0.3,0.8-0.5,1.2-0.5c0.4,0,0.8,0.3,1,0.7c0.3,0.5,0.2,1.1-0.1,1.5l-8.8,10.9l0.7,0.9c2.1,2.9,4.4,5.7,6.7,8.4l9-11.2
		c0.3-0.3,0.7-0.5,1.2-0.5c0.4,0,0.8,0.3,1,0.7c0.3,0.5,0.3,1.1-0.1,1.5l-9.2,11.4l-0.5-0.2l7,7.8l9.3-11.4c0.3-0.4,0.8-0.6,1.3-0.6
		c0.4,0,0.9,0.3,1.1,0.8c0.3,0.5,0.3,1.1-0.1,1.6l-9.5,11.7l5.7,5.7l9.6-11.9c0.2-0.3,0.5-0.4,0.9-0.4c0.3,0,0.7,0.3,0.8,0.6
		c0.2,0.4,0.2,0.9-0.1,1.2l-9.8,12l5.2,4.8l8.9-11.3c0.3-0.4,0.7-0.5,1.1-0.4c0.4,0.1,0.7,0.5,0.7,0.9l-0.2,0.7l-9,11.4l7.4,6.2
		l1.6-1.8l3.3-9c0.1-0.4,0.5-0.7,0.9-0.7c0.5,0,0.8,0.2,1,0.6v0.8l-1.4,3.9c5-6.4,9.8-12.8,14.5-19.4c4.6-6.5,9-13.3,12.9-20.3
		c3.8-7,7.3-14.3,10.3-21.7C492.4,354.6,495.3,347.1,498.3,339.6z"/>
	<path class="st2" d="M414.8,304.1c-0.2,6.4-0.4,12.9-0.6,18.9l-6.2,2.7l0.3-2.1c0.5-3.8,0.7-7.7,0.6-11.6l-0.1-9.4
		c0.2-3.1,0.3-6.3,0.3-9.4c-0.1-2.7-0.8-5.3-1.9-7.8c-1.8-3.7-4-7.1-6.8-10.1c-5-5.6-10.4-10.9-16.2-15.7
		c-8.5-7.2-17.3-14-26.5-20.4c-8.9-6.2-18.1-11.9-27.7-17.1c-8.6-4.6-17.6-8.7-26.8-12c-8.9-3.2-18.1-5.9-27.4-7.9
		c-8.6-1.9-17.4-3.2-26.2-4c-6.7-0.6-13.5-0.7-20.2-0.2c-4.6,0.3-9.1,1.2-13.4,2.6c-3.2,1.1-6.2,2.6-8.9,4.6c-2.3,1.6-4.2,3.7-5.8,6
		c-1.5,2.3-2.6,4.8-3.2,7.4c-0.6,2.8-0.8,5.8-0.5,8.7c0.4,3.5,1.3,7,2.7,10.2c1.7,4,3.9,7.9,6.5,11.4c2.9,4,6.1,7.7,9.7,11
		c3.2,3.1,6.9,5.7,10.9,7.6c4.2,1.9,8.6,3.6,13,5.1l5.9,2.1l24,8.9l-2.2,5.5l-23.9-8.8l-8.6-3c-3.8-1.3-7.5-2.9-11.1-4.6
		c-3.8-1.9-7.4-4.3-10.6-7.1c-7.1-6.3-13-13.8-17.4-22.2c-1.8-3.4-3.1-7.1-4-10.9c-0.7-3.2-1-6.5-0.8-9.8c0.4-6.1,2.6-11.9,6.4-16.7
		c2.2-2.9,4.7-5.5,7.6-7.8c3.5-2.7,7.3-5,11.3-6.7c4.5-1.9,9.2-3.4,14-4.4c10.7-2.3,21.8-2.7,32.7-1.1c-5,0.3-10,0.9-15,1.8
		c-5,1.1-9.8,2.5-14.6,4.2c19.5-0.1,38.8,2.7,57.4,8.2c20.2,6,39.5,14.8,57.4,26.1c19.5,12.3,37.3,27,53.2,43.8
		c-1.5-4.4-3.3-8.6-5.5-12.7c-2.5-4.3-5.4-8.3-8.5-12.2c4,2.9,7.6,6.2,10.9,9.9c3.2,3.7,6,7.8,8.4,12.1c2.3,4.3,4.2,8.8,5.5,13.5
		c1.2,4.1,2,8.3,2.3,12.6C415.3,296.9,415.1,300.5,414.8,304.1z M358.5,272.2c-0.9-2.5-2.1-4.9-3.6-7.1c-1.8-2.7-3.8-5.2-6.1-7.5
		c-3-3-6.3-5.8-9.7-8.3c-4.3-3.1-8.8-6-13.4-8.6c-4.9-2.8-10-5.3-15.3-7.5c-4.8-2-9.7-3.7-14.7-5.1c-4.3-1.1-8.6-2-13-2.5
		c-3.5-0.4-7.1-0.5-10.7-0.3c-2.8,0.2-5.7,0.7-8.4,1.4c-2.1,0.6-4.2,1.5-6.1,2.6c-1.6,0.9-3.1,2.1-4.3,3.4c-1,1.2-1.9,2.5-2.6,4
		c-1.3,2.9-1.5,6.2-0.6,9.3c0.6,2,1.4,3.9,2.5,5.7c1.5,2.5,3.3,4.7,5.2,6.8c2.5,2.6,5.1,5,7.9,7.2c3,2.3,6.1,4.3,9.4,6.1l8.7-23.5
		c7.1-0.7,14.4,0.1,21.1,2.6c3.4,1.2,6.6,2.8,9.6,4.8s5.8,4.2,8.3,6.8c2.5,2.6,4.7,5.4,6.5,8.5l-14.3,21.6
		c6.6,2.8,13.7,4.4,20.7,4.8c2.9,0.1,5.8,0,8.7-0.4c2.3-0.4,4.5-0.9,6.6-1.8c1.6-0.7,3.2-1.6,4.5-2.7c1.1-1,2.1-2.1,2.9-3.5
		c0.8-1.5,1.3-3,1.6-4.6c0.3-1.9,0.4-3.8,0.2-5.7C359.8,276.5,359.3,274.3,358.5,272.2z M309.1,301.5l-3.3,5
		c6.8,3.2,13.5,6.9,19.8,11c6.1,4.1,12.1,8.4,17.8,13c2.9-1.7,5.8-3.1,8.9-4.3l-16.8-9.8L309.1,301.5z M268.6,182.5l-1-19.5
		c10.7-5.8,22.4-9.6,34.5-11c12.1-1.4,24.4-0.5,36.2,2.7c11.8,3.2,22.8,8.6,32.5,16c9.7,7.4,17.9,16.5,24.2,27
		c6.3,10.3,10.5,21.9,12.4,34l-19.9,10.4c-8.3-8-16.8-15.7-25.6-23.1c-8.6-7.2-17.9-13.5-27.9-18.6c-10.1-4.9-20.7-8.6-31.6-11.2
		C291.2,186.6,279.9,184.4,268.6,182.5z M379.8,223.4l5,3.2l0.2,6.6l4.5-3.6l5.2,2.8l-0.9-6.6l3.4-5.4l-5.9,0.3l-3.4-4.5l-2.2,5.6
		L379.8,223.4z M352.7,188.5l-8.7,7.3l11.3,1.1l3.7,11.7l4.7-10.6h11.4l-6.4-7.7l1.9-11l-8.8,4.3l-10-4.6L352.7,188.5z M307.1,168.8
		l5.1,6.4l-2.6,8.8l8.8-3.8l8.1,5.7l-1.5-9.4l7-6.2l-8.9-1l-3.2-7.3l-4.1,6.6L307.1,168.8z M276,170l3.9,3.4l-0.7,5.8l5.1-3.3
		l5.7,2.7l-2-5.8l3.7-4.6l-5.7,0.3l-2.8-4.2l-1.8,4.6L276,170z"/>
</g>
</svg>
