<?xml version="1.0" encoding="utf-8"?>
<!-- Generator: Adobe Illustrator 25.0.0, SVG Export Plug-In . SVG Version: 6.00 Build 0)  -->
<svg version="1.1"
	 id="Layer_1" xmlns:cc="http://creativecommons.org/ns#" xmlns:dc="http://purl.org/dc/elements/1.1/" xmlns:rdf="http://www.w3.org/1999/02/22-rdf-syntax-ns#"
	 xmlns="http://www.w3.org/2000/svg" xmlns:xlink="http://www.w3.org/1999/xlink" x="0px" y="0px" viewBox="0 0 808.1 808.1"
	 style="enable-background:new 0 0 808.1 808.1;" xml:space="preserve">
<style type="text/css">
	.st0{fill:#FFFFFF;}
	.st1{fill:#EFB21E;}
	.st2{fill:#003831;}
</style>
<g>
	<path class="st0" d="M404,0C180.9,0,0,180.9,0,404.1c0,223.1,180.9,404,404,404v0c223.1,0,404-180.9,404-404
		C808.1,180.9,627.2,0,404,0z"/>
	<path class="st1" d="M404,15.6C189.9,15.6,15.7,189.9,15.7,404c0,214.1,174.2,388.4,388.4,388.4S792.4,618.2,792.4,404
		C792.4,189.9,618.2,15.6,404,15.6z"/>
	<path class="st2" d="M404,27.1C196.2,27.1,27.1,196.2,27.1,404C27.1,611.9,196.2,781,404,781C611.9,781,781,611.9,781,404
		C781,196.2,611.9,27.1,404,27.1z"/>
	<circle class="st1" cx="404" cy="404.1" r="230.8"/>
	<path class="st0" d="M380.2,146.3l-2.2-82.7l18-0.5l0,0l1.8,67.4l18.8-0.5l0.4,15.4L380.2,146.3z M436.2,146l40.7-75.1l0,0
		l18.4,4.6l1,85.6l-18.6-4.7l0.1-14.3l-17.7-4.4l-6.5,12.7L436.2,146z M466,125.8l12.3,3.1l0.9-22.5l1-12.6l-0.2-0.1l0,0l-4.9,11.7
		L466,125.8z M321.8,158.9l-12.3-40.3l0.2-0.1l28.1,35.5l18.1-5.5l-31.1-37.1l5-41.4l0,0l-17.6,5.3l-3.6,39.7l-0.2,0.1l-10.7-35.4
		l-17.2,5.2l24.1,79.2L321.8,158.9z M420.4,730.2l-1-18.7l16-0.8l-0.8-15.4l-16.1,0.8l-0.9-18l18.2-0.9l-0.8-15.3l-36.2,1.9
		l4.3,82.7l36.4-1.9l-0.8-15.3L420.4,730.2z M676.6,565.3c-18.5-12.6-34.6,9.6-45.8,1.9c-4.2-2.8-4.7-7.5-1.6-12.1
		c2.8-4.1,7.3-6.4,11.7-7.8l-13.1-9l0,0c-5,2.6-9.1,6.1-12.3,10.9c-8.7,12.8-4.1,26,6.7,33.4c10,6.8,18.7,5,29.8,0
		c5.6-2.3,10.7-5.6,16-2c4.5,3.1,4.8,8.9,1.6,13.6c-3,4.4-6.8,6.8-11.3,8.8l12.9,8.8c4.6-1.8,9.3-6.2,12.2-10.4
		C692.7,587.5,688.8,573.6,676.6,565.3z M648.8,165.6L648.8,165.6l8.8,10.5c2,2.4,29.4,28.6-6,58.3c-18.1,15.2-37.6,18.5-55.9-3.2
		l-10.3-12.3L648.8,165.6z M608.2,223.1c8.8,11.5,24,4,31.9-2.7c8.1-6.8,18.5-20.3,9-31.6v0L608.2,223.1z M404,184.1
		c-121.3,0-220,98.7-220,220s98.7,220,220,220s220-98.7,220-220S525.4,184.1,404,184.1z M232.5,207.5l-28.8-80.4l15.7-10.6l0,0
		l64.4,56.4l-15.9,10.7l-10.6-9.7l-15.1,10.2l5.1,13.4L232.5,207.5z M228.2,151.3l9.1,20.5l10.5-7.1L231.7,149l-8.7-9.2l-0.2,0.1
		L228.2,151.3z M552.2,147.7l1.7-3l3.7-7.5l0.3-0.1l-7.6,54.1l14.5,9l43.8-70.2l-15.3-9.5l-19.7,31.6c-2.3,3.7-4.3,7.5-5.4,11.4
		l-0.3,0.1l7.4-54.3l-14.6-9.2l0,0l-43.9,70.2l15.3,9.5L552.2,147.7z M632.3,637.6c-11.7,10.4-26.9,3.6-35.1-5.6
		c-8.4-9.5-11.9-23.9-0.1-34.4c1.7-1.5,3.6-2.7,5.7-3.8l-10-11.3l0,0c-2.9,1.3-5.6,2.9-7.9,4.9c-18.4,16.2-15.6,41.9-2,57.3
		c14.4,16.3,39.3,22.7,58.7,5.5c2.2-1.9,3.9-4.1,5.3-6.6l-10.2-11.6C635.4,634.1,634,636,632.3,637.6z M290.8,673.1l-16.6-7.6
		l13.4-29.5l-16.4-7.5v0l-34.3,75.3l16.4,7.5l14.5-31.9l16.6,7.6l-14.5,31.9l16.4,7.5l34.3-75.3l-16.4-7.5L290.8,673.1z M523,636.9
		l40.4,72.3l15.7-8.8l-40.3-72.4L523,636.9z M504.6,660l-4.5-14.7l0,0l-44.4,13.5l4.5,14.7l13.5-4.1l19.6,64.5l17.2-5.2L491,664.2
		L504.6,660z M435.1,661.9L435.1,661.9L435.1,661.9L435.1,661.9z M371.7,729.8L371.7,729.8c0.1,0-2.1,13.7-2.4,15l0,0.2l0,0
		c0,0-36.3-5.9-36.4-6c0,0,12.2-75,13.2-81.1l0.1-0.5h0v-0.1l0,0l17.8,2.9l0,0.1c0,0-10.8,66.5-10.8,66.5
		C353.1,726.7,371.1,729.7,371.7,729.8L371.7,729.8z M371.7,729.9L371.7,729.9l0,0.1L371.7,729.9z M520.9,634.8l4.9,8.8
		C524.8,641.7,520.9,634.9,520.9,634.8L520.9,634.8z M137.6,187.5c5.1-6.2,12.4-10.6,21.4-10.9v0c9.1-0.3,19.8,3.3,31.9,13.2
		c24.1,19.7,23,39.4,12.8,51.8c-10.2,12.4-29.3,17.4-53.3-2.3C126.4,219.7,127.5,199.9,137.6,187.5z M162.6,224.5
		c5.1,4.2,21.9,16.8,29.4,7.5c7.6-9.2-8.1-23.2-13.2-27.3c-4.3-3.5-14.4-11.2-22.4-10.9h0c-2.7,0.1-5.1,1.1-7,3.4
		C141.8,206.4,156.9,219.8,162.6,224.5z M253.3,616.6L218,586.5v0l-10,11.7l10.7,9.2L175,658.6l13.7,11.7l43.8-51.3l10.8,9.3
		L253.3,616.6z M199.4,563.8L145,629.9l-11.2-15.6l9.3-10.9l-10.7-14.8l-13.2,5.5l-10.5-14.5l79.5-31.2h0L199.4,563.8z M176.3,568.1
		l-0.1-0.2l0,0l-11.3,5.7l-20.1,9.7l7.4,10.3l15.2-16.6L176.3,568.1z"/>
	<path class="st1" d="M472.3,323c-2.5-5-1.5-11.5,2.5-16.1c2.4-2.9,6.4-4.6,10.7-4.9c1.4-0.1,2.9,0,4.4,0.2
		c5.8,0.9,10.3,4.3,12.4,9.3c5.2,12.4,0.2,24.3-7.2,30.7c-2.1,1.8-8.5,5.8-12.2,6.6l-2.4,0.6l-4.8-7l-1.6-4.1l4-1.8
		c2.3-1.1,3.2-1.5,5.3-6.7c0,0,0.1-0.4,0.2-0.7c-0.3,0-0.7,0-0.8,0C478.3,329.3,474.3,327,472.3,323z M548.5,346.2l-5.7-1.7
		c-2.7-0.9-7.3-2.3-7.3-4.7c0-2.1,3.4-3.5,5.9-3.5c4.3,0,8.6,1.7,12.4,4.8l3.5,2.9l12.6-24.5l-3.1-1.7c-8.1-4.6-19.3-7.5-28.7-7.5
		c-19.6,0-33.2,13.3-33.2,32.4c0,20.4,13.8,24.3,25.9,27.7c4.3,1.2,10.8,3.1,10.8,6.2c0,4.8-6.3,5-7.1,5c-5.5,0-11.2-2.6-17.3-8
		l-3.5-3.1l-13.2,25l2.7,1.9c9.6,6.7,21,10.4,32.2,10.4c10.4,0,19.9-3.2,26.7-8.9c6.8-5.7,10.2-14.4,10.2-25.9
		C572.2,355.2,558.7,349.2,548.5,346.2z M534.5,472.6h5.2l-0.4,5.2c-3,37.5-20.6,63.6-46,68.2c-24.4,4.4-53.1-8-62.4-45.7
		c0,0-8.9-35-10.5-41h-57.9c-1.6,5.6-11.8,41.2-14,48.9c0.6,0,1.2-0.1,1.6-0.3c1.1-0.6,1.5-2.1,1.7-3l1.2-6.7l27.5,15.4l0.2,2.6
		c0.5,8.7-1.8,16.1-6.8,21.5c-4.9,5.3-12.1,8.2-20.8,8.4c-6.2,0.2-13.7-1.7-20.8-3.5c-7.3-1.8-14.7-3.7-20-3.2
		c-24.2,2.4-38.8,14.2-39,14.4l-6.3,5.2l-1.5-8c0-0.1-0.3-1.6-0.3-4.2c0-9.3,3.9-31.7,37-43.9c5.5-18.4,46-154,46-153.9
		c1.7-6.6,0.5-7.4-1.8-8.9c-2.9-1.8-8.6-3.7-14.9,4.1l-5.8,7.2l-2.6-8.9c-0.2-0.6-4-14.3,3.4-26.1c4.8-7.7,13.2-12.6,24.7-14.6
		c5-0.8,9.8-0.5,14.6,0.4c1.7-4.4,5-13.1,5-13.1c0.9-2.4,1.3-4.1,1.3-5.5c0-3.2-2-4.4-4.8-6.2c-3.7-2.4-12.7-4.3-20,5.7l-7.2,9.8
		l-1.5-12.1c0-0.4-4-35.4,40.1-45.7c3.9-0.9,8-1.4,12.1-1.4l0,0c12.4-0.1,25.1,3.8,35.8,11c15.5,10.6,25.8,27.5,28.7,47.3
		c0,0,44.6,184.7,44.5,184.4c2.1,6.9,5.2,10.8,9.3,11.5c6.4,1.2,15-4.9,19.8-11.2C530.8,474.1,531.9,472.6,534.5,472.6z
		 M408.6,413.5c-1.8-7.9-9.3-40.4-14-60.9c-5.9,20.3-15.2,52.7-17.6,60.9H408.6z"/>
	<path class="st2" d="M478.9,319.7c-1-1.9-0.9-5.2,1.5-8c1.1-1.4,3.4-2.2,5.8-2.4c0.8,0,1.6,0,2.5,0.1c1.9,0.3,5.3,1.3,6.8,4.9
		c1.1,2.7,1.6,5.2,1.6,7.7c0,6.3-3.2,11.4-6.8,14.5c-0.7,0.6-2.3,1.6-3.7,2.5c1.2-1.5,2.4-3.2,3.7-6.4c0.6-1.4,1.2-3.2,1.2-5
		c0-1.2-0.3-2.4-1.1-3.5c-1.9-2.7-5.3-2.5-7.5-2.4C480.8,321.7,479.6,321.1,478.9,319.7z M527,491.5c-5.3,24.7-17.9,41.8-35.5,45
		c-18.5,3.3-43-4.8-51.3-38.5l-12.4-48.4l-3.7,0.1h-68.9l-18.7,65.1l4.1,1.6c6.9,2.7,11.5,1.4,14.1-0.1c1.6-0.9,2.9-2.2,4-3.7
		c4.4,2.5,9.3,5.2,12.1,6.7c-0.1,3.8-1,8.4-4.2,11.9c-3.1,3.4-7.8,5.2-14,5.3c-4.9,0.1-11.7-1.6-18.2-3.2c-8.1-2-16.4-4.2-23.3-3.5
		c-16.7,1.7-28.6,7.1-36,11.3c1.6-8.6,8.1-21.9,32.4-30.1l2.4-0.8l47.4-158.6c0.8-2.9,1.1-5.4,1.1-7.5c0-6.5-3.3-9.7-7-12.2
		c-5.3-3.4-12.6-4.6-19.8-0.5c0.2-3.2,0.8-6.7,2.9-10c3.3-5.2,9.4-8.6,18.1-10.1c5.1-0.9,10.1-0.6,14.8,0.8l4.3,1.2l7.9-20.8
		c5.7-15.2-2.9-20.5-6.6-22.7c-5.7-3.7-14.8-5.6-23.5-1.3c2.8-8.4,10.5-19.1,31-23.9c3.3-0.8,6.7-1.1,10.2-1.2l0,0
		c10.4,0,21.1,3.2,30.2,9.4c9.4,6.4,21.3,18.7,24.7,41.2c0.1,0.4,44.7,185.1,44.7,185.1c4.1,13.5,11.4,17.5,16.8,18.5
		C513.8,498.8,521,495.9,527,491.5z M420.7,423.2l-25-109.1l-5.2,17.9l-26.4,91.2H420.7z M546.3,353.2c0,0-5.7-1.7-5.8-1.7
		c-4.3-1.4-12.4-4-12.4-11.7c0-6.8,6.7-10.8,13.2-10.8c4.6,0,9.1,1.7,13.3,4.2c1.7-3.3,3.5-6.9,5.2-10.2c-6.7-3.1-14.6-5.3-21.7-5.3
		c-15.5,0-25.9,10.1-25.9,25.1c0,13.5,5.9,16.5,21.2,20.9c5.4,1.5,15.5,4.4,15.5,13.1c0,7.3-6,12.3-14.5,12.3
		c-6.2,0-12.2-2.8-18.4-7.3c-1.9,3.5-4.1,7.8-5.9,11.1c7.8,4.7,16.4,7.7,25.1,7.7c8.7,0,16.5-2.6,21.9-7.2c5-4.3,7.5-11.1,7.5-20.3
		C564.8,363,559.3,357,546.3,353.2z"/>
</g>
</svg>
