<?xml version="1.0" encoding="utf-8"?>
<!-- Generator: Adobe Illustrator 25.0.0, SVG Export Plug-In . SVG Version: 6.00 Build 0)  -->
<svg version="1.1"
	 id="Layer_1" xmlns:cc="http://creativecommons.org/ns#" xmlns:dc="http://purl.org/dc/elements/1.1/" xmlns:rdf="http://www.w3.org/1999/02/22-rdf-syntax-ns#"
	 xmlns="http://www.w3.org/2000/svg" xmlns:xlink="http://www.w3.org/1999/xlink" x="0px" y="0px" viewBox="0 0 899 836.9"
	 style="enable-background:new 0 0 899 836.9;" xml:space="preserve">
<style type="text/css">
	.st0{fill:#FFFFFF;}
	.st1{fill:#E81828;}
	.st2{fill:#284898;}
</style>
<g transform="matrix(.49333 0 0 .49285 .52223 .49292)">
	<path class="st0" d="M910.6-1L910.6-1C558.5,1.6,108.5,209-0.9,784.7l-0.1,1.2L910.6,1697l910.6-910.2
		C1711.7,158.5,1177.6-3.1,910.6-1z"/>
	<path class="st1" d="M910.9,42.8L910.9,42.8c-328.5,2.4-748.2,195.9-850.4,733c2.8,2.7,850.2,849.4,850.2,849.9
		c0,0,850.2-849.8,850.2-849.8C1658.3,191.6,1160.1,40.8,910.9,42.8z"/>
	<path class="st0" d="M1669,759.1L1669,759.1c-46.4-306.2-328-633.7-757.9-637.5H911h-0.1C480.1,125.6,196.9,453,149.2,759.2
		l-0.8,4.9L911,1523.7L1669.8,764L1669,759.1z"/>
	<path class="st2" d="M911.1,141.3L911.1,141.3c-417.7,3.8-692.7,319.3-741.4,616c7.3,7.3,727.6,724.9,741.3,738.3
		c13.6-13.5,730.4-731,737.7-738.3C1601.2,460.7,1327.9,145.2,911.1,141.3z"/>
	<path class="st0" d="M1418.8,655.4c0,0-4.5-3.3-7.5-5.4c-1.7-2.8-13.7-22.8-13.7-22.8l-58.6,41.9l0.6,9.9c0.2,3.3,0.4,6.4,0.4,9.5
		c0,23-5.8,42.6-16.5,57.9c9-16.1,12.2-30.7,12.2-42.2c0-10.7-2.3-19-4.1-23.7c-12.2-32.7-48.2-52.6-85.5-47.2
		c-12.9,1.9-45.6,11-67.9,50.4c-5.1-21.3-14.5-60-15-62c1.3-1.3,19.7-19.8,32.2-32.5l83.2-0.2V470.5h-27.6v-183
		c-0.3-1.3-27.6-45.2-27.6-45.2l-0.7-1.2l-84-0.3l-0.1,0c-0.8,0.1-64.9,24.3-64.9,24.3L909.2,265h-158c0-0.2-63.2-24.1-63.2-24.1
		c-0.9-0.1-83.6,0.2-83.6,0.2h-1.3l-27.9,45.1c0,0-0.4,179.6-0.4,184.3h-3.5c-10.3-10.9-23.4-20.2-39-27.5
		c-68.8-31.6-165.9-17.2-216.5,32.2c-32.8,32.1-48.9,71.2-42.8,104.7c3.6,20.6,15.7,36.9,33,44.7c23.6,10.6,41.5,6.2,52.5,0.6
		c7.4-3.8,13.5-9.2,18.6-15.2v141.5c-18.1,21.2-28.8,43-28.8,62.5c0,5.9,0.8,11.8,2.7,17.1c5.6,17.1,19.8,28.8,38.9,32.1
		c21.4,3.8,44.7-2.9,62.5-17.8c17.2-14.5,27.1-35.3,27.1-56.9V678.1c36.2-13.7,70.7-30.5,93.5-57.9v196.9c-0.1,1.5-0.4,3-0.4,4.4
		c0,13.7,6.2,25.7,17.5,33.3c14.5,10,35.9,10.7,52,1.7c13.8-7.8,21.6-21.2,21.6-37c0-0.8,0-1.6-0.1-2.6c0,0,0.1-88.2,0.1-92.7
		c0.3-0.2,0.7-0.3,1-0.5l0.2,0.7v87.1c0.3,23.3,13.6,40.8,35.6,48.4c-0.3,1.7-0.8,3.6-1.2,5.5h-289l-1.1,0.1
		c-21.2,2.8-35.6,18.5-35.6,38.7c0,0.7,0.1,1.4,0.1,2.1c1,20.7,17.1,36.9,37.6,37.5h260.2c-25.4,46.9-49.7,71.4-68.4,90
		c-22.6,22.2-38,37.6-38,75.4c0,3.3,0.1,6.5,0.4,10.1l0.1,2.2h302c0.5-12.8-1.2-22.6-2.8-31.2c0,0-2.1-22.2-2.1-22.3
		c0.6-7.7-2.9-12.6-7.3-18.7c-3.8-5.4-8.3-11.4-9.8-20.2l-4.5-6.5c0,0-6.3-12.5-6.3-12.7c0.3-4.3-1.5-7.2-4.9-11.9
		c0,0-7.3-14.4-7.3-14.7c-1.7-10.1,0.6-16.6,2.7-22.4c1.7-5.1,3.4-9.4,2.1-16.6v-0.5h10.6c0.3,1.9,0.6,3.7,0.6,5.4
		c0,6.3-1.8,11-3.3,15.4c-1.4,4-2.7,7.4-2.7,12.1c0,1.4,0.1,2.9,0.3,4.7l5.6,10.6c3.3,4.5,7,9.5,7,16.8c0,0.7,0,1.4-0.1,2.1l3.4,4.4
		c0,0,7.4,12.5,7.3,12.2c1.2,6.3,4.4,10.9,8,15.8c4.8,6.6,10.2,14.2,9.2,25.7l2,19.7c1.7,9.1,3.5,19.4,3,33h0.8v14.3
		c-3,2.4-19.8,16.2-21.3,37.9c0,0.9-0.1,2-0.1,3c0,14.7,7.4,29.3,22.1,43.5l-0.7,32.9v2.4h67.4v-37.1c14-12.6,21.4-27.1,21.4-41.8
		c0-1,0-2-0.1-3c-1.5-21.8-18.1-35.5-21.3-37.9v-14.3h313.5l0.1-2.2c0.2-3.6,0.3-7,0.3-10.1c0-37.8-15.5-53.2-38-75.4
		c-18.6-18.6-42.9-43-68.3-90h174c15.2,19.7,35.2,30.4,56.8,29c21.5-1.5,40.4-14.8,49.1-34.5l0.7-1.5l0.3-1.5c6-25.1-1-40.8-8-49.6
		c-15.4-19-41-20.5-51.3-20.2h-86.3c8.3-1.3,16.3-3.4,24.1-6.6c14.7-5.9,26.9-15.1,37.8-25.4c41.4,36.4,74.6,35.1,95.2,27.5
		c30.7-11.5,50.9-44.7,54.2-70.2c0.8-6,1.3-11.7,1.3-17.2C1502.1,716.1,1458,684,1418.8,655.4z M722.4,639.1
		c-3.1-2.4-6.4-4.5-10-6.3c-16.6-7.8-34-5.9-48-1.9v-41.6l26.6,0.1c0,0,24.2-118.4,25-122.3l0,0h100.3v23.4
		c-47.2,1.7-87.7,50.1-92.7,112.3L722.4,639.1z M854.9,592.2c0,0-2.7,2.4-6.4,5.6c-8.7,7.8-23.7,20.7-24.2,20.4
		c0,0.1,13.5,43.6,13.5,43.6v0.3c0,0.5-0.2,0.9-0.6,1.3c-0.6,0.3-1.2,0.2-1.6-0.1c0,0-32.6-25.1-32.6-26.4
		c-0.1,0.1-34.1,26.4-34.1,26.4c-0.5,0.3-1.2,0.5-1.7,0.1c-0.3-0.3-0.6-0.8-0.6-1.3c0-0.1,0.1-0.2,0.1-0.3c0,0,13-42.1,13.8-42.2
		c-0.1,0-31.1-27.3-31.1-27.3c-0.2-0.2-0.5-0.7-0.5-1c0-0.2,0-0.3,0.1-0.6c0.2-0.5,0.7-0.8,1.3-0.8l34.5,0.9l15.9-45.2
		c0.1-0.6,0.7-0.9,1.3-0.9l0,0c0.6,0,1.2,0.4,1.4,0.9c0,0,14.5,41.5,14.5,44.2c0.1,0.1,13.6,0.1,24,0.1h6.5h5.4
		c0.6,0,1.2,0.4,1.4,0.8C855.6,591.2,855.4,591.8,854.9,592.2z M1171.9,695.9c-5.5,12.2-10,26.8-12.9,44.1V705
		c-0.8-9.4-3-17.2-6.2-23.6l0,0C1160.2,687,1167.1,692.4,1171.9,695.9z M1009.6,490.5v-23.4l0,0h100.3c0.2,1.5,4.1,20.4,8.6,42.8
		c-4.3,10.6-18,44.9-23.4,58.3C1080.7,523.7,1047.4,491.9,1009.6,490.5z M1122.2,636.9c-0.1,0.1-34.1,26.4-34.1,26.4
		c-0.5,0.3-1.2,0.3-1.7,0c-0.3-0.3-0.6-0.7-0.6-1.2c0-0.1,0-0.4,0.1-0.5c0,0,12.9-42.1,13.8-42.1c-0.1-0.1-31.1-27.5-31.1-27.5
		c-0.3-0.2-0.5-0.6-0.5-1c0-0.1,0-0.4,0.1-0.5c0.1-0.6,0.7-0.9,1.3-0.9l34.5,0.9l15.8-45.2c0.2-0.6,0.8-0.9,1.4-0.9l0,0
		c0.6,0,1.2,0.3,1.4,0.9c0,0,14.5,41.6,14.5,44.2v0.1h35.8c0.6,0,1.2,0.3,1.3,0.9c0.2,0.6,0.1,1.2-0.4,1.5c0,0-30,26.5-30.6,25.9
		c0,0.1,13.4,43.6,13.4,43.6c0.1,0.1,0.1,0.4,0.1,0.5c0,0.5-0.2,0.8-0.6,1.2c-0.5,0.3-1.2,0.3-1.7,0
		C1154.7,663.3,1122.2,638.2,1122.2,636.9z M1147.2,865.5c15.4-0.7,29.9-5.2,41.6-11.7c4.2-2.3,6.3-4.9,9.4-7.3
		c19.7,10.1,38.6,16.5,56.9,19.1H1147.2z"/>
	<path class="st1" d="M443,832.8c13.8-11.6,21.5-27.3,21.5-44.2V666.1c46-15.9,88.9-35,108.4-74.9c5.8-12.1,9.8-25.7,10.8-42
		c0.7-11.1-0.5-21.4-3.1-31.1c-5.1-18.8-16.5-34.8-33.4-47.3c-6.4-4.9-13.6-9.3-21.6-13c-23.3-10.7-50.7-15.6-78.2-15.1l0,0
		c-45.8,0.8-92,16.4-120.5,44.1c-29,28.4-43.3,62.2-38.3,90.5c2.8,15.5,11.3,27.2,23.8,32.8c14.9,6.7,28,7.1,39.1,1.2
		c22.5-12.1,28.2-45.6,28.4-47.1l0.2-1.9h-1.9c-5.7,0.1-12.7-1-14-7.3c-0.2-0.7-0.2-1.5-0.2-2.3c0-11.1,13.9-28.9,32.7-37.7v242
		c-19.8,20.4-30.7,42-30.7,59.6c0,4.1,0.5,7.8,1.6,11.3c3.5,10.6,12.3,17.6,24.9,19.8C409.4,850.4,428.7,844.7,443,832.8z
		 M465.9,502.7l7.6-0.5c2.1-0.1,4.1-0.2,6-0.2v0c29.2-0.1,45.6,14.6,48.8,43.5c3.3,30.6-17,53.9-52.7,60.6l-9.7,1.9V502.7z
		 M1418,931.2c-12.3,27.9-54.8,37.9-81.3-4.9H411.9c-24.9-0.7-29.4-39.4-0.3-43.1l0,0h964.7C1392.3,882.7,1428.4,888.2,1418,931.2z
		 M1409.2,668.5l-10.3-7.6c0-0.2-5.1-8.8-5.1-8.8l-0.9-1.5l-36.4,25.9c3.5,69.2-32.2,98.1-53.9,109.2c-20.8,10.8-40.8,11.6-45.9,7.4
		c-1.2-0.9-1.1-1.7-0.9-2.4c50.3-31.8,73.2-71.2,60.7-104.5c-9.7-25.8-38.2-41.3-68.1-37c-16.2,2.3-69.7,17.6-76.7,116
		c1.6,17.9-5.5,26.1-12,27.7c-6.6,1.6-13.6-2.8-17-10.7l0.1-77.2c-2.1-24.1-15.4-31.4-27.2-30.5c-13.5,1.3-27,13.8-25.5,30.7v61.6
		c-1.7,13.3-10.1,24-22.3,28.4c-11.2,4-23.3,1.9-31.5-5.8c-7-6.4-17.3-22.6-7.8-57.9c25.2-49,34.6-89.9,34.8-121.9
		c0.1-14-1.5-26.1-4.4-36.3c-2-6.9-4.3-13.1-7.3-18.3c-7.8-13.3-18.7-20.7-30.8-21.2c-13.1-0.1-27.9,0.9-37.8,11.4
		c-8.5,9.1-12.1,24.1-10.5,44.4V758c-4.3,22.7-13.7,30.6-20.9,33.2c-8.4,2.9-18.4,0.1-27.3-7.6c0-0.2-1.3-2.6-1.3-2.6
		c-2.8-5.6-5.6-11.1-5.6-22.8c0-6.3,0.8-14.5,2.9-25.6c23.4-52.5,35.5-99.1,35.5-134.2c0-19.3-3.6-35.1-11.2-46.4
		c-8.1-12.2-20.7-18.4-36.4-18c-13.7,0.3-23.8,4.1-30.9,11.5c-9.2,9.8-13.3,25.5-12.3,47.9v178.4c0,9.2-3.4,16.2-9.9,19.8
		c-6,3.4-13.8,3-19.8-0.8c-5.8-3.7-8.7-10-8.1-17.8v-66.4c0.5-14-4.6-25.1-14.1-30.6c-7.8-4.5-17.6-4.3-25.2,0.6
		c-9.2,5.7-14,16.9-13,30.5v71.4c-0.3,10.8-9.5,15.9-18.6,16.2c-9.9,0.2-20.5-5.2-21.4-16.3v-77c-3.4-28.3-13.3-46.4-29.2-53.9
		c-22.8-10.8-49.9,3.3-57.2,7.6V548.2c0.2-1.6,0.4-3.4,0.4-4.9c0-11.6-4.5-20.7-12.9-25.8c-4.8-3-10.5-4.4-16.3-4.2l0,0
		c-5.8,0.2-11.7,1.9-16.8,5.1c-10,6.4-14.9,17.2-13.4,29.7v269.1c-1.4,10.2,2.1,19,10,24.3c9.7,6.5,24.3,7,35,0.9
		c9.2-5.1,14-13.8,13.4-24.5v-96.1c-1.2-5.6,5.8-12.3,14.1-14.1c3.6-0.8,15.9-2,19.7,14.4l-0.1,89.5c0.3,17.4,10.2,29.7,28,34.3
		c23.5,6.2,54.8-2.4,65-17.3c14.1,14,29.3,21.2,45.4,20.9c25.8-0.2,44.2-18.1,47.3-21.3c12.3,12.8,26.5,20,42.5,20.6
		c32.2,1.4,59.5-22.1,63.2-25.4c52.1,52.9,114.7,7,119.2,3.5c28.5,30,64.7,26.4,89.2,12.7c6.7-3.7,12.4-8.6,14-12.6
		c41.8,24.4,79.7,30.5,112.6,17c61.9-25.6,86.2-110.4,88.9-120.1c25,6.9,36.3,29,38.2,46.4c0.2,1.9,0.2,3.7,0.2,5.5
		c0,11.4-4,20.2-10.7,23.5c-8.3,4-20.1-1.3-33.3-14.7c-12.6,3.5-29.4,32.7-30.1,33.8c36.4,34.1,63.6,33.4,80.1,27.2
		c26.4-9.8,41.7-39.3,44-57.1c0.7-5.2,1-10.2,1-15.1C1485.9,724.4,1448.5,697.2,1409.2,668.5z M904.2,679.8l-1.9,0.4V574.1l0.9-0.5
		c1.1-0.5,2.2-0.7,3.3-0.6l0,0c1.1,0.1,2.1,0.4,3.1,0.9c7.9,4.9,10.9,26.8,11.5,38.7C918.4,657.1,913.1,678.5,904.2,679.8z
		 M1011.9,679.8l-1.9,0.4V574.1l0.9-0.5c1-0.5,2.1-0.7,3.2-0.6l0,0c1.1,0.1,2.1,0.4,3.1,0.9c7.9,4.9,11,26.8,11.5,38.6
		C1026.1,656.6,1020.5,678.5,1011.9,679.8z M1220.3,752.1c-1.5-0.9-2.2-2.2-2.6-4.1c-1.5-7.9,3.8-24.5,14.9-37.7l0.2-0.3
		c5-9,15.4-16.6,26.3-19.4c3.1-0.8,6.1-1,8.7-0.9v0c2.6,0.2,4.9,0.8,6.6,1.9c0,0.1,2,5.4,2,5.4c0.1,0.9,0.1,2.1,0.1,3.3
		c0,9.4-3.9,22.9-12.1,32.6c-10.2,11.7-27,21.4-37.6,21.5L1220.3,752.1z"/>
</g>
</svg>
