<?xml version="1.0" encoding="utf-8"?>
<!-- Generator: Adobe Illustrator 25.0.0, SVG Export Plug-In . SVG Version: 6.00 Build 0)  -->
<svg version="1.1"
	 id="Layer_1" xmlns:cc="http://creativecommons.org/ns#" xmlns:dc="http://purl.org/dc/elements/1.1/" xmlns:rdf="http://www.w3.org/1999/02/22-rdf-syntax-ns#" xmlns:svg="http://www.w3.org/2000/svg"
	 xmlns="http://www.w3.org/2000/svg" xmlns:xlink="http://www.w3.org/1999/xlink" x="0px" y="0px" viewBox="0 0 601.7 846"
	 style="enable-background:new 0 0 601.7 846;" xml:space="preserve">
<style type="text/css">
	.st0{fill:#FDB827;}
</style>
<g>
	<path class="st0" d="M564,280.8L564,280.8c0-43.1,6.1-89.9,33.1-136.4C525.8,126.7,470.8,59.5,453,0
		c-29.6,28.9-58.6,35.7-104.5,35.7L41.7,35.2L0,139.6c25.2,10.9,41.7,34.8,41.7,63.5v478.2c0,28.7-16.5,52.6-41.7,63.5L41.7,846
		h117.1l41.8-101.2c-25.2-10.4-41.8-35.2-41.8-63.5V492.8l189.6,0.1c45.9,0,74.9,11.3,104.5,40.2c19.3-59.4,77.4-103.8,148.7-121.5
		C574.6,365.1,564,323.9,564,280.8z M464.7,336.9c0,33.7-19,52.1-62.5,52.1v0H159.4V136h242.7c38.4,0,62.5,24.2,62.5,56.4V336.9z"/>
</g>
</svg>
