<?xml version="1.0" encoding="utf-8"?>
<!-- Generator: Adobe Illustrator 25.0.0, SVG Export Plug-In . SVG Version: 6.00 Build 0)  -->
<svg version="1.1"
	 id="Layer_1" xmlns:cc="http://creativecommons.org/ns#" xmlns:dc="http://purl.org/dc/elements/1.1/" xmlns:rdf="http://www.w3.org/1999/02/22-rdf-syntax-ns#"
	 xmlns="http://www.w3.org/2000/svg" xmlns:xlink="http://www.w3.org/1999/xlink" x="0px" y="0px" viewBox="0 0 580.4 774"
	 style="enable-background:new 0 0 580.4 774;" xml:space="preserve">
<style type="text/css">
	.st0{fill:#FFC425;}
</style>
<g transform="translate(110.29 -432.03)">
	<path class="st0" d="M16,432c-73.9,0-126.6,54-126.3,124.6V696c0,47.8,40.2,95,96.5,95h225.3c15.5,0,19.7,14.2,19.7,19.6
		c0,1.9-0.2,122.6-0.2,122.6c0.1,32.1-18.7,57.4-52.1,57.4h-32.8V821.5H67.5v0.1h0l0,168.9h-82.7c-14-0.5-16.5-13.7-16.5-19.7
		c0-4.1-0.1-57.1-0.1-76.1c0-20.3,24.9-26.8,30.9-28.4c0.8-0.2,1.3-0.6,1.2-1.5c-0.1-0.7-0.6-1-1-1h-109.6c0,40,0,117.3,0,117.4
		c-0.2,41.5,34,88,83.9,88h88.5h5.4c0,2.5,0,82.7,0,84.8c-0.2,7-1.4,13.2-3.3,18.6c-7.2,19.2-25,28.5-33.1,30.3
		c-2.1,0.4-2.1,2.8-0.4,3.1c0.1,0,0.1,0.1,0.2,0.1h262.8l2.3,0c111.6,0,174-54.3,174-164.3V751.2c0-111-62.6-163.7-173.1-163.7
		c0,0-263.5,0.1-265.8,0.1c-2.1,0-2.2,3.3,0,3.6c2.1,0.3,36.3,3.1,36.3,34.5l0,86.7c-24.6,0-78.4,0.1-80.8,0
		c-13.3-0.2-17.8-9.7-18.5-17.1c0-20.4,0-123.9,0-125.3c0.8-39.3,22.1-59.4,59-59.4l178.8-0.1c10.3,0,19.3,5.1,19.3,17.7
		c0,12.7-13.5,16.4-15.8,17.5c-1,0.6-1.2,2.2-0.1,2.2h99.9l0-32.9c-0.8-24.2-16.8-83-91.9-83L16,432L16,432z M146.1,660.7H304
		c53.1,0,87.5,38.2,87.5,87.5v306.2c0,51.1-40.1,78.4-90.8,78.4c-46.5,0-127.2,0.1-154.6,0.1v-63.7h41.6
		c73.9,0,122.3-53.5,122.3-123.7c0,0,0-136.3,0-144.6c0-30.2-24.7-88.4-96.5-88.4h-67.3L146.1,660.7L146.1,660.7z"/>
</g>
</svg>
