<?xml version="1.0" encoding="utf-8"?>
<!-- Generator: Adobe Illustrator 25.0.0, SVG Export Plug-In . SVG Version: 6.00 Build 0)  -->
<svg version="1.1" id="Layer_1" xmlns="http://www.w3.org/2000/svg" xmlns:xlink="http://www.w3.org/1999/xlink" x="0px" y="0px"
	 viewBox="0 0 574.4 586" style="enable-background:new 0 0 574.4 586;" xml:space="preserve">
<style type="text/css">
	.st0{fill:#C4CED4;}
	.st1{fill:#FFFFFF;}
	.st2{fill:#005C5C;}
	.st3{fill:#0C2C56;}
	.st4{fill:#E63047;}
</style>
<g id="XMLID_1_">
	<g>
		<path class="st0" d="M287.6,0C129,0,0,131.3,0,292.7C0,454.4,129,586,287.6,586c158.2,0,286.9-131.6,286.9-293.3
			C574.4,131.3,445.7,0,287.6,0z"/>
		<path class="st1" d="M287.2,12.3c-154.1,0-275.7,125.4-275.7,282.3c0,157.2,120,280.7,274.1,280.7C439.3,575.3,563,450.2,563,293
			C562.9,136.1,440.9,12.3,287.2,12.3z"/>
		<path class="st2" d="M287.6,23.8c-145.4,0-263.7,120.6-263.7,268.9c0,148.2,118.3,268.8,263.7,268.8c145,0,263-120.6,263-268.8
			C550.6,144.4,432.6,23.8,287.6,23.8z"/>
		<path class="st3" d="M287.6,30.6c-141.7,0-257,117.2-257,262.1c0,145,115.2,262.1,257,262.1c141.1,0,256.3-117.2,256.3-262.1
			C543.9,147.7,428.6,30.6,287.6,30.6z"/>
		<path class="st1" d="M196.7,74.8l14.6,57.6l9.3-4l-3.3-11.9l7.9-3.3l6,11.3l8.6-4L212,68.9L196.7,74.8z M215.4,109.3l-7.3-25.8
			l1.3-0.7l11.9,23.8L215.4,109.3z M276.5,56.4h25v7.9h-7.9v51h-9.9l0.7-51h-7.9V56.4z M170.9,149.7l5.3,6L161,170.2l-39.7-42.4
			l15.2-14.5l5.3,5.3l-7.9,7.9l9.9,10.6l7.9-7.3l5.3,5.3l-7.9,7.9l13.9,14.6L170.9,149.7z M416,171.6L400.8,157l38.4-43.7l7.3,6.6
			l-33.8,38.4l7.9,7.3L416,171.6z M440.6,206.6l51.6-25.8l9.3,18.5l-6.6,3.3l-5.3-9.9l-13.2,6.6l5.3,9.9l-6.6,4l-5.3-9.9l-17.9,9.3
			l5.3,9.9l-7.3,3.3L440.6,206.6z M74.9,196.7c0.7,0,2.6-5.3,2.6-5.3c4-8.6,6-8.6,14.6-4.6l6.6,2.6l-4,9.3l-7.9-3.3
			c-1.3-0.7-2-0.7-2.6-0.7c0,0.7-2,5.3-2,5.3c-0.7,1.3,0,2,1.3,2.6l8.6,4c1.3,0.7,2.6-0.7,4.6-2l6.6-7.9c4-2.6,6.6-2,9.9-0.7
			l11.3,5.3c8.6,4,9.9,6,6,14.6c0,0-2,5.3-2.6,5.3c-4,9.3-6,9.9-14.6,6l-9.9-4l4.6-9.3l10.6,4.6c1.3,0.7,2,0.7,2.6-0.7l2-5.3
			c0-0.7-0.7-1.3-2-1.3l-10.6-5.3c-2-0.7-4,2.6-6,4l-6,4c-3.3,2.6-6.6,3.3-10.6,2l-7.3-3.3C72.3,208.6,71,206,74.9,196.7z
			 M375.1,82.3l-18.5,47l-9.3-3.3l18.5-47.7l-7.4-2.7l2.7-7.3l23.2,9.3l-2.6,7.3L375.1,82.3z M504.8,376.9c0-0.2-2,5.1-2,5.8
			c-4,9.3-6,9.9-14.6,6l-8.6-3.3l4-9.3l9.3,4c1.3,0.7,2.6,0.7,2.6-0.7c0.7,0,2-5.3,2-6s-0.7-0.7-2-1.3l-11.3-4.6c-1.3-0.7-4,4-6,6
			l-5.3,4.6c-3.3,2.6-6.6,2-9.9,0.7l-7.9-3.3c-8.6-4-9.9-6-6-15.2c0,0,2-5.3,2-6c3.3-8.6,6-8.6,14.6-5.3l6,2.7l-3.3,9.3l-7.9-3.3
			c-1.3-0.7-2-0.7-2.6,0c0,0-2,5.3-2,6s0.7,1.3,2,2l7.9,3.3c2,0.7,2.7,0.7,4.6-0.7l6.6-7.9c3.3-2.7,6.6-4,9.9-2.7l11.3,4.6
			C506.8,366.3,508.1,367.6,504.8,376.9z M261.7,470.1l9.9,1.3l-6.6,58.2l-9.9-1.3L261.7,470.1z M218.1,457.5l-15.2-7.3l-24.5,53
			l9.3,4.6l9.9-22.5c0.6,0.7,6.6,3.3,6.6,4c0.7,0.6,0.7,1.3,0,2.6l-9.3,19.2l9.3,4.6l7.9-18.5c2-3.9,2.6-7.3,0-9.9
			c3.9,0,5.9-2.7,7.9-7.3l3.3-6.6C226.6,464.8,226.6,461.5,218.1,457.5z M214.7,468.1l-4.6,10.6c-0.7,1.3-1.3,2-2.6,2
			c-0.7,0-6-2.7-6.6-3.3l7.3-15.9c0.7,0,6,2.6,6.6,3.3C216,465.4,215.4,466.1,214.7,468.1z M334.6,465.4l11.3,57.6l-8.7,1.3
			l-14.6-27.1l6,29.1l-8.6,2l-11.3-57.6l8.6-2l14.6,27.1l-5.3-29.1L334.6,465.4z M447.2,421.7c1.4-3.9-0.6-6.6-4.6-9.9l-5.3-4.6
			c-6.7-6.6-10.6-6-16.6,1.3l-10.6,11.9l43.7,38.4l6-7.9L441.9,435c0.7-0.7,4.6-4.6,5.3-5.3c0.7,0,1.3,0,2,1.3l15.9,13.9l6.6-7.4
			l-14.6-13.2C453.2,421,451.2,419.7,447.2,421.7z M439.9,424.4c0,0-4,4.6-4.6,5.3L422,417.8c0.7-0.7,4.6-4.6,4.6-5.3
			c1.3-0.7,2,0,4,1.3l8,7.3C439.9,422.4,440.6,423.1,439.9,424.4z M411.6,485.3l4,6.6l-18.1,10.6l-29.1-51l17.9-10.6l4,6.6l-9.3,6
			l7.3,12.6l9.3-5.3l4,6.6l-9.9,5.3l10.6,17.9L411.6,485.3z M136.6,386l-51.7,24.5l-4-7.9L112,388l-0.7-1.3l-33.1,8.6l-2.6-4.6
			l27.8-21.2v-0.7L73,383.4l-4-7.9l51.7-24.5l5.3,10.6L104.1,380v0.7l27.2-6.6L136.6,386z M114.7,451.4l6.6,7.3l9.3-7.9l6,6
			l-7.3,9.9l6.6,7.3l35.7-47.1L159.7,415L114.7,451.4z M141.8,450.9l-5.3-5.3l20.6-16.6l1.3,0.7L141.8,450.9z"/>
	</g>
	<g>
		<path class="st2" d="M287.6,134.1c-85.6,0-155.3,71.1-155.3,158.5c0,42.5,16.1,82.4,45.4,112.3c29.3,29.9,68.3,46.3,110,46.3
			c41.4,0,80.2-16.4,109.4-46.3c29.2-29.9,45.3-69.8,45.3-112.3C442.2,205.3,372.8,134.1,287.6,134.1z"/>
		<path class="st1" d="M287.6,136.5c-84.8,0-153,70.2-153,156.2c0,86.7,68.2,156.2,153,156.2c84.1,0,152.3-69.5,152.3-156.2
			C439.9,206.7,371.7,136.5,287.6,136.5z"/>
		<ellipse class="st4" cx="287.6" cy="292.7" rx="88.3" ry="90.3"/>
		<path class="st1" d="M287.6,202.4c-26,0-49.3,11.5-65.5,29.8l6.6-2l1.2,0.6l2-5.3l1.7,0.9l-2.2,6.5l-1.5-1.5l-6.6,2.6l-1.5-1.5
			c-14,16-22.5,37.1-22.5,60.1c0,49.8,39.6,90.3,88.3,90.3s88.3-40.5,88.3-90.3C375.9,242.9,336.3,202.4,287.6,202.4z M257.5,239.4
			l2.5,0.8l0.7,7.1l-2.2-0.7l-6,3.3l-3.3-0.8l6.6-3.6l2.4,0.6L257.5,239.4z M250.3,242.7l0.7-6l2.4,0.8l-0.7,7.2l-2.2-1.5l-6.6,3.3
			l-2.5-1.6l7.1-2.8L250.3,242.7z M242.4,239.3l1.3-5.9l2.4,0.8l-1.4,6.4l-2.2-0.7l-6.6,2l-2.7-0.9l7.3-2.9L242.4,239.3z
			 M234.9,351.7l-1.7,0.9l-2.1-5l1.7-1.7L234.9,351.7z M233.9,234.2l1.8,1.2l1.3-5.9l2.5,0.8l-2.1,6.4l-1.5-0.7l-7.3,2l-1.7-1.7
			L233.9,234.2z M232.6,361.1l-2.8-1.4l-2.1-1.4l-0.6-1.1l-0.1-0.3l-0.3-0.5l0.1,0.1l-1.2-4.3l1.7-1.7l2.2,5.1l-1.8,1.2l6.5,2.6
			L232.6,361.1z M237.9,356.5l-0.1-0.1l-7.1-2.8l1.9-0.9h0.1l7,2.1L237.9,356.5z M243.2,353.2l-6.4-3.5l1.5-1.5v-5.3l1.7-0.9
			l0.7,5.8l-1.6,0.5l6.5,3.2L243.2,353.2z M249.8,349.9l-7.2-4.3l2.3-0.8v-5.3l2.5-0.8v5.1l-1.8,1.2l6,4L249.8,349.9z M255.8,347.2
			l-6.4-4.3l2.2-1.5l0.7-5.3l3.2-0.8l-1.5,5.8l-1.7,0.6l5.9,3.9L255.8,347.2z M264.3,343.9l-6.5-4.3l3.3-0.8l5.7,4.3L264.3,343.9z
			 M342.5,224.2l2.9,1.4l2.5,2.5l0.1-0.1l1.5,5.1l-1.7,1.7l-2.2-5.1l1.8-1.2l-6.5-2.6L342.5,224.2z M337.2,228.9l7.1,2.8l-1.7,1.7
			l-0.1-0.1l-0.3-0.1l2,4.6l-1.7,1.7l-2.2-5.1l1.4-1.4l-6.1-2.5L337.2,228.9z M331.9,232.8l6.4,3.6l-1.6,0.8v5.2l-1.7,1.7l-0.7-5.9
			l1.8-1.2l-6.8-3.4L331.9,232.8z M325.3,235.5l7.2,4.3l-2.3,0.8v5.3l-2.5,1.6v-5.9l1.8-1.2l-5.9-3.3L325.3,235.5z M319.4,238.8
			l6.5,4.3l-2.3,0.8l-0.7,5.3l-3.2,0.8l1.5-5.8l1.7-0.6l-6-4L319.4,238.8z M312,243.5l5.2,3l-3.2,0.8L312,243.5z M317.6,346
			l-2.5-0.8l-0.7-6.5l2.2,0.7l5.9-4l3.3,0.8l-6.5,4.3L317,340L317.6,346z M324.8,342.6l-0.7,6l-2.4-0.8l0.7-6.4l2.2,0.7l6.6-2.6
			l2.7,0.9l-7.3,2.9L324.8,342.6z M332.8,346.6l-1.3,6l-2.4-0.8l1.4-7.2l2.2,1.4l6.6-2.6l2.7,0.9l-7.3,2.9L332.8,346.6z
			 M339.4,350.6l-1.3,6l-2.4-1.6l2.2-6.5l1.5,1.5l7.2-2l1.9,1l-7.3,2.2L339.4,350.6z M346.4,355.8l-1.2-1.2l-2,6l-1.7-1.7v-0.1
			l2.1-6.3l1.5,1.5l6.6-2l0.8,0.8c-0.4,0.4-0.8,0.9-1,1.5L346.4,355.8z"/>
		<path class="st0" d="M249.8,372.7c-10,6.6-60.3,34.4-60.3,34.4s19.2-51.6,25.2-65.5C217.3,348.9,237.9,369.4,249.8,372.7z
			 M214.7,243.1c2.6-7.3,23.2-27.8,35.1-31.1c-10-6.7-60.3-33.8-60.3-33.8C188.9,178.8,208.7,229.1,214.7,243.1z M359.7,243.7
			c6-14.6,25.8-64.9,25.2-64.9c0,0-50.3,27.1-60.3,33.8C336.6,215.2,357.1,235.7,359.7,243.7z M326,372.8
			c9.9,6.6,58.3,35.1,58.3,35.1c0.7-0.7-17.9-52.3-23.8-66.2C357.8,348.9,337.2,369.4,326,372.8z"/>
		<path class="st2" d="M375.9,292.7c0-27.4-12-52-31-68.6l40-45.2c0,0-44,24.1-58.3,32.9c-11.8-6-25.1-9.3-39.1-9.3
			c-22.4,0-42.8,8.5-58.4,22.6l-39.6-46.9c-0.6,0.6,18.5,49.1,24.8,64c-9.5,14.4-15.1,31.8-15.1,50.5c0,27.1,11.7,51.4,30.3,68
			l-40,46.5c0,0,44.1-24.8,58.9-33.6c11.8,6,25.1,9.4,39.1,9.4c22.5,0,43.1-8.7,58.7-22.9l38,47.8c0.6-0.6-16.9-49.5-23.3-65
			C370.4,328.5,375.9,311.2,375.9,292.7z M287.6,381.1c-47.7,0-86.5-39.7-86.5-88.5s38.8-88.5,86.5-88.5s86.5,39.7,86.5,88.5
			S335.3,381.1,287.6,381.1z"/>
		<path class="st0" d="M316.6,262.9c-1.9-17.7-29.1-145.7-29.1-145.7s-27.8,128-29.7,145.7c-18.8,1.9-223.3,29.7-223.3,29.7
			s204.5,27.8,223.3,29.7C259.7,340,287.5,468,287.5,468s27.2-127.9,29.1-145.7c18.8-1.9,224.6-29.7,224.6-29.7
			S335.4,264.8,316.6,262.9z"/>
		<path class="st2" d="M287.6,292.7L287.6,292.7L287.6,292.7c-2.6,2.7-21.8,23.2-29.1,29.8c-14.6-1.3-223.8-29.8-223.8-29.8H287.6
			c-3.4-2-22.6-21.9-29.8-29.1c1.3-15.2,29.8-146.3,29.8-146.3V292.7L287.6,292.7z M287.6,292.7L287.6,292.7l0,175.4
			c0,0,27.8-131.1,29.1-146.3C310.1,314.5,290.2,295.3,287.6,292.7z M541.2,292.7c0,0-210-28.4-224.5-29.7
			c-7.3,6.6-27.1,27.1-29.1,29.7l0,0H541.2z"/>
	</g>
</g>
</svg>
