<?xml version="1.0" encoding="UTF-8" standalone="no"?>
<svg
   xmlns:dc="http://purl.org/dc/elements/1.1/"
   xmlns:cc="http://creativecommons.org/ns#"
   xmlns:rdf="http://www.w3.org/1999/02/22-rdf-syntax-ns#"
   xmlns:svg="http://www.w3.org/2000/svg"
   xmlns="http://www.w3.org/2000/svg"
   xmlns:sodipodi="http://sodipodi.sourceforge.net/DTD/sodipodi-0.dtd"
   xmlns:inkscape="http://www.inkscape.org/namespaces/inkscape"
   version="1.1"
   id="svg2"
   xml:space="preserve"
   width="349.06668"
   height="486.66666"
   viewBox="0 0 349.06668 486.66666"
   sodipodi:docname="san-francisco-giants-seeklogo.com.eps"><metadata
     id="metadata8"><rdf:RDF><cc:Work
         rdf:about=""><dc:format>image/svg+xml</dc:format><dc:type
           rdf:resource="http://purl.org/dc/dcmitype/StillImage" /></cc:Work></rdf:RDF></metadata><defs
     id="defs6" /><sodipodi:namedview
     pagecolor="#ffffff"
     bordercolor="#666666"
     borderopacity="1"
     objecttolerance="10"
     gridtolerance="10"
     guidetolerance="10"
     inkscape:pageopacity="0"
     inkscape:pageshadow="2"
     inkscape:window-width="640"
     inkscape:window-height="480"
     id="namedview4" /><g
     id="g10"
     inkscape:groupmode="layer"
     inkscape:label="ink_ext_XXXXXX"
     transform="matrix(1.3333333,0,0,-1.3333333,0,486.66667)"><g
       id="g12"
       transform="scale(0.1)"><path
         d="M 27.1563,3339.36 C 170.816,3407.8 323.734,3552.63 377.969,3650 c 138.48,-65.41 1411.651,-55.76 1558.841,0 88.78,-129.77 184.18,-202.33 318.66,-246.27 -12.59,-124.53 -8.72,-168.6 31.88,-268.44 h -350.54 l -147.19,164.35 H 541.184 L 377.656,3155.71 v -662.06 l 163.02,-157.83 206.41,-8.59 c 0,245.81 2.543,292.82 -178.336,340.86 60.215,120.59 72.328,134.73 88.172,285.11 154.836,-51.97 1754.648,-23.64 1824.198,16.22 -11.13,-156.69 77.37,-454.34 136.86,-565.41 h -350.6 c -17.81,121.87 -94.75,216.04 -217.15,238.94 h -952.57 v -315.72 c 0,0 741.19,-20.17 839.13,13.4 48.71,-126.54 223.98,-312.11 350.54,-363.49 -42.49,-258.25 -34.58,-699.87 0,-967.74 -137.89,-68.459 -278.7,-209.048 -350.5,-350.818 -174.33,48.027 -839.17,24.387 -839.17,24.387 v -198.41 c 34.31,-135.329 107.03,-167.899 234.61,-179 0,0 -102.47,-192.707 -106.64,-305.559 L 626.66,0 c -2.637,110.07 -106.793,305.559 -106.793,305.559 115.176,5.402 209.696,73.421 227.219,178.972 v 198.418 c 0,0 -210.219,7.871 -369.137,-24.39 -48.082,107.89 -223.41,301.152 -350.7927,350.821 29.4218,77.5 15.7656,561.6 -27.1563,663.64 h 377.969 l -0.293,-492.42 147.312,-171.4 h 222.137 v 1015.69 c 0,0 -194.434,9.63 -369.117,-3.68 -50.211,97.69 -200.18,255.04 -350.8322,329.34 47.0859,178.83 51.1875,819.99 0,988.79 z M 1097.66,2025 v -367.45 c 0,0 467.02,-30.09 610.02,56.5 -25.6,-81.16 -17.53,-346.59 0,-390.81 -180.72,92.71 -610.02,55.76 -610.02,55.76 v -369.76 h 691.92 l 147.37,171.4 v 633.6 l -170.78,198.22 C 1664.66,2023.69 1301.73,2025 1097.7,2025 h -0.04"
         style="fill:#f14722;fill-opacity:1;fill-rule:nonzero;stroke:none"
         id="path14" /><path
         d="m 1675.5,31.2617 h -28.78 V 143.398 h -0.88 L 1605.26,31.2617 h -27.9 L 1537.9,143.398 H 1537 V 31.2617 h -28.52 V 172.422 h 49.86 l 32.62,-92.1212 h 0.73 l 34.19,92.1212 h 49.58 V 31.2617 Z M 1482.59,147.02 h -42.55 V 31.2617 h -28.76 V 147.02 h -42.34 v 25.402 h 113.67 V 147.02 h -0.02"
         style="fill:#f14722;fill-opacity:1;fill-rule:nonzero;stroke:none"
         id="path16" /></g></g></svg>
