<?xml version="1.0" encoding="utf-8"?>
<!-- Generator: Adobe Illustrator 25.0.0, SVG Export Plug-In . SVG Version: 6.00 Build 0)  -->
<svg version="1.1"
	 id="Layer_1" xmlns:cc="http://creativecommons.org/ns#" xmlns:dc="http://purl.org/dc/elements/1.1/" xmlns:rdf="http://www.w3.org/1999/02/22-rdf-syntax-ns#"
	 xmlns="http://www.w3.org/2000/svg" xmlns:xlink="http://www.w3.org/1999/xlink" x="0px" y="0px" viewBox="0 0 840 801.3"
	 style="enable-background:new 0 0 840 801.3;" xml:space="preserve">
<style type="text/css">
	.st0{fill:#FFFFFF;}
	.st1{fill:#14264B;}
	.st2{fill:#B72126;}
	.st3{fill:#FEE60E;}
</style>
<g>
	<path class="st0" d="M820,691.2L820,691.2c-6.2-3.1-12.8-4.8-19.7-5.2c-0.6-8.9-3.5-17.6-6-24.8c-1.1-3.1-2.1-6.1-2.7-8.6
		c-3.1-11.7-3.9-16.5-1.2-24.1c5.9-16.2-14.7-25.5-22.9-29.2c0,0-2.5-1.1-2.5-1.1c-2.4-1.1-3.8-0.6-7.5,0.8c-3,1.2-6.4,3.5-10.9,7.6
		c3.7-6.2,6.2-13.9,6.8-22.1c2.4-1.8,4.7-4.5,6.5-8.2c6.2-12.3,6.4-32.7-11.2-53.2c-7.2-8.3-57.5-51.9-101.8-89.9l-0.2-0.1
		c15.6-5,39.4-12.7,39.2-12.6c3.3-0.9,8.7-3.4,13.7,1.1c4.4,4.2,12.9,5.8,20.3,0.6c12.8-9,5.7-28.9,3.1-36.3
		c-4.6-13-11.1-17.9-15.8-19.7c-4.5-1.8-9.3-1.9-13.4,0.3c-6.4,3.4-8,8.9-8.7,13.4c-0.8,4.9-8.6,6-22.4,9.5c0,0-47.4,12.9-50.8,13.9
		l-0.3-0.2l-11.5-9.8c-2.2-3.7-6.6-10.3-11.8-14.5c-0.9-14.8-12.4-32.5-21.9-39.7c-0.5-10.3-8.8-25.3-17.6-30.7
		c-39.6-69.9-75-114.8-108.2-137.1l-1.1-0.7c-5.9-4-6.4-4.5-6.7-7.6c-2-27.5-9.4-54-18.8-68.1c3.7-5.9,9.3-16.5,13.2-31.2
		c0,0,4.2-15.8,4.2-15.8l-4.8,3.2c1.2-4,2.4-8.8,3.6-14.5l0.1-0.8c0.4-4.7-2.9-6.5-3.9-7c-0.4-0.2-0.8-0.3-1.2-0.4
		c0.4-5.3-0.2-11.6-2.9-18.6L418.7,0l-6.8,7.5C398.1,23,377,31,358.3,38.1c-4.3,1.6-8.3,3.2-12.1,4.7c-30.4,12.6-49.2,26-66.9,64
		c-0.4,0.4-0.9,0.7-1.4,1.2c-8,6.8-24.8,20.8-34.3,48.7l-1.6,4.6l4.1,2.6c9.8,6.2,20.3,10.7,33.7,15.3
		c-50.1,112,45.3,178.4,125.1,219.1c-4.6,8.5-8.3,16.5-9.3,25.8L359.9,462c-3.4,0.9-9.9,3-13.7,7.1c-1.3,1.4-2.5,3.2-3.6,5.5
		c-1,0.2-1.9,0.4-2.6,0.5c-22.3,4.5-58.1,12.7-152.8,39c-13.7-12.6-36.5-20.6-59-20.6c-35.6,0-58.5,19.1-82,47.8
		C12.1,582.7-26.2,696,24.6,756c8.7,10.3,41.4,43.4,97.5,39.1c15-1.1,26.2-3.6,36.1-5.8c19.6-4.3,28.5-6.3,48,6.8l7.8,5.2l7.4-5.8
		c11.1-8.8,30-5.8,45.1-2.3l29.4,6.9l-15.4-26c-20.6-34.6-49.7-39.6-79.1-37c16.6-4.6,27.5-19.3,35.6-36.7
		c-1.1,11.5,0.9,23.7,11.8,31.4c17.5,12.4,39.4,7,55.6-3.1c7.7,6.5,18,10.4,27.4,9.9c8.2-0.2,15.3-1.8,21.9-5
		c4.4,3.1,9.3,4.9,14.7,5.5c8.9,0.9,18.4-2,28.3-8.5c5.2,5.2,11.9,8,19.6,8c3.6,0,7.3-0.5,11.1-1.4l-0.4,1.4h53.5l7.2-26.3
		c0.6,5.2,2.2,10.2,5.2,14.5c3.3,4.8,9.8,10.8,21.7,11.7c12.8,1.1,28-3.7,40.4-12.4c13.4,13.2,30.3,15.3,50.4,6.3
		c4,3.4,10.8,7.5,21.1,6c7.1-0.5,14.2-3.5,21.6-9.1c6.1,6,13.9,9.3,22.7,9.1c14.5-0.2,26.6-8.9,36.2-17.8
		c10.5,10.8,26.5,21.7,51,17.6c4.2-0.7,7.7-1.6,10.8-2.5c8.1-2.2,9.1-2.4,15.6,3l19.1,16.2l2-24.5c0.4-1.2,3-8.7,16-17.2l18.6-12.3
		L820,691.2z M475.1,428.1L475.1,428.1l23.1,7.8l-32,8.1c0,0-2.6-1.7-6-2L475.1,428.1z M414,440.5c19.6-6,38-21.2,38-21.2l3.6,1.6
		L429,446.6c-10.7,0-14.3,10.6-14.3,10.6l-19.1,5.3c-0.9-0.9-5.5-1.3-5.5-1.3L414,440.5z M169.5,741.7L169.5,741.7
		c-27.1,4.9-55.1,9.9-79-1.9c-17.1-8.4-30.8-31.7-31.3-52.9c-0.4-19.2,2.2-39.2,9.1-60.3c2,2.1,4.4,3.3,6.8,4.2
		c5.3,1.9,13.1,1.9,19.5-0.3c10-3.3,19.6-6.6,29.1-9.8c-0.5,0.5-1.1,1.1-1.6,1.7c-20.2,22.7-28.6,49.5-23.5,74.3
		c-2.9,1.8-7,4-11.3,6c0,0-11.1,5.3-11.7,5.6l-3,1.8v3.5c0,3.5,0,3.5,13.5,11.6c0,0,5.6,3.7,8.7,10l3.6,7.5l8.3-0.2
		c7.6-0.2,13.7-4.3,17.4-7.6c12.9,5.6,26.5,4.3,38.4-3.7c10.1,6,20.6,7.2,26,7.4C182.2,739.5,175.8,740.6,169.5,741.7z M644.4,601.6
		L644.4,601.6l-34.1,0l-0.3,1.1c-4.5-0.7-9.3-0.6-14.4,0.3c-18.9,3.6-33.4,15-43.4,34c1.1-9.9,0-17.7-4.7-23.6
		c-5.4-6.9-13.1-10.8-22.2-11.2c-3.3-0.1-6.8,0.2-10.3,1l0.3-1.1h-50.8l0-0.1h-6.8c9.2-4.5,15.5-13.9,15.5-24.8
		c0-15.2-12.4-27.6-27.6-27.6c-11.6,0-21.6,7.2-25.7,17.4l7.7-30l-59.5,23.4l-9.7,42.6c-20.6-3-34.6,7.9-43.4,18.7
		c1.6-2.9,4-7.4,3.8-7l6-9.7l-58.6,0l1.6-6.2h-47.2c0,0-8.8,35.5-12.9,48.1c2.1-9.1,10.4-44.8,10.4-44.8h-40.7
		c86.8-30,148-52.8,182.5-68c16.1-7.1,97.1-36.5,124.3-46.3c20.5-7.4,45.1-15.9,73.3-25.4c18.7,28.4,66.4,100.7,95.1,139.3
		C651.1,601.6,648.5,601.6,644.4,601.6z"/>
	<path class="st1" d="M445.7,598.7c-11.8,0-21.4-9.6-21.4-21.4c0-11.8,9.6-21.4,21.4-21.4s21.4,9.6,21.4,21.4
		S457.5,598.7,445.7,598.7z M827.5,701.9l-9.6,6.3c-17.2,11.3-18.8,21.5-18.7,21.4l-1.1,12.9l-9.8-8.3c-9-7.6-12.6-6.6-21.2-4.3
		c-2.9,0.8-6.3,1.7-10.2,2.3c-23.2,3.9-37.9-6.7-49.7-20.4c-9.6,9.8-21.9,20.3-36.5,20.5c-9,0.1-16.7-4-21.9-11.6
		c-6.5,5.8-14.3,11-22.8,11.5c-9.6,1.3-15.3-2.7-19.4-7.3c-15.1,7.7-34.7,12.7-50.9-7.2c-11.4,9.6-27.6,15.7-40.6,14.6
		c-9.5-0.8-14.5-5.4-17.1-9.1c-8.5-12.3-2.8-32.4,0.6-44.4l0.5-1.8c1.7-6.2,3.4-11.4,4.8-15.5c1.5-4.6,3.2-9.7,3.2-11.7
		c-0.4-0.2-0.9-0.4-1.5-0.2c-1.5,0.4-9.1,4-16.7,34.6l-13.1,48.1h-40.6l1.4-5.2c-6.8,3.4-13.7,5.3-20.3,5.2c-8,0-14.4-3.7-18.5-10.2
		c-8.3,6.3-18.6,11.7-28.9,10.7c-5.5-0.5-10.4-2.8-14.6-6.7c-6.8,4.1-14,6-22.7,6.2c-8.3,0.4-19.2-3.2-26.6-11.7
		c-15.6,11.1-37,17.1-52.7,5.9c-16-11.3-7.5-37.1-3.8-48.2c3.3-9.9,7.5-20.1,11.2-29c0.8-2,1.7-4,2.5-6h-12.8
		c-1.2,3.7-2.3,7.8-3.6,12.1c-9.3,32.4-22.2,76.7-55.7,76.7c-4.1,0-16.8-0.7-27.6-8.7c-12,9.8-26.3,11.2-39.4,3.8
		c-3.6,3.8-9.2,8.7-16.4,8.9l-4.3,0.1l-1.9-3.9c-3.9-8.2-10.9-12.6-10.9-12.6l-10.6-6.4l11.1-5.3c6.3-3,12.8-6.7,15.7-8.9
		c-6.6-23.9,1-50.3,21.1-72.9c13.8-15.5,30.4-16.4,43-11.8l1.7-6.3h39l-1.9,8.2c-8.2,34.9-16.9,74.4-17.6,81.5
		c0.8-0.5,1.9-1.5,3.2-3.3c11-15.4,23.4-54.6,30.4-84.6l1.2-5.1H260l-1.6,6.2l55.5,0l-5.3,9.8c-14,25.6-31.1,66.5-25.7,77.3
		c0.3,0.6,0.7,1.2,2.2,1.4c1.7,0.2,6.8-3.5,11-8.5c0.6-16.7,7.5-37.6,14.3-50.3c5.3-9.9,19.4-36.4,48.4-31.5
		c1.7,0.3,3.2,0.7,4.5,1.1l10.4-45.4l45-17.8l-3.2,12.6c-8.3,32.3-29.9,119.2-30.9,132.6c-0.1,1.4,0.5,2.5,1.2,2.7
		c1,0.3,3.7-1.1,6.6-6.1c10.1-17.6,23-75,23.1-75.6l1.2-5.2h39.7l-2.4,8.4c-7.2,25.6-18.2,66.5-20.7,78.3c2.4-0.3,5.9-1.6,7.6-3.7
		c8.9-10.4,21.9-56.1,26.3-77.6l1.1-5.3h39.1l-1.1,4.6c5.9-2.9,12.4-4.8,18.7-4.5c7.2,0.3,13.3,3.4,17.5,8.8
		c7.3,9.4,2.9,27.2-4.6,53.2c-3,10.2-6,20.8-6.2,26.4c0,0.6,0.1,1.7,0.5,1.9c1.3,0.5,5.8-0.8,11.5-7.3c0.1-0.7,0.2-1.6,0.3-2.4
		c5.7-47.5,23.4-74.4,52.6-79.9c6.8-1.3,12.9-0.8,17.8,1.2l0.6-2.5l37.7,0l-2,8.2c-1.8,7.4-13.3,56.7-16.7,75.3
		c0.7-0.4,1.5-1,2.2-1.4c16-9.8,25.4-47.8,30.8-79.8c-27.5-34.7-90.7-130.8-106.8-155.3c-26.7,8.9-54,18.3-78,27
		c-27.2,9.8-108.4,39.3-124.7,46.5c-44.4,19.5-133.6,51.9-265,96.1c-0.7,0.2-1.4,0.4-2.1,0.5c-0.9,0.4-1.8,0.7-2.8,1
		c-7.3,1.9-15.4-2.5-21.8-10.7C57.8,637.7,52.5,663.6,53,687c0.5,23.7,15.4,48.8,34.7,58.4c25.8,12.8,54.8,7.5,82.9,2.5
		c38.7-6.9,78.6-14.1,104.5,29.4l8,13.4l-15.2-3.5c-16.5-3.9-37.2-6.9-50.4,3.5l-3.8,3l-4-2.7c-21.7-14.6-32.8-12.2-52.8-7.7
		c-9.7,2.1-20.7,4.6-35.3,5.7c-53.1,4.1-84-27.2-92.2-36.9c-48.7-57.4-11.3-166.7,21.6-206.7c22.4-27.3,44.1-45.5,77.2-45.5
		c21.8,0,43.8,8,56.2,20.3c0.3,0.3,0.6,0.7,1,1c94.7-26.3,132.5-35.1,155.9-39.8c1.6-0.3,3.6-0.7,5.8-1.3c0.8-2.1,2.1-4.9,3.7-6.6
		c3.7-3.9,12.4-5.7,12.4-5.7l38.5-40.6c0.6-11.1,5.7-20,11.9-31.2c-96.7-48.3-174.4-112.5-127.3-215.4c-0.1-0.6-0.2-5.5-0.2-5.5
		c-15.5-5.3-26.4-9.7-36.5-16.1c10.1-29.6,29.1-42.8,34.8-48.1c16.3-35.6,32.8-49.1,64.2-62.1c20.7-8.6,49.8-16.7,68-36.9
		c5.5,14,0.7,24.8-0.3,28.9c5.6-3.2,8-8.5,7.8-5.7c-4.7,23.1-9.9,29.1-12.1,31.6c4-1.3,9.2-4.7,9.2-4.7c-4.5,16.9-11.4,28.2-14.7,33
		c9.1,10.9,17.9,37.6,20.1,68.4c0.5,6.8,4,8.7,10.5,13.1c40.6,27.3,78.9,86.6,107.1,136.6c8.8,3.9,17.8,22.7,15.7,29.3
		c7.8,3.6,23.2,24.6,22.1,39.7c4.5,2.5,9.6,9.2,13.2,15.4c0,0,5.7,4.8,14.8,12.6l0.2,0.2l3-0.8l51.3-14.6
		c22.3-5.4,23.5-8.9,23.5-8.9c3.9-3,0.6-10.8,7.8-14.5c3.1-1.6,6.4-1.3,9.2-0.2c3.4,1.4,8.2,6,12,16.8c3.5,9.7,7.1,23.3-0.9,29.1
		c-5.9,4.3-10.9,2.1-12.8,0.3c-1.9-2.1-5.8-4.7-7.6-4.9c-2.8-0.2-8.5,1.1-11.6,1.9l-50.1,16.1l0.1,0.1
		c41.5,35.5,102,87.7,109.6,96.5c24.9,28.9,9,53.6,3.4,53.3c0,19.8-11.7,35.4-22.3,32.7c-2.4,12.2-12.2,20.2-25,19.1
		c-3.2,14.5-9.8,44.6-11.9,53.9c3.2-3.9,7.1-8.9,11-13.9c33.1-42,51.5-64,60.6-67.5c0,0,2.6-1,2.6-1l2.9,1.3
		c6.9,3.1,23.2,10.5,19.2,21.2c-3.6,9.7-2.1,16.2,1,27.9c0.7,2.7,1.8,5.8,2.9,9c3,8.8,6.5,19.1,5.7,29c6.5-0.4,14.7,0.4,23.1,4.6
		l0,0L827.5,701.9z M329.7,123.6c0,0-6.2,3.4-1.4,9.3c0,0,1.6-7.2,9.1-6.4c-1.7-3.3-5-5.7-8.9-5.9c-6-0.4-11.2,4.1-11.6,10.1
		c-0.4,6,4.1,11.1,10.1,11.6c4.2,0.3,8-1.8,10-5.1l0,0c-1.7,2.3-4.5,3.4-7.7,3.2c-4.8-0.3-8.4-4.5-8-9.2
		C321.6,126.2,325.5,123,329.7,123.6z M435,449.1l26.2-27.8l1.4-2.6l0.7-1.7l-10.1-4.1c0,0-33.1,19.2-42.1,21.1
		c0,0-32.3,29.2-32.4,30.6c-0.1,1.6,1.4,1.9,2,1.9c5.9-0.4,9.7,1.1,11.6,2.3c8.7-2.2,17.6-4.5,26.3-6.7c0.8-2.1,2.3-4.9,4.5-7
		c3.1-2.9,5.4-3.5,9.9-4.4l0,0C433.9,450.6,434.4,449.7,435,449.1z M514.2,436.5c-21.2-7.5-38.9-14.8-38.9-14.8l-22.4,21
		c-1.9,2.2-4.8,5.2,3.6,5.1c2.2,0,4.6,0.9,6.9,2.6l0,0C466.8,449.5,483.5,445,514.2,436.5z M164.3,643.6c-2.2-0.1-3.8,0.5-4.9,1.1
		c-5.8,3-11,12.4-14.5,26.4c-4.8,19-1.1,24.4-0.7,24.9c0.3,0.4,0.4,0.4,0.5,0.4l0,0C153,696.4,161.3,669.6,164.3,643.6z
		 M357.2,642.7c-3.1,0.1-6.2,2-9.4,5.8c-10.8,12.9-15.5,37.8-12.1,45.5c0.5,1.2,2.9,1.3,4.3,1.2c3.7-0.4,6.4-2.5,6.6-3.5
		c1.5-7.1,3.3-14,5-20.7l0,0C354,661.1,357.3,648,357.2,642.7z M607.4,644.2c-2.5-0.3-4.7,0-6.7,1c-5.8,3-10.6,11.8-14.2,26
		c-4.7,19-1.1,24.4-0.7,24.9c0.3,0.4,0.4,0.4,0.5,0.4l0,0C595.3,696.6,604,670.5,607.4,644.2z M756.7,672.3
		c-1.8-5.9-3.8-12.2-4.7-18.9c-2.6,3.4-5.3,7-8.1,10.9c-3.2,4.4-6.5,8.9-10.2,13.8c-5.8,7.6-5.8,7.6,6.3,18.9c2.4,2.3,6,3.5,9.9,3.5
		c3.1-0.1,6.1-1.1,7.6-2.6l0,0C762.4,691.6,760.5,684.4,756.7,672.3z"/>
	<path class="st2" d="M707.5,597.9l8.6,11.1c4.8,7.2-4.9,15.5-14.5,15.8L707.5,597.9z M426.7,299.7c-0.5,3.4-9.3,8.4-13.3,9.1
		c28.8,24.5,130.3,62.3,159.3,69.1c4.7,1.1-2.1-19.8-14.9-28.3c-9.3-6.3-68-19.8-105.1-46.6C446.4,303.9,438.6,304.2,426.7,299.7z
		 M466.2,293.6c-0.4,2.8-1.3,5.4-5.7,7.4c40.1,23.8,82.8,36.8,92.2,39.5c1.9-1.4-3-19.7-16.4-24.4c-20-7.1-36.7-14.2-48.6-21.6
		C483.6,296.7,477.4,298.1,466.2,293.6z M542.1,413.4c37.4,59.1,94.4,146.3,126.6,187.1c1.8-12,3.1-22.6,3.9-29.5l0.7-5.8l6.8-2.6
		l-87.9-112.7h7.8c0,0,50.1,64.7,86.4,110.2l25.1-9.8c-36.8-39-98.1-102.3-98.1-102.3l8,0.2C621.3,447.6,740.1,571,740.1,571
		c6.5,7.3,17.6-17.5-0.2-37.3c-9.9-15.8-140.4-124.4-140.4-124.4h0c1.2,2.6,1.8,6,2.4,9.1C607,442.5,588.7,429.1,542.1,413.4z
		 M723.1,603.8c11.5,5.1,19.7-17.6,15.3-24.1c-1.5-2.2-9.9-11.4-21.7-24l-7.2,33C716.9,597.6,721.9,603.2,723.1,603.8z M84.8,751.4
		c-22.4-11.1-37.9-38.8-38.4-64.2c-0.5-25.7,5.6-54.2,15.1-78.6c-2.1-3.8-3.8-8.1-5-12.6c-5-18.8,1.3-37.7,12.3-42
		c0.6-0.3,1.2-0.5,2-0.7c11.2-3.2,21.9-6,32.1-8.9c3.6-3.2,7.2-5.9,10.9-8.1c12.9-7.5,37.6-7.9,52,2.6c-6.7,7.9-12.5,18.6-3,27.4
		c7.4,7.2,19.6,4.2,24.6-4.3c7.7-13.1,1.4-27.9-7.7-37.3c-11-11-31.3-18.4-51.5-18.4h0c-28.4,0-48.5,14.4-72.1,43.1
		c-33.9,41.3-66.5,145.3-21.6,198.2c15,17.8,45.4,37.7,86.6,34.6c45-3.5,57.3-20.4,92.3,3.1c16.5-13,41.6-8.1,56-4.7
		C228.2,711.3,149.4,783.3,84.8,751.4z M814.2,702.7c-20.7,13.6-21.7,26.4-21.7,26.4c-15.1-12.8-21.2-6.1-36.8-3.4
		c-22.3,3.7-35.3-7.2-48.1-23.8c-9.5,10-22.5,23.6-37.1,23.8c-10.5,0.2-16.9-7.3-19.9-16c-5.4,5.7-15.4,15.6-25.4,16
		c-8.7,1.2-12.3-3.1-17-9.2c-21.6,12.4-38,13.1-51.7-8.9c-9.3,10.8-27.2,19.2-40.9,18.1c-23.9-2-13.9-33.4-10.2-46.9
		c5.4-19.3,10.3-28.1,7.3-32.7c-1.3-2.1-17.4-16-30.4,36.4l-11.8,43.2h-26.8l4-14.6c-9,8.6-20.6,14.7-31.5,14.6
		c-9.2-0.1-14.1-6.7-16-14.4c-11.2,10.4-31.6,24.5-44.9,6.1c-7.2,5.7-14.4,8.2-24.1,8.3c-8.7,0.3-19.7-4.5-24.9-14.6
		c-12.5,11.1-34.6,21.2-50.3,10.1c-10.2-7.3-6.9-24-1.4-40.6c5.2-15.9,13.1-32.7,17.1-43.7h-27.4c-9.6,28.3-20,88.9-54.4,88.9
		c-8.6,0-20.1-3-27.8-11c-12.6,13.5-27.8,13.6-40.2,4.3c-0.9-0.6-7.7,10.5-15.7,10.7c-4.9-10.3-13.5-15.4-13.5-15.4s21-10,20.1-13.7
		c-6.5-19.5-2.9-45.3,18.8-69.7c16.6-18.7,35.3-11.2,42.4-6.6l2.4-9.3h25.5c0,0-18.1,76.8-17.8,83.9c0.2,6.9,8.2,9.6,15.3-0.3
		c13-18.3,25.9-62.8,31.5-87h20.3l-1.7,6.2h52.9c0,0-46.2,84.8-18.5,88.4c8.1,1,18.5-12.7,18.5-12.7c0-15.9,7.2-37.6,13.6-49.7
		c8.6-16.1,20.3-31.6,41.4-28.1c9.6,1.6,9.7,6.6,9.7,6.6l12-52.5l29.7-11.7h0c0,0-29.8,116.8-31.1,133.8
		c-0.7,9.3,11.1,16.3,20.2,0.3c10.7-18.7,23.9-77.4,23.9-77.4h25.6c0,0-20.7,74-21.4,82.2c-0.6,7.2,14,5.2,19.7-1.5
		c10.9-12.8,24.1-63,27.8-80.6h25.3l-3.2,13.9c10.5-11.2,31.4-20.5,41.5-7.5c9.2,11.8-11.6,58-12.3,75.3c-0.4,10,11.6,14.2,24.8-2.2
		c1.5-2.3,2.3-70.3,48-78.8c6.4-1.2,16.5-1.2,20.4,6.1l1.9-7.3h24.1c-0.2,0.9-19.2,81.3-17.8,83.9c2.4,4.8,10.7-1.3,13.2-2.8
		c27.3-16.8,36.2-97.2,39.6-125.7l30-11.7c0.2,0.1-28.3,129.1-28.3,129.1c-3.9,17,2.6,13.3,5.3,11c5.9-4.9,62.5-82.2,75.8-87.3
		c2.6,1.1,18,7.8,16.1,13.1c-4.3,11.9-2.3,20.1,0.8,31.8c3.5,12.9,13.1,31.4,5.9,44.6C791.4,698.5,802.9,697.1,814.2,702.7z
		 M171.4,638.4c-2.4-0.9-4.6-1.4-6.7-1.5c-14.7-0.7-22.4,17-26.3,32.5c-6.2,24.6-0.4,33.5,6.3,33.5C166,703,171.4,638.4,171.4,638.4
		z M360.7,636.4c-1.4-0.3-2.8-0.5-4.1-0.4c-20.3,1.1-33.4,46.1-27.1,60.7c4,9.3,21.6,5.2,23.5-3.5
		C359,665.3,368.6,638.3,360.7,636.4z M614.7,639.2c-2.7-1-5.1-1.6-7.4-1.8c-15.9-1.3-23.3,16.6-27.2,32.2
		c-6.2,24.6-0.4,33.5,6.2,33.5C608.2,703.2,614.7,639.2,614.7,639.2z M759.3,635.3L759.3,635.3c-10.9,9.8-18.8,23-30.9,38.8
		c-8.5,10.9-8.7,13,6.9,27.7c7.7,7.4,21.3,6.5,27.1,0.6C776.7,684.6,752.5,662.7,759.3,635.3z M423.7,392.4
		c-8.8,14.1-16.3,25.4-15.6,30.6c0.5,4.2,2.9,4.3,7.8,3.3c11.2-6.3,30.9-15.3,37.8-23.4c4.2-4.9-0.2-12-2.2-14.3
		c-2.2-2.5-0.9-4.7,4.2-1.6c4.8,4.1,5.7,6.4,7.3,10c2.2,5.2-4.1,10.7-4.1,10.7c17.2,7.8,76,30.9,94.2,34.5l-19.7-32
		c-35.9-14.3-86.3-35.9-114.9-50.1c-44.4-22-117.8-67.9-81.2-138.2c10.7-17.9,14.8-18.3,16.3-14.1c0.1,0.4-0.2,1.6-0.7,1.9
		c-0.7,0.7-5.5,5.3-10,14.9c-34.4,63.9,36.8,109.8,78.8,130.1c60.8,29.5,117,52.1,154.1,64.6c5.7,1.9,10.8,3.8,14.9,5
		c11.2,3.3-3.2-35.6-17.4-39.6c-75.2-22.1-147.6-55-167.6-74.8c-12-1.4-44.1-11.2-49.3-54.7c-0.2-1.2-0.2-2.2,1.3-2.5
		c1.4-0.3,1.9,0.7,2,1.3c9.2,39.5,36.1,50,47.5,50.3c6.3,0.1,16.2-6.1,13.6-7.6c-19.5-11.3-30.5-34.1-31.3-36.5
		c-0.5-1.5,0.1-2,1-2.5c0.9-0.5,1.9-0.1,2.9,1.4c5,7.8,23.6,38.3,51,39.2c7.3,0.2,15.2,0,16.9-6.5c0,0-23.2-10.7-34.6-29.5
		c-0.4-0.6-0.7-1.7,0.7-2.6c1.5-0.9,2.6,0.6,3.3,1.3c22.1,22.7,39.9,31.9,50.7,30.8c4.3-0.3,7.4-3.4,7.5-5.6
		c0.6-8.3-7.8-13.3-10-14.8c-0.3-0.2-0.5-1-0.1-1.4c0.3-0.5,1.2-0.7,2.3-0.2c4.3,2.1,12.8,8.2,12.1,17.8c-0.1,1.7-0.4,2.8-1.6,4.3
		c12.6,6.6,34,15.1,43.9,18.2c-30.5-51.1-64.2-104.8-108.1-131.6c-1.2,3.8,2.5,12.5-1.9,10.4c-3-1.5-5.7-14.1-5.8-19.8
		c-0.6-29.5-8.7-54.1-19.4-68.3c-6,4.7-16.8,7-16.7,7.1c21.6-19.2,24.4-32.6,24.4-32.6c-6.3,4.9-21.4,11.6-29.3,13
		c0,0,24.6-14.4,34.5-40.1c0-0.2-15.7,15.4-38.7,20.6c0,0,38.2-17.5,37.5-43.2l0,0c-15.9,16.6-41,22.1-62.5,31.1
		c-31.5,13.3-47.9,33.8-56,53.5c3.1,5.2,22.2,5.7,25.1,4c4.9-2.9,11.5-4.4,16.8-1.3c3.9,2.2,5.9,4.5,7.7,5.6c4.7,2,11.2,3.6,16,2.5
		c-21.3,21.3-23.7,49.4-21.7,54.1c-25,0-50.2,33.9-54.7,43C255.7,318.9,408.5,385.4,423.7,392.4z M445.7,562.5
		c-8.2,0-14.8,6.6-14.8,14.8c0,8.2,6.6,14.8,14.8,14.8c8.1,0,14.8-6.6,14.8-14.8C460.5,569.1,453.9,562.5,445.7,562.5z"/>
	<path class="st3" d="M392.5,509.7c-1.4,0.5-3.1,1.2-3.1,1.2c-17.7,6.6-29.2,11.1-34.3,13.4c-43.4,19.1-129.8,50.5-256.7,93.3
		c3.3-6.4,3.7-15.9,1-27.7c-3.2-13.8-10-19.4-10-19.4c3.2,4.5,4.5,8.7,6.1,14.9c4.3,16.1,0.4,32.4-9.4,35c-9.9,2.6-20.8-9.8-25-25.9
		c-4.1-15.7,0-32.2,9.3-35.6c0.4-0.1,0.7-0.2,1.1-0.3l72.2-20.6c4.3,0.5,8.6,1.5,12.4,3.1c-9.5,15.3-3,25.3,2.3,30.2
		c4.6,4.4,11.1,6.5,17.7,5.6c7.1-1,13.6-5.2,17.2-11.4c8.4-14.3,3.5-29.5-4.4-40.2c74.5-20.7,121.7-32.7,152.7-39
		c5.7-1.1,16.3-3.6,31.6-7.4c0,0,3.4-0.8,7.5-1.9c0.4,0,0.8,0,1.1,0l0,0c2.5,0.6,5.4,1.5,7.4,2.9
		C397.4,485.8,396.6,502.7,392.5,509.7z M461,460.4c-1.4-1.1-3.3-1.9-5.2-2.5c-2,0.5-3.8,0.8-4.8,0.8c-3.2,0.8-44.3,11.5-53.5,13.9
		c9.5,8.3,11.1,25.4-0.1,35.2c23.1-8.6,49.2-18.1,63.6-23.3l2.9-1C467.2,477.4,467.1,465.4,461,460.4z M291.8,148.1
		c4.9,0.4,7.3,2.7,11.2,5.6c-6-1.4-10.7-1.7-15.7-1.8c-7-0.2-21,4.8-28.1,5.5c0,0,23.2,10,30.3,11.1c0,0,15,5.9,19.3-13.1
		c2.3-10.3-5.4-25.2-15.4-21c-0.1,0,1.8-10.8-6.6-14.6c-20.7,12.7-30,36.2-30,36.2C275.1,152.1,278,146.9,291.8,148.1z M712.7,389.4
		c-3.8-10.6-7.8-13.9-11.3-14.1c-0.5,0-1,0-1.5,0.1c-4.8,0.9-5,6.4-5,6.4s0.8,4.9-4.7,9c-2.7,2.1-11,5.7-24.3,8.4l-51.3,14.6
		l15.6,13.1l52.7-17c0,0,19.5-4.9,19.5-14c0-14.1,7.4,12.8,4.4,18.1c0,0,2.5,2.4,6.8-0.7C717.8,410,717,401.5,712.7,389.4z
		 M522.5,439.4l-53.7,14.7c-0.4,0.1-0.8,0.3-1.3,0.4c6,7.4,9.2,19.4,1,27.3c4.9-1.8,11.4-4.1,11.4-4.1c21.6-7.8,47.6-16.8,77.3-26.8
		c0,0,0.1,0,0.3-0.1c-0.6-1-1-1.6-1-1.6C546.1,446.9,534.1,443.2,522.5,439.4z"/>
</g>
</svg>
