<?xml version="1.0" encoding="utf-8"?>
<!-- Generator: Adobe Illustrator 25.0.0, SVG Export Plug-In . SVG Version: 6.00 Build 0)  -->
<svg version="1.1"
	 id="Layer_1" xmlns:cc="http://creativecommons.org/ns#" xmlns:dc="http://purl.org/dc/elements/1.1/" xmlns:rdf="http://www.w3.org/1999/02/22-rdf-syntax-ns#"
	 xmlns="http://www.w3.org/2000/svg" xmlns:xlink="http://www.w3.org/1999/xlink" x="0px" y="0px" viewBox="0 0 838 838"
	 style="enable-background:new 0 0 838 838;" xml:space="preserve">
<style type="text/css">
	.st0{fill:#FFFFFF;}
	.st1{fill:#092C5C;}
	.st2{fill:#F5D130;}
	.st3{fill:#8FBCE6;}
</style>
<g>
	<path class="st0" d="M838,419l-50.7-50.7l-2.2-56.1l0,0l0-1.4l-13.4-4.8v0l-1.5-0.5c-21.9-7.7-39.4-11.1-56.7-11.2L419,0
		L193.5,225.4c-2.2,0-4.4-0.1-6.7-0.1H43.7V251c0,0,1.7,0.3,4.5,0.9v13.3c0,0,23.9,4.5,35.2,6.7v63.8L0,419l65,65
		c-10.5,1.9-21.3,3.9-21.3,3.9v26h4.5v11.9h58.6L419,838l308.4-308.4c45.2-4.8,71.6-30.3,71.6-70.3c0-0.4,0-0.8,0-1.2L838,419
		L838,419z"/>
	<path class="st1" d="M240.2,350.2l38.9-3.7c-6.2,9.2-14.5,17.2-24.8,23.4L240.2,350.2z M194.3,492.1l-40.5-7.2v-237
		c4.6-0.4,9.1-0.8,13.2-0.8c40.9,0,61.6,22.6,61.6,65.9c0,2.8-0.1,5.5-0.3,8.1c0,0,0.1-0.1,0.1-0.1l-0.3,1.9l25.6-27L241,332
		l42.8,6.8c5.8-11.4,8.8-24.2,8.8-37.7c0-50.4-33.9-70.6-105.8-70.6h0h-33h-105v16.3l39.7,7.5v230.7l-39.7,7.2v16.6h145.5V492.1z
		 M83.4,480.7V351.9L16.3,419l62.5,62.6C80.8,481.2,82.4,480.9,83.4,480.7z M419,73.2l226.2,226.1h31.7c6.5-2,13.5-3.4,20.9-4.2
		c0,0-278.8-278.8-278.8-278.8L209.2,226.1c18.9,1.4,34.5,4.5,47.1,9.7L419,73.2z M779.6,376.9h-19.2l-0.5-2.7
		c-0.3-1.3-0.6-2.5-0.8-3.7h-1.7l-0.8-4.1c-2.2-11.5-5.8-20.9-10.7-28c-6.6-8-15.4-11.6-26.8-11.6h0c-17.9,0-31.4,9.7-31.4,22.5
		c0,3.2,0.5,6.1,1.5,8.7c5.5,5.1,14.4,9.5,27.3,15.4l1.5,0.7l8.6,3.9c13.9,6,29.6,12.9,43,25.3c5.7,5.2,10,11.1,13.1,17.9
		c5.5,7.5,8.8,16.4,10.2,26.8l28.8-28.8L779.6,376.9z M731.7,469.9c0-5-1.6-9.4-4.6-13.2l-34.7,34.7c3.1,0.5,6.4,0.7,9.8,0.7
		C720.1,492.2,731.7,483.4,731.7,469.9z M783.6,451c0,37.7-27.8,62.4-79,62.4c-24.5,0-46.6-4.7-66.8-14.7l-1.5-54.8h11
		c5.5,35.3,24.2,53.3,54.9,53.3c21.8,0,34.7-11.5,34.7-27.4c0-8.3-3.7-15.6-10.1-20.6c-11.7-9.4-27-14.2-42.3-21.8
		c-34.6-17.1-51.5-34.8-51.5-63.9c0-19.1,6.9-34.7,19.8-45.7l-23.7,3.3l-61,102.2v68.4l36.1,5.6v11.5H486.7h-3.5H379.5v-11.5
		l28.2-5.6l-13.5-38.9h-66.5l-11.3,30.5c0.5,0.6,1,1.1,1.4,1.7c54.1,59.4,127.1,106.7,271,33.8l6.6,7.8
		c-17.8,17.8-237.1,161.7-369.9-62.5c-15-22.6-26.6-47.7-38.7-69.1c0,0-0.6-1.4-2.2-4.1c-0.6-1.2-1.2-2.2-1.8-3.1l-19.8-6.7l0-2.3
		v-8.5c2.8,0.1,8,0.1,9.5,0.1c18.1,0,31.6-4.2,40.8-12.9l0,0l7.8,70.4l10.7-69.6l17.8,14.1c-0.3,0.2-0.6,0.4-0.9,0.5
		c-3.1,1.5-6.1,2.8-8.9,3.9l-1.4,0.8c14.3,20.9,26.5,39.4,37.6,55.4c6.1,8,12.4,16.5,19.1,24.9l63.1-153.6h35.9l73.6,187.3l17.4,5.2
		l26.6-5.2v-68.4l-60.7-102.2l-27-5.3v-11.5h112.5v11.5l-24.8,5.3l40.8,78l44.7-78l-27-5.3v-11.5h85.5h21.6c10.2-3.2,22.1-5,35.4-5
		l0,0c18.4,0,36.1,4.1,55.4,10.9l2.2,55h-8.9c-6.4-33-23.6-49.4-49.6-49.4c-19,0-34.8,10.3-34.8,25.9c0,19.5,15,25.9,38.6,36.8
		c15.3,7,34.7,13.8,50.4,28.3C778,417.8,783.6,432.2,783.6,451z M389,436.5l-26-79.4l-25.1,67.5l-4.5,12L389,436.5z M665.4,518.4
		L665.4,518.4L419,764.8L174.5,520.3h-56.9L419,821.6L715.7,525c-1.5,0-2.9,0-4.4,0C694.7,525,679.7,522.9,665.4,518.4z
		 M215.9,276.3c-2-3.7-4.4-7-7.2-9.9c-8.8-5.1-19.9-7.8-33.4-7.8c-3.1,0-6.4,0.2-9.8,0.5v67.6l17.1-17l-10.5-10.9l13.1,8.3
		L215.9,276.3z"/>
	<path class="st2" d="M253.7,296L253.7,296L253.7,296L253.7,296z M224.9,323.9l0-0.4l-10.5-19.3l5.3,25.2l-20.5-13.1l-10.3-6.5
		l-4-2.6l-13.1-8.3l10.5,10.9l3.2,3.3l8.3,8.6l19,19.6l-29.8,12.8l29.8-2.6C212.9,344.9,214.6,333.5,224.9,323.9z M298.3,341.1
		l-6.9-1.1l-2.4-0.4l-5.3-0.8L241,332l12.8-36l-25.6,27l-0.9,6.8l10.6-7.1l-4.9,12.6l33.3,7.4l-33.3,3.4l8.3,13.3l-12.8-9.3
		l-6.5,39.2l-4.5-36.1l-4,4.3l7.8,70.5l10.7-69.6l17.8,14.1l4.3,3.5l2.2,1.8l5.8,4.6l2.4,1.9l-1.6-2.3l-4-5.6l-1.6-2.1l-3-4.2
		l-14.1-19.7l38.9-3.7l6.6-0.6l3.2-0.3l7.9-0.7l16.2-1.5L298.3,341.1z"/>
	<path class="st3" d="M331.3,457.9h59.3c0.5,1.3,1.3,3.7,2.3,6.5h-55.7c-0.9,2.3-5.4,14.5-9,24.2c-2.1-2.2-4-4.3-6-6.4
		C325.3,474,329.3,463.2,331.3,457.9z M362.6,372.6c-7.3,19.7-20,53.9-20,53.9s-0.4,1.1-1,2.6c-0.3,0.8-0.6,1.7-0.9,2.5
		c2.4,0,5.7,0,9.4,0c0.5-1.2,0.8-2,0.8-2h-1.1v0h0c2.1-5.6,11-29.6,16.8-45C365.1,380,363.8,376,362.6,372.6z M535.9,575.8
		c37.4-15.7,63.1-34.2,69.1-40.2l2.2-2.2c0,0-5.2-6.1-5.2-6.1l-2.8,2.8c-0.6,0.5-1.3,1.1-2.1,1.9c-8.5,7.3-33.1,23.9-67.5,38.2
		c-18.8,7.8-43.4,16-71.1,20.2c-20.5,3.1-42.6,4.2-65.4,1.3c-33.6-4.2-64.4-16.1-92.2-35.6c29.6,23,62.9,36.9,99.5,41.6
		C453.4,604.4,503.4,589.5,535.9,575.8z M428.9,322v4.8c0,0,13.8,2.7,22.2,4.4c-1.8-3-3-5-3.3-5.5
		C445.7,325.3,436.3,323.5,428.9,322z M289.1,339.6l2.4,0.4l6.9,1.1c3.8-9.8,5.8-20.5,5.8-31.9c0-19.7-5-35.3-15.6-46.9
		c6.1,10.5,9.1,23.4,9.1,38.8c0,2.6-0.1,5.1-0.3,7.6C296.5,319.8,293.7,330.2,289.1,339.6z M401.6,309.2
		c15,38.2,68.5,174.4,70,178.3c1.2,0.3,3.9,1.1,6.9,2c-13.8-35.2-70.9-180.4-70.9-180.4H401.6z M661.1,420.1L661.1,420.1
		C661.1,420.1,661.1,420.1,661.1,420.1C661.1,420.1,661.1,420.1,661.1,420.1z M262.8,381.8c15.5-8.9,27-21.6,33.9-36.9l-7.9,0.7
		l-3.2,0.3c-6,9.9-14.1,18.5-24,25.3c-0.7,0.5-1.4,1-2.2,1.4s-1.5,0.9-2.2,1.4l1.5,2.1L262.8,381.8z M548.1,309.2h-6.5V320
		c0,0-15.2,3.2-22.3,4.7c4.7,9,27,51.8,33.4,63.8c0.8-1.4,1.9-3.3,3.2-5.5c-10.2-20.2-25.6-50.4-28-55c5.5-1.4,20.2-4.9,20.2-4.9
		V309.2z M759.9,374.2l0.5,2.7h19.2h2.6l-2.4-60.9l-2.2-0.8c-1.4-0.5-2.7-0.9-4.1-1.4l2.2,56.6h-16.7
		C759.4,371.7,759.6,372.9,759.9,374.2z M689.1,357.9c-1-2.6-1.5-5.4-1.5-8.7c0-12.8,13.5-22.5,31.4-22.5c11.5,0,20.2,3.6,26.8,11.6
		c-7.9-11.5-19.2-17.3-33.9-17.3c-16.9,0-29.7,9-29.7,20.8C682.2,348.7,684.4,353.6,689.1,357.9z M705.6,445.4
		c1.7,0.7,3.3,1.5,5,2.2l1.1,1.1l-36.6,36.6c3.5,2.2,7.4,3.9,11.8,5c13.7-13.7,26-26,36.5-36.4c0.8,0.5,1.6,0.9,2.4,1.4
		c-0.7-0.7-1.4-1.4-2.2-2c-7.4-6-16.8-10.1-26.7-14.4c-4.8-2.1-9.7-4.3-14.7-6.7c-8-3.9-14.9-7.9-21-11.9
		c7.8,6.4,17.6,12.5,29.9,18.6C695.9,441.2,700.9,443.3,705.6,445.4z M658.8,451.6l-0.5-2.9h-5c2.8,13.5,7.7,23.7,14.8,30.9
		C663.7,472.2,660.5,462.8,658.8,451.6z M384.3,513.8v6.5h103.6h10.3h75.8c4.1-1.9,8.3-3.9,12.5-6.1l0.7-0.4h-95.5H478H384.3
		L384.3,513.8z M165.3,387.2c-3.4-1.2-6.1-2.1-6.5-2.2v95.7c1.3,0.2,3.6,0.6,6.5,1.1V387.2z M83.4,259.4v-0.9
		c-3.4-0.7-13.8-2.6-23-4.4c-2.4-0.5-4.7-0.9-6.8-1.3v7.8c0,0,17.9,3.4,29.8,5.7V259.4z M167.8,388l0,3.6c0,0,7.9,2.6,14.1,4.7
		c-0.3-0.5-0.8-1.5-1.7-3c0,0-0.4-0.7-0.8-1.4C177.8,391.4,172.6,389.6,167.8,388z M793.7,459.2c0,40-29.1,64.4-78,65.8
		c-1.5,0-2.9,0-4.4,0c-16.5,0-31.5-2.1-45.8-6.6c-1.7-0.6-3.3-1-5-1.7c0,0,0,0,0,0c0,0,0,0,0,0C561,616.2,421.1,756,419,758.2
		c-2.2-2.2-138.7-138.7-237.8-237.8h0h-6.6h0h-56.9H53.6v-6.5h145.8v-17.6c3.9,0.7,6.5,1.1,6.5,1.1v22.9H198L385.6,708v-23.5h67.2
		v23l195.7-195.7c-1.4-0.6-2.8-1.2-4.1-1.9l-1.8-0.9l-0.1-2.5c18.8,8,39.2,12,62,12c25.9,0,47.4-6.3,61.9-18.2
		c14.5-11.9,22.2-28.9,22.2-49.3c0-11.5-2.1-21.4-6.1-30c5.5,7.5,8.8,16.4,10.2,26.8C793.3,451.4,793.7,455.2,793.7,459.2z
		 M442.8,694.3h-47.3v23.6l23.5,23.4l23.9-24V694.3z M165.3,350.3l28.6-28.6l-8.3-8.6c-7,7-13.7,13.7-20.3,20.3v-6.6v-67.6
		c3.4-0.3,6.8-0.5,9.8-0.5c13.5,0,24.6,2.6,33.4,7.8c-9.3-9.4-22.9-14.1-41.1-14.2H167c-2.5,0-5.3,0.2-8.1,0.4v0.4v112.2
		c0.5,0,3.5,0,6.5,0.1V350.3z M782.6,421C782.6,421,782.6,421,782.6,421C782.6,421,782.6,421,782.6,421L782.6,421z M575.1,322.1v4.8
		c0,0,5.6,1.1,11.7,2.3c1.1-1.8,1.9-3.3,2.5-4.3C585.7,324.1,580,323,575.1,322.1z M199.3,316.4l22.5-22.5
		c-0.9-4.7-2.1-9.2-3.8-13.1c-9.9,9.9-19.6,19.6-29,29.1L199.3,316.4z M615.6,502.5c0,0-2.6-0.4-6.5-1v12.3h-17.7l5.5,6.5h18.7
		V502.5z M639.4,324.9c-3.5,0.5-6.3,0.9-7.4,1.1c-2.4,4-57.6,96.5-59,98.8v62.6c1.4,0.2,3.7,0.6,6.5,1v-59.5
		c0.7-1.2,34.8-58.3,51.1-85.6C632.5,336.5,635.5,330.3,639.4,324.9z M262,403.1c0,0,18.3,26.8,18.4,27c0.1,0.1,1.4,1.9,1.4,1.9
		c1.4,1.9,2.9,3.8,4.3,5.6c-3.9-5.7-17.4-25.5-17.4-25.5s-13.4-19.7-16.9-24.9c2.2-0.9,4.4-1.9,6.7-3c1.2-0.6,2.4-1.3,3.6-1.9
		l-5.8-4.6c0,0-2.2-1.8-2.2-1.8c-1,0.6-2,1.1-3.1,1.7c-1.6,0.8-3.3,1.5-4.9,2.2c0.4,0.6,0.8,1.2,1.2,1.9
		C252.5,389.2,262,403.1,262,403.1z M271.6,244c-3.2-2.3-6.8-4.3-10.7-6.2c80-80,156.5-156.5,158.1-158.1
		c1.9,2,122.7,122.7,219.5,219.5h-16.8L447.5,125.1L419,153.6l-28.5-28.5L271.6,244z M397.3,118.3l21.6,21.6l21.6-21.6L419,96.6
		L397.3,118.3z"/>
</g>
</svg>
