<?xml version="1.0" encoding="utf-8"?>
<!-- Generator: Adobe Illustrator 25.0.0, SVG Export Plug-In . SVG Version: 6.00 Build 0)  -->
<svg version="1.1" id="Layer_1" xmlns="http://www.w3.org/2000/svg" xmlns:xlink="http://www.w3.org/1999/xlink" x="0px" y="0px"
	 viewBox="0 0 807 807" style="enable-background:new 0 0 807 807;" xml:space="preserve">
<style type="text/css">
	.st0{fill:#FFFFFF;}
	.st1{fill:#003278;}
	.st2{fill:#C0111F;}
</style>
<g>
	<circle class="st0" cx="403.5" cy="403.5" r="403.5"/>
	<path class="st1" d="M128.2,502.4c-3.3,1.2-6.7,1-9.3-0.5c-2.1-1.1-3.6-2.8-4.4-5.1c0,0-1.5-3.9-2.2-5.8c2-0.7,17.7-5.9,19.7-6.6
		c0.5,1.5,1.8,5,1.8,5c0.5,1.6,0.8,3,0.8,4.4c0,1.2-0.2,2.2-0.6,3.2C133,499.4,131,501.3,128.2,502.4z M168.2,616.2
		c1.3-2.2,7.6-13.1,9.9-17.1c-4.4,1.6-16.5,5.9-19,6.8C160.8,607.9,166.6,614.4,168.2,616.2z M793.3,403.5
		c0,215.3-174.5,389.8-389.8,389.8S13.7,618.8,13.7,403.5S188.2,13.7,403.5,13.7S793.3,188.2,793.3,403.5z M693.3,307.5h-29.6
		l23.9,17.4l-9.1,28.1l23.9-17.4l23.9,17.4l-9.1-28.1l23.9-17.4h-29.6l-9.1-28.1L693.3,307.5z M611,217c4.7,9.2,10.8,15.2,17.8,17.4
		c5.4,1.7,11.1,1.1,16.4-1.8c2.6-1.4,4.8-3.8,5.8-5.6c2-3.3,2.5-7.3,2.5-8.5l0.1-6.1c0-0.1-0.2-2.5-0.3-3.3c0.6-0.7,4.3-4.4,4.3-4.4
		s-4.1-7-4.2-7.2c0,0,0.1-0.2,0.1-0.5c0-0.3,0-1.2,0-1.4c0-5.4,1.4-9,4.1-10.2c3.2-1.4,10.6-1.3,13.8,5.6c2.7,5.8,3.2,9.7,2,14.2
		l-0.3,1.1l6.3,2.4l0.4-1.3c2.1-6.6-1.3-15.3-3.5-19.8c-5.2-10.5-16.7-19.1-27.9-14.2c-1.7,0.7-4.1,2-5.6,4.1
		c-1.8,2.6-3,6.2-3.3,9.9l-0.2,2.6c0-0.1-0.1,1.2-0.1,1.4c-0.2-0.2-3.8,3.3-3.8,3.3l-0.7,0.7l4.4,8.1c0,0,0,0.1,0,0.3
		c0,1.5,0.4,9.2,0.4,9.2c-0.1,3.4-1.7,7-3.7,8.2c-2.6,1.7-5.9,2.2-9.1,1.3c-3-0.8-7.4-3-10.9-9.4c-3.9-8.5-1.5-14.7,1.2-18.5
		l0.9-1.3l-6.6-2.8l-0.6,0.7C606.9,196,605.7,206.5,611,217z M63.5,307.5l23.9,17.4L78.3,353l23.9-17.4l23.9,17.4l-9.1-28.1
		l23.9-17.4h-29.5l-9.1-28.1L93,307.5H63.5z M134.1,519.6c4.4-1.6,7.5-4.7,9.3-9.3c2.4-6.3,2-15.2-1.2-23.8l-8.9-24.4l-1.4,1.3
		c0,0-4.9,4.8-5,4.8c-0.1-0.1-6,2.1-6,2.1s-11.9,4.3-12,4.3c0-0.3-7.2-3.3-7.2-3.3l-1.1-0.5c0,0-3.6,7.8-4,8.7
		c-0.9,0.3-19.9,7.3-19.9,7.3c0-0.1-6.5-0.4-6.5-0.4l-1.9-0.1l8.1,22.5l6.3-6.6c0.1,0.1,16.1-5.9,20.5-7.5c0.2,0.5,1.2,3.3,1.5,4.2
		c-0.9,1-22.8,25.2-22.8,25.2l6.4,18.2c0,0,5.7-8.6,5.8-8.9c0.4-0.4,18.5-19.4,19.9-20.8C119.6,519,127.5,522,134.1,519.6z
		 M200.7,590l-6.9-7.9l-1.1,0.4c0,0-26.3,9.2-26.4,9.2c0-0.2-7.9-2.1-7.9-2.1l-1-0.2c0,0-3.1,6.7-3.5,7.5c-1,0.3-22.1,7.4-22.1,7.4
		l0.1,0.1c-1,0.1-2.8,0.3-6.8,0.9l-3.1,0.5l13.5,15.5c0,0,3.1-6.7,3.5-7.5c0.7-0.3,8.5-3.4,9.7-3.8c1,1.1,13.4,15.2,14.3,16.3
		c-0.7,1.2-4.7,8.2-5,8.9c-0.8,0.3-7.9,2.4-7.9,2.4l17.6,20c0,0,2.3-10.2,2.3-10.3c0,0.2,4.5-7.4,4.5-7.4s7.1-11.9,7.2-11.9
		c0.1,0.2,7-2.5,7-2.5l0.9-0.4c0,0-1.4-9.5-1.4-9.6c0.2,0,12.2-24.7,12.2-24.7L200.7,590z M202.1,216.7l-8.9-1.4
		c0-0.2-16.3-14-16.5-14.2c0,0,0,0,0-0.1c0-1.1-1.1-7.2-1.1-7.2l-0.2-1.1c0,0-7.3,0.8-8.2,0.8c-0.7-0.6-12-10.1-13.6-11.5
		c1.3-1.5,6.7-8.1,6.8-8.2c0.1,0.1,8.8-3.8,8.8-3.8l1.9-0.8l-11.9-9.3l-0.7,1l-36.1,43l11.4,9.4c0,0,2.7-11,2.8-11
		c0.1,0,5.3-6.2,7.1-8.3c1.6,1.4,13,10.7,13.7,11.3c0.1,0.9,0.9,8.3,0.9,8.3s7.5-0.3,8.4-0.4c0.7,0.6,16.6,13.9,16.6,13.9
		c0,0.2,2.7,6.1,2.7,6.1l0.8,1.8L202.1,216.7z M227.7,105.1l7.6,4.7c0,0.3,8.1,16.1,9.4,18.5c-0.3,0.9-3.2,8.3-3.2,8.3
		s7.8,2.2,8.8,2.5c0.5,1,9.6,19.3,9.6,19.4c-0.1,0-0.2,6.1-0.2,6.1v2.1l43-22.6l-6.5-13l-7.1,9.6c-0.1-0.1-13.8,7.2-16.6,8.7
		c-1-1.9-9.5-18.5-10.4-20.4c1.8-0.9,11.7-6.1,11.8-6.1c0,0.1,6.1-0.8,6.1-0.8l1.7-0.2l-6.4-12.8l-5.7,6.1c0-0.1-9,4.6-11.6,6
		c-1-1.8-7.6-14.5-8.5-16.4c1.9-1,17.4-9,17.4-9c0,0.1,9.4-0.1,9.4-0.1l2-0.1l-7-13.5l-1.1,0.6L227.7,105.1z M318.2,668.9l-19-9.6
		l0.9,9.7c-0.1-0.1-9,17.9-9,17.9s-2.6,5.3-4.3,8.8c-1.2-6.4-8.5-46.9-8.5-46.9l-17.2-8.4l0.1,2.1c0,0,0.5,8,0.5,8.1
		c-0.1-0.2-4.7,9.2-4.7,9.2s-2.9,5.9-3.3,6.7c-0.9,0.3-8.3,3.2-8.3,3.2s2.4,9,2.4,9.1c-0.3,0-6.3,12.1-6.3,12.1L238,698
		c-0.1-0.1-5.5,3.8-5.5,3.8l-1.6,1.2l19.6,9.7l-1.2-9.9c0.1,0,12.5-24.7,16.9-33.6c1.1,6.6,9.7,56.2,9.7,56.2l8.1,4.1
		c0,0,13.1-26.8,13.1-26.9c0.1,0.2,6.8-2.9,6.8-2.9l0.9-0.4c0,0-2-8.2-2.1-8.3c0.3,0,5.3-10.2,5.3-10.2s3.2-6.7,3.3-6.8
		c0.1,0,5.3-4,5.3-4L318.2,668.9z M367,127.7l21.2-0.2c0,0-1.3-5.5-1.5-6.4c0.6-0.8,12.2-15.7,13.9-18c1.7,2.5,12.4,18.4,12.4,18.5
		c0,0,0,0,0,0.1c0,0.8,0.5,5.1,0.5,5.1l0.1,1.1h23.7l-8.7-8.5c0,0-13.2-19.6-15.4-22.9c0.6-1,3-4.8,3-4.8s-3-3.4-4-4.5
		c1.1-1.5,16-21.5,16-21.5l6.9-7.9h-21.3l0.7,1.7c0,0,1.7,3.9,2.1,5c-0.7,1-11.2,14.9-13,17.2c-1.6-2.5-11.5-17.5-11.5-17.6
		c0,0,0,0,0-0.1c0-0.8-0.5-5.1-0.5-5.1l-0.1-1.1h-22.1l7.1,8.1c0,0,12.3,18.7,14.4,22c-0.6,1-3,4.9-3,4.9s3.5,3.4,4.6,4.5
		c-1.2,1.6-17.2,22.7-17.2,22.7l-6.1,5.8L367,127.7z M442.7,715.6l-25.1-0.2c0,0,4.3,8.2,4.3,8.3c-0.1,0-0.2,6.2-0.2,6.2V742
		c-1.4,0.4-3,1.7-7.9,1.7c-12-0.1-19-10.8-20.7-21.4c0.1-0.1,5.4-5.4,5.4-5.4l0.8-0.8c0,0-4.9-5.8-5.5-6.6c0.1-0.3,0.3-2.1,0.3-2.1
		c2.5-8.5,9.1-17.6,20.5-17.3c8.2,0.2,14.3,2.2,17.1,5.6l1,1.3l2.1,2.6l0.4-13l-0.8-0.6c-5.8-4-10.9-5.4-19.9-5.4
		c-17.3-0.2-33,10.4-38.2,25.7c0,0.1-0.9,3.2-0.9,3.2c-0.1-0.1-5,5-5,5l-0.7,0.8l5.5,7.2c2.9,17.3,19.6,30.4,38.5,30.6
		c13.3,0.1,17.2-1.8,21.7-4.1l2.6-1.3c0,0,0.1-24.3,0.1-24.4c0.2,0,3.4-5.9,3.4-5.9L442.7,715.6z M493.2,138.8l17.1,8
		c0,0,0.2-6.9,0.2-7.7c0.6-0.6,6.9-6.9,7.9-7.9c1.4,0.7,19.3,9.1,20.7,9.8c-0.2,1.5-1.1,10.1-1.2,10.9c-0.6,0.6-5.9,5-5.9,5
		l22.5,10.5l-1.8-9.4c0.1,0,3-21.6,3.1-21.9c0.2,0.1,6.3-5.3,6.3-5.3l0.9-0.8l-6.2-7.9c0.3,0,1.6-28.6,1.6-28.6v-0.8l-8.8-4.2
		L549,89c0,0-21.7,20-21.7,20.1c0-0.2-8.2,1.1-8.2,1.1l-1.1,0.2c0,0,0.1,7.4,0.1,8.3C517.3,119.4,501,134,501,134
		c0.2-0.1-5.9,3.6-5.9,3.6L493.2,138.8z M573.7,709.3l-5.8-13.7c0,0-8.2,9.5-8.3,9.6c0-0.1-10.5,4.5-10.5,4.5s-4.1,1.8-5.7,2.5
		c-0.5-1.2-7.8-18.6-8.6-20.7c1.9-0.8,11.3-4.9,11.3-4.9l6.9-0.3l1.7-0.1l-6-14.5l-6.6,6.1l-10.9,4.7c0,0-0.1,0.1-0.2,0.1
		c-0.8-1.9-6.4-14.9-7.2-16.8c1.7-0.7,16.2-7,16.7-7.2c0.7,0.1,12.3,0.7,12.3,0.7l-5.9-14.1l-1.7,0.7l-44.3,19.2l7.8,5.7
		c0,0.3,7.2,17.1,7.8,18.6c-0.4,0.9-3.8,8.2-3.8,8.2s7.8,2.9,8.7,3.2c0.4,0.9,7.9,19.4,7.9,19.4c-0.1,0-0.6,6.8-0.6,6.8l-0.2,2.1
		L573.7,709.3z M687.5,608.1c0,0-10.4-0.7-10.5-0.7c-0.2-0.1-25.8-6.6-27.9-7.2c1-2.7,1.7-5.5,1.7-8c0-5.2-1.9-10-5.4-13
		c-3.6-3.1-7.8-4.3-12.6-3.5c-6.6,1-14.2,5.8-20.1,12.8l-16.8,19.8l8.6,2.6c0,0.2,14.1,12.5,14.2,12.6c-0.1,0-0.1,0.1-0.1,0.4
		c0,1.6,0.7,7.5,0.7,7.5l0.1,1.2c0,0,8.6-0.8,9.5-0.9c0.8,0.7,16.2,13.9,16.2,13.9c0,0.2,2.8,5.9,2.8,5.9l0.8,1.7l15.6-18l-8.8-2.3
		c0-0.1-13.1-11.2-16.7-14.2c0.6-0.7,2.4-2.7,2.9-3.4c1.4,0.3,33.1,7.6,33.1,7.6L687.5,608.1z M734.8,492.2
		c-2.5-5.7-7.4-9.9-13.7-11.8c-2.8-0.9-6.1-0.7-8.2-0.1c-3.5,1-6.6,3.2-8,4.4l-4.3,4.2c-0.1,0.1-1.5,1.8-2,2.4
		c-0.9,0-6.2,0.1-6.2,0.1s-2,8-2.1,8.4c-0.1,0-0.8,0.7-0.8,0.7c-4.8,5.1-8,5.1-9.5,4.6c-3.1-1.2-8.4-6-5.8-13
		c2.1-5.8,4.3-8.8,8.1-11l1-0.5l0.1-1.4l-2.7-6.1L679,474c-4.7,2.5-8.8,8.4-11.6,16.9c-3.8,11.3-1.5,25.8,10,30.3
		c1.8,0.7,4.5,1.5,7.2,1c3.2-0.7,6.5-2.4,9.5-4.8l1.9-1.8c-0.1,0,0.7-0.6,0.8-0.7c0.1,0.2,5.3,0.3,5.3,0.3h0.9l2.6-9.1
		c0.1,0,6.2-6.9,6.2-6.9c2.4-2.2,5.6-3.5,7.8-3c3.6,1,6,3.1,7.5,6c1.8,3.6,2,8.1,0.6,13c-3,8.4-8.8,11-13.2,11.7l-1.5,0.3l-0.1,1.6
		l2.5,6.3l1.3-0.1c5.2-0.5,14.2-6.7,18-18.8C737.6,506.9,737.6,498.6,734.8,492.2z M542.5,108.4c-3.5,3.3-14.8,13.8-16.8,15.7
		c2.4,1.2,11.9,5.6,14.2,6.7C540.2,128.2,541.9,113.3,542.5,108.4z M633.4,592.8c-2.4-2.1-5-2.9-7.6-2.5c-2.2,0.3-4.4,1.6-6.4,4
		c0,0-2.4,2.8-3.5,4c1.5,1.4,13.8,12.5,15.4,14c1.3-1.6,3.9-4.7,3.9-4.8c1.5-1.8,2.3-3.9,2.3-6.1c0-0.1,0-0.1,0-0.2
		C637.5,598.2,636,595.1,633.4,592.8z"/>
	<path class="st2" d="M525.7,124.1c2-1.9,13.2-12.4,16.8-15.7c-0.5,4.8-2.3,19.8-2.6,22.4C537.6,129.7,528.1,125.3,525.7,124.1z
		 M775.6,403.5c-0.1-2.3-0.2-4.6-0.2-7h-116c-1.8-62.8-26.4-125-74.3-172.9c-99.6-99.6-261.1-99.6-360.7,0
		c-48.1,48.1-72.7,110.5-74.4,173.5L31.6,397C35.1,194.8,200.5,31.4,403.5,31.4C608.7,31.4,775.6,198.3,775.6,403.5z M116.9,324.9
		l23.9-17.4h-29.5l-9.1-28.1L93,307.5H63.5l23.9,17.4L78.3,353l23.9-17.4l23.9,17.4L116.9,324.9z M202.1,216.7l-8.9-1.4
		c0-0.2-16.3-14-16.5-14.2c0,0,0,0,0-0.1c0-1.1-1.1-7.2-1.1-7.2l-0.2-1.1c0,0-7.3,0.8-8.2,0.8c-0.7-0.6-12-10.1-13.6-11.5
		c1.3-1.5,6.7-8.1,6.8-8.2c0.1,0.1,8.8-3.8,8.8-3.8l1.9-0.8l-11.9-9.3l-0.7,1l-36.1,43l11.4,9.4c0,0,2.7-11,2.8-11
		c0.1,0,5.3-6.2,7.1-8.3c1.6,1.4,13,10.7,13.7,11.3c0.1,0.9,0.9,8.3,0.9,8.3s7.5-0.3,8.4-0.4c0.7,0.6,16.6,13.9,16.6,13.9
		c0,0.2,2.7,6.1,2.7,6.1l0.8,1.8L202.1,216.7z M302.7,144.2l-6.5-13l-7.1,9.6c-0.1-0.1-13.8,7.2-16.6,8.7c-1-1.9-9.5-18.5-10.4-20.4
		c1.8-0.9,11.7-6.1,11.8-6.1c0,0.1,6.1-0.8,6.1-0.8l1.7-0.2l-6.4-12.8l-5.7,6.1c0-0.1-9,4.6-11.6,6c-1-1.8-7.6-14.5-8.5-16.4
		c1.9-1,17.4-9,17.4-9c0,0.1,9.4-0.1,9.4-0.1l2-0.1l-7-13.5l-1.1,0.6l-42.4,22.3l7.6,4.7c0,0.3,8.1,16.1,9.4,18.5
		c-0.3,0.9-3.2,8.3-3.2,8.3s7.8,2.2,8.8,2.5c0.5,1,9.6,19.3,9.6,19.4c-0.1,0-0.2,6.1-0.2,6.1v2.1L302.7,144.2z M437.4,127.8
		l-8.7-8.5c0,0-13.2-19.6-15.4-22.9c0.6-1,3-4.8,3-4.8s-3-3.4-4-4.5c1.1-1.5,16-21.5,16-21.5l6.9-7.9h-21.3l0.7,1.7
		c0,0,1.7,3.9,2.1,5c-0.7,1-11.2,14.9-13,17.2c-1.6-2.5-11.5-17.5-11.5-17.6c0,0,0,0,0-0.1c0-0.8-0.5-5.1-0.5-5.1l-0.1-1.1h-22.1
		l7.1,8.1c0,0,12.3,18.7,14.4,22c-0.6,1-3,4.9-3,4.9s3.5,3.4,4.6,4.5c-1.2,1.6-17.2,22.7-17.2,22.7l-6.1,5.8l-2.3,2.2l21.2-0.2
		c0,0-1.3-5.5-1.5-6.4c0.6-0.8,12.2-15.7,13.9-18c1.7,2.5,12.4,18.4,12.4,18.5c0,0,0,0,0,0.1c0,0.8,0.5,5.1,0.5,5.1l0.1,1.1
		L437.4,127.8z M563,130.1l-6.2-7.9c0.3,0,1.6-28.6,1.6-28.6v-0.8l-8.8-4.2L549,89c0,0-21.7,20-21.7,20.1c0-0.2-8.2,1.1-8.2,1.1
		l-1.1,0.2c0,0,0.1,7.4,0.1,8.3C517.3,119.4,501,134,501,134c0.2-0.1-5.9,3.6-5.9,3.6l-1.9,1.2l17.1,8c0,0,0.2-6.9,0.2-7.7
		c0.6-0.6,6.9-6.9,7.9-7.9c1.4,0.7,19.3,9.1,20.7,9.8c-0.2,1.5-1.1,10.1-1.2,10.9c-0.6,0.6-5.9,5-5.9,5l22.5,10.5l-1.8-9.4
		c0.1,0,3-21.6,3.1-21.9c0.2,0.1,6.3-5.3,6.3-5.3L563,130.1z M671.3,191.2c2.7,5.8,3.2,9.7,2,14.2l-0.3,1.1l6.3,2.4l0.4-1.3
		c2.1-6.6-1.3-15.3-3.5-19.8c-5.2-10.5-16.7-19.1-27.9-14.2c-1.7,0.7-4.1,2-5.6,4.1c-1.8,2.6-3,6.2-3.3,9.9l-0.2,2.6
		c0-0.1-0.1,1.2-0.1,1.4c-0.2-0.2-3.8,3.3-3.8,3.3l-0.7,0.7l4.4,8.1c0,0,0,0.1,0,0.3c0,1.5,0.4,9.2,0.4,9.2c-0.1,3.4-1.7,7-3.7,8.2
		c-2.6,1.7-5.9,2.2-9.1,1.3c-3-0.8-7.4-3-10.9-9.4c-3.9-8.5-1.5-14.7,1.2-18.5l0.9-1.3l-6.6-2.8l-0.6,0.7
		c-3.7,4.6-4.9,15.1,0.4,25.6c4.7,9.2,10.8,15.2,17.8,17.4c5.4,1.7,11.1,1.1,16.4-1.8c2.6-1.4,4.8-3.8,5.8-5.6
		c2-3.3,2.5-7.3,2.5-8.5l0.1-6.1c0-0.1-0.2-2.5-0.3-3.3c0.6-0.7,4.3-4.4,4.3-4.4s-4.1-7-4.2-7.2c0,0,0.1-0.2,0.1-0.5
		c0-0.3,0-1.2,0-1.4c0-5.4,1.4-9,4.1-10.2C660.8,184.2,668.2,184.3,671.3,191.2z M717.1,324.9l23.9-17.4h-29.6l-9.1-28.1l-9.1,28.1
		h-29.6l23.9,17.4l-9.1,28.1l23.9-17.4l23.9,17.4L717.1,324.9z"/>
	<path class="st0" d="M322.2,162.7c-2.6,0.9-5.2,1.8-7.8,2.8c0,0-0.1,0-0.1,0c2.6-1,5.1-1.9,7.7-2.8
		C322,162.7,322.1,162.7,322.2,162.7z M775.5,404.8c0,1.7-0.1,3.3-0.1,5h-116c-1.4,63.3-26.1,126.3-74.4,174.6
		c-99.6,99.6-261.1,99.6-360.7,0c-48.2-48.3-72.9-110.9-74.4-174.1H31.6c0-1.7-0.1-3.3-0.1-5c0-0.7,0-1.3,0-1.9c0-2.1,0-4.2,0.1-6.4
		l118.2,0.4c1.7-63,26.3-125.4,74.4-173.5c20.6-20.6,43.8-36.9,68.6-49c1.6-0.1,9.7-1.4,10.6,0.7c5.1-0.5,10.6,2.6,13.9,4.7l7.3-1.9
		c-3.9-3.5-11.1-6.3-15.2-6.1c-1.7-2.6-5.4-1.2-7.7-1.5l-6.6,3c6.3-3,12.8-5.8,19.3-8.3c1.1,0.2,5.7,1.3,7.9,3.3
		c4.7-0.8,9.4,1.5,12.8,3.7l6.8-2.4c-0.7-1.3-9.6-5.1-14.5-5.2c-1.7-1.4-3.7-1.9-5.2-2.2c4.1-1.4,8.1-2.7,12.3-3.8
		c2,0.3,6.1,1.1,7.6,2.8c4.6-0.8,7.7,1.4,10.6,2.9l6.8-2.2c0,0-8.8-4.3-12-4.4c-1.6-0.8-2.5-1.5-3.8-1.7c4.9-1.2,9.9-2.3,14.9-3.2
		c4.2,1.1,8.1,3.6,12.3,5.7l4-0.4c0,0-3.9-3.3-9.5-6.4c77.7-12,159.8,11.8,219.7,71.6c26.9,26.9,46.5,58.4,58.8,91.9
		c-1-1.2-2.2-2.5-4-4.3l-1,3.5c3.2,3.6,6.4,7.3,9,12.8c0.9,2.8,1.7,5.7,2.5,8.6l-2.2-2.5l-1.8,3.9c2,1.4,4,3.5,6.1,6.7
		c4.1,17.2,6.4,34.7,6.9,52.3h116c0.1,2.4,0.2,4.7,0.2,7C775.5,403.9,775.6,404.3,775.5,404.8z M634.2,324.9
		c4.7,4,7.8,7.3,10.7,14.4l1.8-3.6c-3-6.1-4.5-7.7-11.2-14.4L634.2,324.9z M610.4,360c4.7,2.9,11.8,10.7,14.8,17.8l2.8-4.2
		c-3-6.1-8-13.7-13.7-17.7L610.4,360z M494.6,361l20.3,19.3h33.2V270.7l-18.4-17.2V361H494.6z M430.4,370.4
		c0,13,20.9,21.3,21.1,21.4l8.6,3.4c-5.4-4.2-10.4-9.9-10.4-17.1c0-15.5,0-70,0-70l3.3,0.2c12.9,1.1,22.1,4.5,28.7,9.5
		c-10.7-10.7-27.8-16.5-51.3-16.6C430.4,307.8,430.4,370.4,430.4,370.4z M383.4,155.4l3-0.4c0,0-3.6-3-6.2-4.8
		c-1.9,0.1-3.7,0.4-5.6,0.6C376.4,151.4,382.6,153.9,383.4,155.4z M276.7,185.8c1.1,0.1,8.5,0.2,9.5,2.4c5-0.5,10.6,1.3,13.8,3.3
		l6.4-4.8c-5-2.7-12.8-4.2-16.9-4c-2-0.8-1.8-1.4-4.1-1.7L276.7,185.8z M257.4,199.8c2.8,0.9,3.8,3.3,5.6,5.8
		c6-1.1,14.7-3.5,23.2-1.6l6.4-5.7c-9.6-1.7-19.8-1.2-25,0.2c-1.3-1.9-4.2-3.9-4.2-3.9L257.4,199.8z M240.4,218.2
		c2.9,0.9,3.8,4.2,5.6,6.6c5-2.4,15.8-4.2,26.7-2.7l5.6-7.3c-16.6-1.2-23.4,0.9-28.6,3.4c-1.8-2.9-4.4-4.7-4.4-4.7L240.4,218.2z
		 M163.9,460.1c4.3,1,9.5,3.6,11.3,6.1c5-2.5,11.9-2.2,20.6,2.4l-0.2-8c-10.5-4.7-15.9-3.9-19.8-1.6c-1.8-3.1-12.4-7-12.4-7
		L163.9,460.1z M163.6,434.4c3.6,2.2,9.2,7.8,10.9,10.4c2.3-3.9,4.9-5.8,21.2-2.4l0.1-7.8c-19.3-0.9-19,0.8-19.6,3.3
		c-1.7-3.1-12.8-12.6-12.8-12.6L163.6,434.4z M167.4,482.5c4.8,1.3,7.9,3.5,9.7,6c1-2.5,4-1.1,8,0.7c3.5,1.6,6.1,3.5,10.2,5.7
		l-0.2-8.1c-8.9-5.7-17.6-10-18.8-6.1c-1.8-3-11-7.2-11-7.2L167.4,482.5z M196.1,516.4l-0.7-7.6c-9.1-7.7-13.6-7.3-16.9-7.3
		c-1.8-3.3-9.1-7.3-9.1-7.3l1.1,8.1c3.9,1.6,6.9,3.8,8.7,6.5C183.4,508.3,187.1,509.9,196.1,516.4z M198.3,405.7
		c-14,0.1-18.5,3.5-19.7,4.9c-1.1,1-1.5,2.8-1.8,3.9c-2.2-5.7-11.4-14.9-11.4-14.9l-0.6,8.2c3.2,1.5,9.2,11.5,11,13.9
		c0.4-0.5,0.9-1.9,2-3.3c1.9-2.4,7.6-5.7,19.7-5.2L198.3,405.7z M202.1,377.2c-13.1,0.7-19,2.9-20.7,6.6c-1.9-2.9-11.6-13-11.6-13
		l-1.3,8.5c6.4,5.6,9.1,10.9,11,13.2c2.1-4.2,10.2-8.2,21.2-7.3L202.1,377.2z M208.5,349.3c-15.9,1.2-18.4,3-22.3,7.7
		c-1.7-3-9.3-13.5-9.3-13.5l-1.7,8.8c3.6,3.4,6.3,9.7,8.1,12.2c4.9-2.5,12.6-9.4,23.5-7.8L208.5,349.3z M216.6,323.1
		c-16.1,1-23.1,2.6-24.4,6.6c-1.8-3-7.9-10.5-7.9-10.5l-1.7,8.2c3.7,2,5.4,6.9,7.2,9.4c4.8-2.5,13.1-7,24-5.5L216.6,323.1z
		 M224.3,300.7c-16.6,1.1-21,2.5-22.2,6.4c-2.5-4.9-7.9-11-7.9-11l-2.4,8.2c3.6,2,5.3,6.9,7.1,9.4c5-2.6,11-6.6,22-5.1L224.3,300.7z
		 M236.1,274.8c-13.4,0-22.7,2.9-23.9,6.9c-2.3-5.5-7.2-10.2-7.2-10.2l-2.9,7.9c3.7,2,4.3,6.9,6.1,9.3c4.9-2.4,12.3-7,23.3-5.5
		L236.1,274.8z M246.6,253.7c-13.9,0-22.9,2.9-24.1,6.9c-1.8-4.1-6.4-9.1-6.4-9.1l-3,7.1c2.6,2,4.3,6.9,6.1,9.4
		c4.9-2.6,11.3-7.4,22.2-5.8L246.6,253.7z M256.9,240.2l5.6-7.3c-17.2,0.4-26.7,1.9-27.9,5.9c-1.8-3.1-4.9-6.1-4.9-6.1l-4,6.3
		c3.7,2,3.3,4.4,5.1,6.9C235.7,243.4,245.8,238.7,256.9,240.2z M280.4,379.1h40.2l0.1-6.8c0-37.7,3.7-61.5,43.7-65.5
		c0-2.9,0-5,0-5.9c-0.2,0-0.6,0-0.6,0c-42.8,0-60.3,14.9-60.3,51.7v8.4h-42.3L280.4,379.1z M327.3,558.2c0.8,0.4,1.7,0.8,2.6,1.2v-4
		L327.3,558.2z M333.8,632.2c-8.5-1-11.8-5.3-15.6-11c-9.2,2.3-17.8-1.8-24.1-3.7l-1.8,5.4c8.9,4.6,17.5,3.9,24,2.5
		c3.6,5.1,6.6,7.9,14.5,10.9L333.8,632.2z M339.5,620.7c-6.6-2.7-12.7-6.3-14.9-14.3c-9.3,2.4-19-1-25.4-2.9l-2.7,6.1
		c9.6,3.3,18.6,4,25.1,2.6c3.3,5.5,7,10.7,14.9,13.7L339.5,620.7z M349.5,604.7c-5.9-2.4-13-11.8-14.4-17.8l-1,1.6
		c-9.3,2.3-20.4,0.3-26.8-1.6l-3.3,5.8c8.9,2.8,16.6,3.2,26.5,2.1l0.5-0.9c3.6,6.6,4.5,10.6,13.8,16L349.5,604.7z M358.8,593.4
		c-5.8-2.3-13.4-12.2-14.8-18.2l-0.5,0.7c-8.9,1.7-19.4-2.9-25.7-4.8l-3.6,5.5c8.9,4.6,17.6,5,25.4,5l0.5-0.7
		c3.3,7.2,6.4,14.7,14.3,17.7L358.8,593.4z M481.4,525.6l-8.1-7.5l6.4-2.7c-4.8-5-4.6-19.8-4.1-27.8l-2.2,1.3
		c-9-1.4-18.6-10.3-23.1-16.4l-0.5,0.2c0-18.3,0-38.4,0-46.7c0-16.8,23.3-23.3,23.3-23.3s-6.3-2.5-12.4-7.1l-9.5,2.7
		c-0.3,0.1-20.8,6.1-20.8,20v82.4c0,5.6,2.3,9.3,13.5,9.3h5.8c0-0.5,0-1,0-1.6c0,0,0-11,0-25c5.9,5.1,12,9.3,16.6,9.8l2-1.2
		c0.1,10.1-0.8,16,1.6,23l-4.9-4.6v50H330.2l21.2,20h9.2c1.4,2.2,3,4,4.9,4.5l4.4-4.5h111.4h0.1V525.6z M510.3,500.3
		c-4.8-5-4.6-19.8-4.1-27.8l-2.2,1.3c-9-1.5-18.6-10.4-23.1-16.5l-8.3,3.5c7.6,7.9,17.6,16.5,24.4,17.3l2-1.2
		c0.1,11.9-1.5,17.9,3,26.9L510.3,500.3z M541.5,485c-4.8-5-4.6-19.8-4.1-27.8l-0.3-0.5c-3,1.1-6.7,0.2-10.1-2.7
		c-3.3-2.9-14.4-16-14.4-16l-9.1,5c5.3,5.4,22.7,19.2,26.2,19.3l0.5-0.4c0,11.6-1.4,17.6,3,26.5L541.5,485z M560.6,436.5
		c-0.2,0.3-4.2,4.2-5.9,3c-2.9-2-7.8-4.8-16.9-14.8l-6.7,4.1c3,2.3,16.7,18.1,23.1,15.7c0,0-2.9,19.6-2.4,29.7l7.3-4.7
		C558.8,464.2,559.2,441.7,560.6,436.5z M579.3,422.6L574,426c-6.9-10.1-11.5-14.5-15.5-17.3l-4.9,3.7c2.1,0.6,7.6,6.2,15.5,17.9
		l4.7-3.9c0.7,13,1.7,25.4,0.3,31.3l5.7-4.4C581,443.8,580.6,432.7,579.3,422.6z M594,410.4l-4.1,3c-3.5-5.9-10.4-13.9-15.7-17.5
		l-4.8,4.2c4.8,2.8,14.6,11.9,17.5,19l3.1-3.4c1,11.4,0.9,24.1-0.4,30l5.9-4.6C596.5,430.8,595.9,419,594,410.4z M604.3,401.6
		c-3-6-10.8-15.1-16.6-19l-4.7,4.2c4.7,2.8,14.5,11.9,17.4,19L604.3,401.6z M608.9,397.5l-4.4,4.4c1.5,3.8,2.6,8.5,1.5,31.4l5.6-5.2
		C611.8,410.9,610.9,406.2,608.9,397.5z M618.5,386.7c-3-6-10.5-13.7-16.5-17.7l-4.5,3.6c3.3,2.2,14.7,11.7,17.6,18.8L618.5,386.7z
		 M622.5,382.1l-4,5.2c2.6,8.7,4.2,23.5,2.8,32l5.1-6.8C627.3,402.8,624.3,390.7,622.5,382.1z M639.8,394.9
		c-0.2-11.2-7.6-25.9-10.4-23.4l-2,3.4c5.6,7.2,7.8,15.3,8.4,26.1L639.8,394.9z M647.3,379.3c-2.6-16.8-10.4-23-11-19.3l-1.1,1.3
		l0.8-1.3c-2.9-6-6.6-12.5-12.3-16.5l-3.1,4.1c4.7,3,9.6,10,12.6,17.1l1.5-2.5c2.6,2.3,7.3,5.6,10.3,23.2L647.3,379.3z M653.2,363
		c-0.7-9.2-9.2-19.5-10.5-16.3l-0.5,1.4c-3-5.9-4.9-10-11.6-16.1l-2.3,3.7c6.2,5.6,9,8.7,11.9,16.9l1.5-3.1l-0.2,0.5
		c3.5,2.9,7.5,7.6,9.9,20.4L653.2,363z M334.4,158.9C334.4,158.9,334.4,158.9,334.4,158.9c3-0.9,6.1-1.7,9.1-2.4
		C339.9,157.4,337.6,157.9,334.4,158.9z"/>
	<path class="st2" d="M267.8,260.1c0,6.2,0,88.1,0,94.2c5.1,0,24.6,0,29.3,0c0.2-1.9,0.3-3.8,0.3-3.8l-0.6,1.9
		c0-40.2,20.7-58.1,67.1-58.1h7.4v76.2c0,13-9.5,20.5-16.3,24.4c6.9,3.5,16.3,10.4,16.3,23.4V500c0,10.6-7.3,16.9-19.5,16.9
		c0,0-10.5,0-15.1,0c0,5.3,0,31.4,0,36.7c6.3,0,115.1,0,121.4,0c0-5.3,0-31.4,0-36.7c-4.4,0-14.2,0-14.2,0
		c-13.5-0.1-20.4-5.5-20.4-16.2v-82.4c0-12.9,11-20,18.6-23.6c-7.6-4.2-18.6-12.2-18.6-24.2V294l3.6,0.2c0,0,3.3,0.2,3.1,0.2
		c45,0,70.8,20.3,70.8,55.9c0,0,0,2,0,4c4.6,0,17.3,0,21.9,0c0-6.2,0-88.1,0-94.2C516.3,260.1,274.3,260.1,267.8,260.1z"/>
</g>
</svg>
