<?xml version="1.0" encoding="utf-8"?>
<!-- Generator: Adobe Illustrator 25.0.0, SVG Export Plug-In . SVG Version: 6.00 Build 0)  -->
<svg version="1.1"
	 id="Layer_1" xmlns:cc="http://creativecommons.org/ns#" xmlns:dc="http://purl.org/dc/elements/1.1/" xmlns:rdf="http://www.w3.org/1999/02/22-rdf-syntax-ns#"
	 xmlns="http://www.w3.org/2000/svg" xmlns:xlink="http://www.w3.org/1999/xlink" x="0px" y="0px" viewBox="0 0 822 822"
	 style="enable-background:new 0 0 822 822;" xml:space="preserve">
<style type="text/css">
	.st0{fill:#AB0003;}
	.st1{fill:#14264B;}
	.st2{fill:#FFFFFF;}
</style>
<g transform="matrix(1.0409 0 0 1.0409 -2.6231 -22.389)">
	<path class="st0" d="M397.4,21.5C179.3,21.5,2.5,198.3,2.5,416.4c0,218.1,176.8,394.8,394.9,394.8c218.1,0,394.9-176.8,394.9-394.9
		C792.2,198.3,615.4,21.5,397.4,21.5z"/>
	<path class="st1" d="M397.4,43.5L397.4,43.5c-206,0-373,167-373,372.9s167,372.9,373,372.9c206,0,372.9-167,372.9-373
		C770.3,210.4,603.3,43.5,397.4,43.5z"/>
	<path class="st0" d="M397.4,148.1L397.4,148.1c-148.2,0-268.3,120.1-268.3,268.3c0,148.2,120.1,268.3,268.3,268.3
		s268.3-120.1,268.3-268.3C665.7,268.2,545.6,148.1,397.4,148.1z"/>
	<path class="st1" d="M397.4,163.7c-139.6,0-252.7,113.1-252.7,252.7c0,139.6,113.2,252.7,252.7,252.7S650.1,556,650.1,416.4
		C650.1,276.8,536.9,163.7,397.4,163.7z"/>
	<path class="st2" d="M349.3,132.6l-9.4-65.3l13-1.9v0l9.5,65.3L349.3,132.6z M408.7,89.9l34.7,42.4l3.1,0.2l5.2-66.7l-12.5-1
		l-3,38.6l-34.7-42.4l-3.1-0.2v0l-5.2,66.7l12.5,0.9L408.7,89.9z M655.2,285.9l4.6,11.6l36-14.2l-22.7,49.1l-0.3,0.6l1.1,2.9
		l62.2-24.6l-4.6-11.6l-36,14.2l22.9-49.7l-1.1-2.9l0,0L655.2,285.9z M281.5,152.7l-6.9-17.9l25-9.6l6.9,17.9l12.3-4.7l-23.7-61.6
		l0,0l-12.3,4.7l12.5,32.4l-25,9.6l-12.4-32.4l-12.3,4.7l23.7,61.5L281.5,152.7z M198.7,164c2.7,0,5.7-0.4,9.5-1.2l4.6-1
		c2.4-0.5,4.7-1,6.6-1c2.6,0,4.4,0.9,5.9,2.9c1,1.3,1.3,2.7,1.1,4.2c-0.4,2.3-2.1,4.6-4.8,6.6c-4.7,3.4-9.8,3.9-14.7,1.4l-1.5-0.7
		l-5.8,11.2l1.5,0.7c3.8,1.8,7.7,2.8,11.6,2.8c5.6,0,11.1-1.9,16.1-5.5c11.1-8.1,13.8-19,6.9-28.5c-4.1-5.5-9-8.1-15.7-8.1
		c-2.7,0-5.8,0.4-10,1.3l-4.6,1c-2.8,0.6-5.1,1-6.9,1c-2.4,0-3.9-0.7-5.2-2.6c-2.1-2.9-1.4-6,1.8-8.3c3.2-2.4,6.3-2.6,10.2-0.9
		l1.6,0.7l4.3-11.4l-1.5-0.6c-3.8-1.6-7.5-2.2-11.2-1.7l0,0c-3.7,0.5-7.2,1.9-10.7,4.5c-4.4,3.2-7.3,7.5-8.1,12.1
		c-0.9,4.7,0.3,9.5,3.3,13.6C186.9,161.5,191.9,164,198.7,164z M397.5,179.4c-130.9,0-237.1,106.2-237.1,237.1
		c0,131,106.2,237.1,237.1,237.1c131,0,237.1-106.2,237.1-237.1C634.6,285.5,528.4,179.4,397.5,179.4z M123.7,190.2L123.7,190.2
		L123.7,190.2L123.7,190.2z M626.6,189.7c6.2-5,13.5-7.6,21.2-7.6l0,0c10.2,0,19.9,4.7,26.5,13c5.7,7.2,8.4,16,7.5,24.8
		c-0.9,8.9-5.4,17-12.7,22.9c-6.2,5-13.5,7.6-21.2,7.6c-10.2,0-19.8-4.7-26.4-13c-5.7-7.2-8.4-16-7.5-24.8
		C614.8,203.6,619.4,195.5,626.6,189.7z M631,229.7c4,5,9.5,7.7,15.6,7.7c4.9,0,9.8-1.8,14.1-5.3c9.8-7.8,11.5-20.2,4-29.5
		c-4-5-9.5-7.7-15.6-7.7c-4.9,0-9.8,1.8-14.1,5.3C625.3,208,623.6,220.4,631,229.7z M504.1,150c5.3,2,10.3,3.1,15.2,3.1
		c3.9,0,7.6-0.6,11.6-1.9l0.7-0.2l9.1-23.7l-27.2-10.5l-4.3,11.3l15.6,6l-2.5,6.5c-4.2,0.7-8.7,0.1-13.8-1.8
		c-12.1-4.7-17.1-15.9-12.5-27.9c3.4-8.8,10.7-14.4,19.1-14.4c2.4,0,4.9,0.5,7.4,1.4c8.4,3.2,10.7,7.8,12.5,12.2l0.6,1.6l11.7-4.8
		l-0.5-1.5c-3.4-9-9.6-14.9-19.6-18.8c-4.1-1.6-8.3-2.4-12.6-2.4l0,0c-14,0-25.9,8.4-31.1,21.8C476.5,123.8,485.4,142.8,504.1,150z
		 M571.9,187.6l31.7-43.6l15,11l7.1-9.7l-40.7-29.7l-7.1,9.7l15,10.9l-31.7,43.6L571.9,187.6z M585.1,115.6L585.1,115.6L585.1,115.6
		L585.1,115.6z M634.5,662.3l-38-38.2l-9.3,9.3l46.5,46.7l28.9-28.8l-8.5-8.5L634.5,662.3z M495.1,688.4l-12.1,3.1l9.6,37.5
		l-45.9-28.6l-0.6-0.4l-3,0.8l16.6,64.8l12.1-3.1l-9.6-37.5l45.9,28.6l0.6,0.4l3-0.8L495.1,688.4L495.1,688.4z M416.6,738.2
		c-0.8,18.4-15.4,32.3-33.8,32.3c-0.6,0-1.1,0-1.7-0.1c-19-0.9-33.3-16.4-32.4-35.3c0.9-19,16.3-33.1,35.5-32.2l0,0
		C403.2,703.8,417.4,719.3,416.6,738.2z M398.1,722c-3.5-4.1-8.7-6.5-14.5-6.8c-0.4,0-0.7,0-1.1,0l0,0c-11.4,0-19.8,8.5-20.4,20.6
		c-0.6,12.5,7.6,22,19.5,22.5c12,0.5,20.9-8.1,21.4-20.6C403.4,731.7,401.7,726.1,398.1,722z M310.9,690.9l-18.4,63.3l12.6,3.7
		l18.4-63.4L310.9,690.9L310.9,690.9z M694.9,573c-3.5-2.1-6.8-3.2-10.2-3.2c-5.4,0-10.4,2.6-16.2,6.6l-3.9,2.7
		c-4,2.7-6.5,4.2-8.7,4.2c-1,0-2-0.3-3.2-1c-3-1.8-3.5-5-1.5-8.4c2-3.3,4.7-4.7,8.8-4.7l2,0l-0.3-12.2l-2,0l0,0
		c-8.1,0-14.4,3.6-18.8,10.8c-2.8,4.6-3.9,9.7-2.9,14.3c0.9,4.7,3.8,8.7,8.2,11.4c3.2,2,6.4,2.9,9.7,2.9c4.8,0,9.6-1.9,16.1-6.4
		l3.9-2.7c3.2-2.2,6.1-4.1,8.7-4.1c1.2,0,2.4,0.4,3.6,1.1c1.4,0.8,2.2,2,2.6,3.5c0.5,2.2-0.2,5.1-1.9,8c-3.1,5-7.5,7.2-13.1,6.8
		l-1.6-0.1l-1.1,12.5l1.7,0.1c0.6,0,1.3,0.1,1.9,0.1c9.4,0,17.5-4.7,22.7-13.1c3.9-6.3,5.3-12.5,4-18
		C702.2,579.5,699.4,575.7,694.9,573z M122,192.2l1.6-2l70.4,20.3l-8.8,10.7l-11.3-3.4l-15.3,18.7l5.5,10.4l-8.5,10.4L122,192.2z
		 M159.6,213.4l-15.6-4.7l8.7,16.4l9.1-11L159.6,213.4z M542.9,662.9l59.2,43.2l-12,7.1l-9.4-7L560,718.4l1.6,11.6l-11.5,6.8
		l-9.4-72.6L542.9,662.9L542.9,662.9z M568.8,697l-13.1-9.8l2.2,16.2l0.3,2.2l12.3-7.3L568.8,697z M240.7,659l-5.6,10.6l16.4,8.7
		l-25.2,47.6l11.6,6.2l25.2-47.6l16.4,8.7l5.6-10.6L240.7,659L240.7,659z M126.4,320.3l-30.8-32.6l44.7,0.1l1.1-2.6L89,237.8l0,0
		l-5.2,12.2l29.3,25.7l-41.7,0.2l-1.1,2.5l28.8,30.1l-38.9-3l-5.4,12.8l70.7,4.5L126.4,320.3z M141.9,549.4L141.9,549.4L141.9,549.4
		L141.9,549.4z M163.3,584.3l-32.5,21l12.8-53.3l-1.7-2.6l-56.2,36.3l6.8,10.5l32.5-21l-12.8,53.3l1.7,2.5l56.1-36.3L163.3,584.3z
		 M207.6,630.9l2,1.7l-22.5,69.7l-10.5-9.2l3.8-11.1l-18.2-15.9l-10.6,5.2l-10.1-8.8L207.6,630.9L207.6,630.9z M190.5,652.2
		l-14.7,7.2l-2,1l10.7,9.4l0.7-2.1L190.5,652.2z"/>
	<path class="st1" d="M531.8,247.9L531.8,247.9c-33.9-27.2-64.7,6.8-64.7,26.3c34,7.3,64.3,41.2,50.7,129.4
		c-11.1,72.1-53.6,117-80.4,117.9c16.8-24.2,31.8-51.1,41.5-81.2c9.1-28,13.4-51.5,13.4-71.2c0-27.1-7.4-47-17.6-60.2
		c-5.1-6.6-10.9-11.5-16.7-14.9c-5.8-3.3-12.6-5.1-18.2-5.1c-13.9,0-27.6,5.7-38.5,14.8c-16.4,13.7-29.1,34.9-38,59.3
		c-8.9,24.5-13.9,52.3-14,79.3c0,21.1,3.1,41.7,10,60c4.2,11.1,9.9,21.3,17.2,30.1c-4.6,4.5-9.4,8.5-14.1,11.7
		c-10.2,6.9-20.3,10.6-30.4,10.6c-4.7,0-9.5-0.8-14.4-2.6c-6.8-2.5-11.4-7-14.9-14.4c-3.4-7.4-5.3-17.7-5.3-30.1
		c0-30.7,11.1-73.3,28.2-115.6c16.2-40.2,37.7-80.3,59.5-110.7c-4.7-0.2-10.9-0.3-14.7-0.3c-58,0-100,13.4-127.9,33
		c-27.9,19.6-41.6,45.6-41.6,69.8c0,15.8,5.8,30.6,17,41.5c6.2,6.5,14.5,10.1,22.9,10.1c6.9,0,13.4-2.5,18.1-7.1
		c5.5-5.2,8.4-12.5,8-20.5c-0.3-7.6-3.5-15-9-20.8c-3.4-3.6-7.5-6.4-12-8.1c3.1-5.5,7.8-11.1,14.6-16.2c9.9-7.5,24.1-13.9,43.4-17.4
		c-12,21.1-22.1,42.1-30.2,62.6c-14.4,36.7-22.3,71.6-22.3,101.8c0,20.6,3.7,39,11.8,54.4c8.1,15.3,21,27.2,38,33.8
		c7.8,3,15.8,4.5,23.9,4.5h0c15.6,0,31.2-5.3,46-14.2c12.1-7.3,23.9-16.9,35.1-28.4c23.5,12.8,78.3,18,119.8-56
		C575.7,415.3,577.5,284.5,531.8,247.9z M404.5,495.8c-17.4-34.5-15-86,0.2-122.1h0c13-30.9,38.8-38.4,38.8,0
		C443.6,415.5,422.7,465.2,404.5,495.8z"/>
	<path class="st0" d="M108.7,442.3L90,455.8l7.1,21.9l-18.6-13.5l-18.6,13.5l7.1-21.9l-18.6-13.6h23l7.1-21.9l7.1,21.9H108.7z
		 M78.5,420.3L78.5,420.3L78.5,420.3L78.5,420.3z M716.3,420.4L716.3,420.4L716.3,420.4L716.3,420.4z M746.5,442.3h-23.1l-7.1-21.9
		l-7.1,21.9h-23.1l18.6,13.6l-7.1,21.9l18.6-13.6l18.6,13.6l-7.1-21.9L746.5,442.3z M556.6,356.2c-1,50.4-14.7,102.8-37.7,143.7
		c-27.5,49-59,58.9-80.6,59.3c-10.9,0.2-23.5-4.5-32.6-9.4c-32.2,34.7-69.2,53.7-101.7,41c-68.7-26.9-54.3-141.7,14.6-255.1
		c-51.2,4.3-77.2,27.1-83.5,49c6,0.1,12.3,2.7,17.1,7.8c8.7,9.1,9.3,22.7,1.3,30.2c-7.9,7.6-21.4,6.3-30.1-2.9
		c-39.2-38.6-3.7-131,147-131c-61.4,92.6-113.7,249.7-55.5,270.6c25.7,9.2,50.8-3.6,72.2-26.9c-62.6-63-18.6-238.4,53.3-235.9
		c22.1,0,65.9,39,31.1,141c-11.3,32.1-27.7,63.2-46.9,89.1c6.4,3.1,14.1,3.6,22.5,1.1c30.3-8.9,68.2-55.1,78.7-123.2
		c2.3-15.3,3.4-28.9,3.4-41c0-66.8-31.8-88.5-52.8-95.5c2.6-7.2,9.1-15.5,17.9-19.7c3.9-1.9,7.9-2.8,12-2.7l0,0
		c6.8,0.1,13.7,2.9,20.4,8.3C546.4,269.9,557.6,308,556.6,356.2z M431,340c-42.3,0-65.2,118.7-26.6,170.5
		C448.9,444.7,469.8,340,431,340z"/>
</g>
</svg>
